<?xml version="1.0" encoding="utf-8" standalone="no"?>
<!DOCTYPE svg PUBLIC "-//W3C//DTD SVG 1.1//EN"
  "http://www.w3.org/Graphics/SVG/1.1/DTD/svg11.dtd">
<svg xmlns:xlink="http://www.w3.org/1999/xlink" width="838.793385pt" height="448.5pt" viewBox="0 0 838.793385 448.5" xmlns="http://www.w3.org/2000/svg" version="1.1">
 <metadata>
  <rdf:RDF xmlns:dc="http://purl.org/dc/elements/1.1/" xmlns:cc="http://creativecommons.org/ns#" xmlns:rdf="http://www.w3.org/1999/02/22-rdf-syntax-ns#">
   <cc:Work>
    <dc:type rdf:resource="http://purl.org/dc/dcmitype/StillImage"/>
    <dc:date>2026-06-03T11:48:23.253859</dc:date>
    <dc:format>image/svg+xml</dc:format>
    <dc:creator>
     <cc:Agent>
      <dc:title>Matplotlib v3.10.9, https://matplotlib.org/</dc:title>
     </cc:Agent>
    </dc:creator>
   </cc:Work>
  </rdf:RDF>
 </metadata>
 <defs>
  <style type="text/css">*{stroke-linejoin: round; stroke-linecap: butt}</style>
 </defs>
 <g id="figure_1">
  <g id="patch_1">
   <path d="M 0 448.5 
L 838.793385 448.5 
L 838.793385 -0 
L 0 -0 
z
" style="fill: #ffffff"/>
  </g>
  <g id="axes_1">
   <g id="patch_2">
    <path d="M 56.571875 374.56 
L 402.440635 374.56 
L 402.440635 48.24 
L 56.571875 48.24 
z
" style="fill: #ffffff"/>
   </g>
   <g id="FillBetweenPolyCollection_1">
    <path d="M 56.571875 -3567.824174 
L 56.571875 -3567.824174 
L 69.57446 -352.643492 
L 82.577045 -68.65146 
L 95.57963 28.276671 
L 108.582215 82.824067 
L 121.5848 119.245217 
L 134.587385 143.996609 
L 147.58997 165.005496 
L 160.592555 183.185127 
L 173.59514 197.881188 
L 186.597725 214.864986 
L 199.60031 228.474017 
L 212.602895 243.308352 
L 225.60548 253.252599 
L 238.608065 265.253376 
L 251.61065 275.94245 
L 264.613235 285.89659 
L 277.615819 295.14668 
L 290.618404 304.385264 
L 303.620989 312.944584 
L 316.623574 321.640632 
L 329.626159 330.672195 
L 342.628744 339.139342 
L 355.631329 347.587782 
L 368.633914 355.883479 
L 371.234431 357.955591 
L 373.834948 359.502242 
L 376.435465 361.024944 
L 379.035982 362.553938 
L 381.636499 363.956641 
L 384.237016 365.570137 
L 386.837533 366.916788 
L 389.43805 368.260146 
L 392.038567 369.466602 
L 394.639084 370.541015 
L 397.239601 371.499385 
L 399.840118 372.322584 
L 402.440635 372.943184 
L 405.041152 373.248171 
L 405.041152 372.253071 
L 405.041152 372.253071 
L 402.440635 371.950841 
L 399.840118 371.331426 
L 397.239601 370.511538 
L 394.639084 369.538615 
L 392.038567 368.469237 
L 389.43805 367.252049 
L 386.837533 365.907053 
L 384.237016 364.551774 
L 381.636499 362.954803 
L 379.035982 361.551154 
L 376.435465 360.026315 
L 373.834948 358.531209 
L 371.234431 356.964506 
L 368.633914 354.935951 
L 355.631329 346.568444 
L 342.628744 338.170418 
L 329.626159 329.664748 
L 316.623574 320.574848 
L 303.620989 311.946175 
L 290.618404 303.40946 
L 277.615819 294.075475 
L 264.613235 284.854287 
L 251.61065 274.630888 
L 238.608065 264.138921 
L 225.60548 252.25203 
L 212.602895 241.404211 
L 199.60031 227.523953 
L 186.597725 213.870906 
L 173.59514 196.375471 
L 160.592555 181.432278 
L 147.58997 163.823742 
L 134.587385 142.447055 
L 121.5848 117.27723 
L 108.582215 80.814677 
L 95.57963 25.535292 
L 82.577045 -74.131585 
L 69.57446 -361.220438 
L 56.571875 -3567.824174 
z
" clip-path="url(#p5250a40fa2)" style="fill: #1f77b4; fill-opacity: 0.2; stroke: #1f77b4; stroke-opacity: 0.2"/>
   </g>
   <g id="FillBetweenPolyCollection_2">
    <path d="M 56.571875 -3567.824174 
L 56.571875 -3567.824174 
L 69.57446 -352.032812 
L 82.577045 -68.037917 
L 95.57963 28.75229 
L 108.582215 83.661542 
L 121.5848 114.208147 
L 134.587385 145.8991 
L 147.58997 171.619868 
L 160.592555 193.172803 
L 173.59514 210.15033 
L 186.597725 227.329467 
L 199.60031 240.849272 
L 212.602895 255.183211 
L 225.60548 265.587494 
L 238.608065 277.530836 
L 251.61065 288.141908 
L 264.613235 298.580965 
L 277.615819 308.189351 
L 290.618404 317.916033 
L 303.620989 326.915604 
L 316.623574 338.251618 
L 329.626159 347.019524 
L 342.628744 354.913957 
L 353.030812 360.870652 
L 355.631329 362.211023 
L 358.231846 363.621695 
L 360.832363 365.107162 
L 363.43288 366.361299 
L 366.033397 367.545796 
L 368.633914 368.667275 
L 371.234431 369.96056 
L 373.834948 371.049207 
L 376.435465 371.915896 
L 379.035982 372.700962 
L 381.636499 373.292062 
L 384.237016 373.590478 
L 384.237016 372.41408 
L 384.237016 372.41408 
L 381.636499 372.1152 
L 379.035982 371.531026 
L 376.435465 370.749234 
L 373.834948 369.88721 
L 371.234431 368.801782 
L 368.633914 367.523144 
L 366.033397 366.390142 
L 363.43288 365.189632 
L 360.832363 363.918313 
L 358.231846 362.422521 
L 355.631329 361.040938 
L 353.030812 359.688255 
L 342.628744 353.778911 
L 329.626159 345.928012 
L 316.623574 337.056365 
L 303.620989 325.850192 
L 290.618404 316.830635 
L 277.615819 306.993258 
L 264.613235 297.3874 
L 251.61065 286.914305 
L 238.608065 276.312489 
L 225.60548 264.512788 
L 212.602895 253.950097 
L 199.60031 239.403932 
L 186.597725 226.17594 
L 173.59514 208.955727 
L 160.592555 191.589771 
L 147.58997 170.35093 
L 134.587385 144.255736 
L 121.5848 111.905475 
L 108.582215 81.128982 
L 95.57963 25.677854 
L 82.577045 -73.499369 
L 69.57446 -361.87863 
L 56.571875 -3567.824174 
z
" clip-path="url(#p5250a40fa2)" style="fill: #ff7f0e; fill-opacity: 0.2; stroke: #ff7f0e; stroke-opacity: 0.2"/>
   </g>
   <g id="matplotlib.axis_1">
    <g id="xtick_1">
     <g id="line2d_1">
      <path d="M 56.571875 374.56 
L 56.571875 48.24 
" clip-path="url(#p5250a40fa2)" style="fill: none; stroke: #b0b0b0; stroke-opacity: 0.3; stroke-width: 0.8; stroke-linecap: square"/>
     </g>
     <g id="line2d_2">
      <defs>
       <path id="mf8e481cc8c" d="M 0 0 
L 0 3.5 
" style="stroke: #000000; stroke-width: 0.8"/>
      </defs>
      <g>
       <use xlink:href="#mf8e481cc8c" x="56.571875" y="374.56" style="stroke: #000000; stroke-width: 0.8"/>
      </g>
     </g>
     <g id="text_1">
      <!-- 0 -->
      <g transform="translate(51.8 392.957656) scale(0.15 -0.15)">
       <defs>
        <path id="DejaVuSans-30" d="M 2034 4250 
Q 1547 4250 1301 3770 
Q 1056 3291 1056 2328 
Q 1056 1369 1301 889 
Q 1547 409 2034 409 
Q 2525 409 2770 889 
Q 3016 1369 3016 2328 
Q 3016 3291 2770 3770 
Q 2525 4250 2034 4250 
z
M 2034 4750 
Q 2819 4750 3233 4129 
Q 3647 3509 3647 2328 
Q 3647 1150 3233 529 
Q 2819 -91 2034 -91 
Q 1250 -91 836 529 
Q 422 1150 422 2328 
Q 422 3509 836 4129 
Q 1250 4750 2034 4750 
z
" transform="scale(0.015625)"/>
       </defs>
       <use xlink:href="#DejaVuSans-30"/>
      </g>
     </g>
    </g>
    <g id="xtick_2">
     <g id="line2d_3">
      <path d="M 108.582215 374.56 
L 108.582215 48.24 
" clip-path="url(#p5250a40fa2)" style="fill: none; stroke: #b0b0b0; stroke-opacity: 0.3; stroke-width: 0.8; stroke-linecap: square"/>
     </g>
     <g id="line2d_4">
      <g>
       <use xlink:href="#mf8e481cc8c" x="108.582215" y="374.56" style="stroke: #000000; stroke-width: 0.8"/>
      </g>
     </g>
     <g id="text_2">
      <!-- 500 -->
      <g transform="translate(94.26659 392.957656) scale(0.15 -0.15)">
       <defs>
        <path id="DejaVuSans-35" d="M 691 4666 
L 3169 4666 
L 3169 4134 
L 1269 4134 
L 1269 2991 
Q 1406 3038 1543 3061 
Q 1681 3084 1819 3084 
Q 2600 3084 3056 2656 
Q 3513 2228 3513 1497 
Q 3513 744 3044 326 
Q 2575 -91 1722 -91 
Q 1428 -91 1123 -41 
Q 819 9 494 109 
L 494 744 
Q 775 591 1075 516 
Q 1375 441 1709 441 
Q 2250 441 2565 725 
Q 2881 1009 2881 1497 
Q 2881 1984 2565 2268 
Q 2250 2553 1709 2553 
Q 1456 2553 1204 2497 
Q 953 2441 691 2322 
L 691 4666 
z
" transform="scale(0.015625)"/>
       </defs>
       <use xlink:href="#DejaVuSans-35"/>
       <use xlink:href="#DejaVuSans-30" transform="translate(63.623047 0)"/>
       <use xlink:href="#DejaVuSans-30" transform="translate(127.246094 0)"/>
      </g>
     </g>
    </g>
    <g id="xtick_3">
     <g id="line2d_5">
      <path d="M 160.592555 374.56 
L 160.592555 48.24 
" clip-path="url(#p5250a40fa2)" style="fill: none; stroke: #b0b0b0; stroke-opacity: 0.3; stroke-width: 0.8; stroke-linecap: square"/>
     </g>
     <g id="line2d_6">
      <g>
       <use xlink:href="#mf8e481cc8c" x="160.592555" y="374.56" style="stroke: #000000; stroke-width: 0.8"/>
      </g>
     </g>
     <g id="text_3">
      <!-- 1000 -->
      <g transform="translate(141.505055 392.957656) scale(0.15 -0.15)">
       <defs>
        <path id="DejaVuSans-31" d="M 794 531 
L 1825 531 
L 1825 4091 
L 703 3866 
L 703 4441 
L 1819 4666 
L 2450 4666 
L 2450 531 
L 3481 531 
L 3481 0 
L 794 0 
L 794 531 
z
" transform="scale(0.015625)"/>
       </defs>
       <use xlink:href="#DejaVuSans-31"/>
       <use xlink:href="#DejaVuSans-30" transform="translate(63.623047 0)"/>
       <use xlink:href="#DejaVuSans-30" transform="translate(127.246094 0)"/>
       <use xlink:href="#DejaVuSans-30" transform="translate(190.869141 0)"/>
      </g>
     </g>
    </g>
    <g id="xtick_4">
     <g id="line2d_7">
      <path d="M 212.602895 374.56 
L 212.602895 48.24 
" clip-path="url(#p5250a40fa2)" style="fill: none; stroke: #b0b0b0; stroke-opacity: 0.3; stroke-width: 0.8; stroke-linecap: square"/>
     </g>
     <g id="line2d_8">
      <g>
       <use xlink:href="#mf8e481cc8c" x="212.602895" y="374.56" style="stroke: #000000; stroke-width: 0.8"/>
      </g>
     </g>
     <g id="text_4">
      <!-- 1500 -->
      <g transform="translate(193.515395 392.957656) scale(0.15 -0.15)">
       <use xlink:href="#DejaVuSans-31"/>
       <use xlink:href="#DejaVuSans-35" transform="translate(63.623047 0)"/>
       <use xlink:href="#DejaVuSans-30" transform="translate(127.246094 0)"/>
       <use xlink:href="#DejaVuSans-30" transform="translate(190.869141 0)"/>
      </g>
     </g>
    </g>
    <g id="xtick_5">
     <g id="line2d_9">
      <path d="M 264.613235 374.56 
L 264.613235 48.24 
" clip-path="url(#p5250a40fa2)" style="fill: none; stroke: #b0b0b0; stroke-opacity: 0.3; stroke-width: 0.8; stroke-linecap: square"/>
     </g>
     <g id="line2d_10">
      <g>
       <use xlink:href="#mf8e481cc8c" x="264.613235" y="374.56" style="stroke: #000000; stroke-width: 0.8"/>
      </g>
     </g>
     <g id="text_5">
      <!-- 2000 -->
      <g transform="translate(245.525735 392.957656) scale(0.15 -0.15)">
       <defs>
        <path id="DejaVuSans-32" d="M 1228 531 
L 3431 531 
L 3431 0 
L 469 0 
L 469 531 
Q 828 903 1448 1529 
Q 2069 2156 2228 2338 
Q 2531 2678 2651 2914 
Q 2772 3150 2772 3378 
Q 2772 3750 2511 3984 
Q 2250 4219 1831 4219 
Q 1534 4219 1204 4116 
Q 875 4013 500 3803 
L 500 4441 
Q 881 4594 1212 4672 
Q 1544 4750 1819 4750 
Q 2544 4750 2975 4387 
Q 3406 4025 3406 3419 
Q 3406 3131 3298 2873 
Q 3191 2616 2906 2266 
Q 2828 2175 2409 1742 
Q 1991 1309 1228 531 
z
" transform="scale(0.015625)"/>
       </defs>
       <use xlink:href="#DejaVuSans-32"/>
       <use xlink:href="#DejaVuSans-30" transform="translate(63.623047 0)"/>
       <use xlink:href="#DejaVuSans-30" transform="translate(127.246094 0)"/>
       <use xlink:href="#DejaVuSans-30" transform="translate(190.869141 0)"/>
      </g>
     </g>
    </g>
    <g id="xtick_6">
     <g id="line2d_11">
      <path d="M 316.623574 374.56 
L 316.623574 48.24 
" clip-path="url(#p5250a40fa2)" style="fill: none; stroke: #b0b0b0; stroke-opacity: 0.3; stroke-width: 0.8; stroke-linecap: square"/>
     </g>
     <g id="line2d_12">
      <g>
       <use xlink:href="#mf8e481cc8c" x="316.623574" y="374.56" style="stroke: #000000; stroke-width: 0.8"/>
      </g>
     </g>
     <g id="text_6">
      <!-- 2500 -->
      <g transform="translate(297.536074 392.957656) scale(0.15 -0.15)">
       <use xlink:href="#DejaVuSans-32"/>
       <use xlink:href="#DejaVuSans-35" transform="translate(63.623047 0)"/>
       <use xlink:href="#DejaVuSans-30" transform="translate(127.246094 0)"/>
       <use xlink:href="#DejaVuSans-30" transform="translate(190.869141 0)"/>
      </g>
     </g>
    </g>
    <g id="xtick_7">
     <g id="line2d_13">
      <path d="M 368.633914 374.56 
L 368.633914 48.24 
" clip-path="url(#p5250a40fa2)" style="fill: none; stroke: #b0b0b0; stroke-opacity: 0.3; stroke-width: 0.8; stroke-linecap: square"/>
     </g>
     <g id="line2d_14">
      <g>
       <use xlink:href="#mf8e481cc8c" x="368.633914" y="374.56" style="stroke: #000000; stroke-width: 0.8"/>
      </g>
     </g>
     <g id="text_7">
      <!-- 3000 -->
      <g transform="translate(349.546414 392.957656) scale(0.15 -0.15)">
       <defs>
        <path id="DejaVuSans-33" d="M 2597 2516 
Q 3050 2419 3304 2112 
Q 3559 1806 3559 1356 
Q 3559 666 3084 287 
Q 2609 -91 1734 -91 
Q 1441 -91 1130 -33 
Q 819 25 488 141 
L 488 750 
Q 750 597 1062 519 
Q 1375 441 1716 441 
Q 2309 441 2620 675 
Q 2931 909 2931 1356 
Q 2931 1769 2642 2001 
Q 2353 2234 1838 2234 
L 1294 2234 
L 1294 2753 
L 1863 2753 
Q 2328 2753 2575 2939 
Q 2822 3125 2822 3475 
Q 2822 3834 2567 4026 
Q 2313 4219 1838 4219 
Q 1578 4219 1281 4162 
Q 984 4106 628 3988 
L 628 4550 
Q 988 4650 1302 4700 
Q 1616 4750 1894 4750 
Q 2613 4750 3031 4423 
Q 3450 4097 3450 3541 
Q 3450 3153 3228 2886 
Q 3006 2619 2597 2516 
z
" transform="scale(0.015625)"/>
       </defs>
       <use xlink:href="#DejaVuSans-33"/>
       <use xlink:href="#DejaVuSans-30" transform="translate(63.623047 0)"/>
       <use xlink:href="#DejaVuSans-30" transform="translate(127.246094 0)"/>
       <use xlink:href="#DejaVuSans-30" transform="translate(190.869141 0)"/>
      </g>
     </g>
    </g>
    <g id="text_8">
     <!-- Iterations -->
     <g transform="translate(193.786333 411.474844) scale(0.15 -0.15)">
      <defs>
       <path id="DejaVuSans-49" d="M 628 4666 
L 1259 4666 
L 1259 0 
L 628 0 
L 628 4666 
z
" transform="scale(0.015625)"/>
       <path id="DejaVuSans-74" d="M 1172 4494 
L 1172 3500 
L 2356 3500 
L 2356 3053 
L 1172 3053 
L 1172 1153 
Q 1172 725 1289 603 
Q 1406 481 1766 481 
L 2356 481 
L 2356 0 
L 1766 0 
Q 1100 0 847 248 
Q 594 497 594 1153 
L 594 3053 
L 172 3053 
L 172 3500 
L 594 3500 
L 594 4494 
L 1172 4494 
z
" transform="scale(0.015625)"/>
       <path id="DejaVuSans-65" d="M 3597 1894 
L 3597 1613 
L 953 1613 
Q 991 1019 1311 708 
Q 1631 397 2203 397 
Q 2534 397 2845 478 
Q 3156 559 3463 722 
L 3463 178 
Q 3153 47 2828 -22 
Q 2503 -91 2169 -91 
Q 1331 -91 842 396 
Q 353 884 353 1716 
Q 353 2575 817 3079 
Q 1281 3584 2069 3584 
Q 2775 3584 3186 3129 
Q 3597 2675 3597 1894 
z
M 3022 2063 
Q 3016 2534 2758 2815 
Q 2500 3097 2075 3097 
Q 1594 3097 1305 2825 
Q 1016 2553 972 2059 
L 3022 2063 
z
" transform="scale(0.015625)"/>
       <path id="DejaVuSans-72" d="M 2631 2963 
Q 2534 3019 2420 3045 
Q 2306 3072 2169 3072 
Q 1681 3072 1420 2755 
Q 1159 2438 1159 1844 
L 1159 0 
L 581 0 
L 581 3500 
L 1159 3500 
L 1159 2956 
Q 1341 3275 1631 3429 
Q 1922 3584 2338 3584 
Q 2397 3584 2469 3576 
Q 2541 3569 2628 3553 
L 2631 2963 
z
" transform="scale(0.015625)"/>
       <path id="DejaVuSans-61" d="M 2194 1759 
Q 1497 1759 1228 1600 
Q 959 1441 959 1056 
Q 959 750 1161 570 
Q 1363 391 1709 391 
Q 2188 391 2477 730 
Q 2766 1069 2766 1631 
L 2766 1759 
L 2194 1759 
z
M 3341 1997 
L 3341 0 
L 2766 0 
L 2766 531 
Q 2569 213 2275 61 
Q 1981 -91 1556 -91 
Q 1019 -91 701 211 
Q 384 513 384 1019 
Q 384 1609 779 1909 
Q 1175 2209 1959 2209 
L 2766 2209 
L 2766 2266 
Q 2766 2663 2505 2880 
Q 2244 3097 1772 3097 
Q 1472 3097 1187 3025 
Q 903 2953 641 2809 
L 641 3341 
Q 956 3463 1253 3523 
Q 1550 3584 1831 3584 
Q 2591 3584 2966 3190 
Q 3341 2797 3341 1997 
z
" transform="scale(0.015625)"/>
       <path id="DejaVuSans-69" d="M 603 3500 
L 1178 3500 
L 1178 0 
L 603 0 
L 603 3500 
z
M 603 4863 
L 1178 4863 
L 1178 4134 
L 603 4134 
L 603 4863 
z
" transform="scale(0.015625)"/>
       <path id="DejaVuSans-6f" d="M 1959 3097 
Q 1497 3097 1228 2736 
Q 959 2375 959 1747 
Q 959 1119 1226 758 
Q 1494 397 1959 397 
Q 2419 397 2687 759 
Q 2956 1122 2956 1747 
Q 2956 2369 2687 2733 
Q 2419 3097 1959 3097 
z
M 1959 3584 
Q 2709 3584 3137 3096 
Q 3566 2609 3566 1747 
Q 3566 888 3137 398 
Q 2709 -91 1959 -91 
Q 1206 -91 779 398 
Q 353 888 353 1747 
Q 353 2609 779 3096 
Q 1206 3584 1959 3584 
z
" transform="scale(0.015625)"/>
       <path id="DejaVuSans-6e" d="M 3513 2113 
L 3513 0 
L 2938 0 
L 2938 2094 
Q 2938 2591 2744 2837 
Q 2550 3084 2163 3084 
Q 1697 3084 1428 2787 
Q 1159 2491 1159 1978 
L 1159 0 
L 581 0 
L 581 3500 
L 1159 3500 
L 1159 2956 
Q 1366 3272 1645 3428 
Q 1925 3584 2291 3584 
Q 2894 3584 3203 3211 
Q 3513 2838 3513 2113 
z
" transform="scale(0.015625)"/>
       <path id="DejaVuSans-73" d="M 2834 3397 
L 2834 2853 
Q 2591 2978 2328 3040 
Q 2066 3103 1784 3103 
Q 1356 3103 1142 2972 
Q 928 2841 928 2578 
Q 928 2378 1081 2264 
Q 1234 2150 1697 2047 
L 1894 2003 
Q 2506 1872 2764 1633 
Q 3022 1394 3022 966 
Q 3022 478 2636 193 
Q 2250 -91 1575 -91 
Q 1294 -91 989 -36 
Q 684 19 347 128 
L 347 722 
Q 666 556 975 473 
Q 1284 391 1588 391 
Q 1994 391 2212 530 
Q 2431 669 2431 922 
Q 2431 1156 2273 1281 
Q 2116 1406 1581 1522 
L 1381 1569 
Q 847 1681 609 1914 
Q 372 2147 372 2553 
Q 372 3047 722 3315 
Q 1072 3584 1716 3584 
Q 2034 3584 2315 3537 
Q 2597 3491 2834 3397 
z
" transform="scale(0.015625)"/>
      </defs>
      <use xlink:href="#DejaVuSans-49"/>
      <use xlink:href="#DejaVuSans-74" transform="translate(29.492188 0)"/>
      <use xlink:href="#DejaVuSans-65" transform="translate(68.701172 0)"/>
      <use xlink:href="#DejaVuSans-72" transform="translate(130.224609 0)"/>
      <use xlink:href="#DejaVuSans-61" transform="translate(171.337891 0)"/>
      <use xlink:href="#DejaVuSans-74" transform="translate(232.617188 0)"/>
      <use xlink:href="#DejaVuSans-69" transform="translate(271.826172 0)"/>
      <use xlink:href="#DejaVuSans-6f" transform="translate(299.609375 0)"/>
      <use xlink:href="#DejaVuSans-6e" transform="translate(360.791016 0)"/>
      <use xlink:href="#DejaVuSans-73" transform="translate(424.169922 0)"/>
     </g>
    </g>
   </g>
   <g id="matplotlib.axis_2">
    <g id="ytick_1">
     <g id="line2d_15">
      <path d="M 56.571875 361.5072 
L 402.440635 361.5072 
" clip-path="url(#p5250a40fa2)" style="fill: none; stroke: #b0b0b0; stroke-opacity: 0.3; stroke-width: 0.8; stroke-linecap: square"/>
     </g>
     <g id="line2d_16">
      <defs>
       <path id="m388ea074fc" d="M 0 0 
L -3.5 0 
" style="stroke: #000000; stroke-width: 0.8"/>
      </defs>
      <g>
       <use xlink:href="#m388ea074fc" x="56.571875" y="361.5072" style="stroke: #000000; stroke-width: 0.8"/>
      </g>
     </g>
     <g id="text_9">
      <!-- 3.3 -->
      <g transform="translate(25.717188 367.206028) scale(0.15 -0.15)">
       <defs>
        <path id="DejaVuSans-2e" d="M 684 794 
L 1344 794 
L 1344 0 
L 684 0 
L 684 794 
z
" transform="scale(0.015625)"/>
       </defs>
       <use xlink:href="#DejaVuSans-33"/>
       <use xlink:href="#DejaVuSans-2e" transform="translate(63.623047 0)"/>
       <use xlink:href="#DejaVuSans-33" transform="translate(95.410156 0)"/>
      </g>
     </g>
    </g>
    <g id="ytick_2">
     <g id="line2d_17">
      <path d="M 56.571875 309.296 
L 402.440635 309.296 
" clip-path="url(#p5250a40fa2)" style="fill: none; stroke: #b0b0b0; stroke-opacity: 0.3; stroke-width: 0.8; stroke-linecap: square"/>
     </g>
     <g id="line2d_18">
      <g>
       <use xlink:href="#m388ea074fc" x="56.571875" y="309.296" style="stroke: #000000; stroke-width: 0.8"/>
      </g>
     </g>
     <g id="text_10">
      <!-- 3.4 -->
      <g transform="translate(25.717188 314.994828) scale(0.15 -0.15)">
       <defs>
        <path id="DejaVuSans-34" d="M 2419 4116 
L 825 1625 
L 2419 1625 
L 2419 4116 
z
M 2253 4666 
L 3047 4666 
L 3047 1625 
L 3713 1625 
L 3713 1100 
L 3047 1100 
L 3047 0 
L 2419 0 
L 2419 1100 
L 313 1100 
L 313 1709 
L 2253 4666 
z
" transform="scale(0.015625)"/>
       </defs>
       <use xlink:href="#DejaVuSans-33"/>
       <use xlink:href="#DejaVuSans-2e" transform="translate(63.623047 0)"/>
       <use xlink:href="#DejaVuSans-34" transform="translate(95.410156 0)"/>
      </g>
     </g>
    </g>
    <g id="ytick_3">
     <g id="line2d_19">
      <path d="M 56.571875 257.0848 
L 402.440635 257.0848 
" clip-path="url(#p5250a40fa2)" style="fill: none; stroke: #b0b0b0; stroke-opacity: 0.3; stroke-width: 0.8; stroke-linecap: square"/>
     </g>
     <g id="line2d_20">
      <g>
       <use xlink:href="#m388ea074fc" x="56.571875" y="257.0848" style="stroke: #000000; stroke-width: 0.8"/>
      </g>
     </g>
     <g id="text_11">
      <!-- 3.5 -->
      <g transform="translate(25.717188 262.783628) scale(0.15 -0.15)">
       <use xlink:href="#DejaVuSans-33"/>
       <use xlink:href="#DejaVuSans-2e" transform="translate(63.623047 0)"/>
       <use xlink:href="#DejaVuSans-35" transform="translate(95.410156 0)"/>
      </g>
     </g>
    </g>
    <g id="ytick_4">
     <g id="line2d_21">
      <path d="M 56.571875 204.8736 
L 402.440635 204.8736 
" clip-path="url(#p5250a40fa2)" style="fill: none; stroke: #b0b0b0; stroke-opacity: 0.3; stroke-width: 0.8; stroke-linecap: square"/>
     </g>
     <g id="line2d_22">
      <g>
       <use xlink:href="#m388ea074fc" x="56.571875" y="204.8736" style="stroke: #000000; stroke-width: 0.8"/>
      </g>
     </g>
     <g id="text_12">
      <!-- 3.6 -->
      <g transform="translate(25.717188 210.572428) scale(0.15 -0.15)">
       <defs>
        <path id="DejaVuSans-36" d="M 2113 2584 
Q 1688 2584 1439 2293 
Q 1191 2003 1191 1497 
Q 1191 994 1439 701 
Q 1688 409 2113 409 
Q 2538 409 2786 701 
Q 3034 994 3034 1497 
Q 3034 2003 2786 2293 
Q 2538 2584 2113 2584 
z
M 3366 4563 
L 3366 3988 
Q 3128 4100 2886 4159 
Q 2644 4219 2406 4219 
Q 1781 4219 1451 3797 
Q 1122 3375 1075 2522 
Q 1259 2794 1537 2939 
Q 1816 3084 2150 3084 
Q 2853 3084 3261 2657 
Q 3669 2231 3669 1497 
Q 3669 778 3244 343 
Q 2819 -91 2113 -91 
Q 1303 -91 875 529 
Q 447 1150 447 2328 
Q 447 3434 972 4092 
Q 1497 4750 2381 4750 
Q 2619 4750 2861 4703 
Q 3103 4656 3366 4563 
z
" transform="scale(0.015625)"/>
       </defs>
       <use xlink:href="#DejaVuSans-33"/>
       <use xlink:href="#DejaVuSans-2e" transform="translate(63.623047 0)"/>
       <use xlink:href="#DejaVuSans-36" transform="translate(95.410156 0)"/>
      </g>
     </g>
    </g>
    <g id="ytick_5">
     <g id="line2d_23">
      <path d="M 56.571875 152.6624 
L 402.440635 152.6624 
" clip-path="url(#p5250a40fa2)" style="fill: none; stroke: #b0b0b0; stroke-opacity: 0.3; stroke-width: 0.8; stroke-linecap: square"/>
     </g>
     <g id="line2d_24">
      <g>
       <use xlink:href="#m388ea074fc" x="56.571875" y="152.6624" style="stroke: #000000; stroke-width: 0.8"/>
      </g>
     </g>
     <g id="text_13">
      <!-- 3.7 -->
      <g transform="translate(25.717188 158.361228) scale(0.15 -0.15)">
       <defs>
        <path id="DejaVuSans-37" d="M 525 4666 
L 3525 4666 
L 3525 4397 
L 1831 0 
L 1172 0 
L 2766 4134 
L 525 4134 
L 525 4666 
z
" transform="scale(0.015625)"/>
       </defs>
       <use xlink:href="#DejaVuSans-33"/>
       <use xlink:href="#DejaVuSans-2e" transform="translate(63.623047 0)"/>
       <use xlink:href="#DejaVuSans-37" transform="translate(95.410156 0)"/>
      </g>
     </g>
    </g>
    <g id="ytick_6">
     <g id="line2d_25">
      <path d="M 56.571875 100.4512 
L 402.440635 100.4512 
" clip-path="url(#p5250a40fa2)" style="fill: none; stroke: #b0b0b0; stroke-opacity: 0.3; stroke-width: 0.8; stroke-linecap: square"/>
     </g>
     <g id="line2d_26">
      <g>
       <use xlink:href="#m388ea074fc" x="56.571875" y="100.4512" style="stroke: #000000; stroke-width: 0.8"/>
      </g>
     </g>
     <g id="text_14">
      <!-- 3.8 -->
      <g transform="translate(25.717188 106.150028) scale(0.15 -0.15)">
       <defs>
        <path id="DejaVuSans-38" d="M 2034 2216 
Q 1584 2216 1326 1975 
Q 1069 1734 1069 1313 
Q 1069 891 1326 650 
Q 1584 409 2034 409 
Q 2484 409 2743 651 
Q 3003 894 3003 1313 
Q 3003 1734 2745 1975 
Q 2488 2216 2034 2216 
z
M 1403 2484 
Q 997 2584 770 2862 
Q 544 3141 544 3541 
Q 544 4100 942 4425 
Q 1341 4750 2034 4750 
Q 2731 4750 3128 4425 
Q 3525 4100 3525 3541 
Q 3525 3141 3298 2862 
Q 3072 2584 2669 2484 
Q 3125 2378 3379 2068 
Q 3634 1759 3634 1313 
Q 3634 634 3220 271 
Q 2806 -91 2034 -91 
Q 1263 -91 848 271 
Q 434 634 434 1313 
Q 434 1759 690 2068 
Q 947 2378 1403 2484 
z
M 1172 3481 
Q 1172 3119 1398 2916 
Q 1625 2713 2034 2713 
Q 2441 2713 2670 2916 
Q 2900 3119 2900 3481 
Q 2900 3844 2670 4047 
Q 2441 4250 2034 4250 
Q 1625 4250 1398 4047 
Q 1172 3844 1172 3481 
z
" transform="scale(0.015625)"/>
       </defs>
       <use xlink:href="#DejaVuSans-33"/>
       <use xlink:href="#DejaVuSans-2e" transform="translate(63.623047 0)"/>
       <use xlink:href="#DejaVuSans-38" transform="translate(95.410156 0)"/>
      </g>
     </g>
    </g>
    <g id="ytick_7">
     <g id="line2d_27">
      <path d="M 56.571875 48.24 
L 402.440635 48.24 
" clip-path="url(#p5250a40fa2)" style="fill: none; stroke: #b0b0b0; stroke-opacity: 0.3; stroke-width: 0.8; stroke-linecap: square"/>
     </g>
     <g id="line2d_28">
      <g>
       <use xlink:href="#m388ea074fc" x="56.571875" y="48.24" style="stroke: #000000; stroke-width: 0.8"/>
      </g>
     </g>
     <g id="text_15">
      <!-- 3.9 -->
      <g transform="translate(25.717188 53.938828) scale(0.15 -0.15)">
       <defs>
        <path id="DejaVuSans-39" d="M 703 97 
L 703 672 
Q 941 559 1184 500 
Q 1428 441 1663 441 
Q 2288 441 2617 861 
Q 2947 1281 2994 2138 
Q 2813 1869 2534 1725 
Q 2256 1581 1919 1581 
Q 1219 1581 811 2004 
Q 403 2428 403 3163 
Q 403 3881 828 4315 
Q 1253 4750 1959 4750 
Q 2769 4750 3195 4129 
Q 3622 3509 3622 2328 
Q 3622 1225 3098 567 
Q 2575 -91 1691 -91 
Q 1453 -91 1209 -44 
Q 966 3 703 97 
z
M 1959 2075 
Q 2384 2075 2632 2365 
Q 2881 2656 2881 3163 
Q 2881 3666 2632 3958 
Q 2384 4250 1959 4250 
Q 1534 4250 1286 3958 
Q 1038 3666 1038 3163 
Q 1038 2656 1286 2365 
Q 1534 2075 1959 2075 
z
" transform="scale(0.015625)"/>
       </defs>
       <use xlink:href="#DejaVuSans-33"/>
       <use xlink:href="#DejaVuSans-2e" transform="translate(63.623047 0)"/>
       <use xlink:href="#DejaVuSans-39" transform="translate(95.410156 0)"/>
      </g>
     </g>
    </g>
    <g id="text_16">
     <!-- Validation Loss -->
     <g transform="translate(18.597656 267.270312) rotate(-90) scale(0.15 -0.15)">
      <defs>
       <path id="DejaVuSans-56" d="M 1831 0 
L 50 4666 
L 709 4666 
L 2188 738 
L 3669 4666 
L 4325 4666 
L 2547 0 
L 1831 0 
z
" transform="scale(0.015625)"/>
       <path id="DejaVuSans-6c" d="M 603 4863 
L 1178 4863 
L 1178 0 
L 603 0 
L 603 4863 
z
" transform="scale(0.015625)"/>
       <path id="DejaVuSans-64" d="M 2906 2969 
L 2906 4863 
L 3481 4863 
L 3481 0 
L 2906 0 
L 2906 525 
Q 2725 213 2448 61 
Q 2172 -91 1784 -91 
Q 1150 -91 751 415 
Q 353 922 353 1747 
Q 353 2572 751 3078 
Q 1150 3584 1784 3584 
Q 2172 3584 2448 3432 
Q 2725 3281 2906 2969 
z
M 947 1747 
Q 947 1113 1208 752 
Q 1469 391 1925 391 
Q 2381 391 2643 752 
Q 2906 1113 2906 1747 
Q 2906 2381 2643 2742 
Q 2381 3103 1925 3103 
Q 1469 3103 1208 2742 
Q 947 2381 947 1747 
z
" transform="scale(0.015625)"/>
       <path id="DejaVuSans-20" transform="scale(0.015625)"/>
       <path id="DejaVuSans-4c" d="M 628 4666 
L 1259 4666 
L 1259 531 
L 3531 531 
L 3531 0 
L 628 0 
L 628 4666 
z
" transform="scale(0.015625)"/>
      </defs>
      <use xlink:href="#DejaVuSans-56"/>
      <use xlink:href="#DejaVuSans-61" transform="translate(60.658203 0)"/>
      <use xlink:href="#DejaVuSans-6c" transform="translate(121.9375 0)"/>
      <use xlink:href="#DejaVuSans-69" transform="translate(149.720703 0)"/>
      <use xlink:href="#DejaVuSans-64" transform="translate(177.503906 0)"/>
      <use xlink:href="#DejaVuSans-61" transform="translate(240.980469 0)"/>
      <use xlink:href="#DejaVuSans-74" transform="translate(302.259766 0)"/>
      <use xlink:href="#DejaVuSans-69" transform="translate(341.46875 0)"/>
      <use xlink:href="#DejaVuSans-6f" transform="translate(369.251953 0)"/>
      <use xlink:href="#DejaVuSans-6e" transform="translate(430.433594 0)"/>
      <use xlink:href="#DejaVuSans-20" transform="translate(493.8125 0)"/>
      <use xlink:href="#DejaVuSans-4c" transform="translate(525.599609 0)"/>
      <use xlink:href="#DejaVuSans-6f" transform="translate(579.5625 0)"/>
      <use xlink:href="#DejaVuSans-73" transform="translate(640.744141 0)"/>
      <use xlink:href="#DejaVuSans-73" transform="translate(692.84375 0)"/>
     </g>
    </g>
   </g>
   <g id="line2d_29">
    <path d="M 91.888286 -1 
L 95.57963 26.905982 
L 108.582215 81.819372 
L 121.5848 118.261223 
L 134.587385 143.221832 
L 147.58997 164.414619 
L 160.592555 182.308703 
L 173.59514 197.12833 
L 186.597725 214.367946 
L 199.60031 227.998985 
L 212.602895 242.356282 
L 225.60548 252.752315 
L 238.608065 264.696149 
L 251.61065 275.286669 
L 264.613235 285.375439 
L 277.615819 294.611078 
L 290.618404 303.897362 
L 303.620989 312.44538 
L 316.623574 321.10774 
L 329.626159 330.168471 
L 342.628744 338.65488 
L 355.631329 347.078113 
L 368.633914 355.409715 
L 371.234431 357.460049 
L 373.834948 359.016726 
L 376.435465 360.525629 
L 379.035982 362.052546 
L 381.636499 363.455722 
L 384.237016 365.060955 
L 386.837533 366.41192 
L 389.43805 367.756097 
L 392.038567 368.967919 
L 394.639084 370.039815 
L 397.239601 371.005462 
L 399.840118 371.827005 
L 402.440635 372.447013 
L 405.041152 372.750621 
" clip-path="url(#p5250a40fa2)" style="fill: none; stroke-dasharray: 3.7,1.6; stroke-dashoffset: 0; stroke: #1f77b4"/>
   </g>
   <g id="line2d_30">
    <path d="M 91.835448 -1 
L 95.57963 27.215072 
L 108.582215 82.395262 
L 121.5848 113.056811 
L 134.587385 145.077418 
L 147.58997 170.985399 
L 160.592555 192.381287 
L 173.59514 209.553029 
L 186.597725 226.752703 
L 199.60031 240.126602 
L 212.602895 254.566654 
L 225.60548 265.050141 
L 238.608065 276.921662 
L 251.61065 287.528106 
L 264.613235 297.984182 
L 277.615819 307.591304 
L 290.618404 317.373334 
L 303.620989 326.382898 
L 316.623574 337.653991 
L 329.626159 346.473768 
L 342.628744 354.346434 
L 353.030812 360.279454 
L 355.631329 361.62598 
L 358.231846 363.022108 
L 360.832363 364.512738 
L 363.43288 365.775466 
L 366.033397 366.967969 
L 368.633914 368.095209 
L 371.234431 369.381171 
L 373.834948 370.468208 
L 376.435465 371.332565 
L 379.035982 372.115994 
L 381.636499 372.703631 
L 384.237016 373.002279 
" clip-path="url(#p5250a40fa2)" style="fill: none; stroke: #ff7f0e; stroke-linecap: square"/>
   </g>
   <g id="patch_3">
    <path d="M 56.571875 374.56 
L 56.571875 48.24 
" style="fill: none; stroke: #000000; stroke-width: 0.8; stroke-linejoin: miter; stroke-linecap: square"/>
   </g>
   <g id="patch_4">
    <path d="M 402.440635 374.56 
L 402.440635 48.24 
" style="fill: none; stroke: #000000; stroke-width: 0.8; stroke-linejoin: miter; stroke-linecap: square"/>
   </g>
   <g id="patch_5">
    <path d="M 56.571875 374.56 
L 402.440635 374.56 
" style="fill: none; stroke: #000000; stroke-width: 0.8; stroke-linejoin: miter; stroke-linecap: square"/>
   </g>
   <g id="patch_6">
    <path d="M 56.571875 48.24 
L 402.440635 48.24 
" style="fill: none; stroke: #000000; stroke-width: 0.8; stroke-linejoin: miter; stroke-linecap: square"/>
   </g>
   <g id="legend_1">
    <g id="patch_7">
     <path d="M 75.067979 104.274375 
L 391.940635 104.274375 
Q 394.940635 104.274375 394.940635 101.274375 
L 394.940635 58.74 
Q 394.940635 55.74 391.940635 55.74 
L 75.067979 55.74 
Q 72.067979 55.74 72.067979 58.74 
L 72.067979 101.274375 
Q 72.067979 104.274375 75.067979 104.274375 
z
" style="fill: #ffffff; opacity: 0.8; stroke: #cccccc; stroke-linejoin: miter"/>
    </g>
    <g id="line2d_31">
     <path d="M 78.067979 67.887656 
L 93.067979 67.887656 
L 108.067979 67.887656 
" style="fill: none; stroke-dasharray: 7.4,3.2; stroke-dashoffset: 0; stroke: #1f77b4; stroke-width: 2"/>
    </g>
    <g id="text_17">
     <!-- Muon @ entry #12 -->
     <g transform="translate(120.067979 73.137656) scale(0.15 -0.15)">
      <defs>
       <path id="DejaVuSans-4d" d="M 628 4666 
L 1569 4666 
L 2759 1491 
L 3956 4666 
L 4897 4666 
L 4897 0 
L 4281 0 
L 4281 4097 
L 3078 897 
L 2444 897 
L 1241 4097 
L 1241 0 
L 628 0 
L 628 4666 
z
" transform="scale(0.015625)"/>
       <path id="DejaVuSans-75" d="M 544 1381 
L 544 3500 
L 1119 3500 
L 1119 1403 
Q 1119 906 1312 657 
Q 1506 409 1894 409 
Q 2359 409 2629 706 
Q 2900 1003 2900 1516 
L 2900 3500 
L 3475 3500 
L 3475 0 
L 2900 0 
L 2900 538 
Q 2691 219 2414 64 
Q 2138 -91 1772 -91 
Q 1169 -91 856 284 
Q 544 659 544 1381 
z
M 1991 3584 
L 1991 3584 
z
" transform="scale(0.015625)"/>
       <path id="DejaVuSans-40" d="M 2381 1678 
Q 2381 1231 2603 976 
Q 2825 722 3213 722 
Q 3597 722 3817 978 
Q 4038 1234 4038 1678 
Q 4038 2116 3813 2373 
Q 3588 2631 3206 2631 
Q 2828 2631 2604 2375 
Q 2381 2119 2381 1678 
z
M 4084 744 
Q 3897 503 3655 389 
Q 3413 275 3091 275 
Q 2553 275 2217 664 
Q 1881 1053 1881 1678 
Q 1881 2303 2218 2693 
Q 2556 3084 3091 3084 
Q 3413 3084 3656 2967 
Q 3900 2850 4084 2613 
L 4084 3022 
L 4531 3022 
L 4531 722 
Q 4988 791 5245 1139 
Q 5503 1488 5503 2041 
Q 5503 2375 5404 2669 
Q 5306 2963 5106 3213 
Q 4781 3622 4314 3839 
Q 3847 4056 3297 4056 
Q 2913 4056 2559 3954 
Q 2206 3853 1906 3653 
Q 1416 3334 1139 2817 
Q 863 2300 863 1697 
Q 863 1200 1042 765 
Q 1222 331 1563 0 
Q 1891 -325 2322 -495 
Q 2753 -666 3244 -666 
Q 3647 -666 4036 -530 
Q 4425 -394 4750 -141 
L 5031 -488 
Q 4641 -791 4180 -952 
Q 3719 -1113 3244 -1113 
Q 2666 -1113 2153 -908 
Q 1641 -703 1241 -313 
Q 841 78 631 592 
Q 422 1106 422 1697 
Q 422 2266 634 2781 
Q 847 3297 1241 3688 
Q 1644 4084 2172 4295 
Q 2700 4506 3291 4506 
Q 3953 4506 4520 4234 
Q 5088 3963 5472 3463 
Q 5706 3156 5829 2797 
Q 5953 2438 5953 2053 
Q 5953 1231 5456 756 
Q 4959 281 4084 263 
L 4084 744 
z
" transform="scale(0.015625)"/>
       <path id="DejaVuSans-79" d="M 2059 -325 
Q 1816 -950 1584 -1140 
Q 1353 -1331 966 -1331 
L 506 -1331 
L 506 -850 
L 844 -850 
Q 1081 -850 1212 -737 
Q 1344 -625 1503 -206 
L 1606 56 
L 191 3500 
L 800 3500 
L 1894 763 
L 2988 3500 
L 3597 3500 
L 2059 -325 
z
" transform="scale(0.015625)"/>
       <path id="DejaVuSans-23" d="M 3272 2816 
L 2363 2816 
L 2100 1772 
L 3016 1772 
L 3272 2816 
z
M 2803 4594 
L 2478 3297 
L 3391 3297 
L 3719 4594 
L 4219 4594 
L 3897 3297 
L 4872 3297 
L 4872 2816 
L 3775 2816 
L 3519 1772 
L 4513 1772 
L 4513 1294 
L 3397 1294 
L 3072 0 
L 2572 0 
L 2894 1294 
L 1978 1294 
L 1656 0 
L 1153 0 
L 1478 1294 
L 494 1294 
L 494 1772 
L 1594 1772 
L 1856 2816 
L 850 2816 
L 850 3297 
L 1978 3297 
L 2297 4594 
L 2803 4594 
z
" transform="scale(0.015625)"/>
      </defs>
      <use xlink:href="#DejaVuSans-4d"/>
      <use xlink:href="#DejaVuSans-75" transform="translate(86.279297 0)"/>
      <use xlink:href="#DejaVuSans-6f" transform="translate(149.658203 0)"/>
      <use xlink:href="#DejaVuSans-6e" transform="translate(210.839844 0)"/>
      <use xlink:href="#DejaVuSans-20" transform="translate(274.21875 0)"/>
      <use xlink:href="#DejaVuSans-40" transform="translate(306.005859 0)"/>
      <use xlink:href="#DejaVuSans-20" transform="translate(406.005859 0)"/>
      <use xlink:href="#DejaVuSans-65" transform="translate(437.792969 0)"/>
      <use xlink:href="#DejaVuSans-6e" transform="translate(499.316406 0)"/>
      <use xlink:href="#DejaVuSans-74" transform="translate(562.695312 0)"/>
      <use xlink:href="#DejaVuSans-72" transform="translate(601.904297 0)"/>
      <use xlink:href="#DejaVuSans-79" transform="translate(643.017578 0)"/>
      <use xlink:href="#DejaVuSans-20" transform="translate(702.197266 0)"/>
      <use xlink:href="#DejaVuSans-23" transform="translate(733.984375 0)"/>
      <use xlink:href="#DejaVuSans-31" transform="translate(817.773438 0)"/>
      <use xlink:href="#DejaVuSans-32" transform="translate(881.396484 0)"/>
     </g>
    </g>
    <g id="line2d_32">
     <path d="M 78.067979 89.904844 
L 93.067979 89.904844 
L 108.067979 89.904844 
" style="fill: none; stroke: #ff7f0e; stroke-width: 2; stroke-linecap: square"/>
    </g>
    <g id="text_18">
     <!-- EMA-Nesterov + Muon @ entry #12 -->
     <g transform="translate(120.067979 95.154844) scale(0.15 -0.15)">
      <defs>
       <path id="DejaVuSans-45" d="M 628 4666 
L 3578 4666 
L 3578 4134 
L 1259 4134 
L 1259 2753 
L 3481 2753 
L 3481 2222 
L 1259 2222 
L 1259 531 
L 3634 531 
L 3634 0 
L 628 0 
L 628 4666 
z
" transform="scale(0.015625)"/>
       <path id="DejaVuSans-41" d="M 2188 4044 
L 1331 1722 
L 3047 1722 
L 2188 4044 
z
M 1831 4666 
L 2547 4666 
L 4325 0 
L 3669 0 
L 3244 1197 
L 1141 1197 
L 716 0 
L 50 0 
L 1831 4666 
z
" transform="scale(0.015625)"/>
       <path id="DejaVuSans-2d" d="M 313 2009 
L 1997 2009 
L 1997 1497 
L 313 1497 
L 313 2009 
z
" transform="scale(0.015625)"/>
       <path id="DejaVuSans-4e" d="M 628 4666 
L 1478 4666 
L 3547 763 
L 3547 4666 
L 4159 4666 
L 4159 0 
L 3309 0 
L 1241 3903 
L 1241 0 
L 628 0 
L 628 4666 
z
" transform="scale(0.015625)"/>
       <path id="DejaVuSans-76" d="M 191 3500 
L 800 3500 
L 1894 563 
L 2988 3500 
L 3597 3500 
L 2284 0 
L 1503 0 
L 191 3500 
z
" transform="scale(0.015625)"/>
       <path id="DejaVuSans-2b" d="M 2944 4013 
L 2944 2272 
L 4684 2272 
L 4684 1741 
L 2944 1741 
L 2944 0 
L 2419 0 
L 2419 1741 
L 678 1741 
L 678 2272 
L 2419 2272 
L 2419 4013 
L 2944 4013 
z
" transform="scale(0.015625)"/>
      </defs>
      <use xlink:href="#DejaVuSans-45"/>
      <use xlink:href="#DejaVuSans-4d" transform="translate(63.183594 0)"/>
      <use xlink:href="#DejaVuSans-41" transform="translate(149.462891 0)"/>
      <use xlink:href="#DejaVuSans-2d" transform="translate(215.621094 0)"/>
      <use xlink:href="#DejaVuSans-4e" transform="translate(251.705078 0)"/>
      <use xlink:href="#DejaVuSans-65" transform="translate(326.509766 0)"/>
      <use xlink:href="#DejaVuSans-73" transform="translate(388.033203 0)"/>
      <use xlink:href="#DejaVuSans-74" transform="translate(440.132812 0)"/>
      <use xlink:href="#DejaVuSans-65" transform="translate(479.341797 0)"/>
      <use xlink:href="#DejaVuSans-72" transform="translate(540.865234 0)"/>
      <use xlink:href="#DejaVuSans-6f" transform="translate(579.728516 0)"/>
      <use xlink:href="#DejaVuSans-76" transform="translate(640.910156 0)"/>
      <use xlink:href="#DejaVuSans-20" transform="translate(700.089844 0)"/>
      <use xlink:href="#DejaVuSans-2b" transform="translate(731.876953 0)"/>
      <use xlink:href="#DejaVuSans-20" transform="translate(815.666016 0)"/>
      <use xlink:href="#DejaVuSans-4d" transform="translate(847.453125 0)"/>
      <use xlink:href="#DejaVuSans-75" transform="translate(933.732422 0)"/>
      <use xlink:href="#DejaVuSans-6f" transform="translate(997.111328 0)"/>
      <use xlink:href="#DejaVuSans-6e" transform="translate(1058.292969 0)"/>
      <use xlink:href="#DejaVuSans-20" transform="translate(1121.671875 0)"/>
      <use xlink:href="#DejaVuSans-40" transform="translate(1153.458984 0)"/>
      <use xlink:href="#DejaVuSans-20" transform="translate(1253.458984 0)"/>
      <use xlink:href="#DejaVuSans-65" transform="translate(1285.246094 0)"/>
      <use xlink:href="#DejaVuSans-6e" transform="translate(1346.769531 0)"/>
      <use xlink:href="#DejaVuSans-74" transform="translate(1410.148438 0)"/>
      <use xlink:href="#DejaVuSans-72" transform="translate(1449.357422 0)"/>
      <use xlink:href="#DejaVuSans-79" transform="translate(1490.470703 0)"/>
      <use xlink:href="#DejaVuSans-20" transform="translate(1549.650391 0)"/>
      <use xlink:href="#DejaVuSans-23" transform="translate(1581.4375 0)"/>
      <use xlink:href="#DejaVuSans-31" transform="translate(1665.226562 0)"/>
      <use xlink:href="#DejaVuSans-32" transform="translate(1728.849609 0)"/>
     </g>
    </g>
   </g>
  </g>
  <g id="axes_2">
   <g id="patch_8">
    <path d="M 480.471875 374.56 
L 826.340635 374.56 
L 826.340635 48.24 
L 480.471875 48.24 
z
" style="fill: #ffffff"/>
   </g>
   <g id="FillBetweenPolyCollection_3">
    <path d="M -1013.681169 -32478.641451 
L -1013.681169 -32478.641451 
L -944.507417 -5685.4691 
L -875.333665 -3318.868834 
L -806.159913 -2511.134407 
L -736.986161 -2056.572771 
L -667.812409 -1753.063189 
L -598.638657 -1546.801595 
L -529.464905 -1371.72753 
L -460.291153 -1220.230611 
L -391.117401 -1097.763433 
L -321.943649 -956.231787 
L -252.769897 -842.823196 
L -183.596145 -719.203736 
L -114.422393 -636.335006 
L -45.24864 -536.328533 
L 23.925112 -447.252921 
L 93.098864 -364.301746 
L 162.272616 -287.217664 
L 231.446368 -210.229464 
L 300.62012 -138.901798 
L 369.793872 -66.434733 
L 438.967624 8.82829 
L 508.141376 79.387851 
L 577.315128 149.791515 
L 646.48888 218.922324 
L 660.32363 236.189928 
L 674.158381 249.078685 
L 687.993131 261.767869 
L 701.827882 274.509483 
L 715.662632 286.198675 
L 729.497382 299.644476 
L 743.332133 310.866563 
L 757.166883 322.061216 
L 771.001634 332.115016 
L 784.836384 341.068461 
L 798.671134 349.054875 
L 812.505885 355.914863 
L 826.340635 361.086536 
L 840.175386 363.628088 
L 840.175386 355.335593 
L 840.175386 355.335593 
L 826.340635 352.81701 
L 812.505885 347.655216 
L 798.671134 340.822817 
L 784.836384 332.715128 
L 771.001634 323.803641 
L 757.166883 313.660409 
L 743.332133 302.452106 
L 729.497382 291.158113 
L 715.662632 277.850024 
L 701.827882 266.15295 
L 687.993131 253.445955 
L 674.158381 240.986744 
L 660.32363 227.930886 
L 646.48888 211.02626 
L 577.315128 141.297031 
L 508.141376 71.31348 
L 438.967624 0.4329 
L 369.793872 -75.31627 
L 300.62012 -147.221875 
L 231.446368 -218.361171 
L 162.272616 -296.144371 
L 93.098864 -372.987608 
L 23.925112 -458.182604 
L -45.24864 -545.615655 
L -114.422393 -644.673084 
L -183.596145 -735.071572 
L -252.769897 -850.740393 
L -321.943649 -964.515785 
L -391.117401 -1110.311075 
L -460.291153 -1234.83768 
L -529.464905 -1381.575487 
L -598.638657 -1559.71454 
L -667.812409 -1769.463086 
L -736.986161 -2073.317692 
L -806.159913 -2533.979233 
L -875.333665 -3364.536542 
L -944.507417 -5756.943647 
L -1013.681169 -32478.641451 
z
" clip-path="url(#pbb8e20a201)" style="fill: #1f77b4; fill-opacity: 0.2; stroke: #1f77b4; stroke-opacity: 0.2"/>
   </g>
   <g id="FillBetweenPolyCollection_4">
    <path d="M -1013.681169 -32478.641451 
L -1013.681169 -32478.641451 
L -944.507417 -5680.380098 
L -875.333665 -3313.755977 
L -806.159913 -2507.17092 
L -736.986161 -2049.593817 
L -667.812409 -1795.038774 
L -598.638657 -1530.947501 
L -529.464905 -1316.607771 
L -460.291153 -1136.999973 
L -391.117401 -995.520582 
L -321.943649 -852.361108 
L -252.769897 -739.696067 
L -183.596145 -620.246578 
L -114.422393 -533.54422 
L -45.24864 -434.016368 
L 23.925112 -345.590765 
L 93.098864 -258.598628 
L 162.272616 -178.528746 
L 231.446368 -97.473062 
L 300.62012 -22.476631 
L 369.793872 71.990147 
L 438.967624 145.056037 
L 508.141376 210.842972 
L 563.480377 260.482104 
L 577.315128 271.651858 
L 591.149878 283.407455 
L 604.984629 295.786353 
L 618.819379 306.23749 
L 632.654129 316.108304 
L 646.48888 325.453957 
L 660.32363 336.231333 
L 674.158381 345.30339 
L 687.993131 352.525796 
L 701.827882 359.068014 
L 715.662632 363.993847 
L 729.497382 366.480646 
L 729.497382 356.677335 
L 729.497382 356.677335 
L 715.662632 354.186666 
L 701.827882 349.318548 
L 687.993131 342.803615 
L 674.158381 335.620081 
L 660.32363 326.574852 
L 646.48888 315.91953 
L 632.654129 306.477853 
L 618.819379 296.473604 
L 604.984629 285.879276 
L 591.149878 273.414344 
L 577.315128 261.90115 
L 563.480377 250.62879 
L 508.141376 201.38426 
L 438.967624 135.960098 
L 369.793872 62.029706 
L 300.62012 -31.355063 
L 231.446368 -106.518043 
L 162.272616 -188.496182 
L 93.098864 -268.544998 
L 23.925112 -355.820793 
L -45.24864 -444.169261 
L -114.422393 -542.500102 
L -183.596145 -630.522525 
L -252.769897 -751.740563 
L -321.943649 -861.973836 
L -391.117401 -1005.475604 
L -460.291153 -1150.191907 
L -529.464905 -1327.182254 
L -598.638657 -1544.642201 
L -667.812409 -1814.227708 
L -736.986161 -2070.698487 
L -806.159913 -2532.791215 
L -875.333665 -3359.268072 
L -944.507417 -5762.428584 
L -1013.681169 -32478.641451 
z
" clip-path="url(#pbb8e20a201)" style="fill: #ff7f0e; fill-opacity: 0.2; stroke: #ff7f0e; stroke-opacity: 0.2"/>
   </g>
   <g id="matplotlib.axis_3">
    <g id="xtick_8">
     <g id="line2d_33">
      <path d="M 480.471875 374.56 
L 480.471875 48.24 
" clip-path="url(#pbb8e20a201)" style="fill: none; stroke: #b0b0b0; stroke-opacity: 0.3; stroke-width: 0.8; stroke-linecap: square"/>
     </g>
     <g id="line2d_34">
      <g>
       <use xlink:href="#mf8e481cc8c" x="480.471875" y="374.56" style="stroke: #000000; stroke-width: 0.8"/>
      </g>
     </g>
     <g id="text_19">
      <!-- 2700 -->
      <g transform="translate(461.384375 392.957656) scale(0.15 -0.15)">
       <use xlink:href="#DejaVuSans-32"/>
       <use xlink:href="#DejaVuSans-37" transform="translate(63.623047 0)"/>
       <use xlink:href="#DejaVuSans-30" transform="translate(127.246094 0)"/>
       <use xlink:href="#DejaVuSans-30" transform="translate(190.869141 0)"/>
      </g>
     </g>
    </g>
    <g id="xtick_9">
     <g id="line2d_35">
      <path d="M 535.810877 374.56 
L 535.810877 48.24 
" clip-path="url(#pbb8e20a201)" style="fill: none; stroke: #b0b0b0; stroke-opacity: 0.3; stroke-width: 0.8; stroke-linecap: square"/>
     </g>
     <g id="line2d_36">
      <g>
       <use xlink:href="#mf8e481cc8c" x="535.810877" y="374.56" style="stroke: #000000; stroke-width: 0.8"/>
      </g>
     </g>
     <g id="text_20">
      <!-- 2800 -->
      <g transform="translate(516.723377 392.957656) scale(0.15 -0.15)">
       <use xlink:href="#DejaVuSans-32"/>
       <use xlink:href="#DejaVuSans-38" transform="translate(63.623047 0)"/>
       <use xlink:href="#DejaVuSans-30" transform="translate(127.246094 0)"/>
       <use xlink:href="#DejaVuSans-30" transform="translate(190.869141 0)"/>
      </g>
     </g>
    </g>
    <g id="xtick_10">
     <g id="line2d_37">
      <path d="M 591.149878 374.56 
L 591.149878 48.24 
" clip-path="url(#pbb8e20a201)" style="fill: none; stroke: #b0b0b0; stroke-opacity: 0.3; stroke-width: 0.8; stroke-linecap: square"/>
     </g>
     <g id="line2d_38">
      <g>
       <use xlink:href="#mf8e481cc8c" x="591.149878" y="374.56" style="stroke: #000000; stroke-width: 0.8"/>
      </g>
     </g>
     <g id="text_21">
      <!-- 2900 -->
      <g transform="translate(572.062378 392.957656) scale(0.15 -0.15)">
       <use xlink:href="#DejaVuSans-32"/>
       <use xlink:href="#DejaVuSans-39" transform="translate(63.623047 0)"/>
       <use xlink:href="#DejaVuSans-30" transform="translate(127.246094 0)"/>
       <use xlink:href="#DejaVuSans-30" transform="translate(190.869141 0)"/>
      </g>
     </g>
    </g>
    <g id="xtick_11">
     <g id="line2d_39">
      <path d="M 646.48888 374.56 
L 646.48888 48.24 
" clip-path="url(#pbb8e20a201)" style="fill: none; stroke: #b0b0b0; stroke-opacity: 0.3; stroke-width: 0.8; stroke-linecap: square"/>
     </g>
     <g id="line2d_40">
      <g>
       <use xlink:href="#mf8e481cc8c" x="646.48888" y="374.56" style="stroke: #000000; stroke-width: 0.8"/>
      </g>
     </g>
     <g id="text_22">
      <!-- 3000 -->
      <g transform="translate(627.40138 392.957656) scale(0.15 -0.15)">
       <use xlink:href="#DejaVuSans-33"/>
       <use xlink:href="#DejaVuSans-30" transform="translate(63.623047 0)"/>
       <use xlink:href="#DejaVuSans-30" transform="translate(127.246094 0)"/>
       <use xlink:href="#DejaVuSans-30" transform="translate(190.869141 0)"/>
      </g>
     </g>
    </g>
    <g id="xtick_12">
     <g id="line2d_41">
      <path d="M 701.827882 374.56 
L 701.827882 48.24 
" clip-path="url(#pbb8e20a201)" style="fill: none; stroke: #b0b0b0; stroke-opacity: 0.3; stroke-width: 0.8; stroke-linecap: square"/>
     </g>
     <g id="line2d_42">
      <g>
       <use xlink:href="#mf8e481cc8c" x="701.827882" y="374.56" style="stroke: #000000; stroke-width: 0.8"/>
      </g>
     </g>
     <g id="text_23">
      <!-- 3100 -->
      <g transform="translate(682.740382 392.957656) scale(0.15 -0.15)">
       <use xlink:href="#DejaVuSans-33"/>
       <use xlink:href="#DejaVuSans-31" transform="translate(63.623047 0)"/>
       <use xlink:href="#DejaVuSans-30" transform="translate(127.246094 0)"/>
       <use xlink:href="#DejaVuSans-30" transform="translate(190.869141 0)"/>
      </g>
     </g>
    </g>
    <g id="xtick_13">
     <g id="line2d_43">
      <path d="M 757.166883 374.56 
L 757.166883 48.24 
" clip-path="url(#pbb8e20a201)" style="fill: none; stroke: #b0b0b0; stroke-opacity: 0.3; stroke-width: 0.8; stroke-linecap: square"/>
     </g>
     <g id="line2d_44">
      <g>
       <use xlink:href="#mf8e481cc8c" x="757.166883" y="374.56" style="stroke: #000000; stroke-width: 0.8"/>
      </g>
     </g>
     <g id="text_24">
      <!-- 3200 -->
      <g transform="translate(738.079383 392.957656) scale(0.15 -0.15)">
       <use xlink:href="#DejaVuSans-33"/>
       <use xlink:href="#DejaVuSans-32" transform="translate(63.623047 0)"/>
       <use xlink:href="#DejaVuSans-30" transform="translate(127.246094 0)"/>
       <use xlink:href="#DejaVuSans-30" transform="translate(190.869141 0)"/>
      </g>
     </g>
    </g>
    <g id="xtick_14">
     <g id="line2d_45">
      <path d="M 812.505885 374.56 
L 812.505885 48.24 
" clip-path="url(#pbb8e20a201)" style="fill: none; stroke: #b0b0b0; stroke-opacity: 0.3; stroke-width: 0.8; stroke-linecap: square"/>
     </g>
     <g id="line2d_46">
      <g>
       <use xlink:href="#mf8e481cc8c" x="812.505885" y="374.56" style="stroke: #000000; stroke-width: 0.8"/>
      </g>
     </g>
     <g id="text_25">
      <!-- 3300 -->
      <g transform="translate(793.418385 392.957656) scale(0.15 -0.15)">
       <use xlink:href="#DejaVuSans-33"/>
       <use xlink:href="#DejaVuSans-33" transform="translate(63.623047 0)"/>
       <use xlink:href="#DejaVuSans-30" transform="translate(127.246094 0)"/>
       <use xlink:href="#DejaVuSans-30" transform="translate(190.869141 0)"/>
      </g>
     </g>
    </g>
    <g id="text_26">
     <!-- Iterations -->
     <g transform="translate(617.686333 411.474844) scale(0.15 -0.15)">
      <use xlink:href="#DejaVuSans-49"/>
      <use xlink:href="#DejaVuSans-74" transform="translate(29.492188 0)"/>
      <use xlink:href="#DejaVuSans-65" transform="translate(68.701172 0)"/>
      <use xlink:href="#DejaVuSans-72" transform="translate(130.224609 0)"/>
      <use xlink:href="#DejaVuSans-61" transform="translate(171.337891 0)"/>
      <use xlink:href="#DejaVuSans-74" transform="translate(232.617188 0)"/>
      <use xlink:href="#DejaVuSans-69" transform="translate(271.826172 0)"/>
      <use xlink:href="#DejaVuSans-6f" transform="translate(299.609375 0)"/>
      <use xlink:href="#DejaVuSans-6e" transform="translate(360.791016 0)"/>
      <use xlink:href="#DejaVuSans-73" transform="translate(424.169922 0)"/>
     </g>
    </g>
   </g>
   <g id="matplotlib.axis_4">
    <g id="ytick_8">
     <g id="line2d_47">
      <path d="M 480.471875 352.805333 
L 826.340635 352.805333 
" clip-path="url(#pbb8e20a201)" style="fill: none; stroke: #b0b0b0; stroke-opacity: 0.3; stroke-width: 0.8; stroke-linecap: square"/>
     </g>
     <g id="line2d_48">
      <g>
       <use xlink:href="#m388ea074fc" x="480.471875" y="352.805333" style="stroke: #000000; stroke-width: 0.8"/>
      </g>
     </g>
     <g id="text_27">
      <!-- 3.28 -->
      <g transform="translate(440.073437 358.504161) scale(0.15 -0.15)">
       <use xlink:href="#DejaVuSans-33"/>
       <use xlink:href="#DejaVuSans-2e" transform="translate(63.623047 0)"/>
       <use xlink:href="#DejaVuSans-32" transform="translate(95.410156 0)"/>
       <use xlink:href="#DejaVuSans-38" transform="translate(159.033203 0)"/>
      </g>
     </g>
    </g>
    <g id="ytick_9">
     <g id="line2d_49">
      <path d="M 480.471875 309.296 
L 826.340635 309.296 
" clip-path="url(#pbb8e20a201)" style="fill: none; stroke: #b0b0b0; stroke-opacity: 0.3; stroke-width: 0.8; stroke-linecap: square"/>
     </g>
     <g id="line2d_50">
      <g>
       <use xlink:href="#m388ea074fc" x="480.471875" y="309.296" style="stroke: #000000; stroke-width: 0.8"/>
      </g>
     </g>
     <g id="text_28">
      <!-- 3.29 -->
      <g transform="translate(440.073437 314.994828) scale(0.15 -0.15)">
       <use xlink:href="#DejaVuSans-33"/>
       <use xlink:href="#DejaVuSans-2e" transform="translate(63.623047 0)"/>
       <use xlink:href="#DejaVuSans-32" transform="translate(95.410156 0)"/>
       <use xlink:href="#DejaVuSans-39" transform="translate(159.033203 0)"/>
      </g>
     </g>
    </g>
    <g id="ytick_10">
     <g id="line2d_51">
      <path d="M 480.471875 265.786667 
L 826.340635 265.786667 
" clip-path="url(#pbb8e20a201)" style="fill: none; stroke: #b0b0b0; stroke-opacity: 0.3; stroke-width: 0.8; stroke-linecap: square"/>
     </g>
     <g id="line2d_52">
      <g>
       <use xlink:href="#m388ea074fc" x="480.471875" y="265.786667" style="stroke: #000000; stroke-width: 0.8"/>
      </g>
     </g>
     <g id="text_29">
      <!-- 3.30 -->
      <g transform="translate(440.073437 271.485495) scale(0.15 -0.15)">
       <use xlink:href="#DejaVuSans-33"/>
       <use xlink:href="#DejaVuSans-2e" transform="translate(63.623047 0)"/>
       <use xlink:href="#DejaVuSans-33" transform="translate(95.410156 0)"/>
       <use xlink:href="#DejaVuSans-30" transform="translate(159.033203 0)"/>
      </g>
     </g>
    </g>
    <g id="ytick_11">
     <g id="line2d_53">
      <path d="M 480.471875 222.277333 
L 826.340635 222.277333 
" clip-path="url(#pbb8e20a201)" style="fill: none; stroke: #b0b0b0; stroke-opacity: 0.3; stroke-width: 0.8; stroke-linecap: square"/>
     </g>
     <g id="line2d_54">
      <g>
       <use xlink:href="#m388ea074fc" x="480.471875" y="222.277333" style="stroke: #000000; stroke-width: 0.8"/>
      </g>
     </g>
     <g id="text_30">
      <!-- 3.31 -->
      <g transform="translate(440.073437 227.976161) scale(0.15 -0.15)">
       <use xlink:href="#DejaVuSans-33"/>
       <use xlink:href="#DejaVuSans-2e" transform="translate(63.623047 0)"/>
       <use xlink:href="#DejaVuSans-33" transform="translate(95.410156 0)"/>
       <use xlink:href="#DejaVuSans-31" transform="translate(159.033203 0)"/>
      </g>
     </g>
    </g>
    <g id="ytick_12">
     <g id="line2d_55">
      <path d="M 480.471875 178.768 
L 826.340635 178.768 
" clip-path="url(#pbb8e20a201)" style="fill: none; stroke: #b0b0b0; stroke-opacity: 0.3; stroke-width: 0.8; stroke-linecap: square"/>
     </g>
     <g id="line2d_56">
      <g>
       <use xlink:href="#m388ea074fc" x="480.471875" y="178.768" style="stroke: #000000; stroke-width: 0.8"/>
      </g>
     </g>
     <g id="text_31">
      <!-- 3.32 -->
      <g transform="translate(440.073437 184.466828) scale(0.15 -0.15)">
       <use xlink:href="#DejaVuSans-33"/>
       <use xlink:href="#DejaVuSans-2e" transform="translate(63.623047 0)"/>
       <use xlink:href="#DejaVuSans-33" transform="translate(95.410156 0)"/>
       <use xlink:href="#DejaVuSans-32" transform="translate(159.033203 0)"/>
      </g>
     </g>
    </g>
    <g id="ytick_13">
     <g id="line2d_57">
      <path d="M 480.471875 135.258667 
L 826.340635 135.258667 
" clip-path="url(#pbb8e20a201)" style="fill: none; stroke: #b0b0b0; stroke-opacity: 0.3; stroke-width: 0.8; stroke-linecap: square"/>
     </g>
     <g id="line2d_58">
      <g>
       <use xlink:href="#m388ea074fc" x="480.471875" y="135.258667" style="stroke: #000000; stroke-width: 0.8"/>
      </g>
     </g>
     <g id="text_32">
      <!-- 3.33 -->
      <g transform="translate(440.073437 140.957495) scale(0.15 -0.15)">
       <use xlink:href="#DejaVuSans-33"/>
       <use xlink:href="#DejaVuSans-2e" transform="translate(63.623047 0)"/>
       <use xlink:href="#DejaVuSans-33" transform="translate(95.410156 0)"/>
       <use xlink:href="#DejaVuSans-33" transform="translate(159.033203 0)"/>
      </g>
     </g>
    </g>
    <g id="ytick_14">
     <g id="line2d_59">
      <path d="M 480.471875 91.749333 
L 826.340635 91.749333 
" clip-path="url(#pbb8e20a201)" style="fill: none; stroke: #b0b0b0; stroke-opacity: 0.3; stroke-width: 0.8; stroke-linecap: square"/>
     </g>
     <g id="line2d_60">
      <g>
       <use xlink:href="#m388ea074fc" x="480.471875" y="91.749333" style="stroke: #000000; stroke-width: 0.8"/>
      </g>
     </g>
     <g id="text_33">
      <!-- 3.34 -->
      <g transform="translate(440.073437 97.448161) scale(0.15 -0.15)">
       <use xlink:href="#DejaVuSans-33"/>
       <use xlink:href="#DejaVuSans-2e" transform="translate(63.623047 0)"/>
       <use xlink:href="#DejaVuSans-33" transform="translate(95.410156 0)"/>
       <use xlink:href="#DejaVuSans-34" transform="translate(159.033203 0)"/>
      </g>
     </g>
    </g>
    <g id="ytick_15">
     <g id="line2d_61">
      <path d="M 480.471875 48.24 
L 826.340635 48.24 
" clip-path="url(#pbb8e20a201)" style="fill: none; stroke: #b0b0b0; stroke-opacity: 0.3; stroke-width: 0.8; stroke-linecap: square"/>
     </g>
     <g id="line2d_62">
      <g>
       <use xlink:href="#m388ea074fc" x="480.471875" y="48.24" style="stroke: #000000; stroke-width: 0.8"/>
      </g>
     </g>
     <g id="text_34">
      <!-- 3.35 -->
      <g transform="translate(440.073437 53.938828) scale(0.15 -0.15)">
       <use xlink:href="#DejaVuSans-33"/>
       <use xlink:href="#DejaVuSans-2e" transform="translate(63.623047 0)"/>
       <use xlink:href="#DejaVuSans-33" transform="translate(95.410156 0)"/>
       <use xlink:href="#DejaVuSans-35" transform="translate(159.033203 0)"/>
      </g>
     </g>
    </g>
    <g id="text_35">
     <!-- Validation Loss -->
     <g transform="translate(432.953906 267.270312) rotate(-90) scale(0.15 -0.15)">
      <use xlink:href="#DejaVuSans-56"/>
      <use xlink:href="#DejaVuSans-61" transform="translate(60.658203 0)"/>
      <use xlink:href="#DejaVuSans-6c" transform="translate(121.9375 0)"/>
      <use xlink:href="#DejaVuSans-69" transform="translate(149.720703 0)"/>
      <use xlink:href="#DejaVuSans-64" transform="translate(177.503906 0)"/>
      <use xlink:href="#DejaVuSans-61" transform="translate(240.980469 0)"/>
      <use xlink:href="#DejaVuSans-74" transform="translate(302.259766 0)"/>
      <use xlink:href="#DejaVuSans-69" transform="translate(341.46875 0)"/>
      <use xlink:href="#DejaVuSans-6f" transform="translate(369.251953 0)"/>
      <use xlink:href="#DejaVuSans-6e" transform="translate(430.433594 0)"/>
      <use xlink:href="#DejaVuSans-20" transform="translate(493.8125 0)"/>
      <use xlink:href="#DejaVuSans-4c" transform="translate(525.599609 0)"/>
      <use xlink:href="#DejaVuSans-6f" transform="translate(579.5625 0)"/>
      <use xlink:href="#DejaVuSans-73" transform="translate(640.744141 0)"/>
      <use xlink:href="#DejaVuSans-73" transform="translate(692.84375 0)"/>
     </g>
    </g>
   </g>
   <g id="line2d_63">
    <path d="M 433.80924 -1 
L 438.967624 4.630595 
L 508.141376 75.350666 
L 577.315128 145.544273 
L 646.48888 214.974292 
L 660.32363 232.060407 
L 674.158381 245.032715 
L 687.993131 257.606912 
L 701.827882 270.331217 
L 715.662632 282.02435 
L 729.497382 295.401294 
L 743.332133 306.659334 
L 757.166883 317.860812 
L 771.001634 327.959329 
L 784.836384 336.891795 
L 798.671134 344.938846 
L 812.505885 351.785039 
L 826.340635 356.951773 
L 839.793385 359.411981 
" clip-path="url(#pbb8e20a201)" style="fill: none; stroke-dasharray: 3.7,1.6; stroke-dashoffset: 0; stroke: #1f77b4"/>
   </g>
   <g id="line2d_64">
    <path d="M 319.706429 -1 
L 369.793872 67.009926 
L 438.967624 140.508068 
L 508.141376 206.113616 
L 563.480377 255.555447 
L 577.315128 266.776504 
L 591.149878 278.4109 
L 604.984629 290.832814 
L 618.819379 301.355547 
L 632.654129 311.293078 
L 646.48888 320.686743 
L 660.32363 331.403092 
L 674.158381 340.461735 
L 687.993131 347.664706 
L 701.827882 354.193281 
L 715.662632 359.090257 
L 729.497382 361.57899 
" clip-path="url(#pbb8e20a201)" style="fill: none; stroke: #ff7f0e; stroke-linecap: square"/>
   </g>
   <g id="patch_9">
    <path d="M 480.471875 374.56 
L 480.471875 48.24 
" style="fill: none; stroke: #000000; stroke-width: 0.8; stroke-linejoin: miter; stroke-linecap: square"/>
   </g>
   <g id="patch_10">
    <path d="M 826.340635 374.56 
L 826.340635 48.24 
" style="fill: none; stroke: #000000; stroke-width: 0.8; stroke-linejoin: miter; stroke-linecap: square"/>
   </g>
   <g id="patch_11">
    <path d="M 480.471875 374.56 
L 826.340635 374.56 
" style="fill: none; stroke: #000000; stroke-width: 0.8; stroke-linejoin: miter; stroke-linecap: square"/>
   </g>
   <g id="patch_12">
    <path d="M 480.471875 48.24 
L 826.340635 48.24 
" style="fill: none; stroke: #000000; stroke-width: 0.8; stroke-linejoin: miter; stroke-linecap: square"/>
   </g>
   <g id="legend_2">
    <g id="patch_13">
     <path d="M 498.967979 104.274375 
L 815.840635 104.274375 
Q 818.840635 104.274375 818.840635 101.274375 
L 818.840635 58.74 
Q 818.840635 55.74 815.840635 55.74 
L 498.967979 55.74 
Q 495.967979 55.74 495.967979 58.74 
L 495.967979 101.274375 
Q 495.967979 104.274375 498.967979 104.274375 
z
" style="fill: #ffffff; opacity: 0.8; stroke: #cccccc; stroke-linejoin: miter"/>
    </g>
    <g id="line2d_65">
     <path d="M 501.967979 67.887656 
L 516.967979 67.887656 
L 531.967979 67.887656 
" style="fill: none; stroke-dasharray: 7.4,3.2; stroke-dashoffset: 0; stroke: #1f77b4; stroke-width: 2"/>
    </g>
    <g id="text_36">
     <!-- Muon @ entry #12 -->
     <g transform="translate(543.967979 73.137656) scale(0.15 -0.15)">
      <use xlink:href="#DejaVuSans-4d"/>
      <use xlink:href="#DejaVuSans-75" transform="translate(86.279297 0)"/>
      <use xlink:href="#DejaVuSans-6f" transform="translate(149.658203 0)"/>
      <use xlink:href="#DejaVuSans-6e" transform="translate(210.839844 0)"/>
      <use xlink:href="#DejaVuSans-20" transform="translate(274.21875 0)"/>
      <use xlink:href="#DejaVuSans-40" transform="translate(306.005859 0)"/>
      <use xlink:href="#DejaVuSans-20" transform="translate(406.005859 0)"/>
      <use xlink:href="#DejaVuSans-65" transform="translate(437.792969 0)"/>
      <use xlink:href="#DejaVuSans-6e" transform="translate(499.316406 0)"/>
      <use xlink:href="#DejaVuSans-74" transform="translate(562.695312 0)"/>
      <use xlink:href="#DejaVuSans-72" transform="translate(601.904297 0)"/>
      <use xlink:href="#DejaVuSans-79" transform="translate(643.017578 0)"/>
      <use xlink:href="#DejaVuSans-20" transform="translate(702.197266 0)"/>
      <use xlink:href="#DejaVuSans-23" transform="translate(733.984375 0)"/>
      <use xlink:href="#DejaVuSans-31" transform="translate(817.773438 0)"/>
      <use xlink:href="#DejaVuSans-32" transform="translate(881.396484 0)"/>
     </g>
    </g>
    <g id="line2d_66">
     <path d="M 501.967979 89.904844 
L 516.967979 89.904844 
L 531.967979 89.904844 
" style="fill: none; stroke: #ff7f0e; stroke-width: 2; stroke-linecap: square"/>
    </g>
    <g id="text_37">
     <!-- EMA-Nesterov + Muon @ entry #12 -->
     <g transform="translate(543.967979 95.154844) scale(0.15 -0.15)">
      <use xlink:href="#DejaVuSans-45"/>
      <use xlink:href="#DejaVuSans-4d" transform="translate(63.183594 0)"/>
      <use xlink:href="#DejaVuSans-41" transform="translate(149.462891 0)"/>
      <use xlink:href="#DejaVuSans-2d" transform="translate(215.621094 0)"/>
      <use xlink:href="#DejaVuSans-4e" transform="translate(251.705078 0)"/>
      <use xlink:href="#DejaVuSans-65" transform="translate(326.509766 0)"/>
      <use xlink:href="#DejaVuSans-73" transform="translate(388.033203 0)"/>
      <use xlink:href="#DejaVuSans-74" transform="translate(440.132812 0)"/>
      <use xlink:href="#DejaVuSans-65" transform="translate(479.341797 0)"/>
      <use xlink:href="#DejaVuSans-72" transform="translate(540.865234 0)"/>
      <use xlink:href="#DejaVuSans-6f" transform="translate(579.728516 0)"/>
      <use xlink:href="#DejaVuSans-76" transform="translate(640.910156 0)"/>
      <use xlink:href="#DejaVuSans-20" transform="translate(700.089844 0)"/>
      <use xlink:href="#DejaVuSans-2b" transform="translate(731.876953 0)"/>
      <use xlink:href="#DejaVuSans-20" transform="translate(815.666016 0)"/>
      <use xlink:href="#DejaVuSans-4d" transform="translate(847.453125 0)"/>
      <use xlink:href="#DejaVuSans-75" transform="translate(933.732422 0)"/>
      <use xlink:href="#DejaVuSans-6f" transform="translate(997.111328 0)"/>
      <use xlink:href="#DejaVuSans-6e" transform="translate(1058.292969 0)"/>
      <use xlink:href="#DejaVuSans-20" transform="translate(1121.671875 0)"/>
      <use xlink:href="#DejaVuSans-40" transform="translate(1153.458984 0)"/>
      <use xlink:href="#DejaVuSans-20" transform="translate(1253.458984 0)"/>
      <use xlink:href="#DejaVuSans-65" transform="translate(1285.246094 0)"/>
      <use xlink:href="#DejaVuSans-6e" transform="translate(1346.769531 0)"/>
      <use xlink:href="#DejaVuSans-74" transform="translate(1410.148438 0)"/>
      <use xlink:href="#DejaVuSans-72" transform="translate(1449.357422 0)"/>
      <use xlink:href="#DejaVuSans-79" transform="translate(1490.470703 0)"/>
      <use xlink:href="#DejaVuSans-20" transform="translate(1549.650391 0)"/>
      <use xlink:href="#DejaVuSans-23" transform="translate(1581.4375 0)"/>
      <use xlink:href="#DejaVuSans-31" transform="translate(1665.226562 0)"/>
      <use xlink:href="#DejaVuSans-32" transform="translate(1728.849609 0)"/>
     </g>
    </g>
   </g>
  </g>
  <g id="text_38">
   <!-- NanoGPT Track 3 (162M) FineWeb -->
   <g transform="translate(275.969062 20.877187) scale(0.18 -0.18)">
    <defs>
     <path id="DejaVuSans-47" d="M 3809 666 
L 3809 1919 
L 2778 1919 
L 2778 2438 
L 4434 2438 
L 4434 434 
Q 4069 175 3628 42 
Q 3188 -91 2688 -91 
Q 1594 -91 976 548 
Q 359 1188 359 2328 
Q 359 3472 976 4111 
Q 1594 4750 2688 4750 
Q 3144 4750 3555 4637 
Q 3966 4525 4313 4306 
L 4313 3634 
Q 3963 3931 3569 4081 
Q 3175 4231 2741 4231 
Q 1884 4231 1454 3753 
Q 1025 3275 1025 2328 
Q 1025 1384 1454 906 
Q 1884 428 2741 428 
Q 3075 428 3337 486 
Q 3600 544 3809 666 
z
" transform="scale(0.015625)"/>
     <path id="DejaVuSans-50" d="M 1259 4147 
L 1259 2394 
L 2053 2394 
Q 2494 2394 2734 2622 
Q 2975 2850 2975 3272 
Q 2975 3691 2734 3919 
Q 2494 4147 2053 4147 
L 1259 4147 
z
M 628 4666 
L 2053 4666 
Q 2838 4666 3239 4311 
Q 3641 3956 3641 3272 
Q 3641 2581 3239 2228 
Q 2838 1875 2053 1875 
L 1259 1875 
L 1259 0 
L 628 0 
L 628 4666 
z
" transform="scale(0.015625)"/>
     <path id="DejaVuSans-54" d="M -19 4666 
L 3928 4666 
L 3928 4134 
L 2272 4134 
L 2272 0 
L 1638 0 
L 1638 4134 
L -19 4134 
L -19 4666 
z
" transform="scale(0.015625)"/>
     <path id="DejaVuSans-63" d="M 3122 3366 
L 3122 2828 
Q 2878 2963 2633 3030 
Q 2388 3097 2138 3097 
Q 1578 3097 1268 2742 
Q 959 2388 959 1747 
Q 959 1106 1268 751 
Q 1578 397 2138 397 
Q 2388 397 2633 464 
Q 2878 531 3122 666 
L 3122 134 
Q 2881 22 2623 -34 
Q 2366 -91 2075 -91 
Q 1284 -91 818 406 
Q 353 903 353 1747 
Q 353 2603 823 3093 
Q 1294 3584 2113 3584 
Q 2378 3584 2631 3529 
Q 2884 3475 3122 3366 
z
" transform="scale(0.015625)"/>
     <path id="DejaVuSans-6b" d="M 581 4863 
L 1159 4863 
L 1159 1991 
L 2875 3500 
L 3609 3500 
L 1753 1863 
L 3688 0 
L 2938 0 
L 1159 1709 
L 1159 0 
L 581 0 
L 581 4863 
z
" transform="scale(0.015625)"/>
     <path id="DejaVuSans-28" d="M 1984 4856 
Q 1566 4138 1362 3434 
Q 1159 2731 1159 2009 
Q 1159 1288 1364 580 
Q 1569 -128 1984 -844 
L 1484 -844 
Q 1016 -109 783 600 
Q 550 1309 550 2009 
Q 550 2706 781 3412 
Q 1013 4119 1484 4856 
L 1984 4856 
z
" transform="scale(0.015625)"/>
     <path id="DejaVuSans-29" d="M 513 4856 
L 1013 4856 
Q 1481 4119 1714 3412 
Q 1947 2706 1947 2009 
Q 1947 1309 1714 600 
Q 1481 -109 1013 -844 
L 513 -844 
Q 928 -128 1133 580 
Q 1338 1288 1338 2009 
Q 1338 2731 1133 3434 
Q 928 4138 513 4856 
z
" transform="scale(0.015625)"/>
     <path id="DejaVuSans-46" d="M 628 4666 
L 3309 4666 
L 3309 4134 
L 1259 4134 
L 1259 2759 
L 3109 2759 
L 3109 2228 
L 1259 2228 
L 1259 0 
L 628 0 
L 628 4666 
z
" transform="scale(0.015625)"/>
     <path id="DejaVuSans-57" d="M 213 4666 
L 850 4666 
L 1831 722 
L 2809 4666 
L 3519 4666 
L 4500 722 
L 5478 4666 
L 6119 4666 
L 4947 0 
L 4153 0 
L 3169 4050 
L 2175 0 
L 1381 0 
L 213 4666 
z
" transform="scale(0.015625)"/>
     <path id="DejaVuSans-62" d="M 3116 1747 
Q 3116 2381 2855 2742 
Q 2594 3103 2138 3103 
Q 1681 3103 1420 2742 
Q 1159 2381 1159 1747 
Q 1159 1113 1420 752 
Q 1681 391 2138 391 
Q 2594 391 2855 752 
Q 3116 1113 3116 1747 
z
M 1159 2969 
Q 1341 3281 1617 3432 
Q 1894 3584 2278 3584 
Q 2916 3584 3314 3078 
Q 3713 2572 3713 1747 
Q 3713 922 3314 415 
Q 2916 -91 2278 -91 
Q 1894 -91 1617 61 
Q 1341 213 1159 525 
L 1159 0 
L 581 0 
L 581 4863 
L 1159 4863 
L 1159 2969 
z
" transform="scale(0.015625)"/>
    </defs>
    <use xlink:href="#DejaVuSans-4e"/>
    <use xlink:href="#DejaVuSans-61" transform="translate(74.804688 0)"/>
    <use xlink:href="#DejaVuSans-6e" transform="translate(136.083984 0)"/>
    <use xlink:href="#DejaVuSans-6f" transform="translate(199.462891 0)"/>
    <use xlink:href="#DejaVuSans-47" transform="translate(260.644531 0)"/>
    <use xlink:href="#DejaVuSans-50" transform="translate(338.134766 0)"/>
    <use xlink:href="#DejaVuSans-54" transform="translate(398.4375 0)"/>
    <use xlink:href="#DejaVuSans-20" transform="translate(459.521484 0)"/>
    <use xlink:href="#DejaVuSans-54" transform="translate(491.308594 0)"/>
    <use xlink:href="#DejaVuSans-72" transform="translate(537.642578 0)"/>
    <use xlink:href="#DejaVuSans-61" transform="translate(578.755859 0)"/>
    <use xlink:href="#DejaVuSans-63" transform="translate(640.035156 0)"/>
    <use xlink:href="#DejaVuSans-6b" transform="translate(695.015625 0)"/>
    <use xlink:href="#DejaVuSans-20" transform="translate(752.925781 0)"/>
    <use xlink:href="#DejaVuSans-33" transform="translate(784.712891 0)"/>
    <use xlink:href="#DejaVuSans-20" transform="translate(848.335938 0)"/>
    <use xlink:href="#DejaVuSans-28" transform="translate(880.123047 0)"/>
    <use xlink:href="#DejaVuSans-31" transform="translate(919.136719 0)"/>
    <use xlink:href="#DejaVuSans-36" transform="translate(982.759766 0)"/>
    <use xlink:href="#DejaVuSans-32" transform="translate(1046.382812 0)"/>
    <use xlink:href="#DejaVuSans-4d" transform="translate(1110.005859 0)"/>
    <use xlink:href="#DejaVuSans-29" transform="translate(1196.285156 0)"/>
    <use xlink:href="#DejaVuSans-20" transform="translate(1235.298828 0)"/>
    <use xlink:href="#DejaVuSans-46" transform="translate(1267.085938 0)"/>
    <use xlink:href="#DejaVuSans-69" transform="translate(1317.355469 0)"/>
    <use xlink:href="#DejaVuSans-6e" transform="translate(1345.138672 0)"/>
    <use xlink:href="#DejaVuSans-65" transform="translate(1408.517578 0)"/>
    <use xlink:href="#DejaVuSans-57" transform="translate(1470.041016 0)"/>
    <use xlink:href="#DejaVuSans-65" transform="translate(1563.042969 0)"/>
    <use xlink:href="#DejaVuSans-62" transform="translate(1624.566406 0)"/>
   </g>
  </g>
  <g id="text_39">
   <!-- Each line represents mean value and shade represents $\pm 1$ standard deviation. -->
   <g transform="translate(230.291875 439.2) scale(0.1 -0.1)">
    <defs>
     <path id="DejaVuSans-68" d="M 3513 2113 
L 3513 0 
L 2938 0 
L 2938 2094 
Q 2938 2591 2744 2837 
Q 2550 3084 2163 3084 
Q 1697 3084 1428 2787 
Q 1159 2491 1159 1978 
L 1159 0 
L 581 0 
L 581 4863 
L 1159 4863 
L 1159 2956 
Q 1366 3272 1645 3428 
Q 1925 3584 2291 3584 
Q 2894 3584 3203 3211 
Q 3513 2838 3513 2113 
z
" transform="scale(0.015625)"/>
     <path id="DejaVuSans-70" d="M 1159 525 
L 1159 -1331 
L 581 -1331 
L 581 3500 
L 1159 3500 
L 1159 2969 
Q 1341 3281 1617 3432 
Q 1894 3584 2278 3584 
Q 2916 3584 3314 3078 
Q 3713 2572 3713 1747 
Q 3713 922 3314 415 
Q 2916 -91 2278 -91 
Q 1894 -91 1617 61 
Q 1341 213 1159 525 
z
M 3116 1747 
Q 3116 2381 2855 2742 
Q 2594 3103 2138 3103 
Q 1681 3103 1420 2742 
Q 1159 2381 1159 1747 
Q 1159 1113 1420 752 
Q 1681 391 2138 391 
Q 2594 391 2855 752 
Q 3116 1113 3116 1747 
z
" transform="scale(0.015625)"/>
     <path id="DejaVuSans-6d" d="M 3328 2828 
Q 3544 3216 3844 3400 
Q 4144 3584 4550 3584 
Q 5097 3584 5394 3201 
Q 5691 2819 5691 2113 
L 5691 0 
L 5113 0 
L 5113 2094 
Q 5113 2597 4934 2840 
Q 4756 3084 4391 3084 
Q 3944 3084 3684 2787 
Q 3425 2491 3425 1978 
L 3425 0 
L 2847 0 
L 2847 2094 
Q 2847 2600 2669 2842 
Q 2491 3084 2119 3084 
Q 1678 3084 1418 2786 
Q 1159 2488 1159 1978 
L 1159 0 
L 581 0 
L 581 3500 
L 1159 3500 
L 1159 2956 
Q 1356 3278 1631 3431 
Q 1906 3584 2284 3584 
Q 2666 3584 2933 3390 
Q 3200 3197 3328 2828 
z
" transform="scale(0.015625)"/>
     <path id="DejaVuSans-b1" d="M 2944 4013 
L 2944 2803 
L 4684 2803 
L 4684 2272 
L 2944 2272 
L 2944 1063 
L 2419 1063 
L 2419 2272 
L 678 2272 
L 678 2803 
L 2419 2803 
L 2419 4013 
L 2944 4013 
z
M 678 531 
L 4684 531 
L 4684 0 
L 678 0 
L 678 531 
z
" transform="scale(0.015625)"/>
    </defs>
    <use xlink:href="#DejaVuSans-45" transform="translate(0 0.015625)"/>
    <use xlink:href="#DejaVuSans-61" transform="translate(63.183594 0.015625)"/>
    <use xlink:href="#DejaVuSans-63" transform="translate(124.462891 0.015625)"/>
    <use xlink:href="#DejaVuSans-68" transform="translate(179.443359 0.015625)"/>
    <use xlink:href="#DejaVuSans-20" transform="translate(242.822266 0.015625)"/>
    <use xlink:href="#DejaVuSans-6c" transform="translate(274.609375 0.015625)"/>
    <use xlink:href="#DejaVuSans-69" transform="translate(302.392578 0.015625)"/>
    <use xlink:href="#DejaVuSans-6e" transform="translate(330.175781 0.015625)"/>
    <use xlink:href="#DejaVuSans-65" transform="translate(393.554688 0.015625)"/>
    <use xlink:href="#DejaVuSans-20" transform="translate(455.078125 0.015625)"/>
    <use xlink:href="#DejaVuSans-72" transform="translate(486.865234 0.015625)"/>
    <use xlink:href="#DejaVuSans-65" transform="translate(527.978516 0.015625)"/>
    <use xlink:href="#DejaVuSans-70" transform="translate(589.501953 0.015625)"/>
    <use xlink:href="#DejaVuSans-72" transform="translate(652.978516 0.015625)"/>
    <use xlink:href="#DejaVuSans-65" transform="translate(694.091797 0.015625)"/>
    <use xlink:href="#DejaVuSans-73" transform="translate(755.615234 0.015625)"/>
    <use xlink:href="#DejaVuSans-65" transform="translate(807.714844 0.015625)"/>
    <use xlink:href="#DejaVuSans-6e" transform="translate(869.238281 0.015625)"/>
    <use xlink:href="#DejaVuSans-74" transform="translate(932.617188 0.015625)"/>
    <use xlink:href="#DejaVuSans-73" transform="translate(971.826172 0.015625)"/>
    <use xlink:href="#DejaVuSans-20" transform="translate(1023.925781 0.015625)"/>
    <use xlink:href="#DejaVuSans-6d" transform="translate(1055.712891 0.015625)"/>
    <use xlink:href="#DejaVuSans-65" transform="translate(1153.125 0.015625)"/>
    <use xlink:href="#DejaVuSans-61" transform="translate(1214.648438 0.015625)"/>
    <use xlink:href="#DejaVuSans-6e" transform="translate(1275.927734 0.015625)"/>
    <use xlink:href="#DejaVuSans-20" transform="translate(1339.306641 0.015625)"/>
    <use xlink:href="#DejaVuSans-76" transform="translate(1371.09375 0.015625)"/>
    <use xlink:href="#DejaVuSans-61" transform="translate(1430.273438 0.015625)"/>
    <use xlink:href="#DejaVuSans-6c" transform="translate(1491.552734 0.015625)"/>
    <use xlink:href="#DejaVuSans-75" transform="translate(1519.335938 0.015625)"/>
    <use xlink:href="#DejaVuSans-65" transform="translate(1582.714844 0.015625)"/>
    <use xlink:href="#DejaVuSans-20" transform="translate(1644.238281 0.015625)"/>
    <use xlink:href="#DejaVuSans-61" transform="translate(1676.025391 0.015625)"/>
    <use xlink:href="#DejaVuSans-6e" transform="translate(1737.304688 0.015625)"/>
    <use xlink:href="#DejaVuSans-64" transform="translate(1800.683594 0.015625)"/>
    <use xlink:href="#DejaVuSans-20" transform="translate(1864.160156 0.015625)"/>
    <use xlink:href="#DejaVuSans-73" transform="translate(1895.947266 0.015625)"/>
    <use xlink:href="#DejaVuSans-68" transform="translate(1948.046875 0.015625)"/>
    <use xlink:href="#DejaVuSans-61" transform="translate(2011.425781 0.015625)"/>
    <use xlink:href="#DejaVuSans-64" transform="translate(2072.705078 0.015625)"/>
    <use xlink:href="#DejaVuSans-65" transform="translate(2136.181641 0.015625)"/>
    <use xlink:href="#DejaVuSans-20" transform="translate(2197.705078 0.015625)"/>
    <use xlink:href="#DejaVuSans-72" transform="translate(2229.492188 0.015625)"/>
    <use xlink:href="#DejaVuSans-65" transform="translate(2270.605469 0.015625)"/>
    <use xlink:href="#DejaVuSans-70" transform="translate(2332.128906 0.015625)"/>
    <use xlink:href="#DejaVuSans-72" transform="translate(2395.605469 0.015625)"/>
    <use xlink:href="#DejaVuSans-65" transform="translate(2436.71875 0.015625)"/>
    <use xlink:href="#DejaVuSans-73" transform="translate(2498.242188 0.015625)"/>
    <use xlink:href="#DejaVuSans-65" transform="translate(2550.341797 0.015625)"/>
    <use xlink:href="#DejaVuSans-6e" transform="translate(2611.865234 0.015625)"/>
    <use xlink:href="#DejaVuSans-74" transform="translate(2675.244141 0.015625)"/>
    <use xlink:href="#DejaVuSans-73" transform="translate(2714.453125 0.015625)"/>
    <use xlink:href="#DejaVuSans-20" transform="translate(2766.552734 0.015625)"/>
    <use xlink:href="#DejaVuSans-b1" transform="translate(2798.339844 0.015625)"/>
    <use xlink:href="#DejaVuSans-31" transform="translate(2882.128906 0.015625)"/>
    <use xlink:href="#DejaVuSans-20" transform="translate(2945.751953 0.015625)"/>
    <use xlink:href="#DejaVuSans-73" transform="translate(2977.539062 0.015625)"/>
    <use xlink:href="#DejaVuSans-74" transform="translate(3029.638672 0.015625)"/>
    <use xlink:href="#DejaVuSans-61" transform="translate(3068.847656 0.015625)"/>
    <use xlink:href="#DejaVuSans-6e" transform="translate(3130.126953 0.015625)"/>
    <use xlink:href="#DejaVuSans-64" transform="translate(3193.505859 0.015625)"/>
    <use xlink:href="#DejaVuSans-61" transform="translate(3256.982422 0.015625)"/>
    <use xlink:href="#DejaVuSans-72" transform="translate(3318.261719 0.015625)"/>
    <use xlink:href="#DejaVuSans-64" transform="translate(3359.375 0.015625)"/>
    <use xlink:href="#DejaVuSans-20" transform="translate(3422.851562 0.015625)"/>
    <use xlink:href="#DejaVuSans-64" transform="translate(3454.638672 0.015625)"/>
    <use xlink:href="#DejaVuSans-65" transform="translate(3518.115234 0.015625)"/>
    <use xlink:href="#DejaVuSans-76" transform="translate(3579.638672 0.015625)"/>
    <use xlink:href="#DejaVuSans-69" transform="translate(3638.818359 0.015625)"/>
    <use xlink:href="#DejaVuSans-61" transform="translate(3666.601562 0.015625)"/>
    <use xlink:href="#DejaVuSans-74" transform="translate(3727.880859 0.015625)"/>
    <use xlink:href="#DejaVuSans-69" transform="translate(3767.089844 0.015625)"/>
    <use xlink:href="#DejaVuSans-6f" transform="translate(3794.873047 0.015625)"/>
    <use xlink:href="#DejaVuSans-6e" transform="translate(3856.054688 0.015625)"/>
    <use xlink:href="#DejaVuSans-2e" transform="translate(3919.433594 0.015625)"/>
   </g>
  </g>
 </g>
 <defs>
  <clipPath id="p5250a40fa2">
   <rect x="56.571875" y="48.24" width="345.86876" height="326.32"/>
  </clipPath>
  <clipPath id="pbb8e20a201">
   <rect x="480.471875" y="48.24" width="345.86876" height="326.32"/>
  </clipPath>
 </defs>
</svg>
