<svg xmlns="http://www.w3.org/2000/svg" xmlns:xlink="http://www.w3.org/1999/xlink" version="1.1" width="416.4969pt" height="408.99314pt" viewBox="0 0 416.4969 408.99314">
<defs>
<clipPath id="clip_0">
<path transform="matrix(1,0,0,-1,0,408.99314)" d="M74.49687 60.79375H409.29689V393.43379H74.49687Z"/>
</clipPath>
<g id="font_1_48">
<path transform="matrix(.001,0,0,.001,0,0)" d="M318 664C267 664 229 639 203 589 177 539 165 464 165 364 165 264 177 189 203 139 229 89 267 64 318 64 369 64 407 89 433 139 458 189 471 264 471 364 471 464 458 539 433 589 407 639 369 664 318 664ZM318 742C399 742 461 709 505 645 548 580 570 486 570 364 570 241 548 147 505 83 461 19 399-13 317-13 235-13 173 19 130 83 87 147 66 241 66 364 66 486 87 580 130 645 173 709 236 742 318 742Z"/>
</g>
<clipPath id="clip_2">
<path transform="matrix(1,0,0,-1,0,408.99314)" d="M74.49687 60.79375H409.29689V393.43379H74.49687Z"/>
</clipPath>
<g id="font_1_53">
<path transform="matrix(.001,0,0,.001,0,0)" d="M108 729H495V646H198V467C212 472 227 476 241 478 255 480 270 482 284 482 365 482 429 459 477 415 525 370 549 310 549 234 549 155 524 94 475 51 426 8 357-13 269-13 238-13 207-10 175-6 143-1 111 6 77 17V116C106 100 136 88 168 80 199 72 232 69 267 69 323 69 368 83 401 113 433 143 450 183 450 234 450 284 433 324 401 354 368 384 323 399 267 399 241 399 214 396 188 390 162 384 135 375 108 363V729Z"/>
</g>
<clipPath id="clip_3">
<path transform="matrix(1,0,0,-1,0,408.99314)" d="M74.49687 60.79375H409.29689V393.43379H74.49687Z"/>
</clipPath>
<g id="font_1_49">
<path transform="matrix(.001,0,0,.001,0,0)" d="M124 83H285V639L110 604V694L284 729H383V83H544V0H124V83Z"/>
</g>
<g id="font_1_73">
<path transform="matrix(.001,0,0,.001,0,0)" d="M98 729H197V0H98V729Z"/>
</g>
<g id="font_1_116">
<path transform="matrix(.001,0,0,.001,0,0)" d="M183 702V547H368V477H183V180C183 135 189 106 201 94 213 81 238 75 276 75H368V0H276C206 0 158 13 132 39 106 65 93 112 93 180V477H27V547H93V702H183Z"/>
</g>
<g id="font_1_101">
<path transform="matrix(.001,0,0,.001,0,0)" d="M562 296V252H149C153 190 171 142 205 110 238 78 284 62 344 62 378 62 412 66 444 74 476 82 509 95 541 113V28C509 14 476 3 442-3 408-9 373-13 339-13 251-13 182 12 131 62 80 112 55 181 55 268 55 357 79 428 127 481 175 533 241 560 323 560 397 560 455 536 498 489 540 441 562 377 562 296ZM472 322C471 371 457 410 431 440 404 469 368 484 324 484 274 484 234 469 204 441 174 413 156 373 152 322H472Z"/>
</g>
<g id="font_1_114">
<path transform="matrix(.001,0,0,.001,0,0)" d="M411 463C401 469 390 473 378 476 366 478 353 480 339 480 288 480 249 463 222 430 194 397 181 350 181 288V0H91V547H181V462C199 495 224 520 254 536 284 552 321 560 365 560 371 560 378 559 386 559 393 558 401 557 411 555V463Z"/>
</g>
<g id="font_1_97">
<path transform="matrix(.001,0,0,.001,0,0)" d="M343 275C270 275 220 266 192 250 164 233 150 205 150 165 150 133 160 107 181 89 202 70 231 61 267 61 317 61 357 78 387 114 417 149 432 196 432 255V275H343ZM522 312V0H432V83C411 49 385 25 355 10 325-5 287-13 243-13 187-13 142 2 109 33 76 64 60 106 60 159 60 220 80 266 122 298 163 329 224 345 306 345H432V354C432 395 418 427 391 450 364 472 326 484 277 484 245 484 215 480 185 472 155 464 127 453 100 439V522C132 534 164 544 195 550 226 556 256 560 286 560 365 560 424 539 463 498 502 457 522 395 522 312Z"/>
</g>
<g id="font_1_105">
<path transform="matrix(.001,0,0,.001,0,0)" d="M94 547H184V0H94V547ZM94 760H184V646H94V760Z"/>
</g>
<g id="font_1_111">
<path transform="matrix(.001,0,0,.001,0,0)" d="M306 484C258 484 220 465 192 427 164 389 150 338 150 273 150 207 163 156 191 118 219 80 257 62 306 62 354 62 392 80 420 118 448 156 462 207 462 273 462 337 448 389 420 427 392 465 354 484 306 484ZM306 560C384 560 445 534 490 484 534 433 557 363 557 273 557 183 534 113 490 63 445 12 384-13 306-13 227-13 165 12 121 63 77 113 55 183 55 273 55 363 77 433 121 484 165 534 227 560 306 560Z"/>
</g>
<g id="font_1_110">
<path transform="matrix(.001,0,0,.001,0,0)" d="M549 330V0H459V327C459 379 448 417 428 443 408 469 378 482 338 482 289 482 251 466 223 435 195 404 181 362 181 309V0H91V547H181V462C202 494 227 519 257 535 286 551 320 560 358 560 420 560 468 540 500 501 532 462 549 405 549 330Z"/>
</g>
<clipPath id="clip_4">
<path transform="matrix(1,0,0,-1,0,408.99314)" d="M74.49687 60.79375H409.29689V393.43379H74.49687Z"/>
</clipPath>
<g id="font_1_54">
<path transform="matrix(.001,0,0,.001,0,0)" d="M330 404C286 404 251 388 225 358 199 328 186 286 186 234 186 181 199 139 225 109 251 79 286 64 330 64 374 64 409 79 435 109 461 139 474 181 474 234 474 286 461 328 435 358 409 388 374 404 330 404ZM526 713V623C501 635 476 644 451 650 425 656 400 659 376 659 310 659 260 637 226 593 192 549 172 482 168 394 187 422 211 444 240 459 269 474 301 482 336 482 409 482 467 459 509 415 551 371 573 310 573 234 573 159 550 99 506 54 462 9 403-13 330-13 246-13 181 19 137 83 92 147 70 241 70 364 70 479 97 571 152 639 206 707 280 742 372 742 396 742 421 739 447 735 472 730 498 723 526 713Z"/>
</g>
<g id="font_1_46">
<path transform="matrix(.001,0,0,.001,0,0)" d="M107 124H210V0H107V124Z"/>
</g>
<g id="font_1_56">
<path transform="matrix(.001,0,0,.001,0,0)" d="M318 346C271 346 234 333 207 308 180 283 167 249 167 205 167 161 180 126 207 101 234 76 271 64 318 64 364 64 401 76 428 102 455 127 469 161 469 205 469 249 455 283 429 308 402 333 365 346 318 346ZM219 388C177 398 144 418 120 447 96 476 85 511 85 553 85 611 105 657 147 691 188 725 245 742 318 742 390 742 447 725 489 691 530 657 551 611 551 553 551 511 539 476 515 447 491 418 459 398 417 388 464 377 501 355 528 323 554 291 568 251 568 205 568 134 546 80 503 43 459 5 397-13 317-13 237-13 175 5 132 43 89 80 68 134 68 205 68 251 81 291 108 323 134 355 171 377 219 388ZM183 544C183 506 194 476 218 455 242 434 275 424 318 424 360 424 393 434 417 455 441 476 453 506 453 544 453 582 441 611 417 632 393 653 360 664 318 664 275 664 242 653 218 632 194 611 183 582 183 544Z"/>
</g>
<clipPath id="clip_5">
<path transform="matrix(1,0,0,-1,0,408.99314)" d="M74.49687 60.79375H409.29689V393.43379H74.49687Z"/>
</clipPath>
<g id="font_1_55">
<path transform="matrix(.001,0,0,.001,0,0)" d="M82 729H551V687L286 0H183L432 646H82V729Z"/>
</g>
<clipPath id="clip_6">
<path transform="matrix(1,0,0,-1,0,408.99314)" d="M74.49687 60.79375H409.29689V393.43379H74.49687Z"/>
</clipPath>
<g id="font_1_50">
<path transform="matrix(.001,0,0,.001,0,0)" d="M192 83H536V0H73V83C110 121 161 173 226 239 290 304 331 346 348 365 380 400 402 430 414 455 426 479 433 504 433 528 433 566 419 598 392 622 365 646 330 659 286 659 255 659 222 653 188 643 154 632 117 616 78 594V694C118 710 155 722 189 730 223 738 255 742 284 742 359 742 419 723 464 685 509 647 532 597 532 534 532 504 526 475 515 449 504 422 484 390 454 354 446 344 420 317 376 272 332 227 271 164 192 83Z"/>
</g>
<clipPath id="clip_7">
<path transform="matrix(1,0,0,-1,0,408.99314)" d="M74.49687 60.79375H409.29689V393.43379H74.49687Z"/>
</clipPath>
<g id="font_1_52">
<path transform="matrix(.001,0,0,.001,0,0)" d="M378 643 129 254H378V643ZM352 729H476V254H580V172H476V0H378V172H49V267L352 729Z"/>
</g>
<clipPath id="clip_8">
<path transform="matrix(1,0,0,-1,0,408.99314)" d="M74.49687 60.79375H409.29689V393.43379H74.49687Z"/>
</clipPath>
<clipPath id="clip_9">
<path transform="matrix(1,0,0,-1,0,408.99314)" d="M74.49687 60.79375H409.29689V393.43379H74.49687Z"/>
</clipPath>
<clipPath id="clip_10">
<path transform="matrix(1,0,0,-1,0,408.99314)" d="M74.49687 60.79375H409.29689V393.43379H74.49687Z"/>
</clipPath>
<g id="font_1_76">
<path transform="matrix(.001,0,0,.001,0,0)" d="M98 729H197V83H552V0H98V729Z"/>
</g>
<g id="font_1_115">
<path transform="matrix(.001,0,0,.001,0,0)" d="M443 531V446C417 458 391 468 364 475 336 481 308 485 279 485 234 485 200 478 178 464 156 450 145 430 145 403 145 382 153 366 169 354 185 342 217 330 265 320L296 313C360 299 405 279 432 255 458 230 472 195 472 151 472 100 452 60 412 31 372 1 316-13 246-13 216-13 186-10 154-5 122 0 89 8 54 20V113C87 95 120 82 152 74 184 65 216 61 248 61 290 61 323 68 346 82 368 96 380 117 380 144 380 168 371 187 355 200 339 213 303 226 247 238L216 245C160 257 119 275 95 299 70 323 58 356 58 399 58 450 76 490 112 518 148 546 200 560 268 560 301 560 332 557 362 552 391 547 418 540 443 531Z"/>
</g>
<clipPath id="clip_11">
<path transform="matrix(1,0,0,-1,0,408.99314)" d="M74.49687 60.79375H409.29689V393.43379H74.49687Z"/>
</clipPath>
<clipPath id="clip_12">
<path transform="matrix(1,0,0,-1,0,408.99314)" d="M74.49687 60.79375H409.29689V393.43379H74.49687Z"/>
</clipPath>
<clipPath id="clip_13">
<path transform="matrix(1,0,0,-1,0,408.99314)" d="M74.49687 60.79375H409.29689V393.43379H74.49687Z"/>
</clipPath>
<clipPath id="clip_14">
<path transform="matrix(1,0,0,-1,0,408.99314)" d="M74.49687 60.79375H409.29689V393.43379H74.49687Z"/>
</clipPath>
<g id="font_1_83">
<path transform="matrix(.001,0,0,.001,0,0)" d="M535 705V609C497 627 462 640 429 649 395 657 363 662 333 662 279 662 237 651 208 631 179 610 165 580 165 542 165 510 174 485 194 469 213 452 250 439 304 429L364 417C437 403 491 378 526 343 561 307 579 260 579 201 579 130 555 77 508 41 460 5 391-13 300-13 265-13 228-9 189-2 150 5 110 16 69 32V134C109 111 148 94 186 83 224 71 262 66 300 66 356 66 399 77 430 99 460 121 476 152 476 194 476 230 465 258 443 278 421 298 385 313 335 323L275 335C201 349 148 372 115 404 82 435 66 478 66 534 66 598 88 649 134 686 179 723 242 742 322 742 356 742 390 739 426 733 461 727 497 717 535 705Z"/>
</g>
<g id="font_1_109">
<path transform="matrix(.001,0,0,.001,0,0)" d="M520 442C542 482 569 511 600 531 631 550 668 560 711 560 767 560 811 540 842 500 873 460 889 403 889 330V0H799V327C799 379 789 418 771 444 752 469 724 482 686 482 639 482 602 466 575 435 548 404 535 362 535 309V0H445V327C445 379 435 418 417 444 398 469 369 482 331 482 285 482 248 466 221 435 194 404 181 362 181 309V0H91V547H181V462C201 495 226 520 255 536 283 552 317 560 357 560 397 560 430 550 458 530 486 510 506 480 520 442Z"/>
</g>
<g id="font_1_67">
<path transform="matrix(.001,0,0,.001,0,0)" d="M644 673V569C610 599 575 622 537 638 499 653 460 661 418 661 334 661 270 635 226 584 182 533 160 460 160 364 160 268 182 194 226 143 270 92 334 67 418 67 460 67 499 74 537 90 575 105 610 128 644 159V56C609 32 572 15 534 4 496-7 455-13 412-13 302-13 215 20 151 87 87 154 56 246 56 364 56 481 87 573 151 641 215 708 302 742 412 742 456 742 497 736 535 725 573 713 610 696 644 673Z"/>
</g>
<g id="font_1_82">
<path transform="matrix(.001,0,0,.001,0,0)" d="M444 342C465 334 486 319 506 296 526 272 546 240 566 199L666 0H560L467 187C443 235 419 268 397 284 374 300 343 308 304 308H197V0H98V729H321C404 729 466 711 507 677 548 642 569 589 569 519 569 473 558 434 537 404 515 374 484 353 444 342ZM197 648V389H321C368 389 404 400 428 422 452 444 465 476 465 519 465 561 452 593 428 615 404 637 368 648 321 648H197Z"/>
</g>
<g id="font_1_32">
</g>
<g id="font_1_78">
<path transform="matrix(.001,0,0,.001,0,0)" d="M98 729H231L554 119V729H650V0H517L194 610V0H98V729Z"/>
</g>
<g id="font_1_103">
<path transform="matrix(.001,0,0,.001,0,0)" d="M454 280C454 344 440 395 414 431 387 467 349 485 301 485 253 485 215 467 188 431 161 395 148 344 148 280 148 215 161 165 188 129 215 93 253 75 301 75 349 75 387 93 414 129 440 165 454 215 454 280ZM544 68C544-24 523-93 482-139 440-184 377-207 292-207 260-207 231-204 203-200 175-195 147-188 121-178V-91C147-105 173-115 199-122 225-129 251-133 278-133 336-133 380-117 410-87 439-56 454-10 454 52V96C435 64 411 40 382 24 353 8 319 0 279 0 211 0 157 25 116 76 75 127 55 195 55 280 55 364 75 432 116 483 157 534 211 560 279 560 319 560 353 552 382 536 411 520 435 496 454 464V547H544V68Z"/>
</g>
<g id="font_1_99">
<path transform="matrix(.001,0,0,.001,0,0)" d="M488 526V442C462 456 437 466 411 473 385 480 360 484 334 484 276 484 230 465 198 428 166 391 150 339 150 273 150 206 166 154 198 117 230 80 276 62 334 62 360 62 385 65 411 72 437 79 462 90 488 104V21C462 9 436 0 410-5 383-10 354-13 324-13 242-13 176 12 128 64 79 115 55 185 55 273 55 362 79 432 128 483 177 534 244 560 330 560 358 560 385 557 411 551 437 545 463 537 488 526Z"/>
</g>
<g id="font_1_104">
<path transform="matrix(.001,0,0,.001,0,0)" d="M549 330V0H459V327C459 379 448 417 428 443 408 469 378 482 338 482 289 482 251 466 223 435 195 404 181 362 181 309V0H91V760H181V462C202 494 227 519 257 535 286 551 320 560 358 560 420 560 468 540 500 501 532 462 549 405 549 330Z"/>
</g>
<g id="font_1_69">
<path transform="matrix(.001,0,0,.001,0,0)" d="M98 729H559V646H197V430H544V347H197V83H568V0H98V729Z"/>
</g>
<g id="font_1_77">
<path transform="matrix(.001,0,0,.001,0,0)" d="M98 729H245L431 233 618 729H765V0H669V640L481 140H382L194 640V0H98V729Z"/>
</g>
</defs>
<path transform="matrix(1,0,0,-1,0,408.99314)" d="M0 0H416.4969V408.99314H0Z" fill="#ffffff"/>
<path transform="matrix(1,0,0,-1,0,408.99314)" d="M74.49687 60.79375H409.29689V393.43376H74.49687Z" fill="#ffffff"/>
<g clip-path="url(#clip_0)">
<path transform="matrix(1,0,0,-1,0,408.99314)" stroke-width=".8" stroke-linecap="square" stroke-linejoin="round" fill="none" stroke="#bebebe" d="M83.503559 60.79375V393.43376"/>
</g>
<path transform="matrix(1,0,0,-1,0,408.99314)" d="M83.503559 60.79375V57.29375"/>
<path transform="matrix(1,0,0,-1,0,408.99314)" stroke-width=".8" stroke-linecap="butt" stroke-linejoin="round" fill="none" stroke="#000000" d="M83.503559 60.79375V57.29375"/>
<use data-text="0" xlink:href="#font_1_48" transform="matrix(22,0,0,-22,76.503559,371.91813)"/>
<g clip-path="url(#clip_2)">
<path transform="matrix(1,0,0,-1,0,408.99314)" stroke-width=".8" stroke-linecap="square" stroke-linejoin="round" fill="none" stroke="#bebebe" d="M207.73361 60.79375V393.43376"/>
</g>
<path transform="matrix(1,0,0,-1,0,408.99314)" d="M207.73361 60.79375V57.29375"/>
<path transform="matrix(1,0,0,-1,0,408.99314)" stroke-width=".8" stroke-linecap="butt" stroke-linejoin="round" fill="none" stroke="#000000" d="M207.73361 60.79375V57.29375"/>
<use data-text="5" xlink:href="#font_1_53" transform="matrix(22,0,0,-22,186.73361,371.91813)"/>
<use data-text="0" xlink:href="#font_1_48" transform="matrix(22,0,0,-22,200.72562,371.91813)"/>
<use data-text="0" xlink:href="#font_1_48" transform="matrix(22,0,0,-22,214.71762,371.91813)"/>
<g clip-path="url(#clip_3)">
<path transform="matrix(1,0,0,-1,0,408.99314)" stroke-width=".8" stroke-linecap="square" stroke-linejoin="round" fill="none" stroke="#bebebe" d="M331.96366 60.79375V393.43376"/>
</g>
<path transform="matrix(1,0,0,-1,0,408.99314)" d="M331.96366 60.79375V57.29375"/>
<path transform="matrix(1,0,0,-1,0,408.99314)" stroke-width=".8" stroke-linecap="butt" stroke-linejoin="round" fill="none" stroke="#000000" d="M331.96366 60.79375V57.29375"/>
<use data-text="1" xlink:href="#font_1_49" transform="matrix(22,0,0,-22,303.96366,371.91813)"/>
<use data-text="0" xlink:href="#font_1_48" transform="matrix(22,0,0,-22,317.95567,371.91813)"/>
<use data-text="0" xlink:href="#font_1_48" transform="matrix(22,0,0,-22,331.94767,371.91813)"/>
<use data-text="0" xlink:href="#font_1_48" transform="matrix(22,0,0,-22,345.93968,371.91813)"/>
<use data-text="I" xlink:href="#font_1_73" transform="matrix(22,0,0,-22,195.24063,397.215)"/>
<use data-text="t" xlink:href="#font_1_116" transform="matrix(22,0,0,-22,201.73064,397.215)"/>
<use data-text="e" xlink:href="#font_1_101" transform="matrix(22,0,0,-22,210.35463,397.215)"/>
<use data-text="r" xlink:href="#font_1_114" transform="matrix(22,0,0,-22,223.88463,397.215)"/>
<use data-text="a" xlink:href="#font_1_97" transform="matrix(22,0,0,-22,232.92664,397.215)"/>
<use data-text="t" xlink:href="#font_1_116" transform="matrix(22,0,0,-22,246.41263,397.215)"/>
<use data-text="i" xlink:href="#font_1_105" transform="matrix(22,0,0,-22,255.03664,397.215)"/>
<use data-text="o" xlink:href="#font_1_111" transform="matrix(22,0,0,-22,261.15266,397.215)"/>
<use data-text="n" xlink:href="#font_1_110" transform="matrix(22,0,0,-22,274.61665,397.215)"/>
<g clip-path="url(#clip_4)">
<path transform="matrix(1,0,0,-1,0,408.99314)" stroke-width=".8" stroke-linecap="square" stroke-linejoin="round" fill="none" stroke="#bebebe" d="M74.49687 74.09935H409.29689"/>
</g>
<path transform="matrix(1,0,0,-1,0,408.99314)" d="M74.49687 74.09935H70.99687"/>
<path transform="matrix(1,0,0,-1,0,408.99314)" stroke-width=".8" stroke-linecap="butt" stroke-linejoin="round" fill="none" stroke="#000000" d="M74.49687 74.09935H70.99687"/>
<use data-text="6" xlink:href="#font_1_54" transform="matrix(22,0,0,-22,32.496877,343.25318)"/>
<use data-text="." xlink:href="#font_1_46" transform="matrix(22,0,0,-22,46.488878,343.25318)"/>
<use data-text="8" xlink:href="#font_1_56" transform="matrix(22,0,0,-22,53.48488,343.25318)"/>
<g clip-path="url(#clip_5)">
<path transform="matrix(1,0,0,-1,0,408.99314)" stroke-width=".8" stroke-linecap="square" stroke-linejoin="round" fill="none" stroke="#bebebe" d="M74.49687 127.32175H409.29689"/>
</g>
<path transform="matrix(1,0,0,-1,0,408.99314)" d="M74.49687 127.32175H70.99687"/>
<path transform="matrix(1,0,0,-1,0,408.99314)" stroke-width=".8" stroke-linecap="butt" stroke-linejoin="round" fill="none" stroke="#000000" d="M74.49687 127.32175H70.99687"/>
<use data-text="7" xlink:href="#font_1_55" transform="matrix(22,0,0,-22,32.496877,290.03077)"/>
<use data-text="." xlink:href="#font_1_46" transform="matrix(22,0,0,-22,46.488878,290.03077)"/>
<use data-text="0" xlink:href="#font_1_48" transform="matrix(22,0,0,-22,53.48488,290.03077)"/>
<g clip-path="url(#clip_6)">
<path transform="matrix(1,0,0,-1,0,408.99314)" stroke-width=".8" stroke-linecap="square" stroke-linejoin="round" fill="none" stroke="#bebebe" d="M74.49687 180.54415H409.29689"/>
</g>
<path transform="matrix(1,0,0,-1,0,408.99314)" d="M74.49687 180.54415H70.99687"/>
<path transform="matrix(1,0,0,-1,0,408.99314)" stroke-width=".8" stroke-linecap="butt" stroke-linejoin="round" fill="none" stroke="#000000" d="M74.49687 180.54415H70.99687"/>
<use data-text="7" xlink:href="#font_1_55" transform="matrix(22,0,0,-22,32.496877,236.80837)"/>
<use data-text="." xlink:href="#font_1_46" transform="matrix(22,0,0,-22,46.488878,236.80837)"/>
<use data-text="2" xlink:href="#font_1_50" transform="matrix(22,0,0,-22,53.48488,236.80837)"/>
<g clip-path="url(#clip_7)">
<path transform="matrix(1,0,0,-1,0,408.99314)" stroke-width=".8" stroke-linecap="square" stroke-linejoin="round" fill="none" stroke="#bebebe" d="M74.49687 233.76656H409.29689"/>
</g>
<path transform="matrix(1,0,0,-1,0,408.99314)" d="M74.49687 233.76656H70.99687"/>
<path transform="matrix(1,0,0,-1,0,408.99314)" stroke-width=".8" stroke-linecap="butt" stroke-linejoin="round" fill="none" stroke="#000000" d="M74.49687 233.76656H70.99687"/>
<use data-text="7" xlink:href="#font_1_55" transform="matrix(22,0,0,-22,32.496877,183.58596)"/>
<use data-text="." xlink:href="#font_1_46" transform="matrix(22,0,0,-22,46.488878,183.58596)"/>
<use data-text="4" xlink:href="#font_1_52" transform="matrix(22,0,0,-22,53.48488,183.58596)"/>
<g clip-path="url(#clip_8)">
<path transform="matrix(1,0,0,-1,0,408.99314)" stroke-width=".8" stroke-linecap="square" stroke-linejoin="round" fill="none" stroke="#bebebe" d="M74.49687 286.98896H409.29689"/>
</g>
<path transform="matrix(1,0,0,-1,0,408.99314)" d="M74.49687 286.98896H70.99687"/>
<path transform="matrix(1,0,0,-1,0,408.99314)" stroke-width=".8" stroke-linecap="butt" stroke-linejoin="round" fill="none" stroke="#000000" d="M74.49687 286.98896H70.99687"/>
<use data-text="7" xlink:href="#font_1_55" transform="matrix(22,0,0,-22,32.496877,130.36356)"/>
<use data-text="." xlink:href="#font_1_46" transform="matrix(22,0,0,-22,46.488878,130.36356)"/>
<use data-text="6" xlink:href="#font_1_54" transform="matrix(22,0,0,-22,53.48488,130.36356)"/>
<g clip-path="url(#clip_9)">
<path transform="matrix(1,0,0,-1,0,408.99314)" stroke-width=".8" stroke-linecap="square" stroke-linejoin="round" fill="none" stroke="#bebebe" d="M74.49687 340.21138H409.29689"/>
</g>
<path transform="matrix(1,0,0,-1,0,408.99314)" d="M74.49687 340.21138H70.99687"/>
<path transform="matrix(1,0,0,-1,0,408.99314)" stroke-width=".8" stroke-linecap="butt" stroke-linejoin="round" fill="none" stroke="#000000" d="M74.49687 340.21138H70.99687"/>
<use data-text="7" xlink:href="#font_1_55" transform="matrix(22,0,0,-22,32.496877,77.14114)"/>
<use data-text="." xlink:href="#font_1_46" transform="matrix(22,0,0,-22,46.488878,77.14114)"/>
<use data-text="8" xlink:href="#font_1_56" transform="matrix(22,0,0,-22,53.48488,77.14114)"/>
<g clip-path="url(#clip_10)">
<path transform="matrix(1,0,0,-1,0,408.99314)" stroke-width=".8" stroke-linecap="square" stroke-linejoin="round" fill="none" stroke="#bebebe" d="M74.49687 393.43376H409.29689"/>
</g>
<path transform="matrix(1,0,0,-1,0,408.99314)" d="M74.49687 393.43376H70.99687"/>
<path transform="matrix(1,0,0,-1,0,408.99314)" stroke-width=".8" stroke-linecap="butt" stroke-linejoin="round" fill="none" stroke="#000000" d="M74.49687 393.43376H70.99687"/>
<use data-text="8" xlink:href="#font_1_56" transform="matrix(22,0,0,-22,32.496877,23.918763)"/>
<use data-text="." xlink:href="#font_1_46" transform="matrix(22,0,0,-22,46.488878,23.918763)"/>
<use data-text="0" xlink:href="#font_1_48" transform="matrix(22,0,0,-22,53.48488,23.918763)"/>
<use data-text="L" xlink:href="#font_1_76" transform="matrix(0,-22,-22,-0,23.91875,206.02782)"/>
<use data-text="o" xlink:href="#font_1_111" transform="matrix(0,-22,-22,-0,23.91875,194.14882)"/>
<use data-text="s" xlink:href="#font_1_115" transform="matrix(0,-22,-22,-0,23.91875,180.68482)"/>
<use data-text="s" xlink:href="#font_1_115" transform="matrix(0,-22,-22,-0,23.91875,169.22281)"/>
<g clip-path="url(#clip_11)">
<path transform="matrix(1,0,0,-1,0,408.99314)" stroke-width="3" stroke-linecap="square" stroke-linejoin="round" fill="none" stroke="#1f77b4" d="M89.71506 210.1059 95.92656 209.4727 102.13806 208.01332 108.34956 205.83229 114.561069 203.26566 120.77257 200.4503 126.98408 193.86688 133.19557 188.03226 139.40708 181.37448 145.61858 182.72106 151.83008 176.44866 158.04158 172.20844 164.2531 167.95767 170.4646 165.93196 176.6761 163.62012 182.8876 161.1234 189.0991 155.76462 195.31061 154.47818 201.52211 153.99663 207.73361 146.20432 213.94512 140.8374 220.15662 137.32338 226.36812 137.24079 232.57962 132.06536 238.79113 135.25112 245.00263 133.22553 251.21413 126.146228 257.42564 126.18861 263.63716 125.44882 269.84864 126.7062 276.06016 126.85479 282.27165 128.08919 288.48316 122.10826 294.69465 121.067119 300.90617 120.226329 307.11766 119.059429 313.32917 116.06439 319.54066 113.26312 325.75218 113.128368 331.96366 114.31607 338.17518 113.56893 344.38667 111.00178 350.59819 107.516819 356.80967 106.059207 363.02119 110.31225 369.2327 113.199428 375.44419 110.109477 381.6557 103.810298 387.8672 103.5135 394.0787 100.23168"/>
</g>
<g clip-path="url(#clip_12)">
<path transform="matrix(1,0,0,-1,0,408.99314)" stroke-width="3" stroke-linecap="square" stroke-linejoin="round" fill="none" stroke="#ff7f0e" d="M89.71506 210.43048 95.92656 211.43827 102.13806 212.60376 108.34956 213.70862 114.561069 210.23914 120.77257 207.94441 126.98408 201.25289 133.19557 208.14237 139.40708 213.483 145.61858 228.10211 151.83008 239.9466 158.04158 227.66928 164.2531 233.8252 170.4646 248.75836 176.6761 258.5368 182.8876 267.18489 189.0991 264.5704 195.31061 274.24555 201.52211 266.4337 207.73361 298.46238 213.94512 318.29893 220.15662 341.07096 226.36812 342.97257 232.57962 380.83717 238.79113 401.16606 241.44403 409.99314M285.04524 409.99314 288.48316 224.70636 294.69465 156.95308 297.9054 409.99314M329.3758 409.99314 331.96366 106.73719 333.96 409.99314"/>
</g>
<g clip-path="url(#clip_13)">
<path transform="matrix(1,0,0,-1,0,408.99314)" stroke-width="3" stroke-linecap="square" stroke-linejoin="round" fill="none" stroke="#2ca02c" d="M89.71506 210.28723 95.92656 210.11148 102.13806 209.5666 108.34956 208.788 114.561069 207.78098 120.77257 206.66432 126.98408 203.78299 133.19557 201.12866 139.40708 197.75955 145.61858 198.70401 151.83008 195.35646 158.04158 193.11606 164.2531 189.7137 170.4646 188.50353 176.6761 186.66132 182.8876 184.93367 189.0991 181.10597 195.31061 180.2237 201.52211 179.27924 207.73361 173.19095 213.94512 168.97243 220.15662 165.3324 226.36812 165.22112 232.57962 160.15799 238.79113 162.13904 245.00263 159.66794 251.21413 153.20558 257.42564 152.79698 263.63716 151.17531 269.84864 152.67047 276.06016 152.14171 282.27165 153.42879 288.48316 147.89134 294.69465 146.192 300.90617 145.03957 307.11766 143.96099 313.32917 141.1134 319.54066 138.10137 325.75218 137.37415 331.96366 137.96292 338.17518 137.14485 344.38667 134.57135 350.59819 131.15097 356.80967 129.44783 363.02119 132.57863 369.2327 135.14592 375.44419 132.52103 381.6557 128.27332 387.8672 127.627819 394.0787 125.63104"/>
</g>
<g clip-path="url(#clip_14)">
<path transform="matrix(1,0,0,-1,0,408.99314)" stroke-width="3" stroke-linecap="square" stroke-linejoin="round" fill="none" stroke="#d62728" d="M89.71506 209.50139 95.92656 207.29892 102.13806 203.96395 108.34956 197.72084 114.561069 190.65956 120.77257 183.21836 126.98408 175.1513 133.19557 166.63089 139.40708 158.89225 145.61858 149.06941 151.83008 140.55419 158.04158 136.06221 164.2531 129.68424 170.4646 124.61666 176.6761 122.08009 182.8876 116.6179 189.0991 113.91598 195.31061 113.11618 201.52211 111.06446 207.73361 109.32845 213.94512 108.81454 220.15662 106.848857 226.36812 105.05117 232.57962 103.97069 238.79113 102.73019 245.00263 102.095478 251.21413 101.61963 257.42564 100.998119 263.63716 100.39525 269.84864 100.1006 276.06016 99.73059 282.27165 99.65902 288.48316 99.3777 294.69465 99.15881 300.90617 99.035099 307.11766 98.98928 313.32917 98.88155 319.54066 98.76786 325.75218 98.68398 331.96366 98.58095 338.17518 98.49986 344.38667 98.46078 350.59819 98.43984 356.80967 98.40469 363.02119 98.38541 369.2327 98.33668 375.44419 98.30191 381.6557 98.30686 387.8672 98.329578 394.0787 98.32018"/>
</g>
<path transform="matrix(1,0,0,-1,0,408.99314)" stroke-width=".8" stroke-linecap="square" stroke-miterlimit="10" stroke-linejoin="miter" fill="none" stroke="#000000" d="M74.49687 60.79375V393.43376"/>
<path transform="matrix(1,0,0,-1,0,408.99314)" stroke-width=".8" stroke-linecap="square" stroke-miterlimit="10" stroke-linejoin="miter" fill="none" stroke="#000000" d="M409.29689 60.79375V393.43376"/>
<path transform="matrix(1,0,0,-1,0,408.99314)" stroke-width=".8" stroke-linecap="square" stroke-miterlimit="10" stroke-linejoin="miter" fill="none" stroke="#000000" d="M74.49687 60.79375H409.29689"/>
<path transform="matrix(1,0,0,-1,0,408.99314)" stroke-width=".8" stroke-linecap="square" stroke-miterlimit="10" stroke-linejoin="miter" fill="none" stroke="#000000" d="M74.49687 393.43376H409.29689"/>
<g>
<path transform="matrix(1,0,0,-1,0,408.99314)" d="M190.1375 246.64626H393.89689C396.8302 246.64626 398.29689 248.11292 398.29689 251.04625V378.03376C398.29689 380.96708 396.8302 382.43376 393.89689 382.43376H190.1375C187.20417 382.43376 185.7375 380.96708 185.7375 378.03376V251.04625C185.7375 248.11292 187.20417 246.64626 190.1375 246.64626Z" fill="#ffffff" fill-opacity=".8"/>
<path transform="matrix(1,0,0,-1,0,408.99314)" stroke-width="1" stroke-linecap="butt" stroke-miterlimit="10" stroke-linejoin="miter" fill="none" stroke="#d5d6d5" stroke-opacity=".8" d="M190.1375 246.64626H393.89689C396.8302 246.64626 398.29689 248.11292 398.29689 251.04625V378.03376C398.29689 380.96708 396.8302 382.43376 393.89689 382.43376H190.1375C187.20417 382.43376 185.7375 380.96708 185.7375 378.03376V251.04625C185.7375 248.11292 187.20417 246.64626 190.1375 246.64626Z"/>
</g>
<path transform="matrix(1,0,0,-1,0,408.99314)" stroke-width="3" stroke-linecap="square" stroke-linejoin="round" fill="none" stroke="#1f77b4" d="M194.5375 364.615H216.5375 238.5375"/>
<use data-text="S" xlink:href="#font_1_83" transform="matrix(22,0,0,-22,256.1375,52.078126)"/>
<use data-text="i" xlink:href="#font_1_105" transform="matrix(22,0,0,-22,270.1075,52.078126)"/>
<use data-text="m" xlink:href="#font_1_109" transform="matrix(22,0,0,-22,276.2235,52.078126)"/>
<use data-text="C" xlink:href="#font_1_67" transform="matrix(22,0,0,-22,297.65153,52.078126)"/>
<use data-text="L" xlink:href="#font_1_76" transform="matrix(22,0,0,-22,313.0075,52.078126)"/>
<use data-text="R" xlink:href="#font_1_82" transform="matrix(22,0,0,-22,325.2615,52.078126)"/>
<use data-text=" " xlink:href="#font_1_32" transform="matrix(22,0,0,-22,340.5515,52.078126)"/>
<path transform="matrix(1,0,0,-1,0,408.99314)" stroke-width="3" stroke-linecap="square" stroke-linejoin="round" fill="none" stroke="#ff7f0e" d="M194.5375 332.3181H216.5375 238.5375"/>
<use data-text="N" xlink:href="#font_1_78" transform="matrix(22,0,0,-22,256.1375,84.375)"/>
<use data-text="e" xlink:href="#font_1_101" transform="matrix(22,0,0,-22,272.5935,84.375)"/>
<use data-text="g" xlink:href="#font_1_103" transform="matrix(22,0,0,-22,286.1235,84.375)"/>
<use data-text="." xlink:href="#font_1_46" transform="matrix(22,0,0,-22,300.0935,84.375)"/>
<use data-text=" " xlink:href="#font_1_32" transform="matrix(22,0,0,-22,307.0895,84.375)"/>
<use data-text="C" xlink:href="#font_1_67" transform="matrix(22,0,0,-22,314.0855,84.375)"/>
<use data-text="a" xlink:href="#font_1_97" transform="matrix(22,0,0,-22,329.44154,84.375)"/>
<use data-text="c" xlink:href="#font_1_99" transform="matrix(22,0,0,-22,342.92753,84.375)"/>
<use data-text="h" xlink:href="#font_1_104" transform="matrix(22,0,0,-22,355.02754,84.375)"/>
<use data-text="e" xlink:href="#font_1_101" transform="matrix(22,0,0,-22,368.97554,84.375)"/>
<use data-text=" " xlink:href="#font_1_32" transform="matrix(22,0,0,-22,382.50553,84.375)"/>
<path transform="matrix(1,0,0,-1,0,408.99314)" stroke-width="3" stroke-linecap="square" stroke-linejoin="round" fill="none" stroke="#2ca02c" d="M194.5375 300.02125H216.5375 238.5375"/>
<use data-text="S" xlink:href="#font_1_83" transform="matrix(22,0,0,-22,256.1375,116.671878)"/>
<use data-text="o" xlink:href="#font_1_111" transform="matrix(22,0,0,-22,270.1075,116.671878)"/>
<use data-text="g" xlink:href="#font_1_103" transform="matrix(22,0,0,-22,283.5715,116.671878)"/>
<use data-text="C" xlink:href="#font_1_67" transform="matrix(22,0,0,-22,297.5415,116.671878)"/>
<use data-text="L" xlink:href="#font_1_76" transform="matrix(22,0,0,-22,312.89753,116.671878)"/>
<use data-text="R" xlink:href="#font_1_82" transform="matrix(22,0,0,-22,325.15153,116.671878)"/>
<use data-text=" " xlink:href="#font_1_32" transform="matrix(22,0,0,-22,340.44154,116.671878)"/>
<path transform="matrix(1,0,0,-1,0,408.99314)" stroke-width="3" stroke-linecap="square" stroke-linejoin="round" fill="none" stroke="#d62728" d="M194.5375 267.72438H216.5375 238.5375"/>
<use data-text="E" xlink:href="#font_1_69" transform="matrix(22,0,0,-22,256.1375,148.82032)"/>
<use data-text="M" xlink:href="#font_1_77" transform="matrix(22,0,0,-22,270.0379,148.82032)"/>
<use data-text="C" xlink:href="#font_1_67" transform="matrix(22,0,0,-22,289.01936,148.82032)"/>
<use data-text="2" xlink:href="#font_1_50" transform="matrix(15.4,0,0,-15.4,304.59123,140.39844)"/>
<use data-text=" " xlink:href="#font_1_32" transform="matrix(22,0,0,-22,314.99073,148.82032)"/>
</svg>
