<svg xmlns="http://www.w3.org/2000/svg" xmlns:xlink="http://www.w3.org/1999/xlink" version="1.1" width="464.41053" height="339.79377" viewBox="0 0 464.41053 339.79377">
<defs>
<clipPath id="clip_0">
<path transform="matrix(1,0,0,-1,0,339.79377)" d="M91.49687 60.79375H454.1969V332.59376H91.49687Z"/>
</clipPath>
<g id="font_1_49">
<path transform="matrix(.001,0,0,.001,0,0)" d="M124 83H285V639L110 604V694L284 729H383V83H544V0H124V83Z"/>
</g>
<g id="font_1_48">
<path transform="matrix(.001,0,0,.001,0,0)" d="M318 664C267 664 229 639 203 589 177 539 165 464 165 364 165 264 177 189 203 139 229 89 267 64 318 64 369 64 407 89 433 139 458 189 471 264 471 364 471 464 458 539 433 589 407 639 369 664 318 664ZM318 742C399 742 461 709 505 645 548 580 570 486 570 364 570 241 548 147 505 83 461 19 399-13 317-13 235-13 173 19 130 83 87 147 66 241 66 364 66 486 87 580 130 645 173 709 236 742 318 742Z"/>
</g>
<g id="font_1_53">
<path transform="matrix(.001,0,0,.001,0,0)" d="M108 729H495V646H198V467C212 472 227 476 241 478 255 480 270 482 284 482 365 482 429 459 477 415 525 370 549 310 549 234 549 155 524 94 475 51 426 8 357-13 269-13 238-13 207-10 175-6 143-1 111 6 77 17V116C106 100 136 88 168 80 199 72 232 69 267 69 323 69 368 83 401 113 433 143 450 183 450 234 450 284 433 324 401 354 368 384 323 399 267 399 241 399 214 396 188 390 162 384 135 375 108 363V729Z"/>
</g>
<clipPath id="clip_2">
<path transform="matrix(1,0,0,-1,0,339.79377)" d="M91.49687 60.79375H454.1969V332.59376H91.49687Z"/>
</clipPath>
<g id="font_1_54">
<path transform="matrix(.001,0,0,.001,0,0)" d="M330 404C286 404 251 388 225 358 199 328 186 286 186 234 186 181 199 139 225 109 251 79 286 64 330 64 374 64 409 79 435 109 461 139 474 181 474 234 474 286 461 328 435 358 409 388 374 404 330 404ZM526 713V623C501 635 476 644 451 650 425 656 400 659 376 659 310 659 260 637 226 593 192 549 172 482 168 394 187 422 211 444 240 459 269 474 301 482 336 482 409 482 467 459 509 415 551 371 573 310 573 234 573 159 550 99 506 54 462 9 403-13 330-13 246-13 181 19 137 83 92 147 70 241 70 364 70 479 97 571 152 639 206 707 280 742 372 742 396 742 421 739 447 735 472 730 498 723 526 713Z"/>
</g>
<clipPath id="clip_3">
<path transform="matrix(1,0,0,-1,0,339.79377)" d="M91.49687 60.79375H454.1969V332.59376H91.49687Z"/>
</clipPath>
<g id="font_1_55">
<path transform="matrix(.001,0,0,.001,0,0)" d="M82 729H551V687L286 0H183L432 646H82V729Z"/>
</g>
<g id="font_1_73">
<path transform="matrix(.001,0,0,.001,0,0)" d="M98 729H197V0H98V729Z"/>
</g>
<g id="font_1_116">
<path transform="matrix(.001,0,0,.001,0,0)" d="M183 702V547H368V477H183V180C183 135 189 106 201 94 213 81 238 75 276 75H368V0H276C206 0 158 13 132 39 106 65 93 112 93 180V477H27V547H93V702H183Z"/>
</g>
<g id="font_1_101">
<path transform="matrix(.001,0,0,.001,0,0)" d="M562 296V252H149C153 190 171 142 205 110 238 78 284 62 344 62 378 62 412 66 444 74 476 82 509 95 541 113V28C509 14 476 3 442-3 408-9 373-13 339-13 251-13 182 12 131 62 80 112 55 181 55 268 55 357 79 428 127 481 175 533 241 560 323 560 397 560 455 536 498 489 540 441 562 377 562 296ZM472 322C471 371 457 410 431 440 404 469 368 484 324 484 274 484 234 469 204 441 174 413 156 373 152 322H472Z"/>
</g>
<g id="font_1_114">
<path transform="matrix(.001,0,0,.001,0,0)" d="M411 463C401 469 390 473 378 476 366 478 353 480 339 480 288 480 249 463 222 430 194 397 181 350 181 288V0H91V547H181V462C199 495 224 520 254 536 284 552 321 560 365 560 371 560 378 559 386 559 393 558 401 557 411 555V463Z"/>
</g>
<g id="font_1_97">
<path transform="matrix(.001,0,0,.001,0,0)" d="M343 275C270 275 220 266 192 250 164 233 150 205 150 165 150 133 160 107 181 89 202 70 231 61 267 61 317 61 357 78 387 114 417 149 432 196 432 255V275H343ZM522 312V0H432V83C411 49 385 25 355 10 325-5 287-13 243-13 187-13 142 2 109 33 76 64 60 106 60 159 60 220 80 266 122 298 163 329 224 345 306 345H432V354C432 395 418 427 391 450 364 472 326 484 277 484 245 484 215 480 185 472 155 464 127 453 100 439V522C132 534 164 544 195 550 226 556 256 560 286 560 365 560 424 539 463 498 502 457 522 395 522 312Z"/>
</g>
<g id="font_1_105">
<path transform="matrix(.001,0,0,.001,0,0)" d="M94 547H184V0H94V547ZM94 760H184V646H94V760Z"/>
</g>
<g id="font_1_111">
<path transform="matrix(.001,0,0,.001,0,0)" d="M306 484C258 484 220 465 192 427 164 389 150 338 150 273 150 207 163 156 191 118 219 80 257 62 306 62 354 62 392 80 420 118 448 156 462 207 462 273 462 337 448 389 420 427 392 465 354 484 306 484ZM306 560C384 560 445 534 490 484 534 433 557 363 557 273 557 183 534 113 490 63 445 12 384-13 306-13 227-13 165 12 121 63 77 113 55 183 55 273 55 363 77 433 121 484 165 534 227 560 306 560Z"/>
</g>
<g id="font_1_110">
<path transform="matrix(.001,0,0,.001,0,0)" d="M549 330V0H459V327C459 379 448 417 428 443 408 469 378 482 338 482 289 482 251 466 223 435 195 404 181 362 181 309V0H91V547H181V462C202 494 227 519 257 535 286 551 320 560 358 560 420 560 468 540 500 501 532 462 549 405 549 330Z"/>
</g>
<clipPath id="clip_4">
<path transform="matrix(1,0,0,-1,0,339.79377)" d="M91.49687 60.79375H454.1969V332.59376H91.49687Z"/>
</clipPath>
<g id="font_1_51">
<path transform="matrix(.001,0,0,.001,0,0)" d="M406 393C453 383 490 362 516 330 542 298 556 258 556 212 556 140 531 84 482 45 432 6 362-13 271-13 240-13 208-10 176-4 144 1 110 10 76 22V117C103 101 133 89 166 81 198 73 232 69 268 69 330 69 377 81 409 105 441 129 458 165 458 212 458 254 443 288 413 312 383 336 341 349 287 349H202V430H291C339 430 376 439 402 459 428 478 441 506 441 543 441 580 427 609 401 629 374 649 336 659 287 659 260 659 231 656 200 650 169 644 135 635 98 623V711C135 721 170 729 203 734 235 739 266 742 296 742 370 742 429 725 473 691 517 657 539 611 539 553 539 513 527 479 504 451 481 423 448 403 406 393Z"/>
</g>
<clipPath id="clip_5">
<path transform="matrix(.0154,0,0,-.0154,60.70156,277.50355)" d="M-1021-463H1794V1233H-1021Z"/>
</clipPath>
<clipPath id="clip_6">
<path transform="matrix(1,0,0,-1,0,339.79377)" d="M91.49687 60.79375H454.1969V332.59376H91.49687Z"/>
</clipPath>
<g id="font_1_50">
<path transform="matrix(.001,0,0,.001,0,0)" d="M192 83H536V0H73V83C110 121 161 173 226 239 290 304 331 346 348 365 380 400 402 430 414 455 426 479 433 504 433 528 433 566 419 598 392 622 365 646 330 659 286 659 255 659 222 653 188 643 154 632 117 616 78 594V694C118 710 155 722 189 730 223 738 255 742 284 742 359 742 419 723 464 685 509 647 532 597 532 534 532 504 526 475 515 449 504 422 484 390 454 354 446 344 420 317 376 272 332 227 271 164 192 83Z"/>
</g>
<clipPath id="clip_7">
<path transform="matrix(.0154,0,0,-.0154,60.70156,201.25899)" d="M-1021-463H1794V1233H-1021Z"/>
</clipPath>
<clipPath id="clip_8">
<path transform="matrix(1,0,0,-1,0,339.79377)" d="M91.49687 60.79375H454.1969V332.59376H91.49687Z"/>
</clipPath>
<clipPath id="clip_9">
<path transform="matrix(.0154,0,0,-.0154,60.70156,124.806629)" d="M-1021-463H1794V1233H-1021Z"/>
</clipPath>
<clipPath id="clip_10">
<path transform="matrix(1,0,0,-1,0,339.79377)" d="M91.49687 60.79375H454.1969V332.59376H91.49687Z"/>
</clipPath>
<g id="font_1_67">
<path transform="matrix(.001,0,0,.001,0,0)" d="M644 673V569C610 599 575 622 537 638 499 653 460 661 418 661 334 661 270 635 226 584 182 533 160 460 160 364 160 268 182 194 226 143 270 92 334 67 418 67 460 67 499 74 537 90 575 105 610 128 644 159V56C609 32 572 15 534 4 496-7 455-13 412-13 302-13 215 20 151 87 87 154 56 246 56 364 56 481 87 573 151 641 215 708 302 742 412 742 456 742 497 736 535 725 573 713 610 696 644 673Z"/>
</g>
<g id="font_1_115">
<path transform="matrix(.001,0,0,.001,0,0)" d="M443 531V446C417 458 391 468 364 475 336 481 308 485 279 485 234 485 200 478 178 464 156 450 145 430 145 403 145 382 153 366 169 354 185 342 217 330 265 320L296 313C360 299 405 279 432 255 458 230 472 195 472 151 472 100 452 60 412 31 372 1 316-13 246-13 216-13 186-10 154-5 122 0 89 8 54 20V113C87 95 120 82 152 74 184 65 216 61 248 61 290 61 323 68 346 82 368 96 380 117 380 144 380 168 371 187 355 200 339 213 303 226 247 238L216 245C160 257 119 275 95 299 70 323 58 356 58 399 58 450 76 490 112 518 148 546 200 560 268 560 301 560 332 557 362 552 391 547 418 540 443 531Z"/>
</g>
<g id="font_1_117">
<path transform="matrix(.001,0,0,.001,0,0)" d="M85 216V547H175V219C175 167 185 129 205 103 225 77 255 64 296 64 344 64 383 79 411 110 439 141 453 183 453 237V547H543V0H453V84C431 50 405 26 377 10 348-5 315-13 277-13 214-13 166 6 134 45 101 83 85 140 85 216ZM311 560V560Z"/>
</g>
<g id="font_1_32">
</g>
<g id="font_1_69">
<path transform="matrix(.001,0,0,.001,0,0)" d="M98 729H559V646H197V430H544V347H197V83H568V0H98V729Z"/>
</g>
<clipPath id="clip_11">
<path transform="matrix(1,0,0,-1,0,339.79377)" d="M91.49687 60.79375H454.1969V332.59376H91.49687Z"/>
</clipPath>
<clipPath id="clip_12">
<path transform="matrix(1,0,0,-1,0,339.79377)" d="M91.49687 60.79375H454.1969V332.59376H91.49687Z"/>
</clipPath>
<clipPath id="clip_13">
<path transform="matrix(1,0,0,-1,0,339.79377)" d="M91.49687 60.79375H454.1969V332.59376H91.49687Z"/>
</clipPath>
<clipPath id="clip_14">
<path transform="matrix(1,0,0,-1,0,339.79377)" d="M91.49687 60.79375H454.1969V332.59376H91.49687Z"/>
</clipPath>
<clipPath id="clip_15">
<path transform="matrix(1,0,0,-1,0,339.79377)" d="M91.49687 60.79375H454.1969V332.59376H91.49687Z"/>
</clipPath>
<g id="font_1_46">
<path transform="matrix(.001,0,0,.001,0,0)" d="M107 124H210V0H107V124Z"/>
</g>
<g id="font_1_37">
<path transform="matrix(.001,0,0,.001,0,0)" d="M727 321C699 321 676 309 660 285 644 261 636 227 636 184 636 142 644 108 660 84 676 60 699 48 727 48 755 48 777 60 793 84 809 108 817 142 817 184 817 226 809 260 793 284 777 308 755 321 727 321ZM727 383C778 383 819 365 849 329 879 293 895 244 895 184 895 123 879 75 849 40 819 4 778-13 727-13 675-13 633 4 603 40 573 75 558 123 558 184 558 245 573 293 603 329 633 365 675 383 727 383ZM223 680C195 680 173 667 157 643 141 619 133 586 133 544 133 500 141 467 157 443 173 419 195 407 223 407 251 407 274 419 290 443 306 467 314 500 314 544 314 586 305 619 289 643 273 667 251 680 223 680ZM664 742H742L286-13H208L664 742ZM223 742C274 742 315 724 346 688 376 652 392 604 392 544 392 482 376 434 346 398 316 362 275 345 223 345 171 345 130 362 100 398 70 434 55 482 55 544 55 604 70 652 100 688 130 724 171 742 223 742Z"/>
</g>
<g id="font_1_100">
<path transform="matrix(.001,0,0,.001,0,0)" d="M454 464V760H544V0H454V82C435 49 411 25 382 10 353-5 319-13 279-13 213-13 159 13 117 65 75 117 55 187 55 273 55 359 75 428 117 481 159 533 213 560 279 560 319 560 353 552 382 536 411 520 435 496 454 464ZM148 273C148 207 161 155 188 117 215 79 252 61 300 61 348 61 385 79 413 117 440 155 454 207 454 273 454 339 440 390 413 428 385 466 348 485 300 485 252 485 215 466 188 428 161 390 148 339 148 273Z"/>
</g>
<g id="font_1_45">
<path transform="matrix(.001,0,0,.001,0,0)" d="M49 314H312V234H49V314Z"/>
</g>
<g id="font_1_107">
<path transform="matrix(.001,0,0,.001,0,0)" d="M91 760H181V311L449 547H564L274 291 576 0H459L181 267V0H91V760Z"/>
</g>
<g id="font_1_47">
<path transform="matrix(.001,0,0,.001,0,0)" d="M254 729H337L83-92H0L254 729Z"/>
</g>
<g id="font_1_52">
<path transform="matrix(.001,0,0,.001,0,0)" d="M378 643 129 254H378V643ZM352 729H476V254H580V172H476V0H378V172H49V267L352 729Z"/>
</g>
<g id="font_1_103">
<path transform="matrix(.001,0,0,.001,0,0)" d="M454 280C454 344 440 395 414 431 387 467 349 485 301 485 253 485 215 467 188 431 161 395 148 344 148 280 148 215 161 165 188 129 215 93 253 75 301 75 349 75 387 93 414 129 440 165 454 215 454 280ZM544 68C544-24 523-93 482-139 440-184 377-207 292-207 260-207 231-204 203-200 175-195 147-188 121-178V-91C147-105 173-115 199-122 225-129 251-133 278-133 336-133 380-117 410-87 439-56 454-10 454 52V96C435 64 411 40 382 24 353 8 319 0 279 0 211 0 157 25 116 76 75 127 55 195 55 280 55 364 75 432 116 483 157 534 211 560 279 560 319 560 353 552 382 536 411 520 435 496 454 464V547H544V68Z"/>
</g>
</defs>
<path transform="matrix(1,0,0,-1,0,339.79377)" d="M91.49687 60.79375H454.19688V332.59376H91.49687Z" fill="#ffffff"/>
<g clip-path="url(#clip_0)">
<path transform="matrix(1,0,0,-1,0,339.79377)" stroke-width=".8" stroke-linecap="square" stroke-linejoin="round" fill="none" stroke="#bebebe" d="M193.37488 60.79375V332.59376"/>
</g>
<path transform="matrix(1,0,0,-1,0,339.79377)" d="M193.37488 60.79375V57.29375"/>
<path transform="matrix(1,0,0,-1,0,339.79377)" stroke-width=".8" stroke-linecap="butt" stroke-linejoin="round" fill="none" stroke="#000000" d="M193.37488 60.79375V57.29375"/>
<use data-text="1" xlink:href="#font_1_49" transform="matrix(22,0,0,-22,173.87488,302.3625)"/>
<use data-text="0" xlink:href="#font_1_48" transform="matrix(22,0,0,-22,187.87195,302.3625)"/>
<use data-text="5" xlink:href="#font_1_53" transform="matrix(15.4,0,0,-15.4,202.07956,293.9406)"/>
<g clip-path="url(#clip_2)">
<path transform="matrix(1,0,0,-1,0,339.79377)" stroke-width=".8" stroke-linecap="square" stroke-linejoin="round" fill="none" stroke="#bebebe" d="M315.5427 60.79375V332.59376"/>
</g>
<path transform="matrix(1,0,0,-1,0,339.79377)" d="M315.5427 60.79375V57.29375"/>
<path transform="matrix(1,0,0,-1,0,339.79377)" stroke-width=".8" stroke-linecap="butt" stroke-linejoin="round" fill="none" stroke="#000000" d="M315.5427 60.79375V57.29375"/>
<use data-text="1" xlink:href="#font_1_49" transform="matrix(22,0,0,-22,296.0427,302.5703)"/>
<use data-text="0" xlink:href="#font_1_48" transform="matrix(22,0,0,-22,310.03977,302.5703)"/>
<use data-text="6" xlink:href="#font_1_54" transform="matrix(15.4,0,0,-15.4,324.24739,294.14845)"/>
<g clip-path="url(#clip_3)">
<path transform="matrix(1,0,0,-1,0,339.79377)" stroke-width=".8" stroke-linecap="square" stroke-linejoin="round" fill="none" stroke="#bebebe" d="M437.7105 60.79375V332.59376"/>
</g>
<path transform="matrix(1,0,0,-1,0,339.79377)" d="M437.7105 60.79375V57.29375"/>
<path transform="matrix(1,0,0,-1,0,339.79377)" stroke-width=".8" stroke-linecap="butt" stroke-linejoin="round" fill="none" stroke="#000000" d="M437.7105 60.79375V57.29375"/>
<use data-text="1" xlink:href="#font_1_49" transform="matrix(22,0,0,-22,418.2105,302.3625)"/>
<use data-text="0" xlink:href="#font_1_48" transform="matrix(22,0,0,-22,432.20759,302.3625)"/>
<use data-text="7" xlink:href="#font_1_55" transform="matrix(15.4,0,0,-15.4,446.4152,293.9406)"/>
<path transform="matrix(1,0,0,-1,0,339.79377)" d="M107.98324 60.79375V58.79375"/>
<path transform="matrix(1,0,0,-1,0,339.79377)" stroke-width=".6" stroke-linecap="butt" stroke-linejoin="round" fill="none" stroke="#000000" d="M107.98324 60.79375V58.79375"/>
<path transform="matrix(1,0,0,-1,0,339.79377)" d="M129.49593 60.79375V58.79375"/>
<path transform="matrix(1,0,0,-1,0,339.79377)" stroke-width=".6" stroke-linecap="butt" stroke-linejoin="round" fill="none" stroke="#000000" d="M129.49593 60.79375V58.79375"/>
<path transform="matrix(1,0,0,-1,0,339.79377)" d="M144.75942 60.79375V58.79375"/>
<path transform="matrix(1,0,0,-1,0,339.79377)" stroke-width=".6" stroke-linecap="butt" stroke-linejoin="round" fill="none" stroke="#000000" d="M144.75942 60.79375V58.79375"/>
<path transform="matrix(1,0,0,-1,0,339.79377)" d="M156.5987 60.79375V58.79375"/>
<path transform="matrix(1,0,0,-1,0,339.79377)" stroke-width=".6" stroke-linecap="butt" stroke-linejoin="round" fill="none" stroke="#000000" d="M156.5987 60.79375V58.79375"/>
<path transform="matrix(1,0,0,-1,0,339.79377)" d="M166.2721 60.79375V58.79375"/>
<path transform="matrix(1,0,0,-1,0,339.79377)" stroke-width=".6" stroke-linecap="butt" stroke-linejoin="round" fill="none" stroke="#000000" d="M166.2721 60.79375V58.79375"/>
<path transform="matrix(1,0,0,-1,0,339.79377)" d="M174.45085 60.79375V58.79375"/>
<path transform="matrix(1,0,0,-1,0,339.79377)" stroke-width=".6" stroke-linecap="butt" stroke-linejoin="round" fill="none" stroke="#000000" d="M174.45085 60.79375V58.79375"/>
<path transform="matrix(1,0,0,-1,0,339.79377)" d="M181.5356 60.79375V58.79375"/>
<path transform="matrix(1,0,0,-1,0,339.79377)" stroke-width=".6" stroke-linecap="butt" stroke-linejoin="round" fill="none" stroke="#000000" d="M181.5356 60.79375V58.79375"/>
<path transform="matrix(1,0,0,-1,0,339.79377)" d="M187.78479 60.79375V58.79375"/>
<path transform="matrix(1,0,0,-1,0,339.79377)" stroke-width=".6" stroke-linecap="butt" stroke-linejoin="round" fill="none" stroke="#000000" d="M187.78479 60.79375V58.79375"/>
<path transform="matrix(1,0,0,-1,0,339.79377)" d="M230.15106 60.79375V58.79375"/>
<path transform="matrix(1,0,0,-1,0,339.79377)" stroke-width=".6" stroke-linecap="butt" stroke-linejoin="round" fill="none" stroke="#000000" d="M230.15106 60.79375V58.79375"/>
<path transform="matrix(1,0,0,-1,0,339.79377)" d="M251.66374 60.79375V58.79375"/>
<path transform="matrix(1,0,0,-1,0,339.79377)" stroke-width=".6" stroke-linecap="butt" stroke-linejoin="round" fill="none" stroke="#000000" d="M251.66374 60.79375V58.79375"/>
<path transform="matrix(1,0,0,-1,0,339.79377)" d="M266.92726 60.79375V58.79375"/>
<path transform="matrix(1,0,0,-1,0,339.79377)" stroke-width=".6" stroke-linecap="butt" stroke-linejoin="round" fill="none" stroke="#000000" d="M266.92726 60.79375V58.79375"/>
<path transform="matrix(1,0,0,-1,0,339.79377)" d="M278.7665 60.79375V58.79375"/>
<path transform="matrix(1,0,0,-1,0,339.79377)" stroke-width=".6" stroke-linecap="butt" stroke-linejoin="round" fill="none" stroke="#000000" d="M278.7665 60.79375V58.79375"/>
<path transform="matrix(1,0,0,-1,0,339.79377)" d="M288.4399 60.79375V58.79375"/>
<path transform="matrix(1,0,0,-1,0,339.79377)" stroke-width=".6" stroke-linecap="butt" stroke-linejoin="round" fill="none" stroke="#000000" d="M288.4399 60.79375V58.79375"/>
<path transform="matrix(1,0,0,-1,0,339.79377)" d="M296.61866 60.79375V58.79375"/>
<path transform="matrix(1,0,0,-1,0,339.79377)" stroke-width=".6" stroke-linecap="butt" stroke-linejoin="round" fill="none" stroke="#000000" d="M296.61866 60.79375V58.79375"/>
<path transform="matrix(1,0,0,-1,0,339.79377)" d="M303.7034 60.79375V58.79375"/>
<path transform="matrix(1,0,0,-1,0,339.79377)" stroke-width=".6" stroke-linecap="butt" stroke-linejoin="round" fill="none" stroke="#000000" d="M303.7034 60.79375V58.79375"/>
<path transform="matrix(1,0,0,-1,0,339.79377)" d="M309.9526 60.79375V58.79375"/>
<path transform="matrix(1,0,0,-1,0,339.79377)" stroke-width=".6" stroke-linecap="butt" stroke-linejoin="round" fill="none" stroke="#000000" d="M309.9526 60.79375V58.79375"/>
<path transform="matrix(1,0,0,-1,0,339.79377)" d="M352.31889 60.79375V58.79375"/>
<path transform="matrix(1,0,0,-1,0,339.79377)" stroke-width=".6" stroke-linecap="butt" stroke-linejoin="round" fill="none" stroke="#000000" d="M352.31889 60.79375V58.79375"/>
<path transform="matrix(1,0,0,-1,0,339.79377)" d="M373.83155 60.79375V58.79375"/>
<path transform="matrix(1,0,0,-1,0,339.79377)" stroke-width=".6" stroke-linecap="butt" stroke-linejoin="round" fill="none" stroke="#000000" d="M373.83155 60.79375V58.79375"/>
<path transform="matrix(1,0,0,-1,0,339.79377)" d="M389.09507 60.79375V58.79375"/>
<path transform="matrix(1,0,0,-1,0,339.79377)" stroke-width=".6" stroke-linecap="butt" stroke-linejoin="round" fill="none" stroke="#000000" d="M389.09507 60.79375V58.79375"/>
<path transform="matrix(1,0,0,-1,0,339.79377)" d="M400.93434 60.79375V58.79375"/>
<path transform="matrix(1,0,0,-1,0,339.79377)" stroke-width=".6" stroke-linecap="butt" stroke-linejoin="round" fill="none" stroke="#000000" d="M400.93434 60.79375V58.79375"/>
<path transform="matrix(1,0,0,-1,0,339.79377)" d="M410.60774 60.79375V58.79375"/>
<path transform="matrix(1,0,0,-1,0,339.79377)" stroke-width=".6" stroke-linecap="butt" stroke-linejoin="round" fill="none" stroke="#000000" d="M410.60774 60.79375V58.79375"/>
<path transform="matrix(1,0,0,-1,0,339.79377)" d="M418.78648 60.79375V58.79375"/>
<path transform="matrix(1,0,0,-1,0,339.79377)" stroke-width=".6" stroke-linecap="butt" stroke-linejoin="round" fill="none" stroke="#000000" d="M418.78648 60.79375V58.79375"/>
<path transform="matrix(1,0,0,-1,0,339.79377)" d="M425.87123 60.79375V58.79375"/>
<path transform="matrix(1,0,0,-1,0,339.79377)" stroke-width=".6" stroke-linecap="butt" stroke-linejoin="round" fill="none" stroke="#000000" d="M425.87123 60.79375V58.79375"/>
<path transform="matrix(1,0,0,-1,0,339.79377)" d="M432.12043 60.79375V58.79375"/>
<path transform="matrix(1,0,0,-1,0,339.79377)" stroke-width=".6" stroke-linecap="butt" stroke-linejoin="round" fill="none" stroke="#000000" d="M432.12043 60.79375V58.79375"/>
<use data-text="I" xlink:href="#font_1_73" transform="matrix(22,0,0,-22,226.19063,328.01564)"/>
<use data-text="t" xlink:href="#font_1_116" transform="matrix(22,0,0,-22,232.68064,328.01564)"/>
<use data-text="e" xlink:href="#font_1_101" transform="matrix(22,0,0,-22,241.30463,328.01564)"/>
<use data-text="r" xlink:href="#font_1_114" transform="matrix(22,0,0,-22,254.83463,328.01564)"/>
<use data-text="a" xlink:href="#font_1_97" transform="matrix(22,0,0,-22,263.87663,328.01564)"/>
<use data-text="t" xlink:href="#font_1_116" transform="matrix(22,0,0,-22,277.36265,328.01564)"/>
<use data-text="i" xlink:href="#font_1_105" transform="matrix(22,0,0,-22,285.98664,328.01564)"/>
<use data-text="o" xlink:href="#font_1_111" transform="matrix(22,0,0,-22,292.10264,328.01564)"/>
<use data-text="n" xlink:href="#font_1_110" transform="matrix(22,0,0,-22,305.56666,328.01564)"/>
<g clip-path="url(#clip_4)">
<path transform="matrix(1,0,0,-1,0,339.79377)" stroke-width=".8" stroke-linecap="square" stroke-linejoin="round" fill="none" stroke="#bebebe" d="M91.49687 62.079298H454.19688"/>
</g>
<path transform="matrix(1,0,0,-1,0,339.79377)" d="M91.49687 62.079298H87.99687"/>
<path transform="matrix(1,0,0,-1,0,339.79377)" stroke-width=".8" stroke-linecap="butt" stroke-linejoin="round" fill="none" stroke="#000000" d="M91.49687 62.079298H87.99687"/>
<use data-text="1" xlink:href="#font_1_49" transform="matrix(22,0,0,-22,32.496877,285.9254)"/>
<use data-text="0" xlink:href="#font_1_48" transform="matrix(22,0,0,-22,46.493947,285.9254)"/>
<use data-text="3" xlink:href="#font_1_51" transform="matrix(15.4,0,0,-15.4,73.60508,277.50355)"/>
<g clip-path="url(#clip_5)">
<path transform="matrix(.0154,0,0,-.0154,60.70156,277.50355)" d="M106 355H732V272H106V355Z"/>
</g>
<g clip-path="url(#clip_6)">
<path transform="matrix(1,0,0,-1,0,339.79377)" stroke-width=".8" stroke-linecap="square" stroke-linejoin="round" fill="none" stroke="#bebebe" d="M91.49687 138.32384H454.19688"/>
</g>
<path transform="matrix(1,0,0,-1,0,339.79377)" d="M91.49687 138.32384H87.99687"/>
<path transform="matrix(1,0,0,-1,0,339.79377)" stroke-width=".8" stroke-linecap="butt" stroke-linejoin="round" fill="none" stroke="#000000" d="M91.49687 138.32384H87.99687"/>
<use data-text="1" xlink:href="#font_1_49" transform="matrix(22,0,0,-22,32.496877,209.68087)"/>
<use data-text="0" xlink:href="#font_1_48" transform="matrix(22,0,0,-22,46.493947,209.68087)"/>
<use data-text="2" xlink:href="#font_1_50" transform="matrix(15.4,0,0,-15.4,73.60508,201.25899)"/>
<g clip-path="url(#clip_7)">
<path transform="matrix(.0154,0,0,-.0154,60.70156,201.25899)" d="M106 355H732V272H106V355Z"/>
</g>
<g clip-path="url(#clip_8)">
<path transform="matrix(1,0,0,-1,0,339.79377)" stroke-width=".8" stroke-linecap="square" stroke-linejoin="round" fill="none" stroke="#bebebe" d="M91.49687 214.56839H454.19688"/>
</g>
<path transform="matrix(1,0,0,-1,0,339.79377)" d="M91.49687 214.56839H87.99687"/>
<path transform="matrix(1,0,0,-1,0,339.79377)" stroke-width=".8" stroke-linecap="butt" stroke-linejoin="round" fill="none" stroke="#000000" d="M91.49687 214.56839H87.99687"/>
<use data-text="1" xlink:href="#font_1_49" transform="matrix(22,0,0,-22,32.496877,133.2285)"/>
<use data-text="0" xlink:href="#font_1_48" transform="matrix(22,0,0,-22,46.493947,133.2285)"/>
<use data-text="1" xlink:href="#font_1_49" transform="matrix(15.4,0,0,-15.4,73.60508,124.806629)"/>
<g clip-path="url(#clip_9)">
<path transform="matrix(.0154,0,0,-.0154,60.70156,124.806629)" d="M106 355H732V272H106V355Z"/>
</g>
<g clip-path="url(#clip_10)">
<path transform="matrix(1,0,0,-1,0,339.79377)" stroke-width=".8" stroke-linecap="square" stroke-linejoin="round" fill="none" stroke="#bebebe" d="M91.49687 290.81294H454.19688"/>
</g>
<path transform="matrix(1,0,0,-1,0,339.79377)" d="M91.49687 290.81294H87.99687"/>
<path transform="matrix(1,0,0,-1,0,339.79377)" stroke-width=".8" stroke-linecap="butt" stroke-linejoin="round" fill="none" stroke="#000000" d="M91.49687 290.81294H87.99687"/>
<use data-text="1" xlink:href="#font_1_49" transform="matrix(22,0,0,-22,45.496877,57.191774)"/>
<use data-text="0" xlink:href="#font_1_48" transform="matrix(22,0,0,-22,59.493947,57.191774)"/>
<use data-text="0" xlink:href="#font_1_48" transform="matrix(15.4,0,0,-15.4,73.70156,48.769899)"/>
<path transform="matrix(1,0,0,-1,0,339.79377)" d="M91.49687 85.0312H89.49687"/>
<path transform="matrix(1,0,0,-1,0,339.79377)" stroke-width=".6" stroke-linecap="butt" stroke-linejoin="round" fill="none" stroke="#000000" d="M91.49687 85.0312H89.49687"/>
<path transform="matrix(1,0,0,-1,0,339.79377)" d="M91.49687 98.45719H89.49687"/>
<path transform="matrix(1,0,0,-1,0,339.79377)" stroke-width=".6" stroke-linecap="butt" stroke-linejoin="round" fill="none" stroke="#000000" d="M91.49687 98.45719H89.49687"/>
<path transform="matrix(1,0,0,-1,0,339.79377)" d="M91.49687 107.983089H89.49687"/>
<path transform="matrix(1,0,0,-1,0,339.79377)" stroke-width=".6" stroke-linecap="butt" stroke-linejoin="round" fill="none" stroke="#000000" d="M91.49687 107.983089H89.49687"/>
<path transform="matrix(1,0,0,-1,0,339.79377)" d="M91.49687 115.37195H89.49687"/>
<path transform="matrix(1,0,0,-1,0,339.79377)" stroke-width=".6" stroke-linecap="butt" stroke-linejoin="round" fill="none" stroke="#000000" d="M91.49687 115.37195H89.49687"/>
<path transform="matrix(1,0,0,-1,0,339.79377)" d="M91.49687 121.40909H89.49687"/>
<path transform="matrix(1,0,0,-1,0,339.79377)" stroke-width=".6" stroke-linecap="butt" stroke-linejoin="round" fill="none" stroke="#000000" d="M91.49687 121.40909H89.49687"/>
<path transform="matrix(1,0,0,-1,0,339.79377)" d="M91.49687 126.51341H89.49687"/>
<path transform="matrix(1,0,0,-1,0,339.79377)" stroke-width=".6" stroke-linecap="butt" stroke-linejoin="round" fill="none" stroke="#000000" d="M91.49687 126.51341H89.49687"/>
<path transform="matrix(1,0,0,-1,0,339.79377)" d="M91.49687 130.93498H89.49687"/>
<path transform="matrix(1,0,0,-1,0,339.79377)" stroke-width=".6" stroke-linecap="butt" stroke-linejoin="round" fill="none" stroke="#000000" d="M91.49687 130.93498H89.49687"/>
<path transform="matrix(1,0,0,-1,0,339.79377)" d="M91.49687 134.83509H89.49687"/>
<path transform="matrix(1,0,0,-1,0,339.79377)" stroke-width=".6" stroke-linecap="butt" stroke-linejoin="round" fill="none" stroke="#000000" d="M91.49687 134.83509H89.49687"/>
<path transform="matrix(1,0,0,-1,0,339.79377)" d="M91.49687 161.27574H89.49687"/>
<path transform="matrix(1,0,0,-1,0,339.79377)" stroke-width=".6" stroke-linecap="butt" stroke-linejoin="round" fill="none" stroke="#000000" d="M91.49687 161.27574H89.49687"/>
<path transform="matrix(1,0,0,-1,0,339.79377)" d="M91.49687 174.70174H89.49687"/>
<path transform="matrix(1,0,0,-1,0,339.79377)" stroke-width=".6" stroke-linecap="butt" stroke-linejoin="round" fill="none" stroke="#000000" d="M91.49687 174.70174H89.49687"/>
<path transform="matrix(1,0,0,-1,0,339.79377)" d="M91.49687 184.22763H89.49687"/>
<path transform="matrix(1,0,0,-1,0,339.79377)" stroke-width=".6" stroke-linecap="butt" stroke-linejoin="round" fill="none" stroke="#000000" d="M91.49687 184.22763H89.49687"/>
<path transform="matrix(1,0,0,-1,0,339.79377)" d="M91.49687 191.6165H89.49687"/>
<path transform="matrix(1,0,0,-1,0,339.79377)" stroke-width=".6" stroke-linecap="butt" stroke-linejoin="round" fill="none" stroke="#000000" d="M91.49687 191.6165H89.49687"/>
<path transform="matrix(1,0,0,-1,0,339.79377)" d="M91.49687 197.65363H89.49687"/>
<path transform="matrix(1,0,0,-1,0,339.79377)" stroke-width=".6" stroke-linecap="butt" stroke-linejoin="round" fill="none" stroke="#000000" d="M91.49687 197.65363H89.49687"/>
<path transform="matrix(1,0,0,-1,0,339.79377)" d="M91.49687 202.75797H89.49687"/>
<path transform="matrix(1,0,0,-1,0,339.79377)" stroke-width=".6" stroke-linecap="butt" stroke-linejoin="round" fill="none" stroke="#000000" d="M91.49687 202.75797H89.49687"/>
<path transform="matrix(1,0,0,-1,0,339.79377)" d="M91.49687 207.17954H89.49687"/>
<path transform="matrix(1,0,0,-1,0,339.79377)" stroke-width=".6" stroke-linecap="butt" stroke-linejoin="round" fill="none" stroke="#000000" d="M91.49687 207.17954H89.49687"/>
<path transform="matrix(1,0,0,-1,0,339.79377)" d="M91.49687 211.07964H89.49687"/>
<path transform="matrix(1,0,0,-1,0,339.79377)" stroke-width=".6" stroke-linecap="butt" stroke-linejoin="round" fill="none" stroke="#000000" d="M91.49687 211.07964H89.49687"/>
<path transform="matrix(1,0,0,-1,0,339.79377)" d="M91.49687 237.52028H89.49687"/>
<path transform="matrix(1,0,0,-1,0,339.79377)" stroke-width=".6" stroke-linecap="butt" stroke-linejoin="round" fill="none" stroke="#000000" d="M91.49687 237.52028H89.49687"/>
<path transform="matrix(1,0,0,-1,0,339.79377)" d="M91.49687 250.94629H89.49687"/>
<path transform="matrix(1,0,0,-1,0,339.79377)" stroke-width=".6" stroke-linecap="butt" stroke-linejoin="round" fill="none" stroke="#000000" d="M91.49687 250.94629H89.49687"/>
<path transform="matrix(1,0,0,-1,0,339.79377)" d="M91.49687 260.47218H89.49687"/>
<path transform="matrix(1,0,0,-1,0,339.79377)" stroke-width=".6" stroke-linecap="butt" stroke-linejoin="round" fill="none" stroke="#000000" d="M91.49687 260.47218H89.49687"/>
<path transform="matrix(1,0,0,-1,0,339.79377)" d="M91.49687 267.86106H89.49687"/>
<path transform="matrix(1,0,0,-1,0,339.79377)" stroke-width=".6" stroke-linecap="butt" stroke-linejoin="round" fill="none" stroke="#000000" d="M91.49687 267.86106H89.49687"/>
<path transform="matrix(1,0,0,-1,0,339.79377)" d="M91.49687 273.89817H89.49687"/>
<path transform="matrix(1,0,0,-1,0,339.79377)" stroke-width=".6" stroke-linecap="butt" stroke-linejoin="round" fill="none" stroke="#000000" d="M91.49687 273.89817H89.49687"/>
<path transform="matrix(1,0,0,-1,0,339.79377)" d="M91.49687 279.0025H89.49687"/>
<path transform="matrix(1,0,0,-1,0,339.79377)" stroke-width=".6" stroke-linecap="butt" stroke-linejoin="round" fill="none" stroke="#000000" d="M91.49687 279.0025H89.49687"/>
<path transform="matrix(1,0,0,-1,0,339.79377)" d="M91.49687 283.42408H89.49687"/>
<path transform="matrix(1,0,0,-1,0,339.79377)" stroke-width=".6" stroke-linecap="butt" stroke-linejoin="round" fill="none" stroke="#000000" d="M91.49687 283.42408H89.49687"/>
<path transform="matrix(1,0,0,-1,0,339.79377)" d="M91.49687 287.3242H89.49687"/>
<path transform="matrix(1,0,0,-1,0,339.79377)" stroke-width=".6" stroke-linecap="butt" stroke-linejoin="round" fill="none" stroke="#000000" d="M91.49687 287.3242H89.49687"/>
<path transform="matrix(1,0,0,-1,0,339.79377)" d="M91.49687 313.76484H89.49687"/>
<path transform="matrix(1,0,0,-1,0,339.79377)" stroke-width=".6" stroke-linecap="butt" stroke-linejoin="round" fill="none" stroke="#000000" d="M91.49687 313.76484H89.49687"/>
<path transform="matrix(1,0,0,-1,0,339.79377)" d="M91.49687 327.19084H89.49687"/>
<path transform="matrix(1,0,0,-1,0,339.79377)" stroke-width=".6" stroke-linecap="butt" stroke-linejoin="round" fill="none" stroke="#000000" d="M91.49687 327.19084H89.49687"/>
<use data-text="C" xlink:href="#font_1_67" transform="matrix(0,-22,-22,-0,23.91875,232.70938)"/>
<use data-text="o" xlink:href="#font_1_111" transform="matrix(0,-22,-22,-0,23.91875,217.35338)"/>
<use data-text="n" xlink:href="#font_1_110" transform="matrix(0,-22,-22,-0,23.91875,203.88938)"/>
<use data-text="s" xlink:href="#font_1_115" transform="matrix(0,-22,-22,-0,23.91875,189.94138)"/>
<use data-text="e" xlink:href="#font_1_101" transform="matrix(0,-22,-22,-0,23.91875,178.47939)"/>
<use data-text="n" xlink:href="#font_1_110" transform="matrix(0,-22,-22,-0,23.91875,164.94937)"/>
<use data-text="s" xlink:href="#font_1_115" transform="matrix(0,-22,-22,-0,23.91875,151.00138)"/>
<use data-text="u" xlink:href="#font_1_117" transform="matrix(0,-22,-22,-0,23.91875,139.53939)"/>
<use data-text="s" xlink:href="#font_1_115" transform="matrix(0,-22,-22,-0,23.91875,125.591388)"/>
<use data-text=" " xlink:href="#font_1_32" transform="matrix(0,-22,-22,-0,23.91875,114.12939)"/>
<use data-text="E" xlink:href="#font_1_69" transform="matrix(0,-22,-22,-0,23.91875,107.133388)"/>
<use data-text="r" xlink:href="#font_1_114" transform="matrix(0,-22,-22,-0,23.91875,93.229389)"/>
<use data-text="r" xlink:href="#font_1_114" transform="matrix(0,-22,-22,-0,23.91875,84.56238)"/>
<use data-text="o" xlink:href="#font_1_111" transform="matrix(0,-22,-22,-0,23.91875,76.00476)"/>
<use data-text="r" xlink:href="#font_1_114" transform="matrix(0,-22,-22,-0,23.91875,62.540758)"/>
<g clip-path="url(#clip_11)">
<path transform="matrix(1,0,0,-1,0,339.79377)" stroke-width="3" stroke-linecap="square" stroke-linejoin="round" fill="none" stroke="#1f77b4" d="M107.98324 264.0107 144.75942 282.75013 166.2721 293.46989 181.5356 300.5454 193.37488 305.41636 203.04828 309.11378 211.22702 311.92057 218.31177 314.06785 224.56096 315.75483 230.15106 317.10496 239.82445 318.99668 248.0032 319.96867 255.08795 320.2392 258.3045 320.23088 261.33714 320.0225 271.9841 319.7279 280.84745 318.54209 288.4399 316.88075 290.17964 316.54368 291.86415 315.9364 296.61866 314.76454 298.1133 314.23127 299.56703 314.0348 302.36015 313.0154 303.7034 312.39277 306.29206 311.64683 311.11875 310.02619 312.2598 309.7102 313.3768 309.22804 315.5427 308.59013 317.62364 307.75489 322.49464 305.74079 325.2161 304.57398 326.09309 304.3007 327.80476 303.60148 330.27296 302.82078 331.0708 302.40367 332.6314 301.36088 333.39485 301.1336 335.62135 300.04417 337.0554 299.50306 338.4517 298.7704 340.47959 298.26347 344.31669 296.86573 345.53645 296.48838 346.13597 296.0721 347.31504 295.9102 347.8949 295.4812 349.03596 294.90809 349.5974 294.8807 350.15299 294.4747 352.8468 293.3499 354.90754 292.06254 357.37574 291.25938 359.7342 289.78 360.649 289.41593 361.99229 288.74836 362.86927 288.07395 363.30238 287.784 363.732 287.68043 364.58094 287.09858 365.41648 286.6479 365.82939 286.2235 367.04914 285.83293 367.847 285.26478 368.24147 285.2072 368.63304 284.97514 369.02174 284.48338 369.79069 284.1044 370.9236 283.3638 371.29594 283.0096 372.03285 282.82948 372.3975 282.41337 372.75968 282.36015 376.2515 280.16609 377.58634 279.09358 377.91487 279.00248 378.8884 278.1242 379.20899 278.04939 379.52766 277.731 381.09288 277.1227 381.40046 277.09986 381.70625 276.92417 382.0103 276.9103 382.31263 276.77238 382.61323 276.3536 383.50495 275.89634 383.7989 275.9795 384.09123 275.82688 384.38197 275.53135 384.95866 275.46614 385.81214 275.03733 386.3736 274.47416 386.92918 274.13984 388.02317 273.59165 388.29319 273.436 388.5618 273.46076 389.09507 272.85758 389.35969 272.7005 389.623 272.30155 390.40516 271.97206 390.66334 272.02323 391.43046 271.12739 392.93217 269.83033 393.66737 268.7075 394.15193 268.6542 394.63206 268.06373 394.8705 267.79585 395.57954 267.47953 396.047 266.9036 396.74055 266.73249 397.19795 266.36164 398.32447 265.34617 398.5469 265.46073 398.98908 264.98585 399.64546 264.284 399.86247 264.2849 400.72169 263.3909 401.14616 263.34617 401.985 262.901 402.60557 262.05436 403.21894 261.48469 404.22575 260.49986 405.01765 259.9096 405.4092 259.54795 405.99119 259.10746 406.37568 258.54304 406.75736 258.25657 406.9472 257.9114 407.51264 257.57044 408.44187 256.52653 408.62577 256.55097 408.99168 256.14137 409.35508 256.0846 409.53587 255.74352 409.89555 255.59125 410.25285 255.13678 411.13569 254.50959 411.6584 254.31772 412.00407 253.99745 412.34745 253.58635 412.68867 253.57776 412.85844 253.17412 413.36457 253.03447 413.6993 252.49744 414.19749 252.14206 414.85456 251.26184 415.01756 251.24265 416.30384 249.8123 416.6206 249.74546 416.93547 249.39369 417.4043 248.94234 417.55967 248.5521 418.48243 248.07085 418.93788 247.56253 419.0888 247.64243 419.53907 247.2066 420.72145 245.79001 420.8674 245.80997 421.3029 245.39163 421.59126 244.96028 422.30537 244.57831 422.58833 244.3187 422.72926 244.37339 423.2892 243.36817 423.42829 243.4033 423.567 243.30446 423.70536 243.42877 424.39173 242.51744 424.79936 242.41487 424.9345 241.98767 425.06935 242.0572 426.0037 241.01674 426.7917 240.40773 427.4395 239.98006 427.69648 239.79489 427.82447 239.92014 428.20664 239.33197 428.3334 239.48986 428.7119 239.18625 428.9628 238.68154 429.08778 238.83394 429.46098 238.35245 429.70835 238.08713 429.95454 237.70183 430.0772 237.66132 430.68638 236.91551 430.80738 236.48575 430.92808 236.57654 432.3557 235.0686 432.58998 234.66176 433.05537 234.27143 433.17109 234.32386 433.28657 234.1337 433.51673 234.18175 433.63145 234.06247 433.86015 233.73255 434.6529 233.16658 434.87724 232.88216 434.98905 232.92639 436.09446 232.01779 436.20375 232.18679 436.31278 232.10973 436.6386 231.60327 436.7468 231.60462 437.28437 230.73186 437.3912 230.56537 437.60429 230.79001 437.7105 230.69078"/>
</g>
<g clip-path="url(#clip_12)">
<path transform="matrix(1,0,0,-1,0,339.79377)" stroke-width="3" stroke-linecap="square" stroke-linejoin="round" fill="none" stroke="#ff7f0e" d="M107.98324 249.76042 144.75942 258.4115 166.2721 260.98338 181.5356 262.0136 193.37488 262.46339 203.04828 262.18229 211.22702 261.78123 218.31177 261.56974 239.82445 259.60047 244.07126 259.3204 251.66374 257.47645 255.08795 257.28526 258.3045 256.56504 261.33714 256.159 264.20579 255.22345 266.92726 255.00128 269.51588 253.99919 271.9841 253.69942 274.34257 253.15518 276.60066 252.31188 278.7665 252.02678 280.84745 250.95394 282.84983 250.75772 284.7794 250.07672 286.6412 249.25627 288.4399 248.9083 293.49678 247.51932 295.0807 246.75286 296.61866 246.43122 298.1133 246.27417 299.56703 245.29169 300.98197 244.92836 302.36015 244.03466 303.7034 243.58084 305.01353 243.65827 307.54054 242.47119 308.76026 241.75759 312.2598 240.52519 313.3768 240.36806 314.4708 239.7525 315.5427 239.65523 316.59336 239.10044 317.62364 238.24404 319.626 237.14786 320.59956 237.08826 323.4174 235.99913 324.32438 235.2935 325.2161 235.25688 327.80476 233.6887 329.4629 233.04285 330.27296 232.62334 331.0708 231.90752 331.85685 231.8679 332.6314 231.56285 333.39485 230.61063 334.14744 230.7183 334.8895 229.99501 335.62135 230.07678 336.3432 229.23238 337.0554 229.16297 338.4517 227.6926 339.1363 227.85578 341.13868 226.71688 341.7897 226.62813 342.43284 226.36556 344.93009 224.59233 345.53645 224.49529 347.31504 223.15198 347.8949 223.10785 348.4685 222.9281 349.5974 221.55396 350.15299 221.75025 350.7028 221.23679 352.31889 220.23439 352.8468 219.58467 353.88719 219.55974 354.3998 218.98316 354.90754 218.92105 355.41044 218.39331 355.90864 218.15247 356.4022 217.4126 356.89118 217.90111 357.37574 217.1792 357.8559 217.08525 358.33174 216.37708 358.80335 216.67533 359.2708 215.95183 360.19358 215.68788 360.649 215.0941 361.54829 214.4647 361.99229 214.44237 362.4326 213.97106 362.86927 213.99652 363.30238 213.20726 363.732 213.31389 364.15815 212.95093 364.58094 212.77269 365.00035 211.99713 365.41648 212.084 367.44956 210.51969 367.847 210.17253 368.63304 210.02706 369.02174 209.80879 369.4076 209.42302 369.79069 209.22376 370.17103 208.83661 370.54866 208.89073 370.9236 208.43483 371.29594 208.45464 371.66569 207.98508 372.03285 207.90935 372.3975 207.53989 372.75968 207.61287 373.1194 206.90718 374.88224 205.54102 375.22789 205.45444 375.5713 205.56044 376.2515 204.8626 376.58839 204.39374 376.92314 204.12535 377.25578 204.46376 378.24137 203.19509 378.5659 202.99239 378.8884 203.11733 379.52766 202.57886 379.84443 202.08057 380.1593 202.29047 380.47233 201.77321 380.7835 201.74593 381.09288 201.38809 381.40046 201.58477 381.70625 200.88225 382.0103 201.03528 382.31263 200.7436 382.61323 200.61487 382.91215 200.34413 383.20939 200.32857 383.50495 200.16834 383.7989 200.14679 384.09123 199.60427 384.38197 199.5634 384.95866 198.99365 385.52919 198.65338 385.81214 198.34525 386.0936 198.58628 386.3736 198.3386 386.92918 197.489 387.20478 197.41495 387.47898 197.68128 387.75178 197.5353 388.02317 196.8218 388.29319 196.81063 388.5618 196.5834 388.8291 196.89467 389.09507 196.37487 389.35969 196.148 389.623 195.77318 389.88499 195.76996 390.40516 195.14836 390.66334 195.30846 390.9203 195.20717 391.43046 194.33692 391.6837 194.5921 392.1866 194.38498 393.42344 193.30554 393.9102 193.22846 394.15193 193.2784 394.39253 192.86199 394.63206 192.87302 395.1079 192.15575 395.34425 192.32054 396.51039 191.34152 396.74055 191.17392 396.96974 190.78279 397.19795 190.82907 397.65144 190.24024 397.8767 190.16455 398.32447 189.49134 398.5469 189.8092 398.98908 189.61641 399.64546 188.4928 400.07856 188.36019 400.2938 188.0141 400.50819 188.0812 400.72169 187.60097 400.93434 187.6492 401.14616 187.21282 401.3571 187.43706 401.56724 187.42273 402.19267 186.57363 402.3995 186.60147 402.60557 185.95404 402.8108 185.79209 403.01527 185.79694 403.21894 185.49787 403.4218 185.57009 403.62397 185.508 403.82533 185.15114 404.62318 184.73899 404.82078 184.09366 405.01765 184.15779 405.21379 184.08925 405.6039 183.20778 405.7979 183.57469 405.99119 183.56374 406.18379 183.19867 406.37568 182.32387 406.56687 183.04029 406.75736 182.85062 406.9472 182.05568 407.13636 182.15586 407.32484 182.04468 407.6998 181.60248 407.88627 181.45124 408.0721 180.94965 408.2573 181.29903 408.80903 180.60944 408.99168 180.76474 409.17369 180.51729 409.35508 180.06554 409.53587 180.50652 409.716 179.87598 409.89555 179.69214 410.0745 179.8765 410.25285 179.00867 410.43058 179.05249 410.60774 178.79769 410.7843 178.82433 412.00407 177.6435 412.17604 177.68558 412.34745 177.59799 412.51835 177.01982 412.68867 177.15099 412.85844 176.88343 413.02769 177.05724 413.36457 176.4358 413.5322 176.52587 413.6993 176.07225 414.03196 176.13442 414.19749 175.27324 414.52705 175.7879 414.69105 174.9013 414.85456 175.06175 415.34205 174.17745 415.50358 174.53092 415.66459 173.42034 415.82514 173.72214 415.98518 173.09906 416.30384 173.52931 416.6206 172.76894 416.77827 173.00873 416.93547 172.53014 417.2485 172.4702 417.4043 171.8266 417.55967 172.25702 417.86906 171.83733 418.32975 171.07791 418.48243 171.55481 418.63468 171.11191 418.78648 171.11029 419.23933 169.7715 419.3894 170.20517 419.68833 169.82729 419.83714 170.0537 420.13356 169.04042 420.4283 168.68938 420.57508 168.83199 420.72145 168.63314 420.8674 168.20027 421.01298 168.21424 421.1581 168.34493 421.3029 168.25359 421.59126 167.29149 421.73484 167.7399 421.87806 167.14987 422.02085 167.4657 422.1633 167.12487 422.30537 167.13373 422.58833 166.67266 423.567 165.22818 423.84333 165.63159 424.11824 164.78322 424.25517 164.82555 424.52796 164.36666 424.66383 164.48291 424.79936 164.20146 424.9345 164.30953 425.06935 164.2507 425.33799 163.68866 425.4718 163.47357 425.6053 163.87334 425.87123 162.87609 426.0037 163.29816 426.26768 162.69647 426.53034 161.922 426.66117 162.14055 426.7917 161.78188 426.9219 161.85625 427.18135 161.39499 427.31059 161.49909 427.56816 161.22214 427.82447 161.17238 428.20664 160.23926 428.3334 160.52054 428.7119 159.7494 428.8375 159.97029 428.9628 159.7873 429.08778 159.36748 429.33689 159.53923 429.5848 158.9597 429.70835 159.11917 429.83158 158.7079 429.95454 158.96338 430.0772 158.12845 430.44355 158.05925 430.5651 158.13486 430.80738 157.72599 430.92808 157.776 431.40824 156.5256 431.5276 156.78049 431.76554 156.48723 431.8841 156.55387 432.12043 155.67615 432.2382 155.83153 432.3557 155.52968 432.7067 155.56253 432.82319 155.17305 432.9394 155.40518 433.28657 154.41628 433.40177 154.75328 433.51673 154.33014 433.63145 154.71822 433.7459 154.52936 433.86015 153.91704 434.08787 154.02852 434.3146 153.38579 434.54039 153.75818 434.6529 153.52394 434.7652 152.88422 434.87724 153.12361 435.3231 152.21878 435.434 152.63813 435.65507 151.94644 435.76524 152.08054 435.98493 152.20052 436.09446 151.52265 436.20375 151.8718 436.31278 151.28383 436.42164 151.7274 436.53025 150.97142 436.6386 151.02489 436.85475 150.83481 437.06999 150.80976 437.17729 150.91385 437.3912 150.43657 437.7105 149.98458"/>
</g>
<g clip-path="url(#clip_13)">
<path transform="matrix(1,0,0,-1,0,339.79377)" stroke-width="3" stroke-linecap="square" stroke-linejoin="round" fill="none" stroke="#2ca02c" d="M107.98324 215.68247 144.75942 217.46637 166.2721 218.27051 181.5356 218.6155 203.04828 217.9635 211.22702 217.16011 224.56096 216.04442 239.82445 213.66567 244.07126 213.19879 248.0032 212.46126 251.66374 211.9922 258.3045 210.84772 261.33714 210.56949 264.20579 209.90084 266.92726 209.3961 271.9841 207.98845 274.34257 207.60819 276.60066 206.79686 278.7665 206.18238 282.84983 205.36536 284.7794 204.6593 286.6412 203.80608 288.4399 203.74188 290.17964 202.82637 291.86415 202.20162 293.49678 202.05684 295.0807 201.23133 296.61866 200.77265 298.1133 199.69997 299.56703 199.72066 300.98197 199.32588 302.36015 198.59249 305.01353 197.59432 306.29206 196.9351 307.54054 196.4396 308.76026 196.2585 309.9526 195.28728 312.2598 194.63703 314.4708 193.19307 316.59336 192.4885 317.62364 191.8281 319.626 191.03617 320.59956 190.35186 321.55555 189.98584 322.49464 189.42527 323.4174 189.16652 324.32438 188.63787 325.2161 187.77478 326.09309 187.15876 326.9558 187.03325 328.6403 186.61731 329.4629 185.66109 330.27296 185.36522 331.0708 185.37859 331.85685 184.55034 332.6314 184.38422 333.39485 183.75858 334.14744 182.7894 335.62135 182.60407 337.0554 181.28592 337.75813 181.31574 338.4517 180.89969 339.8122 179.84432 341.13868 179.2081 341.7897 178.76485 342.43284 178.65363 343.06825 177.83406 344.31669 177.00415 344.93009 176.9524 345.53645 176.28362 346.13597 175.9572 346.7288 175.77419 347.31504 175.03748 348.4685 174.36716 349.03596 174.35079 350.15299 173.26789 350.7028 173.42394 351.24699 172.70624 352.31889 171.83428 352.8468 171.71442 353.36955 171.09502 353.88719 170.7569 354.3998 170.69832 354.90754 170.36568 355.41044 170.24369 356.4022 168.96985 356.89118 169.32979 357.37574 168.89887 357.8559 168.2046 358.33174 168.4613 358.80335 167.80037 359.2708 167.90071 359.7342 167.38663 360.19358 167.35236 361.10054 166.44959 361.54829 165.72061 361.99229 165.9429 363.30238 165.31935 363.732 164.73345 364.15815 164.80197 364.58094 164.7323 365.00035 163.96036 365.41648 163.98857 365.82939 163.36516 366.23908 163.49863 366.64567 163.35958 367.04914 162.98419 367.44956 162.8016 367.847 162.25222 368.24147 162.19135 368.63304 161.88974 369.02174 162.11287 369.79069 161.67134 370.17103 161.06946 370.54866 161.22287 370.9236 160.65967 371.29594 160.63449 371.66569 160.33025 372.03285 160.23401 372.3975 159.47885 372.75968 159.58792 373.1194 159.10637 373.47666 159.34511 373.83155 159.10379 374.18409 158.7015 374.88224 158.58399 375.22789 157.96158 375.5713 157.66649 375.91249 157.56502 376.2515 157.58769 376.58839 157.27356 376.92314 157.24668 377.25578 156.77124 377.58634 156.67205 377.91487 156.4225 378.24137 156.46926 378.5659 155.73278 379.20899 155.83173 379.52766 155.32398 379.84443 155.61887 380.1593 154.9171 380.47233 155.02608 380.7835 154.60263 381.09288 154.61872 381.70625 154.42014 382.31263 153.7659 382.61323 153.62166 383.7989 152.56963 384.09123 152.64093 384.38197 152.49053 384.67109 151.99701 384.95866 152.02925 386.3736 151.31534 386.6521 151.00635 386.92918 150.88495 387.20478 150.59127 387.47898 150.50269 387.75178 150.08765 388.02317 149.95836 388.29319 149.97834 388.5618 149.57857 388.8291 149.60883 390.14573 148.67435 390.40516 148.70528 390.66334 148.2785 390.9203 148.33254 391.43046 147.49782 391.6837 147.69658 391.93577 147.45456 392.43629 146.44481 392.6848 146.84786 393.17835 146.35338 393.66737 146.10979 393.9102 145.45235 394.15193 145.73748 394.39253 145.50038 394.63206 145.43154 395.34425 144.66524 395.57954 144.63051 395.81379 144.90442 396.047 144.12522 396.27919 144.50969 396.51039 143.91861 396.74055 143.66849 396.96974 143.59674 397.19795 143.08925 397.42518 143.23575 397.65144 142.97345 397.8767 143.07099 398.10108 142.23795 398.76847 142.31826 398.98908 141.95189 399.20878 141.92577 399.42756 141.19055 399.64546 141.23436 400.07856 140.89873 400.50819 140.37267 400.72169 140.58733 400.93434 139.97879 401.14616 139.86643 401.3571 139.89696 402.19267 138.80365 402.3995 138.964 404.22575 137.22812 404.42485 136.76634 404.62318 136.59111 404.82078 136.60318 405.21379 136.38889 405.4092 135.69211 405.6039 135.83127 405.7979 135.42432 405.99119 135.40122 406.18379 134.9893 406.56687 134.89278 406.75736 134.46334 407.13636 134.25757 407.32484 134.36331 407.88627 133.43395 408.2573 133.05387 408.44187 133.23268 408.62577 132.62889 408.80903 132.52965 408.99168 131.95807 409.17369 132.19495 409.35508 131.84667 409.716 131.61357 409.89555 130.96523 410.0745 130.95908 410.43058 130.71007 410.60774 130.85157 410.7843 130.39572 411.13569 130.41217 411.48475 129.32308 411.6584 129.03385 411.8315 129.52814 412.00407 128.9301 412.17604 129.0322 412.34745 128.80162 412.51835 128.23477 412.85844 127.99026 413.19639 128.03185 413.36457 127.866939 413.5322 127.07773 413.6993 127.31152 413.86589 126.82407 414.03196 127.00934 414.19749 126.20969 414.36253 126.20155 415.18006 125.34221 415.34205 125.48054 415.66459 124.818248 415.82514 124.22368 415.98518 124.58338 416.14476 123.70089 416.30384 123.5103 416.46247 124.01312 416.6206 123.0775 416.93547 123.63966 417.09223 123.08077 417.2485 123.16009 417.4043 122.73266 417.55967 122.668239 418.02308 122.0866 418.17665 122.19074 418.78648 120.594989 418.93788 120.98484 419.0888 120.696048 419.23933 120.73726 419.3894 120.068218 419.53907 120.3736 419.68833 119.98932 419.83714 119.24602 419.98558 119.75442 420.13356 119.39438 420.28114 119.59245 420.57508 118.62417 420.72145 118.77694 420.8674 118.69597 421.01298 117.96498 421.1581 118.0101 421.3029 118.224788 421.44728 117.7101 421.59126 117.74273 421.73484 117.109027 421.87806 117.99331 422.30537 117.02872 422.58833 116.703319 422.72926 116.22461 422.86979 116.375789 423.00996 115.8866 423.14979 115.80642 423.2892 115.19087 423.42829 115.342029 423.70536 114.979648 423.84333 115.13347 423.98097 114.78583 424.11824 114.85326 424.39173 113.80438 424.66383 114.6063 424.79936 113.78006 424.9345 113.802379 425.20384 112.94532 425.33799 113.326808 425.87123 112.5693 426.66117 111.17939 426.7917 111.8409 427.31059 110.58778 427.56816 110.70215 427.82447 109.79745 427.95216 109.978549 428.20664 109.85321 428.58607 109.15772 428.7119 108.60057 428.9628 108.77761 429.21247 108.50056 429.46098 108.51405 429.5848 108.68633 429.70835 107.70749 429.95454 107.92497 430.1996 107.08465 430.32173 107.187068 430.44355 107.053508 430.5651 107.18331 430.80738 106.85239 430.92808 106.8325 431.04853 106.19086 431.1687 106.50292 431.2886 105.99529 431.6467 106.3527 431.76554 105.67821 431.8841 105.95253 432.00239 105.43927 432.12043 105.45624 432.2382 104.995189 432.3557 105.60758 432.7067 104.696887 432.82319 104.86629 432.9394 104.32615 433.05537 104.659549 433.28657 103.931179 433.40177 103.9935 433.51673 103.73547 433.63145 104.25531 433.86015 103.373477 433.97413 103.2859 434.08787 103.37203 434.20137 102.474338 434.3146 103.1575 434.54039 102.82468 434.6529 103.033458 434.7652 102.000629 434.87724 102.05436 434.98905 102.818637 435.21199 102.113529 435.434 102.28273 435.54463 101.3402 435.65507 101.976779 435.76524 101.93983 435.8752 101.74165 436.09446 100.85632 436.31278 101.64418 436.53025 100.8176 436.6386 100.24307 436.7468 100.489078 436.96247 99.98987 437.17729 100.6895 437.3912 99.74823 437.49787 99.33815 437.60429 99.77975 437.7105 99.17906"/>
</g>
<g clip-path="url(#clip_14)">
<path transform="matrix(1,0,0,-1,0,339.79377)" stroke-width="3" stroke-linecap="square" stroke-linejoin="round" fill="none" stroke="#d62728" d="M107.98324 249.46015 144.75942 256.1842 166.2721 258.87086 181.5356 259.19087 203.04828 258.40028 211.22702 258.37297 218.31177 258.07484 224.56096 257.2853 230.15106 256.80607 235.20792 255.87729 239.82445 255.54383 251.66374 253.81221 255.08795 253.07128 258.3045 252.54016 261.33714 251.63973 264.20579 251.29863 266.92726 251.32366 269.51588 249.78569 271.9841 249.62096 274.34257 248.67784 276.60066 248.54831 278.7665 248.19034 280.84745 247.63535 282.84983 246.7031 284.7794 246.63494 286.6412 245.62343 290.17964 244.99088 291.86415 244.06206 293.49678 244.25415 295.0807 242.96813 296.61866 242.95056 298.1133 242.24655 299.56703 241.95612 300.98197 240.97258 302.36015 240.7821 303.7034 240.05397 305.01353 240.2965 306.29206 239.23567 307.54054 238.77928 308.76026 238.16925 311.11875 237.42363 312.2598 237.19734 313.3768 236.25479 315.5427 235.83408 316.59336 235.1268 317.62364 234.68589 318.63426 234.41979 319.626 233.75098 320.59956 233.7244 321.55555 233.26784 322.49464 233.09856 324.32438 231.55956 326.09309 230.96189 326.9558 230.25997 328.6403 229.7781 329.4629 228.9388 330.27296 228.96179 331.85685 228.38512 332.6314 228.11777 333.39485 227.06459 334.14744 226.9649 334.8895 226.34897 335.62135 226.16619 336.3432 226.26123 337.75813 225.08666 338.4517 225.04035 339.1363 224.86542 339.8122 224.53282 341.13868 223.12732 341.7897 223.24724 342.43284 222.70168 343.06825 222.50685 343.69615 222.47678 344.31669 221.61853 344.93009 221.113 345.53645 221.18727 346.13597 220.54496 346.7288 220.56189 347.8949 219.53792 348.4685 219.50635 349.5974 218.50409 350.15299 218.05377 350.7028 218.23699 351.78565 217.15161 353.36955 216.69658 353.88719 216.16042 354.3998 216.04393 355.41044 214.76113 355.90864 214.9581 356.4022 214.75257 356.89118 214.24643 357.37574 214.15279 357.8559 213.43363 358.80335 212.6629 359.7342 212.63759 360.19358 211.91539 360.649 211.66819 361.10054 210.96706 361.54829 211.40947 361.99229 211.3701 362.4326 210.7506 362.86927 210.83818 363.30238 210.04392 363.732 209.50147 364.15815 209.84125 364.58094 209.4799 365.00035 208.8213 366.23908 208.25928 367.04914 207.84452 367.44956 207.2697 368.24147 207.19403 368.63304 207.4085 369.02174 206.41269 369.4076 205.78652 369.79069 205.83412 370.17103 205.67394 370.54866 205.25989 370.9236 205.38928 371.29594 205.27553 371.66569 204.71646 372.03285 204.86786 372.3975 203.91088 373.1194 203.65299 373.47666 203.85277 373.83155 203.73062 374.18409 203.21949 374.5343 203.03562 374.88224 203.07677 375.22789 202.52336 375.5713 202.71883 375.91249 202.58045 376.2515 201.84574 376.58839 201.85973 376.92314 201.61592 377.25578 201.10605 377.58634 201.05062 377.91487 200.66008 378.24137 200.4663 378.5659 200.4959 378.8884 200.06798 379.20899 200.28926 379.52766 199.71598 380.47233 199.0492 380.7835 198.57071 381.09288 198.62451 381.40046 198.44785 381.70625 198.76502 382.0103 198.11403 382.31263 198.41544 383.50495 197.05803 383.7989 197.02153 384.38197 195.87325 384.67109 196.43764 384.95866 196.3456 385.2447 195.88898 385.52919 195.98012 385.81214 196.24466 386.0936 195.5453 386.3736 195.39876 386.6521 195.38547 386.92918 194.79732 387.20478 194.87845 387.47898 194.34574 387.75178 194.35727 388.02317 194.20937 388.29319 194.50118 388.5618 194.32479 388.8291 193.12541 389.09507 193.27875 389.623 192.69498 389.88499 192.4661 390.40516 192.76136 390.66334 192.80155 390.9203 192.1596 391.17597 192.21762 391.43046 191.64608 391.6837 191.68689 391.93577 191.46257 392.1866 190.81871 392.43629 191.11437 392.6848 190.84987 392.93217 190.98085 393.42344 189.78069 393.9102 190.20798 394.39253 189.79483 394.63206 189.88199 394.8705 189.12529 395.1079 188.8864 395.34425 188.99526 395.57954 189.30135 395.81379 188.6379 396.047 188.74797 396.51039 187.79611 396.74055 188.30823 396.96974 187.69191 397.19795 187.6816 397.42518 187.83405 397.65144 187.25795 397.8767 187.33821 398.10108 186.6736 398.32447 186.65166 398.5469 187.02782 398.76847 186.35437 398.98908 186.61566 399.20878 186.58197 399.42756 186.03916 399.64546 185.927 399.86247 186.20967 400.72169 184.73229 400.93434 185.13314 401.3571 184.61855 401.56724 184.11598 401.77653 184.39415 401.985 184.38701 402.19267 184.22478 402.3995 183.54648 402.60557 183.63233 402.8108 182.86624 403.01527 182.97232 403.21894 182.67435 403.4218 182.86656 403.82533 182.70375 404.0259 182.20217 404.22575 182.23729 404.82078 181.59128 405.01765 181.67208 405.21379 181.04148 405.4092 181.10678 405.6039 180.76473 405.7979 180.80704 405.99119 180.16593 406.18379 180.37647 406.56687 180.05442 406.75736 179.71393 406.9472 179.65125 407.13636 179.22197 407.32484 179.20705 407.51264 179.55484 407.6998 178.84676 407.88627 178.88938 408.0721 178.4704 408.2573 178.32765 408.80903 178.63445 408.99168 177.39933 409.17369 177.8297 409.35508 177.62107 409.53587 176.74027 409.716 176.99047 409.89555 176.84706 410.0745 176.37888 410.25285 176.60239 410.43058 176.52793 410.60774 176.09676 410.7843 176.08242 410.96028 175.64276 411.13569 175.5409 411.3105 175.70565 411.8315 174.3864 412.00407 174.84305 412.17604 174.45717 412.34745 174.50984 412.51835 173.88694 412.68867 174.21569 412.85844 173.6722 413.02769 173.94681 413.36457 172.71385 413.5322 173.44007 413.6993 172.97663 413.86589 172.9458 414.03196 172.26335 414.36253 171.89441 414.52705 171.98529 414.69105 172.24303 414.85456 171.47327 415.01756 171.7887 415.82514 170.3838 416.14476 170.66826 416.6206 169.42832 416.77827 169.7411 416.93547 169.3275 417.09223 169.77725 417.2485 168.87953 417.4043 169.1933 417.55967 169.12674 417.7146 169.19469 418.17665 168.07514 418.32975 167.98741 418.63468 167.29859 418.78648 167.6541 419.23933 166.77898 419.53907 166.84185 419.68833 166.62149 419.83714 166.75026 419.98558 165.86243 420.13356 165.77666 420.28114 166.6837 420.57508 165.397 420.72145 165.8406 421.1581 164.36518 421.3029 165.01712 421.44728 164.54453 421.73484 164.74292 421.87806 164.46083 422.02085 163.66371 422.30537 164.0749 422.58833 163.47052 422.72926 163.2955 422.86979 163.39908 423.00996 163.1024 423.14979 162.54428 423.2892 162.55669 423.42829 162.72335 423.567 162.3941 423.70536 162.40866 423.84333 162.7562 423.98097 161.41619 424.11824 162.27379 424.39173 161.48885 424.52796 161.18434 424.66383 161.84032 424.9345 160.23673 425.06935 161.3439 425.20384 160.64087 425.33799 160.57683 425.4718 160.90222 425.6053 159.92969 425.73844 160.66643 425.87123 160.41255 426.0037 159.64563 426.13587 159.99164 426.26768 159.70336 426.53034 160.23928 426.7917 158.6127 426.9219 159.29357 427.05177 158.69603 427.18135 158.63869 427.31059 159.34157 427.4395 158.33531 427.56816 158.3152 427.69648 158.106 427.95216 158.49088 428.07954 157.57256 428.20664 158.3303 428.3334 157.44017 428.45988 157.45868 428.7119 157.72185 428.9628 156.5318 429.08778 157.19274 429.21247 156.44097 429.33689 156.93849 429.5848 156.1824 429.70835 156.213 429.83158 157.46958 430.0772 156.28073 430.1996 155.68474 430.32173 156.20725 430.68638 154.87708 430.80738 154.8382 431.04853 155.31308 431.2886 155.26859 431.5276 154.01016 431.6467 154.8868 431.8841 154.21796 432.00239 154.1058 432.12043 153.54389 432.2382 153.89023 432.3557 154.99948 432.58998 153.40978 432.82319 153.965 432.9394 152.86864 433.05537 153.84476 433.17109 153.01294 433.40177 154.14441 433.51673 154.27565 433.63145 153.72574 433.7459 152.54907 433.86015 152.85996 433.97413 153.94434 434.20137 152.13262 434.4276 152.53003 434.54039 151.69777 434.6529 152.56108 434.7652 152.16082 434.87724 152.73282 435.10066 151.8377 435.21199 150.88657 435.3231 151.83159 435.54463 151.52823 435.65507 151.01105 435.76524 151.50647 435.8752 150.97693 435.98493 151.01967 436.20375 152.32083 436.31278 151.84667 436.53025 150.60352 436.6386 150.33623 436.85475 151.26869 437.06999 150.48944 437.17729 150.30248 437.28437 150.34819 437.49787 150.00635 437.7105 149.2597"/>
</g>
<g clip-path="url(#clip_15)">
<path transform="matrix(1,0,0,-1,0,339.79377)" stroke-width="3" stroke-linecap="square" stroke-linejoin="round" fill="none" stroke="#9467bd" d="M107.98324 192.38249 144.75942 192.35045 166.2721 192.71323 181.5356 192.56259 193.37488 192.71689 203.04828 189.69849 211.22702 190.29471 218.31177 189.87902 224.56096 189.96923 230.15106 187.77623 235.20792 187.24173 239.82445 187.21498 244.07126 186.89688 248.0032 185.37778 251.66374 185.36194 255.08795 185.218 258.3045 184.95447 261.33714 182.64034 264.20579 181.05989 266.92726 182.10048 269.51588 179.93505 271.9841 178.96915 274.34257 178.59021 276.60066 179.09506 280.84745 176.61862 282.84983 176.16 284.7794 176.3904 286.6412 174.70754 288.4399 174.212 290.17964 174.0076 291.86415 172.23407 293.49678 174.15787 295.0807 171.97673 296.61866 171.93088 298.1133 170.77152 299.56703 171.1041 300.98197 169.82921 302.36015 169.50426 303.7034 168.78974 305.01353 169.43177 306.29206 166.26798 307.54054 166.58965 308.76026 166.6257 309.9526 165.8304 311.11875 165.46138 312.2598 164.60013 313.3768 164.70726 314.4708 162.1614 316.59336 162.85665 318.63426 161.03389 320.59956 160.29053 321.55555 161.06476 322.49464 160.71425 323.4174 158.40656 324.32438 157.67217 325.2161 158.09146 326.09309 157.50174 326.9558 157.54122 327.80476 155.96669 328.6403 156.65892 329.4629 154.83003 330.27296 155.17589 331.0708 154.624 331.85685 154.90062 332.6314 155.4614 334.14744 152.53083 335.62135 151.98899 336.3432 152.39679 337.0554 151.7304 337.75813 150.70941 338.4517 150.60166 339.1363 151.0765 339.8122 149.88744 340.47959 150.06691 341.13868 149.46846 341.7897 149.7881 342.43284 148.4569 343.06825 148.73491 343.69615 148.76996 344.31669 147.25193 344.93009 146.89614 345.53645 147.67047 346.13597 145.8947 346.7288 146.51433 347.31504 146.05223 347.8949 145.0531 348.4685 146.05524 349.03596 144.97641 349.5974 144.19884 350.15299 144.79174 350.7028 143.97646 351.24699 142.63019 351.78565 143.33542 352.31889 143.0944 352.8468 141.89705 353.36955 142.38344 353.88719 142.51294 354.3998 142.75743 354.90754 142.26032 355.41044 140.69029 355.90864 140.65814 356.4022 141.16408 357.37574 139.19882 357.8559 138.48925 358.33174 139.2906 358.80335 139.18579 359.2708 138.01685 359.7342 139.61724 360.19358 137.60109 360.649 137.80345 361.10054 137.4209 361.54829 137.88568 361.99229 137.39957 362.4326 138.2819 362.86927 135.87789 363.30238 135.89339 363.732 135.43737 364.15815 136.56647 365.00035 133.80625 365.41648 134.64525 365.82939 134.8665 366.23908 133.72182 366.64567 134.45404 367.04914 132.9141 367.44956 133.35134 367.847 133.0023 368.24147 133.7498 369.02174 132.32059 369.4076 130.99501 369.79069 131.72493 370.17103 130.83393 370.54866 129.2301 370.9236 131.90346 371.66569 129.98372 372.03285 130.32196 372.3975 127.492877 372.75968 128.33719 373.1194 130.0829 373.83155 129.47614 374.18409 129.31917 374.5343 127.34671 374.88224 127.257808 375.22789 128.1577 375.5713 128.642 375.91249 128.2843 376.2515 127.47637 376.58839 128.33025 376.92314 127.70514 377.25578 125.63228 377.58634 127.25289 377.91487 125.34377 378.5659 127.50423 378.8884 125.73549 379.20899 126.13416 379.52766 125.22429 379.84443 125.83107 380.1593 123.949199 380.47233 124.50872 380.7835 123.98227 381.09288 124.10639 381.40046 124.89834 381.70625 123.63954 382.0103 123.26052 382.31263 124.59299 382.91215 122.87857 383.20939 122.94663 383.50495 122.00786 383.7989 122.69523 384.09123 121.087009 384.38197 122.36628 384.95866 122.87465 385.2447 121.0725 385.52919 121.22245 385.81214 122.00674 386.0936 122.335758 386.3736 120.052127 386.6521 120.21184 386.92918 120.538 387.20478 120.253559 387.47898 119.6679 387.75178 120.28415 388.02317 119.9886 388.29319 120.23646 388.5618 119.96936 388.8291 119.12414 389.09507 119.3966 389.35969 117.74873 389.623 118.03138 389.88499 118.750247 390.14573 117.97084 390.40516 118.65463 390.66334 118.25444 390.9203 117.08732 391.17597 117.79845 391.43046 117.22054 391.6837 117.57667 391.93577 117.40142 392.43629 116.00969 392.6848 117.44743 392.93217 116.47577 393.17835 116.31902 393.42344 114.946 393.66737 116.91066 393.9102 116.390239 394.15193 114.87842 394.39253 116.25532 394.63206 116.62276 395.1079 113.634227 395.34425 114.67934 395.57954 114.19088 395.81379 113.98473 396.047 112.96356 396.27919 114.168437 396.51039 113.73627 396.74055 113.802799 396.96974 113.64937 397.19795 113.85464 397.42518 112.71442 397.65144 112.2522 397.8767 113.37228 398.10108 111.79002 398.32447 111.27959 398.5469 113.43816 398.76847 111.13441 398.98908 111.57174 399.20878 112.58983 399.42756 110.86414 399.64546 110.70542 400.07856 111.52955 400.2938 110.571239 400.50819 110.59965 400.72169 109.10704 400.93434 110.79203 401.3571 109.47111 401.56724 110.27665 401.77653 109.69585 401.985 110.725139 402.19267 110.05169 402.3995 108.37543 402.8108 109.05145 403.01527 107.82019 403.21894 107.96219 403.4218 108.51261 404.0259 107.8269 404.42485 107.91338 404.62318 106.38167 404.82078 107.39768 405.21379 105.75311 405.4092 105.24372 405.6039 105.23778 405.7979 107.36714 405.99119 105.11991 406.18379 104.38314 406.37568 105.07924 406.75736 105.552318 407.32484 104.43725 407.6998 104.93054 407.88627 104.24822 408.0721 104.393779 408.2573 102.7258 408.44187 103.855228 408.62577 103.15812 408.80903 104.76342 408.99168 102.47671 409.17369 102.66831 409.53587 102.49026 409.716 101.01263 409.89555 101.22483 410.0745 100.95528 410.25285 101.239978 410.43058 100.92164 410.7843 100.83176 410.96028 101.87653 411.3105 101.12607 411.48475 99.83569 411.6584 100.42369 411.8315 99.07083 412.17604 99.686 412.34745 100.10824 412.51835 98.40755 412.68867 100.068019 412.85844 97.979038 413.02769 99.25854 413.19639 98.32794 413.36457 98.66649 413.5322 99.30548 413.86589 96.86053 414.03196 97.07773 414.19749 98.2494 414.52705 96.37863 414.69105 97.134059 414.85456 96.38802 415.18006 97.306987 415.34205 95.95856 415.50358 96.099887 415.66459 96.66427 415.82514 95.87421 415.98518 95.71389 416.14476 96.055507 416.30384 94.967838 416.6206 95.44604 416.77827 94.25624 417.09223 95.50248 417.2485 93.92978 417.4043 93.5214 417.55967 94.95965 417.7146 94.94792 418.02308 93.22134 418.17665 93.13228 418.32975 94.13406 418.48243 92.51572 418.63468 92.82788 418.78648 92.38757 418.93788 92.86333 419.23933 91.20547 419.3894 91.15733 419.53907 90.32168 419.68833 92.865848 419.83714 92.26916 419.98558 90.26439 420.28114 92.05691 420.4283 89.777469 420.57508 89.87357 420.72145 90.727779 421.01298 89.27904 421.1581 89.06605 421.3029 89.76134 421.44728 89.52131 421.59126 91.60527 421.73484 89.277507 421.87806 89.73055 422.02085 88.50416 422.1633 88.76841 422.30537 90.04218 422.44703 88.30076 422.58833 88.374378 422.86979 89.23362 423.00996 89.297969 423.2892 87.88009 423.42829 88.86823 423.70536 87.59832 423.84333 87.857089 423.98097 86.64156 424.11824 87.08115 424.25517 86.400608 424.39173 87.49303 424.52796 85.23436 424.79936 86.60237 424.9345 85.425868 425.06935 87.385997 425.33799 85.31579 425.4718 85.46466 425.6053 84.19043 425.87123 86.127918 426.0037 84.46849 426.13587 84.609928 426.39918 84.53202 426.53034 86.182277 426.7917 81.81838 426.9219 85.379039 427.05177 85.18673 427.18135 83.19902 427.31059 85.45625 427.56816 81.76296 427.82447 83.74585 427.95216 83.41339 428.07954 81.84886 428.20664 82.19427 428.3334 83.48452 428.45988 82.18369 428.58607 83.44123 428.8375 82.603458 428.9628 82.09321 429.08778 82.1195 429.21247 81.03671 429.46098 83.92402 429.70835 80.72277 429.83158 82.550579 430.1996 80.54863 430.44355 80.21033 430.5651 81.319179 430.68638 80.84138 430.80738 79.65602 431.04853 80.23691 431.1687 79.119197 431.2886 80.068439 431.40824 79.245418 431.6467 80.47123 431.8841 78.57575 432.00239 79.05667 432.12043 78.82543 432.2382 78.00135 432.3557 79.41731 432.58998 78.49052 432.82319 79.355129 432.9394 77.38651 433.17109 78.319919 433.28657 78.244968 433.51673 78.49064 433.7459 75.97929 434.20137 77.51838 434.3146 76.15112 434.4276 77.37603 434.6529 75.43464 434.7652 75.49336 435.10066 77.12771 435.3231 75.17917 435.434 75.17911 435.65507 75.648448 435.8752 77.75925 435.98493 75.806568 436.09446 75.91875 436.20375 75.38364 436.31278 75.8284 436.53025 75.0188 436.6386 75.835239 436.85475 74.51585 436.96247 75.12274 437.17729 74.5533 437.28437 74.48531 437.3912 73.77274 437.49787 74.940448 437.60429 73.14829 437.7105 75.29833"/>
</g>
<path transform="matrix(1,0,0,-1,0,339.79377)" stroke-width=".8" stroke-linecap="square" stroke-miterlimit="10" stroke-linejoin="miter" fill="none" stroke="#000000" d="M91.49687 60.79375V332.59376"/>
<path transform="matrix(1,0,0,-1,0,339.79377)" stroke-width=".8" stroke-linecap="square" stroke-miterlimit="10" stroke-linejoin="miter" fill="none" stroke="#000000" d="M454.19688 60.79375V332.59376"/>
<path transform="matrix(1,0,0,-1,0,339.79377)" stroke-width=".8" stroke-linecap="square" stroke-miterlimit="10" stroke-linejoin="miter" fill="none" stroke="#000000" d="M91.49687 60.79375H454.19688"/>
<path transform="matrix(1,0,0,-1,0,339.79377)" stroke-width=".8" stroke-linecap="square" stroke-miterlimit="10" stroke-linejoin="miter" fill="none" stroke="#000000" d="M91.49687 332.59376H454.19688"/>
<g>
<path transform="matrix(1,0,0,-1,0,339.79377)" d="M102.59688 65.29375H320.79063C322.52397 65.29375 323.39064 66.160419 323.39064 67.89375V161.98438C323.39064 163.71772 322.52397 164.58438 320.79063 164.58438H102.59688C100.86354 164.58438 99.99687 163.71772 99.99687 161.98438V67.89375C99.99687 66.160419 100.86354 65.29375 102.59688 65.29375Z" fill="#5f5f5f" fill-opacity=".5"/>
<path transform="matrix(1,0,0,-1,0,339.79377)" stroke-width="1" stroke-linecap="butt" stroke-miterlimit="10" stroke-linejoin="miter" fill="none" stroke="#5f5f5f" stroke-opacity=".5" d="M102.59688 65.29375H320.79063C322.52397 65.29375 323.39064 66.160419 323.39064 67.89375V161.98438C323.39064 163.71772 322.52397 164.58438 320.79063 164.58438H102.59688C100.86354 164.58438 99.99687 163.71772 99.99687 161.98438V67.89375C99.99687 66.160419 100.86354 65.29375 102.59688 65.29375Z"/>
</g>
<path transform="matrix(1,0,0,-1,0,339.79377)" d="M100.59688 67.29375H318.79063C320.52397 67.29375 321.39064 68.160419 321.39064 69.89375V163.98438C321.39064 165.71772 320.52397 166.58438 318.79063 166.58438H100.59688C98.86354 166.58438 97.99687 165.71772 97.99687 163.98438V69.89375C97.99687 68.160419 98.86354 67.29375 100.59688 67.29375Z" fill="#ffffff"/>
<path transform="matrix(1,0,0,-1,0,339.79377)" stroke-width="1" stroke-linecap="butt" stroke-miterlimit="10" stroke-linejoin="miter" fill="none" stroke="#d5d6d5" d="M100.59688 67.29375H318.79063C320.52397 67.29375 321.39064 68.160419 321.39064 69.89375V163.98438C321.39064 165.71772 320.52397 166.58438 318.79063 166.58438H100.59688C98.86354 166.58438 97.99687 165.71772 97.99687 163.98438V69.89375C97.99687 68.160419 98.86354 67.29375 100.59688 67.29375Z"/>
<path transform="matrix(1,0,0,-1,0,339.79377)" stroke-width="3" stroke-linecap="square" stroke-linejoin="round" fill="none" stroke="#1f77b4" d="M103.19688 156.05937H116.19688 129.19687"/>
<use data-text=" " xlink:href="#font_1_32" transform="matrix(13,0,0,-13,139.59688,188.2844)"/>
<use data-text="0" xlink:href="#font_1_48" transform="matrix(13,0,0,-13,143.73088,188.2844)"/>
<use data-text="." xlink:href="#font_1_46" transform="matrix(13,0,0,-13,151.99887,188.2844)"/>
<use data-text="0" xlink:href="#font_1_48" transform="matrix(13,0,0,-13,156.13288,188.2844)"/>
<use data-text="1" xlink:href="#font_1_49" transform="matrix(13,0,0,-13,164.40088,188.2844)"/>
<use data-text="%" xlink:href="#font_1_37" transform="matrix(13,0,0,-13,172.66889,188.2844)"/>
<use data-text=" " xlink:href="#font_1_32" transform="matrix(13,0,0,-13,185.01889,188.2844)"/>
<use data-text="r" xlink:href="#font_1_114" transform="matrix(13,0,0,-13,189.15288,188.2844)"/>
<use data-text="a" xlink:href="#font_1_97" transform="matrix(13,0,0,-13,194.49588,188.2844)"/>
<use data-text="n" xlink:href="#font_1_110" transform="matrix(13,0,0,-13,202.46488,188.2844)"/>
<use data-text="d" xlink:href="#font_1_100" transform="matrix(13,0,0,-13,210.70688,188.2844)"/>
<use data-text="-" xlink:href="#font_1_45" transform="matrix(13,0,0,-13,218.96189,188.2844)"/>
<use data-text="k" xlink:href="#font_1_107" transform="matrix(13,0,0,-13,223.65488,188.2844)"/>
<use data-text=" " xlink:href="#font_1_32" transform="matrix(13,0,0,-13,231.18189,188.2844)"/>
<use data-text="1" xlink:href="#font_1_49" transform="matrix(13,0,0,-13,235.31589,188.2844)"/>
<use data-text="/" xlink:href="#font_1_47" transform="matrix(13,0,0,-13,243.5839,188.2844)"/>
<use data-text="4" xlink:href="#font_1_52" transform="matrix(13,0,0,-13,247.96488,188.2844)"/>
<use data-text="5" xlink:href="#font_1_53" transform="matrix(13,0,0,-13,256.23289,188.2844)"/>
<use data-text=" " xlink:href="#font_1_32" transform="matrix(13,0,0,-13,264.5009,188.2844)"/>
<use data-text="e" xlink:href="#font_1_101" transform="matrix(13,0,0,-13,268.6349,188.2844)"/>
<use data-text="d" xlink:href="#font_1_100" transform="matrix(13,0,0,-13,276.62989,188.2844)"/>
<use data-text="g" xlink:href="#font_1_103" transform="matrix(13,0,0,-13,284.8849,188.2844)"/>
<use data-text="e" xlink:href="#font_1_101" transform="matrix(13,0,0,-13,293.1399,188.2844)"/>
<use data-text="s" xlink:href="#font_1_115" transform="matrix(13,0,0,-13,301.1349,188.2844)"/>
<path transform="matrix(1,0,0,-1,0,339.79377)" stroke-width="3" stroke-linecap="square" stroke-linejoin="round" fill="none" stroke="#ff7f0e" d="M103.19688 136.98125H116.19688 129.19687"/>
<use data-text=" " xlink:href="#font_1_32" transform="matrix(13,0,0,-13,139.59688,207.36252)"/>
<use data-text="0" xlink:href="#font_1_48" transform="matrix(13,0,0,-13,143.73088,207.36252)"/>
<use data-text="." xlink:href="#font_1_46" transform="matrix(13,0,0,-13,151.99887,207.36252)"/>
<use data-text="0" xlink:href="#font_1_48" transform="matrix(13,0,0,-13,156.13288,207.36252)"/>
<use data-text="1" xlink:href="#font_1_49" transform="matrix(13,0,0,-13,164.40088,207.36252)"/>
<use data-text="%" xlink:href="#font_1_37" transform="matrix(13,0,0,-13,172.66889,207.36252)"/>
<use data-text=" " xlink:href="#font_1_32" transform="matrix(13,0,0,-13,185.01889,207.36252)"/>
<use data-text="r" xlink:href="#font_1_114" transform="matrix(13,0,0,-13,189.15288,207.36252)"/>
<use data-text="a" xlink:href="#font_1_97" transform="matrix(13,0,0,-13,194.49588,207.36252)"/>
<use data-text="n" xlink:href="#font_1_110" transform="matrix(13,0,0,-13,202.46488,207.36252)"/>
<use data-text="d" xlink:href="#font_1_100" transform="matrix(13,0,0,-13,210.70688,207.36252)"/>
<use data-text="-" xlink:href="#font_1_45" transform="matrix(13,0,0,-13,218.96189,207.36252)"/>
<use data-text="k" xlink:href="#font_1_107" transform="matrix(13,0,0,-13,223.65488,207.36252)"/>
<use data-text=" " xlink:href="#font_1_32" transform="matrix(13,0,0,-13,231.18189,207.36252)"/>
<use data-text="1" xlink:href="#font_1_49" transform="matrix(13,0,0,-13,235.31589,207.36252)"/>
<use data-text="0" xlink:href="#font_1_48" transform="matrix(13,0,0,-13,243.5839,207.36252)"/>
<use data-text="/" xlink:href="#font_1_47" transform="matrix(13,0,0,-13,251.85189,207.36252)"/>
<use data-text="4" xlink:href="#font_1_52" transform="matrix(13,0,0,-13,256.23289,207.36252)"/>
<use data-text="5" xlink:href="#font_1_53" transform="matrix(13,0,0,-13,264.5009,207.36252)"/>
<use data-text=" " xlink:href="#font_1_32" transform="matrix(13,0,0,-13,272.76887,207.36252)"/>
<use data-text="e" xlink:href="#font_1_101" transform="matrix(13,0,0,-13,276.9029,207.36252)"/>
<use data-text="d" xlink:href="#font_1_100" transform="matrix(13,0,0,-13,284.8979,207.36252)"/>
<use data-text="g" xlink:href="#font_1_103" transform="matrix(13,0,0,-13,293.1529,207.36252)"/>
<use data-text="e" xlink:href="#font_1_101" transform="matrix(13,0,0,-13,301.4079,207.36252)"/>
<use data-text="s" xlink:href="#font_1_115" transform="matrix(13,0,0,-13,309.4029,207.36252)"/>
<path transform="matrix(1,0,0,-1,0,339.79377)" stroke-width="3" stroke-linecap="square" stroke-linejoin="round" fill="none" stroke="#2ca02c" d="M103.19688 117.90312H116.19688 129.19687"/>
<use data-text=" " xlink:href="#font_1_32" transform="matrix(13,0,0,-13,139.59688,226.44065)"/>
<use data-text="0" xlink:href="#font_1_48" transform="matrix(13,0,0,-13,143.73088,226.44065)"/>
<use data-text="." xlink:href="#font_1_46" transform="matrix(13,0,0,-13,151.99887,226.44065)"/>
<use data-text="0" xlink:href="#font_1_48" transform="matrix(13,0,0,-13,156.13288,226.44065)"/>
<use data-text="1" xlink:href="#font_1_49" transform="matrix(13,0,0,-13,164.40088,226.44065)"/>
<use data-text="%" xlink:href="#font_1_37" transform="matrix(13,0,0,-13,172.66889,226.44065)"/>
<use data-text=" " xlink:href="#font_1_32" transform="matrix(13,0,0,-13,185.01889,226.44065)"/>
<use data-text="r" xlink:href="#font_1_114" transform="matrix(13,0,0,-13,189.15288,226.44065)"/>
<use data-text="a" xlink:href="#font_1_97" transform="matrix(13,0,0,-13,194.49588,226.44065)"/>
<use data-text="n" xlink:href="#font_1_110" transform="matrix(13,0,0,-13,202.46488,226.44065)"/>
<use data-text="d" xlink:href="#font_1_100" transform="matrix(13,0,0,-13,210.70688,226.44065)"/>
<use data-text="-" xlink:href="#font_1_45" transform="matrix(13,0,0,-13,218.96189,226.44065)"/>
<use data-text="k" xlink:href="#font_1_107" transform="matrix(13,0,0,-13,223.65488,226.44065)"/>
<use data-text=" " xlink:href="#font_1_32" transform="matrix(13,0,0,-13,231.18189,226.44065)"/>
<use data-text="4" xlink:href="#font_1_52" transform="matrix(13,0,0,-13,235.31589,226.44065)"/>
<use data-text="5" xlink:href="#font_1_53" transform="matrix(13,0,0,-13,243.5839,226.44065)"/>
<use data-text="/" xlink:href="#font_1_47" transform="matrix(13,0,0,-13,251.85189,226.44065)"/>
<use data-text="4" xlink:href="#font_1_52" transform="matrix(13,0,0,-13,256.23289,226.44065)"/>
<use data-text="5" xlink:href="#font_1_53" transform="matrix(13,0,0,-13,264.5009,226.44065)"/>
<use data-text=" " xlink:href="#font_1_32" transform="matrix(13,0,0,-13,272.76887,226.44065)"/>
<use data-text="e" xlink:href="#font_1_101" transform="matrix(13,0,0,-13,276.9029,226.44065)"/>
<use data-text="d" xlink:href="#font_1_100" transform="matrix(13,0,0,-13,284.8979,226.44065)"/>
<use data-text="g" xlink:href="#font_1_103" transform="matrix(13,0,0,-13,293.1529,226.44065)"/>
<use data-text="e" xlink:href="#font_1_101" transform="matrix(13,0,0,-13,301.4079,226.44065)"/>
<use data-text="s" xlink:href="#font_1_115" transform="matrix(13,0,0,-13,309.4029,226.44065)"/>
<path transform="matrix(1,0,0,-1,0,339.79377)" stroke-width="3" stroke-linecap="square" stroke-linejoin="round" fill="none" stroke="#d62728" d="M103.19688 98.825H116.19688 129.19687"/>
<use data-text=" " xlink:href="#font_1_32" transform="matrix(13,0,0,-13,139.59688,245.51877)"/>
<use data-text="0" xlink:href="#font_1_48" transform="matrix(13,0,0,-13,143.73088,245.51877)"/>
<use data-text="." xlink:href="#font_1_46" transform="matrix(13,0,0,-13,151.99887,245.51877)"/>
<use data-text="1" xlink:href="#font_1_49" transform="matrix(13,0,0,-13,156.13288,245.51877)"/>
<use data-text="0" xlink:href="#font_1_48" transform="matrix(13,0,0,-13,164.40088,245.51877)"/>
<use data-text="%" xlink:href="#font_1_37" transform="matrix(13,0,0,-13,172.66889,245.51877)"/>
<use data-text=" " xlink:href="#font_1_32" transform="matrix(13,0,0,-13,185.01889,245.51877)"/>
<use data-text="r" xlink:href="#font_1_114" transform="matrix(13,0,0,-13,189.15288,245.51877)"/>
<use data-text="a" xlink:href="#font_1_97" transform="matrix(13,0,0,-13,194.49588,245.51877)"/>
<use data-text="n" xlink:href="#font_1_110" transform="matrix(13,0,0,-13,202.46488,245.51877)"/>
<use data-text="d" xlink:href="#font_1_100" transform="matrix(13,0,0,-13,210.70688,245.51877)"/>
<use data-text="-" xlink:href="#font_1_45" transform="matrix(13,0,0,-13,218.96189,245.51877)"/>
<use data-text="k" xlink:href="#font_1_107" transform="matrix(13,0,0,-13,223.65488,245.51877)"/>
<use data-text=" " xlink:href="#font_1_32" transform="matrix(13,0,0,-13,231.18189,245.51877)"/>
<use data-text="1" xlink:href="#font_1_49" transform="matrix(13,0,0,-13,235.31589,245.51877)"/>
<use data-text="/" xlink:href="#font_1_47" transform="matrix(13,0,0,-13,243.5839,245.51877)"/>
<use data-text="4" xlink:href="#font_1_52" transform="matrix(13,0,0,-13,247.96488,245.51877)"/>
<use data-text="5" xlink:href="#font_1_53" transform="matrix(13,0,0,-13,256.23289,245.51877)"/>
<use data-text=" " xlink:href="#font_1_32" transform="matrix(13,0,0,-13,264.5009,245.51877)"/>
<use data-text="e" xlink:href="#font_1_101" transform="matrix(13,0,0,-13,268.6349,245.51877)"/>
<use data-text="d" xlink:href="#font_1_100" transform="matrix(13,0,0,-13,276.62989,245.51877)"/>
<use data-text="g" xlink:href="#font_1_103" transform="matrix(13,0,0,-13,284.8849,245.51877)"/>
<use data-text="e" xlink:href="#font_1_101" transform="matrix(13,0,0,-13,293.1399,245.51877)"/>
<use data-text="s" xlink:href="#font_1_115" transform="matrix(13,0,0,-13,301.1349,245.51877)"/>
<path transform="matrix(1,0,0,-1,0,339.79377)" stroke-width="3" stroke-linecap="square" stroke-linejoin="round" fill="none" stroke="#9467bd" d="M103.19688 79.74687H116.19688 129.19687"/>
<use data-text=" " xlink:href="#font_1_32" transform="matrix(13,0,0,-13,139.59688,264.5969)"/>
<use data-text="1" xlink:href="#font_1_49" transform="matrix(13,0,0,-13,143.73088,264.5969)"/>
<use data-text="." xlink:href="#font_1_46" transform="matrix(13,0,0,-13,151.99887,264.5969)"/>
<use data-text="0" xlink:href="#font_1_48" transform="matrix(13,0,0,-13,156.13288,264.5969)"/>
<use data-text="0" xlink:href="#font_1_48" transform="matrix(13,0,0,-13,164.40088,264.5969)"/>
<use data-text="%" xlink:href="#font_1_37" transform="matrix(13,0,0,-13,172.66889,264.5969)"/>
<use data-text=" " xlink:href="#font_1_32" transform="matrix(13,0,0,-13,185.01889,264.5969)"/>
<use data-text="r" xlink:href="#font_1_114" transform="matrix(13,0,0,-13,189.15288,264.5969)"/>
<use data-text="a" xlink:href="#font_1_97" transform="matrix(13,0,0,-13,194.49588,264.5969)"/>
<use data-text="n" xlink:href="#font_1_110" transform="matrix(13,0,0,-13,202.46488,264.5969)"/>
<use data-text="d" xlink:href="#font_1_100" transform="matrix(13,0,0,-13,210.70688,264.5969)"/>
<use data-text="-" xlink:href="#font_1_45" transform="matrix(13,0,0,-13,218.96189,264.5969)"/>
<use data-text="k" xlink:href="#font_1_107" transform="matrix(13,0,0,-13,223.65488,264.5969)"/>
<use data-text=" " xlink:href="#font_1_32" transform="matrix(13,0,0,-13,231.18189,264.5969)"/>
<use data-text="1" xlink:href="#font_1_49" transform="matrix(13,0,0,-13,235.31589,264.5969)"/>
<use data-text="/" xlink:href="#font_1_47" transform="matrix(13,0,0,-13,243.5839,264.5969)"/>
<use data-text="4" xlink:href="#font_1_52" transform="matrix(13,0,0,-13,247.96488,264.5969)"/>
<use data-text="5" xlink:href="#font_1_53" transform="matrix(13,0,0,-13,256.23289,264.5969)"/>
<use data-text=" " xlink:href="#font_1_32" transform="matrix(13,0,0,-13,264.5009,264.5969)"/>
<use data-text="e" xlink:href="#font_1_101" transform="matrix(13,0,0,-13,268.6349,264.5969)"/>
<use data-text="d" xlink:href="#font_1_100" transform="matrix(13,0,0,-13,276.62989,264.5969)"/>
<use data-text="g" xlink:href="#font_1_103" transform="matrix(13,0,0,-13,284.8849,264.5969)"/>
<use data-text="e" xlink:href="#font_1_101" transform="matrix(13,0,0,-13,293.1399,264.5969)"/>
<use data-text="s" xlink:href="#font_1_115" transform="matrix(13,0,0,-13,301.1349,264.5969)"/>
</svg>
