<?xml version="1.0" encoding="utf-8" standalone="no"?>
<!DOCTYPE svg PUBLIC "-//W3C//DTD SVG 1.1//EN"
  "http://www.w3.org/Graphics/SVG/1.1/DTD/svg11.dtd">
<svg xmlns:xlink="http://www.w3.org/1999/xlink" width="463.965511pt" height="339.78375pt" viewBox="0 0 463.965511 339.78375" xmlns="http://www.w3.org/2000/svg" version="1.1">
 <metadata>
  <rdf:RDF xmlns:dc="http://purl.org/dc/elements/1.1/" xmlns:cc="http://creativecommons.org/ns#" xmlns:rdf="http://www.w3.org/1999/02/22-rdf-syntax-ns#">
   <cc:Work>
    <dc:type rdf:resource="http://purl.org/dc/dcmitype/StillImage"/>
    <dc:date>2024-11-13T23:07:42.659822</dc:date>
    <dc:format>image/svg+xml</dc:format>
    <dc:creator>
     <cc:Agent>
      <dc:title>Matplotlib v3.5.1, https://matplotlib.org/</dc:title>
     </cc:Agent>
    </dc:creator>
   </cc:Work>
  </rdf:RDF>
 </metadata>
 <defs>
  <style type="text/css">*{stroke-linejoin: round; stroke-linecap: butt}</style>
 </defs>
 <g id="figure_1">
  <g id="patch_1">
   <path d="M 0 339.78375 
L 463.965511 339.78375 
L 463.965511 0 
L 0 0 
L 0 339.78375 
z
" style="fill: none"/>
  </g>
  <g id="axes_1">
   <g id="patch_2">
    <path d="M 91.191875 279 
L 453.891875 279 
L 453.891875 7.2 
L 91.191875 7.2 
z
" style="fill: #ffffff"/>
   </g>
   <g id="matplotlib.axis_1">
    <g id="xtick_1">
     <g id="line2d_1">
      <path d="M 193.069878 279 
L 193.069878 7.2 
" clip-path="url(#pf28226d172)" style="fill: none; stroke: #b0b0b0; stroke-width: 0.8; stroke-linecap: square"/>
     </g>
     <g id="line2d_2">
      <defs>
       <path id="m69a7642eda" d="M 0 0 
L 0 3.5 
" style="stroke: #000000; stroke-width: 0.8"/>
      </defs>
      <g>
       <use xlink:href="#m69a7642eda" x="193.069878" y="279" style="stroke: #000000; stroke-width: 0.8"/>
      </g>
     </g>
     <g id="text_1">
      <!-- $\mathdefault{10^{5}}$ -->
      <g transform="translate(173.709878 302.716562)scale(0.22 -0.22)">
       <defs>
        <path id="DejaVuSans-31" d="M 794 531 
L 1825 531 
L 1825 4091 
L 703 3866 
L 703 4441 
L 1819 4666 
L 2450 4666 
L 2450 531 
L 3481 531 
L 3481 0 
L 794 0 
L 794 531 
z
" transform="scale(0.015625)"/>
        <path id="DejaVuSans-30" d="M 2034 4250 
Q 1547 4250 1301 3770 
Q 1056 3291 1056 2328 
Q 1056 1369 1301 889 
Q 1547 409 2034 409 
Q 2525 409 2770 889 
Q 3016 1369 3016 2328 
Q 3016 3291 2770 3770 
Q 2525 4250 2034 4250 
z
M 2034 4750 
Q 2819 4750 3233 4129 
Q 3647 3509 3647 2328 
Q 3647 1150 3233 529 
Q 2819 -91 2034 -91 
Q 1250 -91 836 529 
Q 422 1150 422 2328 
Q 422 3509 836 4129 
Q 1250 4750 2034 4750 
z
" transform="scale(0.015625)"/>
        <path id="DejaVuSans-35" d="M 691 4666 
L 3169 4666 
L 3169 4134 
L 1269 4134 
L 1269 2991 
Q 1406 3038 1543 3061 
Q 1681 3084 1819 3084 
Q 2600 3084 3056 2656 
Q 3513 2228 3513 1497 
Q 3513 744 3044 326 
Q 2575 -91 1722 -91 
Q 1428 -91 1123 -41 
Q 819 9 494 109 
L 494 744 
Q 775 591 1075 516 
Q 1375 441 1709 441 
Q 2250 441 2565 725 
Q 2881 1009 2881 1497 
Q 2881 1984 2565 2268 
Q 2250 2553 1709 2553 
Q 1456 2553 1204 2497 
Q 953 2441 691 2322 
L 691 4666 
z
" transform="scale(0.015625)"/>
       </defs>
       <use xlink:href="#DejaVuSans-31" transform="translate(0 0.684375)"/>
       <use xlink:href="#DejaVuSans-30" transform="translate(63.623047 0.684375)"/>
       <use xlink:href="#DejaVuSans-35" transform="translate(128.203125 38.965625)scale(0.7)"/>
      </g>
     </g>
    </g>
    <g id="xtick_2">
     <g id="line2d_3">
      <path d="M 315.237695 279 
L 315.237695 7.2 
" clip-path="url(#pf28226d172)" style="fill: none; stroke: #b0b0b0; stroke-width: 0.8; stroke-linecap: square"/>
     </g>
     <g id="line2d_4">
      <g>
       <use xlink:href="#m69a7642eda" x="315.237695" y="279" style="stroke: #000000; stroke-width: 0.8"/>
      </g>
     </g>
     <g id="text_2">
      <!-- $\mathdefault{10^{6}}$ -->
      <g transform="translate(295.877695 302.716562)scale(0.22 -0.22)">
       <defs>
        <path id="DejaVuSans-36" d="M 2113 2584 
Q 1688 2584 1439 2293 
Q 1191 2003 1191 1497 
Q 1191 994 1439 701 
Q 1688 409 2113 409 
Q 2538 409 2786 701 
Q 3034 994 3034 1497 
Q 3034 2003 2786 2293 
Q 2538 2584 2113 2584 
z
M 3366 4563 
L 3366 3988 
Q 3128 4100 2886 4159 
Q 2644 4219 2406 4219 
Q 1781 4219 1451 3797 
Q 1122 3375 1075 2522 
Q 1259 2794 1537 2939 
Q 1816 3084 2150 3084 
Q 2853 3084 3261 2657 
Q 3669 2231 3669 1497 
Q 3669 778 3244 343 
Q 2819 -91 2113 -91 
Q 1303 -91 875 529 
Q 447 1150 447 2328 
Q 447 3434 972 4092 
Q 1497 4750 2381 4750 
Q 2619 4750 2861 4703 
Q 3103 4656 3366 4563 
z
" transform="scale(0.015625)"/>
       </defs>
       <use xlink:href="#DejaVuSans-31" transform="translate(0 0.765625)"/>
       <use xlink:href="#DejaVuSans-30" transform="translate(63.623047 0.765625)"/>
       <use xlink:href="#DejaVuSans-36" transform="translate(128.203125 39.046875)scale(0.7)"/>
      </g>
     </g>
    </g>
    <g id="xtick_3">
     <g id="line2d_5">
      <path d="M 437.405511 279 
L 437.405511 7.2 
" clip-path="url(#pf28226d172)" style="fill: none; stroke: #b0b0b0; stroke-width: 0.8; stroke-linecap: square"/>
     </g>
     <g id="line2d_6">
      <g>
       <use xlink:href="#m69a7642eda" x="437.405511" y="279" style="stroke: #000000; stroke-width: 0.8"/>
      </g>
     </g>
     <g id="text_3">
      <!-- $\mathdefault{10^{7}}$ -->
      <g transform="translate(418.045511 302.716562)scale(0.22 -0.22)">
       <defs>
        <path id="DejaVuSans-37" d="M 525 4666 
L 3525 4666 
L 3525 4397 
L 1831 0 
L 1172 0 
L 2766 4134 
L 525 4134 
L 525 4666 
z
" transform="scale(0.015625)"/>
       </defs>
       <use xlink:href="#DejaVuSans-31" transform="translate(0 0.684375)"/>
       <use xlink:href="#DejaVuSans-30" transform="translate(63.623047 0.684375)"/>
       <use xlink:href="#DejaVuSans-37" transform="translate(128.203125 38.965625)scale(0.7)"/>
      </g>
     </g>
    </g>
    <g id="xtick_4">
     <g id="line2d_7">
      <defs>
       <path id="m523dd21ae1" d="M 0 0 
L 0 2 
" style="stroke: #000000; stroke-width: 0.6"/>
      </defs>
      <g>
       <use xlink:href="#m523dd21ae1" x="107.678239" y="279" style="stroke: #000000; stroke-width: 0.6"/>
      </g>
     </g>
    </g>
    <g id="xtick_5">
     <g id="line2d_8">
      <g>
       <use xlink:href="#m523dd21ae1" x="129.190923" y="279" style="stroke: #000000; stroke-width: 0.6"/>
      </g>
     </g>
    </g>
    <g id="xtick_6">
     <g id="line2d_9">
      <g>
       <use xlink:href="#m523dd21ae1" x="144.454416" y="279" style="stroke: #000000; stroke-width: 0.6"/>
      </g>
     </g>
    </g>
    <g id="xtick_7">
     <g id="line2d_10">
      <g>
       <use xlink:href="#m523dd21ae1" x="156.293701" y="279" style="stroke: #000000; stroke-width: 0.6"/>
      </g>
     </g>
    </g>
    <g id="xtick_8">
     <g id="line2d_11">
      <g>
       <use xlink:href="#m523dd21ae1" x="165.967101" y="279" style="stroke: #000000; stroke-width: 0.6"/>
      </g>
     </g>
    </g>
    <g id="xtick_9">
     <g id="line2d_12">
      <g>
       <use xlink:href="#m523dd21ae1" x="174.145844" y="279" style="stroke: #000000; stroke-width: 0.6"/>
      </g>
     </g>
    </g>
    <g id="xtick_10">
     <g id="line2d_13">
      <g>
       <use xlink:href="#m523dd21ae1" x="181.230593" y="279" style="stroke: #000000; stroke-width: 0.6"/>
      </g>
     </g>
    </g>
    <g id="xtick_11">
     <g id="line2d_14">
      <g>
       <use xlink:href="#m523dd21ae1" x="187.479785" y="279" style="stroke: #000000; stroke-width: 0.6"/>
      </g>
     </g>
    </g>
    <g id="xtick_12">
     <g id="line2d_15">
      <g>
       <use xlink:href="#m523dd21ae1" x="229.846055" y="279" style="stroke: #000000; stroke-width: 0.6"/>
      </g>
     </g>
    </g>
    <g id="xtick_13">
     <g id="line2d_16">
      <g>
       <use xlink:href="#m523dd21ae1" x="251.35874" y="279" style="stroke: #000000; stroke-width: 0.6"/>
      </g>
     </g>
    </g>
    <g id="xtick_14">
     <g id="line2d_17">
      <g>
       <use xlink:href="#m523dd21ae1" x="266.622233" y="279" style="stroke: #000000; stroke-width: 0.6"/>
      </g>
     </g>
    </g>
    <g id="xtick_15">
     <g id="line2d_18">
      <g>
       <use xlink:href="#m523dd21ae1" x="278.461517" y="279" style="stroke: #000000; stroke-width: 0.6"/>
      </g>
     </g>
    </g>
    <g id="xtick_16">
     <g id="line2d_19">
      <g>
       <use xlink:href="#m523dd21ae1" x="288.134917" y="279" style="stroke: #000000; stroke-width: 0.6"/>
      </g>
     </g>
    </g>
    <g id="xtick_17">
     <g id="line2d_20">
      <g>
       <use xlink:href="#m523dd21ae1" x="296.31366" y="279" style="stroke: #000000; stroke-width: 0.6"/>
      </g>
     </g>
    </g>
    <g id="xtick_18">
     <g id="line2d_21">
      <g>
       <use xlink:href="#m523dd21ae1" x="303.39841" y="279" style="stroke: #000000; stroke-width: 0.6"/>
      </g>
     </g>
    </g>
    <g id="xtick_19">
     <g id="line2d_22">
      <g>
       <use xlink:href="#m523dd21ae1" x="309.647602" y="279" style="stroke: #000000; stroke-width: 0.6"/>
      </g>
     </g>
    </g>
    <g id="xtick_20">
     <g id="line2d_23">
      <g>
       <use xlink:href="#m523dd21ae1" x="352.013872" y="279" style="stroke: #000000; stroke-width: 0.6"/>
      </g>
     </g>
    </g>
    <g id="xtick_21">
     <g id="line2d_24">
      <g>
       <use xlink:href="#m523dd21ae1" x="373.526557" y="279" style="stroke: #000000; stroke-width: 0.6"/>
      </g>
     </g>
    </g>
    <g id="xtick_22">
     <g id="line2d_25">
      <g>
       <use xlink:href="#m523dd21ae1" x="388.790049" y="279" style="stroke: #000000; stroke-width: 0.6"/>
      </g>
     </g>
    </g>
    <g id="xtick_23">
     <g id="line2d_26">
      <g>
       <use xlink:href="#m523dd21ae1" x="400.629334" y="279" style="stroke: #000000; stroke-width: 0.6"/>
      </g>
     </g>
    </g>
    <g id="xtick_24">
     <g id="line2d_27">
      <g>
       <use xlink:href="#m523dd21ae1" x="410.302734" y="279" style="stroke: #000000; stroke-width: 0.6"/>
      </g>
     </g>
    </g>
    <g id="xtick_25">
     <g id="line2d_28">
      <g>
       <use xlink:href="#m523dd21ae1" x="418.481477" y="279" style="stroke: #000000; stroke-width: 0.6"/>
      </g>
     </g>
    </g>
    <g id="xtick_26">
     <g id="line2d_29">
      <g>
       <use xlink:href="#m523dd21ae1" x="425.566227" y="279" style="stroke: #000000; stroke-width: 0.6"/>
      </g>
     </g>
    </g>
    <g id="xtick_27">
     <g id="line2d_30">
      <g>
       <use xlink:href="#m523dd21ae1" x="431.815419" y="279" style="stroke: #000000; stroke-width: 0.6"/>
      </g>
     </g>
    </g>
    <g id="text_4">
     <!-- Iteration -->
     <g transform="translate(225.882969 328.008437)scale(0.22 -0.22)">
      <defs>
       <path id="DejaVuSans-49" d="M 628 4666 
L 1259 4666 
L 1259 0 
L 628 0 
L 628 4666 
z
" transform="scale(0.015625)"/>
       <path id="DejaVuSans-74" d="M 1172 4494 
L 1172 3500 
L 2356 3500 
L 2356 3053 
L 1172 3053 
L 1172 1153 
Q 1172 725 1289 603 
Q 1406 481 1766 481 
L 2356 481 
L 2356 0 
L 1766 0 
Q 1100 0 847 248 
Q 594 497 594 1153 
L 594 3053 
L 172 3053 
L 172 3500 
L 594 3500 
L 594 4494 
L 1172 4494 
z
" transform="scale(0.015625)"/>
       <path id="DejaVuSans-65" d="M 3597 1894 
L 3597 1613 
L 953 1613 
Q 991 1019 1311 708 
Q 1631 397 2203 397 
Q 2534 397 2845 478 
Q 3156 559 3463 722 
L 3463 178 
Q 3153 47 2828 -22 
Q 2503 -91 2169 -91 
Q 1331 -91 842 396 
Q 353 884 353 1716 
Q 353 2575 817 3079 
Q 1281 3584 2069 3584 
Q 2775 3584 3186 3129 
Q 3597 2675 3597 1894 
z
M 3022 2063 
Q 3016 2534 2758 2815 
Q 2500 3097 2075 3097 
Q 1594 3097 1305 2825 
Q 1016 2553 972 2059 
L 3022 2063 
z
" transform="scale(0.015625)"/>
       <path id="DejaVuSans-72" d="M 2631 2963 
Q 2534 3019 2420 3045 
Q 2306 3072 2169 3072 
Q 1681 3072 1420 2755 
Q 1159 2438 1159 1844 
L 1159 0 
L 581 0 
L 581 3500 
L 1159 3500 
L 1159 2956 
Q 1341 3275 1631 3429 
Q 1922 3584 2338 3584 
Q 2397 3584 2469 3576 
Q 2541 3569 2628 3553 
L 2631 2963 
z
" transform="scale(0.015625)"/>
       <path id="DejaVuSans-61" d="M 2194 1759 
Q 1497 1759 1228 1600 
Q 959 1441 959 1056 
Q 959 750 1161 570 
Q 1363 391 1709 391 
Q 2188 391 2477 730 
Q 2766 1069 2766 1631 
L 2766 1759 
L 2194 1759 
z
M 3341 1997 
L 3341 0 
L 2766 0 
L 2766 531 
Q 2569 213 2275 61 
Q 1981 -91 1556 -91 
Q 1019 -91 701 211 
Q 384 513 384 1019 
Q 384 1609 779 1909 
Q 1175 2209 1959 2209 
L 2766 2209 
L 2766 2266 
Q 2766 2663 2505 2880 
Q 2244 3097 1772 3097 
Q 1472 3097 1187 3025 
Q 903 2953 641 2809 
L 641 3341 
Q 956 3463 1253 3523 
Q 1550 3584 1831 3584 
Q 2591 3584 2966 3190 
Q 3341 2797 3341 1997 
z
" transform="scale(0.015625)"/>
       <path id="DejaVuSans-69" d="M 603 3500 
L 1178 3500 
L 1178 0 
L 603 0 
L 603 3500 
z
M 603 4863 
L 1178 4863 
L 1178 4134 
L 603 4134 
L 603 4863 
z
" transform="scale(0.015625)"/>
       <path id="DejaVuSans-6f" d="M 1959 3097 
Q 1497 3097 1228 2736 
Q 959 2375 959 1747 
Q 959 1119 1226 758 
Q 1494 397 1959 397 
Q 2419 397 2687 759 
Q 2956 1122 2956 1747 
Q 2956 2369 2687 2733 
Q 2419 3097 1959 3097 
z
M 1959 3584 
Q 2709 3584 3137 3096 
Q 3566 2609 3566 1747 
Q 3566 888 3137 398 
Q 2709 -91 1959 -91 
Q 1206 -91 779 398 
Q 353 888 353 1747 
Q 353 2609 779 3096 
Q 1206 3584 1959 3584 
z
" transform="scale(0.015625)"/>
       <path id="DejaVuSans-6e" d="M 3513 2113 
L 3513 0 
L 2938 0 
L 2938 2094 
Q 2938 2591 2744 2837 
Q 2550 3084 2163 3084 
Q 1697 3084 1428 2787 
Q 1159 2491 1159 1978 
L 1159 0 
L 581 0 
L 581 3500 
L 1159 3500 
L 1159 2956 
Q 1366 3272 1645 3428 
Q 1925 3584 2291 3584 
Q 2894 3584 3203 3211 
Q 3513 2838 3513 2113 
z
" transform="scale(0.015625)"/>
      </defs>
      <use xlink:href="#DejaVuSans-49"/>
      <use xlink:href="#DejaVuSans-74" x="29.492188"/>
      <use xlink:href="#DejaVuSans-65" x="68.701172"/>
      <use xlink:href="#DejaVuSans-72" x="130.224609"/>
      <use xlink:href="#DejaVuSans-61" x="171.337891"/>
      <use xlink:href="#DejaVuSans-74" x="232.617188"/>
      <use xlink:href="#DejaVuSans-69" x="271.826172"/>
      <use xlink:href="#DejaVuSans-6f" x="299.609375"/>
      <use xlink:href="#DejaVuSans-6e" x="360.791016"/>
     </g>
    </g>
   </g>
   <g id="matplotlib.axis_2">
    <g id="ytick_1">
     <g id="line2d_31">
      <path d="M 91.191875 278.207753 
L 453.891875 278.207753 
" clip-path="url(#pf28226d172)" style="fill: none; stroke: #b0b0b0; stroke-width: 0.8; stroke-linecap: square"/>
     </g>
     <g id="line2d_32">
      <defs>
       <path id="mb7b82fe8fb" d="M 0 0 
L -3.5 0 
" style="stroke: #000000; stroke-width: 0.8"/>
      </defs>
      <g>
       <use xlink:href="#mb7b82fe8fb" x="91.191875" y="278.207753" style="stroke: #000000; stroke-width: 0.8"/>
      </g>
     </g>
     <g id="text_5">
      <!-- $\mathdefault{10^{-5}}$ -->
      <g transform="translate(32.491875 286.566034)scale(0.22 -0.22)">
       <defs>
        <path id="DejaVuSans-2212" d="M 678 2272 
L 4684 2272 
L 4684 1741 
L 678 1741 
L 678 2272 
z
" transform="scale(0.015625)"/>
       </defs>
       <use xlink:href="#DejaVuSans-31" transform="translate(0 0.684375)"/>
       <use xlink:href="#DejaVuSans-30" transform="translate(63.623047 0.684375)"/>
       <use xlink:href="#DejaVuSans-2212" transform="translate(128.203125 38.965625)scale(0.7)"/>
       <use xlink:href="#DejaVuSans-35" transform="translate(186.855469 38.965625)scale(0.7)"/>
      </g>
     </g>
    </g>
    <g id="ytick_2">
     <g id="line2d_33">
      <path d="M 91.191875 129.259116 
L 453.891875 129.259116 
" clip-path="url(#pf28226d172)" style="fill: none; stroke: #b0b0b0; stroke-width: 0.8; stroke-linecap: square"/>
     </g>
     <g id="line2d_34">
      <g>
       <use xlink:href="#mb7b82fe8fb" x="91.191875" y="129.259116" style="stroke: #000000; stroke-width: 0.8"/>
      </g>
     </g>
     <g id="text_6">
      <!-- $\mathdefault{10^{-4}}$ -->
      <g transform="translate(32.491875 137.617398)scale(0.22 -0.22)">
       <defs>
        <path id="DejaVuSans-34" d="M 2419 4116 
L 825 1625 
L 2419 1625 
L 2419 4116 
z
M 2253 4666 
L 3047 4666 
L 3047 1625 
L 3713 1625 
L 3713 1100 
L 3047 1100 
L 3047 0 
L 2419 0 
L 2419 1100 
L 313 1100 
L 313 1709 
L 2253 4666 
z
" transform="scale(0.015625)"/>
       </defs>
       <use xlink:href="#DejaVuSans-31" transform="translate(0 0.684375)"/>
       <use xlink:href="#DejaVuSans-30" transform="translate(63.623047 0.684375)"/>
       <use xlink:href="#DejaVuSans-2212" transform="translate(128.203125 38.965625)scale(0.7)"/>
       <use xlink:href="#DejaVuSans-34" transform="translate(186.855469 38.965625)scale(0.7)"/>
      </g>
     </g>
    </g>
    <g id="ytick_3">
     <g id="line2d_35">
      <defs>
       <path id="m6033d50976" d="M 0 0 
L -2 0 
" style="stroke: #000000; stroke-width: 0.6"/>
      </defs>
      <g>
       <use xlink:href="#m6033d50976" x="91.191875" y="233.369745" style="stroke: #000000; stroke-width: 0.6"/>
      </g>
     </g>
    </g>
    <g id="ytick_4">
     <g id="line2d_36">
      <g>
       <use xlink:href="#m6033d50976" x="91.191875" y="207.141193" style="stroke: #000000; stroke-width: 0.6"/>
      </g>
     </g>
    </g>
    <g id="ytick_5">
     <g id="line2d_37">
      <g>
       <use xlink:href="#m6033d50976" x="91.191875" y="188.531738" style="stroke: #000000; stroke-width: 0.6"/>
      </g>
     </g>
    </g>
    <g id="ytick_6">
     <g id="line2d_38">
      <g>
       <use xlink:href="#m6033d50976" x="91.191875" y="174.097124" style="stroke: #000000; stroke-width: 0.6"/>
      </g>
     </g>
    </g>
    <g id="ytick_7">
     <g id="line2d_39">
      <g>
       <use xlink:href="#m6033d50976" x="91.191875" y="162.303185" style="stroke: #000000; stroke-width: 0.6"/>
      </g>
     </g>
    </g>
    <g id="ytick_8">
     <g id="line2d_40">
      <g>
       <use xlink:href="#m6033d50976" x="91.191875" y="152.331552" style="stroke: #000000; stroke-width: 0.6"/>
      </g>
     </g>
    </g>
    <g id="ytick_9">
     <g id="line2d_41">
      <g>
       <use xlink:href="#m6033d50976" x="91.191875" y="143.693731" style="stroke: #000000; stroke-width: 0.6"/>
      </g>
     </g>
    </g>
    <g id="ytick_10">
     <g id="line2d_42">
      <g>
       <use xlink:href="#m6033d50976" x="91.191875" y="136.074632" style="stroke: #000000; stroke-width: 0.6"/>
      </g>
     </g>
    </g>
    <g id="ytick_11">
     <g id="line2d_43">
      <g>
       <use xlink:href="#m6033d50976" x="91.191875" y="84.421109" style="stroke: #000000; stroke-width: 0.6"/>
      </g>
     </g>
    </g>
    <g id="ytick_12">
     <g id="line2d_44">
      <g>
       <use xlink:href="#m6033d50976" x="91.191875" y="58.192556" style="stroke: #000000; stroke-width: 0.6"/>
      </g>
     </g>
    </g>
    <g id="ytick_13">
     <g id="line2d_45">
      <g>
       <use xlink:href="#m6033d50976" x="91.191875" y="39.583102" style="stroke: #000000; stroke-width: 0.6"/>
      </g>
     </g>
    </g>
    <g id="ytick_14">
     <g id="line2d_46">
      <g>
       <use xlink:href="#m6033d50976" x="91.191875" y="25.148488" style="stroke: #000000; stroke-width: 0.6"/>
      </g>
     </g>
    </g>
    <g id="ytick_15">
     <g id="line2d_47">
      <g>
       <use xlink:href="#m6033d50976" x="91.191875" y="13.354549" style="stroke: #000000; stroke-width: 0.6"/>
      </g>
     </g>
    </g>
    <g id="text_7">
     <!-- Gradient Norm Squared -->
     <g transform="translate(23.916563 273.678594)rotate(-90)scale(0.22 -0.22)">
      <defs>
       <path id="DejaVuSans-47" d="M 3809 666 
L 3809 1919 
L 2778 1919 
L 2778 2438 
L 4434 2438 
L 4434 434 
Q 4069 175 3628 42 
Q 3188 -91 2688 -91 
Q 1594 -91 976 548 
Q 359 1188 359 2328 
Q 359 3472 976 4111 
Q 1594 4750 2688 4750 
Q 3144 4750 3555 4637 
Q 3966 4525 4313 4306 
L 4313 3634 
Q 3963 3931 3569 4081 
Q 3175 4231 2741 4231 
Q 1884 4231 1454 3753 
Q 1025 3275 1025 2328 
Q 1025 1384 1454 906 
Q 1884 428 2741 428 
Q 3075 428 3337 486 
Q 3600 544 3809 666 
z
" transform="scale(0.015625)"/>
       <path id="DejaVuSans-64" d="M 2906 2969 
L 2906 4863 
L 3481 4863 
L 3481 0 
L 2906 0 
L 2906 525 
Q 2725 213 2448 61 
Q 2172 -91 1784 -91 
Q 1150 -91 751 415 
Q 353 922 353 1747 
Q 353 2572 751 3078 
Q 1150 3584 1784 3584 
Q 2172 3584 2448 3432 
Q 2725 3281 2906 2969 
z
M 947 1747 
Q 947 1113 1208 752 
Q 1469 391 1925 391 
Q 2381 391 2643 752 
Q 2906 1113 2906 1747 
Q 2906 2381 2643 2742 
Q 2381 3103 1925 3103 
Q 1469 3103 1208 2742 
Q 947 2381 947 1747 
z
" transform="scale(0.015625)"/>
       <path id="DejaVuSans-20" transform="scale(0.015625)"/>
       <path id="DejaVuSans-4e" d="M 628 4666 
L 1478 4666 
L 3547 763 
L 3547 4666 
L 4159 4666 
L 4159 0 
L 3309 0 
L 1241 3903 
L 1241 0 
L 628 0 
L 628 4666 
z
" transform="scale(0.015625)"/>
       <path id="DejaVuSans-6d" d="M 3328 2828 
Q 3544 3216 3844 3400 
Q 4144 3584 4550 3584 
Q 5097 3584 5394 3201 
Q 5691 2819 5691 2113 
L 5691 0 
L 5113 0 
L 5113 2094 
Q 5113 2597 4934 2840 
Q 4756 3084 4391 3084 
Q 3944 3084 3684 2787 
Q 3425 2491 3425 1978 
L 3425 0 
L 2847 0 
L 2847 2094 
Q 2847 2600 2669 2842 
Q 2491 3084 2119 3084 
Q 1678 3084 1418 2786 
Q 1159 2488 1159 1978 
L 1159 0 
L 581 0 
L 581 3500 
L 1159 3500 
L 1159 2956 
Q 1356 3278 1631 3431 
Q 1906 3584 2284 3584 
Q 2666 3584 2933 3390 
Q 3200 3197 3328 2828 
z
" transform="scale(0.015625)"/>
       <path id="DejaVuSans-53" d="M 3425 4513 
L 3425 3897 
Q 3066 4069 2747 4153 
Q 2428 4238 2131 4238 
Q 1616 4238 1336 4038 
Q 1056 3838 1056 3469 
Q 1056 3159 1242 3001 
Q 1428 2844 1947 2747 
L 2328 2669 
Q 3034 2534 3370 2195 
Q 3706 1856 3706 1288 
Q 3706 609 3251 259 
Q 2797 -91 1919 -91 
Q 1588 -91 1214 -16 
Q 841 59 441 206 
L 441 856 
Q 825 641 1194 531 
Q 1563 422 1919 422 
Q 2459 422 2753 634 
Q 3047 847 3047 1241 
Q 3047 1584 2836 1778 
Q 2625 1972 2144 2069 
L 1759 2144 
Q 1053 2284 737 2584 
Q 422 2884 422 3419 
Q 422 4038 858 4394 
Q 1294 4750 2059 4750 
Q 2388 4750 2728 4690 
Q 3069 4631 3425 4513 
z
" transform="scale(0.015625)"/>
       <path id="DejaVuSans-71" d="M 947 1747 
Q 947 1113 1208 752 
Q 1469 391 1925 391 
Q 2381 391 2643 752 
Q 2906 1113 2906 1747 
Q 2906 2381 2643 2742 
Q 2381 3103 1925 3103 
Q 1469 3103 1208 2742 
Q 947 2381 947 1747 
z
M 2906 525 
Q 2725 213 2448 61 
Q 2172 -91 1784 -91 
Q 1150 -91 751 415 
Q 353 922 353 1747 
Q 353 2572 751 3078 
Q 1150 3584 1784 3584 
Q 2172 3584 2448 3432 
Q 2725 3281 2906 2969 
L 2906 3500 
L 3481 3500 
L 3481 -1331 
L 2906 -1331 
L 2906 525 
z
" transform="scale(0.015625)"/>
       <path id="DejaVuSans-75" d="M 544 1381 
L 544 3500 
L 1119 3500 
L 1119 1403 
Q 1119 906 1312 657 
Q 1506 409 1894 409 
Q 2359 409 2629 706 
Q 2900 1003 2900 1516 
L 2900 3500 
L 3475 3500 
L 3475 0 
L 2900 0 
L 2900 538 
Q 2691 219 2414 64 
Q 2138 -91 1772 -91 
Q 1169 -91 856 284 
Q 544 659 544 1381 
z
M 1991 3584 
L 1991 3584 
z
" transform="scale(0.015625)"/>
      </defs>
      <use xlink:href="#DejaVuSans-47"/>
      <use xlink:href="#DejaVuSans-72" x="77.490234"/>
      <use xlink:href="#DejaVuSans-61" x="118.603516"/>
      <use xlink:href="#DejaVuSans-64" x="179.882812"/>
      <use xlink:href="#DejaVuSans-69" x="243.359375"/>
      <use xlink:href="#DejaVuSans-65" x="271.142578"/>
      <use xlink:href="#DejaVuSans-6e" x="332.666016"/>
      <use xlink:href="#DejaVuSans-74" x="396.044922"/>
      <use xlink:href="#DejaVuSans-20" x="435.253906"/>
      <use xlink:href="#DejaVuSans-4e" x="467.041016"/>
      <use xlink:href="#DejaVuSans-6f" x="541.845703"/>
      <use xlink:href="#DejaVuSans-72" x="603.027344"/>
      <use xlink:href="#DejaVuSans-6d" x="642.390625"/>
      <use xlink:href="#DejaVuSans-20" x="739.802734"/>
      <use xlink:href="#DejaVuSans-53" x="771.589844"/>
      <use xlink:href="#DejaVuSans-71" x="835.066406"/>
      <use xlink:href="#DejaVuSans-75" x="898.542969"/>
      <use xlink:href="#DejaVuSans-61" x="961.921875"/>
      <use xlink:href="#DejaVuSans-72" x="1023.201172"/>
      <use xlink:href="#DejaVuSans-65" x="1062.064453"/>
      <use xlink:href="#DejaVuSans-64" x="1123.587891"/>
     </g>
    </g>
   </g>
   <g id="line2d_48">
    <path d="M 107.678239 20.100474 
L 144.454416 51.479463 
L 165.967101 61.372262 
L 181.230593 64.708298 
L 193.069878 66.782804 
L 202.743278 68.325669 
L 210.922021 66.770192 
L 218.006771 66.777931 
L 224.255963 68.769001 
L 229.846055 69.327377 
L 234.902909 70.958721 
L 239.519455 68.229744 
L 243.766266 70.526274 
L 247.698198 71.823498 
L 251.35874 70.738898 
L 254.782948 72.403199 
L 257.999497 73.422196 
L 261.03214 74.852869 
L 263.900774 77.158963 
L 266.622233 75.836971 
L 269.210883 77.305354 
L 271.679087 79.253008 
L 274.037555 79.196445 
L 276.295633 80.172623 
L 278.461517 82.455572 
L 280.542443 82.776437 
L 282.544825 84.027621 
L 284.474376 85.53836 
L 286.336209 85.730833 
L 289.874641 87.502992 
L 291.559125 88.296877 
L 293.191771 90.561628 
L 294.775674 89.23351 
L 296.31366 90.194294 
L 297.808317 91.458761 
L 299.262019 91.920572 
L 302.055128 92.2226 
L 303.39841 93.842482 
L 304.708521 94.593939 
L 305.98706 94.658472 
L 307.235513 96.516606 
L 308.455264 95.896391 
L 309.647602 94.136907 
L 310.813733 95.567748 
L 311.954783 95.43551 
L 313.07181 97.47872 
L 314.165804 100.008239 
L 315.237695 99.661231 
L 316.288359 101.220947 
L 317.318621 99.62604 
L 318.329257 101.148211 
L 319.321002 100.928195 
L 320.294549 102.855266 
L 321.250553 102.278721 
L 322.189636 102.725787 
L 323.112386 100.756965 
L 324.019363 103.179229 
L 324.911095 103.716833 
L 325.788087 103.401533 
L 326.650818 102.742922 
L 327.499745 105.009979 
L 328.335303 105.221873 
L 329.157905 102.073715 
L 329.967949 104.481522 
L 330.76581 103.421973 
L 331.551852 103.086091 
L 332.326417 105.621562 
L 333.089838 106.247318 
L 333.842429 104.596376 
L 334.584495 105.328939 
L 335.316324 104.533316 
L 336.038197 104.920185 
L 336.750379 106.192447 
L 337.453129 106.155765 
L 338.146692 106.385985 
L 338.831305 107.647607 
L 340.174587 106.138235 
L 340.833687 107.454658 
L 341.484699 106.953751 
L 342.127819 108.430585 
L 342.763238 109.606814 
L 343.391136 109.629285 
L 344.011691 109.76389 
L 344.625071 108.763509 
L 345.231441 109.148449 
L 345.83096 109.823417 
L 346.423779 110.728166 
L 347.010048 113.182594 
L 347.58991 110.974471 
L 348.163503 112.916726 
L 348.730961 110.88773 
L 349.847987 113.625213 
L 350.397804 113.956859 
L 350.941981 110.82272 
L 351.480633 114.532736 
L 352.013872 115.453698 
L 352.541805 114.458891 
L 353.064536 116.339491 
L 353.582168 116.184386 
L 354.094798 115.717875 
L 354.602522 116.739066 
L 355.105434 116.809894 
L 355.603624 117.700449 
L 356.097179 116.085998 
L 356.586186 116.419935 
L 357.070726 116.446875 
L 357.550881 115.899025 
L 358.02673 119.530494 
L 358.49835 117.199503 
L 358.965813 118.058798 
L 359.429195 117.583809 
L 359.888564 119.468445 
L 360.34399 118.665338 
L 360.79554 118.354263 
L 361.687272 120.193691 
L 362.12758 120.494888 
L 362.564264 119.976283 
L 362.997383 119.995364 
L 363.426995 121.296016 
L 363.853157 121.481364 
L 364.275922 121.260932 
L 364.695346 123.625218 
L 365.11148 122.096379 
L 365.524375 121.464071 
L 365.934083 123.884278 
L 366.34065 121.76618 
L 366.744126 122.404565 
L 367.144557 122.269055 
L 367.541988 121.815788 
L 367.936464 122.513964 
L 368.328029 124.257417 
L 368.716725 123.571927 
L 369.102595 125.086783 
L 369.485678 124.894043 
L 369.866015 125.010643 
L 370.243645 124.057253 
L 370.990937 125.590283 
L 371.360672 125.696831 
L 371.727849 126.197762 
L 372.092502 128.145246 
L 372.454665 125.2876 
L 372.814374 125.946369 
L 373.17166 126.075465 
L 373.526557 127.523097 
L 373.879095 126.098365 
L 374.229306 126.907319 
L 374.577221 126.468436 
L 374.922869 128.14049 
L 375.26628 128.242188 
L 375.946505 128.056681 
L 376.283375 129.096187 
L 376.618119 128.372694 
L 376.950765 130.008518 
L 377.281338 129.768556 
L 377.936368 128.17076 
L 378.260876 127.62147 
L 378.583411 130.44526 
L 378.903997 129.890403 
L 379.222657 131.408172 
L 379.854293 129.572278 
L 380.167314 131.430757 
L 380.787868 129.758462 
L 381.095445 129.658161 
L 381.401248 130.97769 
L 381.7053 130.260801 
L 382.007619 130.908735 
L 382.308225 132.175465 
L 382.607137 132.061778 
L 382.904375 133.07847 
L 383.199957 131.051058 
L 383.493901 132.915154 
L 383.786226 132.234606 
L 384.076949 132.591255 
L 384.366087 129.055552 
L 384.653659 133.122997 
L 384.93968 133.105253 
L 385.224168 132.423913 
L 385.507138 132.810622 
L 385.788607 132.586939 
L 386.068591 133.407449 
L 386.347105 134.724316 
L 386.899785 135.980066 
L 387.173981 134.688803 
L 387.446767 135.495252 
L 387.718158 133.664502 
L 387.988168 135.766631 
L 388.256811 134.350932 
L 388.5241 135.818054 
L 388.790049 133.475644 
L 389.054672 135.902686 
L 389.317982 136.296742 
L 389.579992 137.996022 
L 389.840714 136.617671 
L 390.358345 137.213661 
L 390.615279 138.734467 
L 390.870975 139.013961 
L 391.125445 137.857873 
L 391.3787 138.375415 
L 391.630752 137.534438 
L 391.881612 137.354787 
L 392.131291 139.440826 
L 392.379801 139.723578 
L 392.627153 138.185057 
L 392.873357 140.710416 
L 393.118423 139.603555 
L 393.362363 140.094292 
L 393.605186 140.250709 
L 393.846903 140.643988 
L 394.087524 138.641393 
L 394.327059 141.974886 
L 394.565517 141.374363 
L 394.802908 142.700703 
L 395.039241 140.41685 
L 395.508774 143.102692 
L 395.741991 142.620956 
L 395.974187 141.700013 
L 396.205372 142.0994 
L 396.435554 141.808951 
L 396.664741 143.363418 
L 397.120167 141.363449 
L 397.571717 143.12331 
L 397.796059 143.214815 
L 398.019457 144.055636 
L 398.241917 143.737772 
L 398.463449 141.750491 
L 398.68406 143.182721 
L 398.903757 143.062415 
L 399.122549 144.656289 
L 399.340441 144.790745 
L 399.557443 145.451049 
L 399.773561 145.140685 
L 399.988801 146.647675 
L 400.203173 145.644553 
L 400.416681 145.648391 
L 400.629334 146.835717 
L 400.841138 145.91402 
L 401.0521 146.048441 
L 401.262226 147.283407 
L 401.471523 146.95434 
L 401.679998 147.151798 
L 402.094507 147.777837 
L 402.300553 146.717294 
L 402.505802 146.859994 
L 402.71026 146.823502 
L 402.913933 147.834187 
L 403.116827 146.165003 
L 403.318949 146.823527 
L 403.520303 148.760052 
L 403.720896 147.743555 
L 403.920734 148.394221 
L 404.119822 149.440343 
L 404.318165 149.00335 
L 404.51577 149.122282 
L 404.712641 147.049827 
L 404.908785 149.453519 
L 405.104206 148.2838 
L 405.29891 149.525936 
L 405.492903 148.525551 
L 405.686188 150.456094 
L 406.070659 148.786608 
L 406.452365 150.451881 
L 406.642192 149.910269 
L 406.831343 151.031272 
L 407.207634 151.301338 
L 407.394784 150.113251 
L 407.581275 150.258898 
L 407.767114 150.247393 
L 407.952304 150.478776 
L 408.136849 152.22898 
L 408.320755 150.239815 
L 408.504026 152.032082 
L 408.686666 151.575447 
L 408.868679 151.932591 
L 409.05007 151.704768 
L 409.230843 152.897328 
L 409.411002 153.078018 
L 409.769495 154.459822 
L 409.947838 152.548068 
L 410.125583 152.806502 
L 410.302734 153.411799 
L 410.479296 153.527687 
L 410.830667 154.981177 
L 411.005483 154.839364 
L 411.179726 154.062262 
L 411.353398 154.66988 
L 411.526504 153.904126 
L 411.699046 154.997227 
L 411.87103 153.552294 
L 412.042457 156.133807 
L 412.213333 155.76161 
L 412.38366 153.806896 
L 412.553442 157.447114 
L 412.722682 152.966027 
L 412.891384 155.029543 
L 413.059552 154.568723 
L 413.227188 156.516314 
L 413.394296 155.134303 
L 413.56088 155.240619 
L 413.726942 156.54535 
L 413.892486 156.77986 
L 414.057515 156.661992 
L 414.222032 156.346992 
L 414.549545 157.424879 
L 414.875048 156.700042 
L 415.037053 158.316907 
L 415.198566 156.989277 
L 415.359588 157.904931 
L 415.520123 156.623512 
L 415.680174 158.764395 
L 415.839743 158.242744 
L 416.15745 159.206885 
L 416.315592 158.333468 
L 416.473265 158.804936 
L 416.63047 156.533209 
L 416.787212 159.164321 
L 416.943491 158.82739 
L 417.099311 159.048595 
L 417.409586 160.047993 
L 417.564045 157.896994 
L 417.718057 159.863887 
L 417.871622 159.138171 
L 418.024744 160.553447 
L 418.177426 160.133078 
L 418.481477 158.601552 
L 418.632852 159.604486 
L 418.783796 162.638784 
L 418.934312 161.585009 
L 419.084402 161.808571 
L 419.234069 161.718709 
L 419.383314 159.500297 
L 419.532141 160.414966 
L 419.680552 162.812848 
L 419.828549 160.519465 
L 419.976134 160.853099 
L 420.562403 163.299975 
L 420.707964 161.037822 
L 420.853126 163.331724 
L 421.142265 162.869178 
L 421.286245 161.048223 
L 421.429836 162.019201 
L 421.573039 161.854408 
L 421.858292 162.896033 
L 422.000345 161.127294 
L 422.142019 163.393909 
L 422.283315 162.417416 
L 422.424236 164.158377 
L 422.704961 163.734755 
L 422.844768 162.968269 
L 422.984208 164.472891 
L 423.123282 164.235613 
L 423.261993 165.900433 
L 423.538331 163.593006 
L 423.675962 164.776752 
L 423.813237 164.32657 
L 423.950158 164.993878 
L 424.086727 166.513924 
L 424.222945 163.998297 
L 424.494335 164.109104 
L 424.629512 164.990635 
L 424.764345 165.053147 
L 424.898837 165.342481 
L 425.166801 166.873844 
L 425.300277 164.532176 
L 425.433419 166.806281 
L 425.566227 166.306151 
L 425.698703 166.31284 
L 425.83085 166.97972 
L 425.962668 165.037086 
L 426.225326 168.571007 
L 426.356169 164.777408 
L 426.48669 168.440305 
L 426.616891 167.021027 
L 426.746773 167.353986 
L 426.876338 168.762523 
L 427.005587 166.532245 
L 427.263145 169.228188 
L 427.391457 168.483798 
L 427.519459 168.968472 
L 427.77454 167.939009 
L 427.901622 170.446557 
L 428.028401 168.870293 
L 428.154877 169.616868 
L 428.281053 168.536494 
L 428.406929 168.886714 
L 428.532507 169.696082 
L 428.657789 169.752807 
L 428.782776 170.264878 
L 428.907469 169.352612 
L 429.031869 169.531226 
L 429.155979 171.353749 
L 429.279799 168.197779 
L 429.40333 171.188615 
L 429.526575 170.995241 
L 429.649534 168.090741 
L 429.8946 171.544733 
L 430.016711 171.183112 
L 430.13854 169.290263 
L 430.260091 172.842785 
L 430.381364 171.467237 
L 430.50236 168.579305 
L 430.623081 169.74584 
L 430.743527 172.527871 
L 430.863701 170.855018 
L 430.983604 172.173487 
L 431.222599 171.387312 
L 431.341694 173.477256 
L 431.460522 171.260587 
L 431.697383 172.343993 
L 431.815419 171.703036 
L 431.933192 172.666321 
L 432.050704 172.320704 
L 432.167957 173.011017 
L 432.284951 172.068277 
L 432.401688 172.173505 
L 432.518168 174.03641 
L 432.634393 172.459973 
L 432.750365 173.805609 
L 432.981549 173.73559 
L 433.211731 174.398151 
L 433.326449 175.563169 
L 433.440918 173.336387 
L 433.555142 173.835659 
L 433.66912 173.643975 
L 433.782854 175.13003 
L 433.896345 174.3979 
L 434.009593 174.494511 
L 434.1226 175.166745 
L 434.347895 173.192199 
L 434.572237 176.281372 
L 434.795634 174.171938 
L 434.906981 175.15731 
L 435.018095 175.065887 
L 435.128976 174.707558 
L 435.239627 176.326434 
L 435.350047 175.925963 
L 435.460237 176.525519 
L 435.5702 176.182903 
L 435.679935 176.77347 
L 435.789443 176.232007 
L 436.007784 176.454944 
L 436.116619 177.103185 
L 436.22523 176.9381 
L 436.33362 175.87606 
L 436.441789 176.361407 
L 436.549738 177.419644 
L 436.657467 176.34837 
L 436.764979 176.75058 
L 436.872273 175.685251 
L 437.086212 177.960285 
L 437.192859 177.788815 
L 437.405511 176.47478 
L 437.405511 176.47478 
" clip-path="url(#pf28226d172)" style="fill: none; stroke: #1f77b4; stroke-width: 3; stroke-linecap: square"/>
   </g>
   <g id="line2d_49">
    <path d="M 107.678239 22.184401 
L 144.454416 57.538591 
L 165.967101 70.082028 
L 181.230593 77.278893 
L 193.069878 81.329793 
L 202.743278 84.998597 
L 210.922021 85.873772 
L 218.006771 87.688438 
L 224.255963 88.294219 
L 229.846055 90.928998 
L 234.902909 91.90959 
L 239.519455 94.086996 
L 243.766266 92.670873 
L 247.698198 95.864476 
L 251.35874 96.652923 
L 254.782948 97.267127 
L 257.999497 98.355156 
L 261.03214 97.191493 
L 263.900774 97.911485 
L 266.622233 98.139727 
L 269.210883 102.067179 
L 271.679087 101.740757 
L 274.037555 103.9551 
L 278.461517 103.886061 
L 280.542443 102.404871 
L 282.544825 104.65052 
L 284.474376 105.019245 
L 286.336209 107.179821 
L 288.134917 106.633745 
L 289.874641 107.478376 
L 291.559125 109.24957 
L 293.191771 108.459359 
L 294.775674 109.021754 
L 296.31366 109.879309 
L 297.808317 108.468382 
L 299.262019 110.167474 
L 300.676951 111.602725 
L 302.055128 110.732019 
L 303.39841 112.675253 
L 304.708521 112.283449 
L 305.98706 113.196743 
L 307.235513 115.25309 
L 308.455264 115.307421 
L 309.647602 114.706158 
L 310.813733 117.40537 
L 311.954783 116.488038 
L 313.07181 118.018281 
L 314.165804 119.091102 
L 315.237695 117.91124 
L 316.288359 120.90596 
L 317.318621 119.173815 
L 318.329257 120.378277 
L 319.321002 118.72894 
L 320.294549 121.694769 
L 321.250553 121.203539 
L 322.189636 123.89026 
L 323.112386 124.763193 
L 324.019363 126.328752 
L 324.911095 124.132708 
L 325.788087 125.103226 
L 326.650818 124.951285 
L 327.499745 128.254607 
L 328.335303 129.615246 
L 329.157905 127.343558 
L 329.967949 130.387564 
L 330.76581 128.025735 
L 331.551852 127.693143 
L 332.326417 128.729998 
L 333.089838 130.827079 
L 333.842429 133.404051 
L 334.584495 133.597452 
L 335.316324 134.371737 
L 336.038197 132.418447 
L 336.750379 133.043055 
L 338.146692 134.76524 
L 338.831305 136.304005 
L 339.507197 137.023767 
L 340.174587 136.10993 
L 340.833687 137.808715 
L 341.484699 139.06479 
L 342.127819 138.908523 
L 342.763238 140.814176 
L 343.391136 141.065008 
L 344.011691 143.033017 
L 344.625071 141.953153 
L 345.231441 141.666854 
L 345.83096 142.18811 
L 347.010048 144.676398 
L 347.58991 144.675974 
L 348.163503 144.032496 
L 349.292414 147.272102 
L 349.847987 147.617958 
L 350.397804 147.383343 
L 350.941981 149.831417 
L 351.480633 148.554707 
L 352.013872 148.558513 
L 352.541805 150.545587 
L 353.064536 151.030903 
L 353.582168 151.717041 
L 354.094798 151.382752 
L 354.602522 151.854387 
L 355.105434 153.219602 
L 355.603624 151.815901 
L 356.097179 154.166351 
L 356.586186 154.006064 
L 357.550881 156.182451 
L 358.49835 159.292128 
L 358.965813 158.641287 
L 359.429195 161.134805 
L 360.34399 157.343005 
L 360.79554 160.325994 
L 361.243279 160.108483 
L 362.12758 157.849359 
L 362.564264 164.038408 
L 362.997383 161.005422 
L 363.426995 161.131053 
L 363.853157 164.654082 
L 364.275922 161.909426 
L 364.695346 163.799332 
L 365.11148 163.88616 
L 365.524375 164.126837 
L 365.934083 166.526726 
L 366.34065 165.271003 
L 366.744126 165.405762 
L 367.144557 168.373353 
L 367.936464 168.886297 
L 368.328029 167.228616 
L 368.716725 169.51311 
L 369.102595 169.3439 
L 369.485678 171.640688 
L 369.866015 171.68925 
L 370.243645 170.25131 
L 370.618607 172.482417 
L 370.990937 172.534555 
L 371.360672 176.97562 
L 371.727849 171.84664 
L 372.092502 174.446471 
L 372.454665 173.003432 
L 372.814374 172.463433 
L 373.17166 174.059573 
L 373.526557 174.985977 
L 373.879095 174.294876 
L 374.229306 176.822754 
L 374.577221 173.842368 
L 375.26628 178.270698 
L 375.607483 177.837393 
L 375.946505 177.923713 
L 376.283375 181.610599 
L 376.618119 180.668918 
L 376.950765 180.206293 
L 377.281338 181.031847 
L 377.609864 179.952156 
L 377.936368 177.815929 
L 378.583411 181.626857 
L 378.903997 183.007295 
L 379.222657 180.443975 
L 379.539415 180.167359 
L 379.854293 182.114281 
L 380.167314 182.147512 
L 380.478498 184.903619 
L 380.787868 183.232723 
L 381.095445 182.402798 
L 381.401248 184.26878 
L 381.7053 181.394269 
L 382.607137 187.942221 
L 382.904375 186.617473 
L 383.199957 183.827423 
L 383.493901 187.180289 
L 384.076949 187.518951 
L 384.366087 188.661738 
L 384.93968 187.619008 
L 385.224168 187.945719 
L 385.507138 189.949495 
L 385.788607 187.773676 
L 386.068591 189.574202 
L 386.347105 189.462124 
L 386.624165 192.877187 
L 386.899785 187.494126 
L 387.173981 195.080856 
L 387.446767 191.957602 
L 387.988168 196.805443 
L 388.256811 194.342745 
L 388.5241 197.959517 
L 388.790049 193.2185 
L 389.054672 197.98621 
L 389.317982 196.750922 
L 389.579992 196.770939 
L 389.840714 196.023794 
L 390.100161 196.385303 
L 390.358345 197.47939 
L 390.615279 196.60434 
L 390.870975 198.538609 
L 391.125445 199.582384 
L 391.3787 199.588972 
L 391.630752 200.389155 
L 391.881612 199.159019 
L 392.131291 199.315683 
L 392.379801 198.234363 
L 392.627153 202.587747 
L 392.873357 202.404933 
L 393.118423 198.760413 
L 393.362363 203.776475 
L 393.605186 197.837491 
L 393.846903 203.758724 
L 394.087524 200.785334 
L 394.327059 208.417166 
L 394.565517 198.018616 
L 394.802908 203.222053 
L 395.039241 203.788927 
L 395.508774 208.800592 
L 395.741991 206.260091 
L 395.974187 202.273741 
L 396.205372 209.364618 
L 396.435554 207.571396 
L 396.664741 209.472829 
L 397.120167 207.543649 
L 397.346423 209.000792 
L 397.571717 208.475814 
L 397.796059 205.856571 
L 398.241917 209.252587 
L 398.463449 204.12461 
L 398.68406 212.518929 
L 398.903757 210.839714 
L 399.122549 210.911401 
L 399.340441 215.054428 
L 399.557443 209.572531 
L 399.773561 212.943389 
L 399.988801 209.946903 
L 400.203173 211.403038 
L 400.416681 211.377073 
L 400.629334 211.659008 
L 400.841138 212.818183 
L 401.0521 215.141787 
L 401.262226 213.28601 
L 401.471523 217.796455 
L 401.679998 218.594981 
L 402.094507 216.71607 
L 402.300553 214.930846 
L 402.505802 215.880794 
L 402.71026 216.068231 
L 402.913933 219.987567 
L 403.116827 219.135343 
L 403.318949 219.811517 
L 403.720896 219.606895 
L 403.920734 225.857722 
L 404.119822 221.578653 
L 404.51577 219.853791 
L 404.712641 220.431978 
L 404.908785 221.61966 
L 405.104206 213.566405 
L 405.29891 223.414795 
L 405.492903 222.785753 
L 405.686188 220.401629 
L 405.878772 219.682899 
L 406.070659 227.578232 
L 406.261855 220.31502 
L 406.452365 222.826153 
L 406.642192 223.672882 
L 406.831343 226.766115 
L 407.019823 225.037193 
L 407.207634 224.742628 
L 407.394784 228.022353 
L 407.581275 226.642217 
L 407.767114 221.006966 
L 407.952304 229.859802 
L 408.136849 225.892765 
L 408.320755 224.490492 
L 408.504026 224.239907 
L 408.686666 232.213294 
L 408.868679 226.63445 
L 409.05007 231.759936 
L 409.411002 225.312393 
L 409.590551 224.393202 
L 409.769495 231.602485 
L 410.125583 226.915442 
L 410.479296 232.701631 
L 410.655272 233.712136 
L 410.830667 231.62591 
L 411.005483 227.148649 
L 411.179726 235.682784 
L 411.353398 228.850663 
L 411.526504 230.831232 
L 411.699046 235.473972 
L 411.87103 230.418934 
L 412.042457 237.136202 
L 412.38366 231.108243 
L 412.722682 234.427458 
L 412.891384 234.254548 
L 413.227188 234.99462 
L 413.394296 239.259407 
L 413.726942 234.880938 
L 413.892486 235.872829 
L 414.057515 238.063276 
L 414.222032 236.755443 
L 414.386041 233.468798 
L 414.549545 234.768346 
L 414.712546 239.014807 
L 414.875048 237.234013 
L 415.037053 233.163619 
L 415.198566 240.928448 
L 415.359588 239.130074 
L 415.520123 235.778414 
L 415.680174 237.578956 
L 415.839743 241.99508 
L 415.998834 239.438142 
L 416.15745 243.521581 
L 416.315592 240.609111 
L 416.473265 244.268908 
L 416.63047 238.521796 
L 416.787212 239.152858 
L 416.943491 245.797957 
L 417.254675 239.546632 
L 417.409586 240.59569 
L 417.718057 245.862412 
L 418.024744 239.74834 
L 418.329669 245.621237 
L 418.481477 244.782898 
L 418.632852 245.050146 
L 418.783796 240.018271 
L 419.084402 244.503973 
L 419.234069 238.961134 
L 419.383314 245.852785 
L 419.532141 247.316946 
L 419.828549 242.356906 
L 419.976134 247.731705 
L 420.12331 243.653801 
L 420.270078 245.893735 
L 420.416442 249.868409 
L 420.562403 244.625846 
L 420.707964 247.178903 
L 420.853126 245.478326 
L 421.142265 247.7485 
L 421.286245 246.933773 
L 421.573039 249.717948 
L 421.715857 244.930603 
L 421.858292 248.72511 
L 422.000345 248.613075 
L 422.142019 250.368929 
L 422.283315 250.388994 
L 422.424236 251.244409 
L 422.564784 248.681136 
L 422.704961 250.675486 
L 422.984208 248.249096 
L 423.123282 251.309792 
L 423.261993 247.590224 
L 423.400342 251.720884 
L 423.538331 249.614738 
L 423.675962 249.760283 
L 423.813237 251.261842 
L 423.950158 251.028078 
L 424.086727 249.530188 
L 424.358814 254.330491 
L 424.494335 253.669307 
L 424.629512 250.965233 
L 424.764345 250.775583 
L 424.898837 253.27792 
L 425.032988 252.722361 
L 425.166801 249.153037 
L 425.300277 251.972754 
L 425.566227 250.900313 
L 425.698703 254.28164 
L 425.962668 251.195543 
L 426.094159 255.466431 
L 426.356169 252.181074 
L 426.48669 255.104264 
L 426.616891 254.428272 
L 426.746773 252.9098 
L 426.876338 255.865697 
L 427.005587 250.082113 
L 427.134522 250.908989 
L 427.519459 255.847219 
L 427.901622 254.740422 
L 428.028401 251.830486 
L 428.154877 255.647059 
L 428.281053 252.713911 
L 428.532507 256.151313 
L 428.782776 252.473945 
L 429.031869 257.158524 
L 429.155979 256.010249 
L 429.279799 255.976545 
L 429.40333 254.62532 
L 429.526575 256.278345 
L 429.649534 254.715634 
L 429.772209 256.782131 
L 430.016711 254.547582 
L 430.13854 257.862499 
L 430.381364 251.667113 
L 430.50236 258.606876 
L 430.623081 254.741183 
L 430.743527 257.739134 
L 430.863701 253.037586 
L 430.983604 257.431995 
L 431.341694 254.055944 
L 431.579085 258.957163 
L 431.697383 257.81599 
L 431.815419 255.435881 
L 431.933192 255.909545 
L 432.050704 258.04014 
L 432.167957 253.584309 
L 432.284951 258.189264 
L 432.401688 257.881815 
L 432.518168 259.176634 
L 432.634393 258.738892 
L 432.750365 253.763379 
L 432.981549 257.618589 
L 433.096765 257.864385 
L 433.211731 259.215662 
L 433.326449 258.076859 
L 433.555142 260.110669 
L 433.66912 258.146238 
L 433.782854 258.213377 
L 433.896345 255.14834 
L 434.1226 260.111194 
L 434.235367 259.101789 
L 434.347895 256.687044 
L 434.572237 260.046261 
L 434.684053 257.037871 
L 434.906981 260.84698 
L 435.018095 257.648766 
L 435.128976 258.419969 
L 435.239627 261.483977 
L 435.460237 260.383417 
L 435.5702 256.14777 
L 435.789443 261.162995 
L 436.007784 259.563538 
L 436.116619 259.271653 
L 436.22523 258.645517 
L 436.33362 260.825049 
L 436.441789 257.631065 
L 436.549738 261.468111 
L 436.764979 260.376932 
L 436.872273 260.549179 
L 437.086212 258.148507 
L 437.192859 260.499633 
L 437.299291 257.737145 
L 437.405511 261.643642 
L 437.405511 261.643642 
" clip-path="url(#pf28226d172)" style="fill: none; stroke: #ff7f0e; stroke-width: 3; stroke-linecap: square"/>
   </g>
   <g id="line2d_50">
    <path d="M 107.678239 23.223677 
L 144.454416 58.7836 
L 165.967101 75.588813 
L 181.230593 83.524419 
L 193.069878 86.951976 
L 202.743278 92.759697 
L 210.922021 93.795996 
L 218.006771 95.515693 
L 224.255963 98.593521 
L 229.846055 99.184139 
L 234.902909 103.292068 
L 239.519455 106.077793 
L 243.766266 107.896981 
L 247.698198 107.661789 
L 251.35874 110.756609 
L 254.782948 114.001382 
L 257.999497 113.680368 
L 261.03214 114.476528 
L 263.900774 118.657167 
L 266.622233 117.803387 
L 269.210883 121.922922 
L 271.679087 123.464925 
L 274.037555 122.662028 
L 276.295633 126.720753 
L 278.461517 128.085923 
L 280.542443 124.965258 
L 282.544825 128.509 
L 284.474376 132.2316 
L 288.134917 134.807098 
L 289.874641 135.520711 
L 291.559125 136.451537 
L 293.191771 138.077955 
L 294.775674 140.297785 
L 296.31366 139.808334 
L 297.808317 142.628265 
L 299.262019 143.682955 
L 300.676951 143.499945 
L 302.055128 146.240352 
L 303.39841 147.344637 
L 305.98706 151.496605 
L 307.235513 150.853166 
L 308.455264 154.656065 
L 309.647602 151.293947 
L 310.813733 151.436643 
L 313.07181 156.838904 
L 314.165804 159.198705 
L 315.237695 156.887395 
L 316.288359 158.63466 
L 317.318621 159.014142 
L 318.329257 161.408508 
L 319.321002 159.504399 
L 320.294549 166.371439 
L 321.250553 165.380386 
L 322.189636 159.728682 
L 323.112386 168.412503 
L 324.019363 165.127424 
L 324.911095 169.325955 
L 325.788087 166.618365 
L 326.650818 168.706478 
L 327.499745 173.025292 
L 328.335303 173.538518 
L 329.157905 174.444517 
L 329.967949 174.294361 
L 330.76581 174.01601 
L 331.551852 178.019468 
L 332.326417 178.340936 
L 333.842429 179.348105 
L 334.584495 179.635296 
L 335.316324 182.860282 
L 336.038197 181.776019 
L 336.750379 183.63451 
L 337.453129 183.166734 
L 338.146692 185.545822 
L 338.831305 186.23362 
L 339.507197 184.085615 
L 340.174587 190.531941 
L 340.833687 187.12789 
L 342.127819 189.947703 
L 342.763238 188.595699 
L 343.391136 189.828643 
L 344.011691 193.322035 
L 345.231441 193.543434 
L 345.83096 192.220952 
L 346.423779 195.470709 
L 347.010048 195.585624 
L 347.58991 197.366615 
L 348.163503 196.705184 
L 348.730961 198.439448 
L 349.292414 199.121296 
L 349.847987 200.061855 
L 350.397804 199.610328 
L 350.941981 202.958072 
L 351.480633 203.548469 
L 352.013872 203.7613 
L 352.541805 199.310894 
L 353.064536 205.750979 
L 353.582168 205.911479 
L 354.094798 201.145577 
L 354.602522 202.532038 
L 355.105434 208.060382 
L 355.603624 205.873253 
L 356.097179 205.229458 
L 356.586186 207.752731 
L 357.070726 201.321033 
L 357.550881 206.19748 
L 358.02673 207.36584 
L 358.49835 206.032584 
L 358.965813 210.013231 
L 359.429195 204.949629 
L 359.888564 211.410503 
L 360.34399 206.554455 
L 360.79554 207.362057 
L 361.243279 211.290874 
L 361.687272 208.083831 
L 362.12758 208.559992 
L 362.564264 210.461914 
L 362.997383 211.750589 
L 363.426995 214.050757 
L 363.853157 210.457595 
L 364.275922 213.242623 
L 364.695346 214.300043 
L 365.11148 214.961796 
L 365.524375 217.378696 
L 365.934083 211.40478 
L 366.34065 217.424549 
L 366.744126 216.481156 
L 367.144557 216.490482 
L 367.541988 222.444689 
L 367.936464 217.8123 
L 368.328029 214.709343 
L 369.102595 219.113308 
L 369.485678 217.212117 
L 369.866015 218.638435 
L 370.243645 217.114496 
L 370.618607 221.167486 
L 370.990937 222.786127 
L 371.360672 218.622577 
L 371.727849 219.938785 
L 372.092502 225.821179 
L 372.454665 222.362752 
L 372.814374 226.531666 
L 373.17166 226.270728 
L 373.526557 225.610081 
L 373.879095 227.975328 
L 374.229306 223.125255 
L 374.577221 227.922615 
L 374.922869 224.179931 
L 375.26628 225.073181 
L 375.607483 223.794149 
L 375.946505 225.380193 
L 376.283375 225.620596 
L 376.618119 228.486482 
L 376.950765 229.189269 
L 377.281338 229.578303 
L 377.609864 228.514638 
L 377.936368 228.523148 
L 378.260876 230.427203 
L 378.583411 233.530714 
L 379.222657 228.07865 
L 379.539415 234.957003 
L 379.854293 228.692149 
L 380.167314 230.807206 
L 380.478498 235.677809 
L 380.787868 230.136128 
L 381.095445 232.227818 
L 381.401248 231.387176 
L 381.7053 235.851893 
L 382.007619 232.339105 
L 382.308225 235.851355 
L 382.904375 236.362171 
L 383.199957 237.893474 
L 383.493901 234.634527 
L 383.786226 238.779424 
L 384.366087 238.623526 
L 384.653659 236.146355 
L 384.93968 236.937939 
L 385.224168 236.160765 
L 385.788607 240.477455 
L 386.347105 236.608807 
L 386.624165 239.455566 
L 387.173981 239.836075 
L 387.446767 242.246464 
L 387.718158 241.761292 
L 387.988168 237.561052 
L 388.5241 242.586164 
L 388.790049 238.942317 
L 389.054672 239.96163 
L 389.579992 243.765955 
L 389.840714 243.219772 
L 390.100161 241.455126 
L 390.358345 244.436725 
L 390.615279 243.603176 
L 390.870975 243.850017 
L 391.125445 245.320074 
L 391.3787 243.12787 
L 391.630752 244.921395 
L 391.881612 243.063068 
L 392.131291 245.687259 
L 392.379801 244.757748 
L 392.627153 244.49811 
L 392.873357 244.84533 
L 393.118423 243.146583 
L 393.362363 245.221389 
L 393.605186 245.651 
L 394.087524 247.895888 
L 394.327059 247.085903 
L 394.565517 248.126447 
L 394.802908 246.358054 
L 395.039241 246.317909 
L 395.274527 248.13786 
L 395.508774 247.070711 
L 395.741991 245.302228 
L 395.974187 248.010877 
L 396.205372 247.851009 
L 396.435554 245.994052 
L 396.664741 247.89563 
L 397.120167 249.117101 
L 397.346423 245.789752 
L 397.571717 248.006871 
L 397.796059 245.940169 
L 398.463449 249.887743 
L 398.68406 247.715598 
L 398.903757 248.625363 
L 399.122549 246.844841 
L 399.340441 249.402111 
L 399.557443 249.390247 
L 399.773561 249.666883 
L 400.203173 251.180323 
L 400.416681 249.95598 
L 400.629334 249.544457 
L 400.841138 251.978162 
L 401.0521 250.821513 
L 401.262226 251.998121 
L 401.679998 248.325093 
L 402.094507 250.968315 
L 402.300553 250.383874 
L 402.505802 248.902727 
L 402.71026 251.040845 
L 402.913933 250.85356 
L 403.116827 251.170279 
L 403.318949 252.308956 
L 403.520303 251.822265 
L 403.720896 250.705053 
L 403.920734 246.787255 
L 404.119822 248.732077 
L 404.318165 253.070841 
L 404.51577 253.126044 
L 404.712641 253.650738 
L 405.104206 250.460744 
L 405.29891 251.910031 
L 405.492903 249.98935 
L 405.878772 252.530602 
L 406.070659 251.360004 
L 406.261855 252.724063 
L 406.452365 252.817084 
L 406.831343 250.862102 
L 407.019823 251.044873 
L 407.207634 254.083815 
L 407.394784 254.087312 
L 407.581275 252.136406 
L 407.767114 252.865811 
L 407.952304 251.346758 
L 408.136849 252.82914 
L 408.320755 252.702015 
L 408.504026 252.22773 
L 408.686666 253.459758 
L 408.868679 252.722 
L 409.05007 256.043323 
L 409.230843 253.549684 
L 409.411002 254.625691 
L 409.590551 254.13598 
L 409.769495 252.882586 
L 410.125583 254.379432 
L 410.302734 254.432374 
L 410.479296 252.862507 
L 410.655272 254.58983 
L 410.830667 253.210397 
L 411.179726 255.715932 
L 411.526504 254.990424 
L 411.699046 252.958673 
L 411.87103 253.575737 
L 412.042457 256.054667 
L 412.213333 254.6002 
L 412.38366 256.100742 
L 412.553442 255.376444 
L 412.722682 256.551812 
L 412.891384 256.462741 
L 413.059552 256.246286 
L 413.227188 251.493975 
L 413.394296 256.131934 
L 413.56088 253.907712 
L 413.726942 256.216617 
L 414.057515 255.818195 
L 414.386041 257.795191 
L 414.549545 255.599634 
L 414.875048 258.632184 
L 415.037053 256.667377 
L 415.198566 256.849069 
L 415.359588 258.515422 
L 415.520123 257.839414 
L 415.680174 255.030706 
L 415.839743 257.958587 
L 415.998834 254.849098 
L 416.15745 257.08259 
L 416.315592 256.948676 
L 416.473265 257.885133 
L 416.63047 258.08766 
L 416.787212 255.412053 
L 416.943491 257.270518 
L 417.099311 257.71839 
L 417.254675 258.992448 
L 417.409586 255.072444 
L 417.564045 259.302392 
L 417.871622 257.073648 
L 418.024744 258.108324 
L 418.177426 258.187524 
L 418.481477 256.666664 
L 418.632852 259.234399 
L 418.783796 258.03946 
L 418.934312 259.190111 
L 419.084402 258.201431 
L 419.234069 257.973331 
L 419.383314 256.93053 
L 419.828549 259.88221 
L 419.976134 257.520471 
L 420.12331 257.424626 
L 420.270078 258.825791 
L 420.416442 258.075406 
L 420.562403 258.119606 
L 420.707964 259.0128 
L 420.853126 255.272858 
L 421.142265 260.210795 
L 421.286245 256.603116 
L 421.429836 260.464098 
L 421.715857 257.678491 
L 421.858292 259.598532 
L 422.000345 258.257848 
L 422.142019 258.334422 
L 422.283315 257.820639 
L 422.424236 259.649062 
L 422.704961 258.649252 
L 423.123282 261.694747 
L 423.261993 257.734478 
L 423.400342 259.018025 
L 423.813237 258.203841 
L 423.950158 261.101875 
L 424.086727 259.995895 
L 424.222945 260.99909 
L 424.358814 261.015943 
L 424.629512 259.886102 
L 424.764345 259.500143 
L 424.898837 261.254292 
L 425.032988 261.495745 
L 425.166801 261.187338 
L 425.300277 257.858255 
L 425.433419 258.321382 
L 425.566227 258.326569 
L 425.962668 261.685295 
L 426.094159 261.224553 
L 426.225326 262.491062 
L 426.356169 257.705233 
L 426.48669 260.666842 
L 426.616891 260.602536 
L 426.746773 262.402851 
L 426.876338 261.729227 
L 427.005587 262.453527 
L 427.263145 259.418568 
L 427.519459 260.993255 
L 427.647153 259.862443 
L 427.77454 261.678286 
L 427.901622 261.054715 
L 428.028401 262.124883 
L 428.154877 261.213282 
L 428.281053 262.185719 
L 428.406929 262.136322 
L 428.532507 261.930268 
L 428.657789 260.426706 
L 428.782776 261.872198 
L 429.031869 260.806713 
L 429.155979 260.650981 
L 429.279799 259.844555 
L 429.526575 262.957457 
L 429.8946 259.002219 
L 430.13854 263.364878 
L 430.260091 262.649327 
L 430.381364 262.64799 
L 430.50236 261.343447 
L 430.743527 263.402132 
L 430.863701 261.908625 
L 430.983604 258.705595 
L 431.103236 263.656516 
L 431.341694 261.625574 
L 431.460522 263.258722 
L 431.697383 261.614384 
L 431.815419 261.625337 
L 431.933192 262.058145 
L 432.050704 261.098027 
L 432.284951 263.520745 
L 432.401688 261.8815 
L 432.518168 262.1204 
L 432.634393 262.094131 
L 432.750365 263.20618 
L 432.866083 262.316311 
L 432.981549 263.490227 
L 433.096765 262.30871 
L 433.211731 262.582332 
L 433.326449 263.541171 
L 433.555142 261.135606 
L 433.66912 262.960399 
L 433.782854 262.610678 
L 433.896345 262.902884 
L 434.009593 262.114698 
L 434.1226 263.478906 
L 434.235367 261.815738 
L 434.347895 262.022147 
L 434.460184 261.798776 
L 434.572237 263.230894 
L 434.684053 262.056188 
L 434.795634 263.232425 
L 434.906981 262.452609 
L 435.018095 263.581164 
L 435.239627 261.713428 
L 435.350047 264.17474 
L 435.5702 261.764757 
L 435.679935 263.815048 
L 435.898726 261.951575 
L 436.007784 262.718859 
L 436.116619 264.403959 
L 436.22523 260.760734 
L 436.441789 263.325112 
L 436.549738 263.45969 
L 436.657467 263.87165 
L 436.764979 262.480137 
L 436.97935 263.912385 
L 437.086212 262.963216 
L 437.192859 265.157922 
L 437.405511 263.317265 
L 437.405511 263.317265 
" clip-path="url(#pf28226d172)" style="fill: none; stroke: #2ca02c; stroke-width: 3; stroke-linecap: square"/>
   </g>
   <g id="line2d_51">
    <path d="M 107.678239 19.554545 
L 144.454416 53.606824 
L 165.967101 66.307471 
L 181.230593 71.065038 
L 193.069878 73.658595 
L 202.743278 78.042749 
L 210.922021 79.377327 
L 218.006771 80.051826 
L 224.255963 81.362857 
L 229.846055 83.753597 
L 234.902909 85.387502 
L 239.519455 85.367569 
L 243.766266 86.476029 
L 247.698198 86.646083 
L 251.35874 87.588145 
L 254.782948 90.176136 
L 257.999497 90.326383 
L 263.900774 94.505648 
L 266.622233 96.206605 
L 269.210883 95.41085 
L 271.679087 97.313315 
L 274.037555 96.045932 
L 276.295633 98.476413 
L 278.461517 99.828601 
L 280.542443 101.259898 
L 282.544825 100.591119 
L 284.474376 101.707 
L 286.336209 99.793588 
L 288.134917 105.128971 
L 289.874641 104.012023 
L 291.559125 105.366423 
L 293.191771 104.8862 
L 294.775674 104.86189 
L 296.31366 106.179098 
L 297.808317 108.071436 
L 299.262019 110.726251 
L 300.676951 112.622411 
L 303.39841 111.916808 
L 304.708521 112.845008 
L 305.98706 113.494782 
L 307.235513 115.04034 
L 308.455264 114.127461 
L 309.647602 111.934982 
L 310.813733 115.953963 
L 311.954783 117.611282 
L 313.07181 115.201434 
L 314.165804 118.204467 
L 315.237695 116.817132 
L 316.288359 118.816866 
L 317.318621 118.795895 
L 318.329257 119.719652 
L 319.321002 121.571443 
L 320.294549 122.472288 
L 321.250553 124.410815 
L 322.189636 124.246958 
L 323.112386 123.057514 
L 324.019363 125.557516 
L 324.911095 123.67968 
L 325.788087 123.491926 
L 326.650818 123.451018 
L 327.499745 128.6274 
L 328.335303 126.49134 
L 329.157905 128.145269 
L 329.967949 127.720594 
L 330.76581 128.797504 
L 331.551852 126.630699 
L 332.326417 128.536646 
L 333.089838 128.556179 
L 333.842429 130.069736 
L 334.584495 128.880277 
L 335.316324 130.154355 
L 336.038197 130.963704 
L 336.750379 132.716669 
L 337.453129 134.036781 
L 338.146692 132.961976 
L 338.831305 134.000185 
L 339.507197 133.49833 
L 340.174587 132.103727 
L 340.833687 136.616901 
L 341.484699 133.651414 
L 342.127819 135.445639 
L 342.763238 135.550132 
L 344.625071 138.964595 
L 345.231441 137.90884 
L 345.83096 138.121414 
L 346.423779 139.806234 
L 347.010048 140.455037 
L 347.58991 140.902278 
L 348.163503 139.442809 
L 348.730961 141.080341 
L 349.292414 142.209364 
L 349.847987 144.047703 
L 350.397804 142.759924 
L 350.941981 145.904054 
L 351.480633 145.550474 
L 352.013872 141.305776 
L 352.541805 146.390228 
L 353.064536 145.651223 
L 353.582168 145.890619 
L 354.094798 145.361839 
L 354.602522 149.305848 
L 355.105434 148.129836 
L 355.603624 150.819724 
L 356.097179 149.680623 
L 356.586186 150.6769 
L 357.070726 149.451635 
L 357.550881 150.406205 
L 358.02673 150.511284 
L 358.49835 149.08233 
L 358.965813 152.503234 
L 359.429195 153.214258 
L 359.888564 150.912899 
L 360.34399 152.908908 
L 360.79554 152.324598 
L 361.243279 154.042907 
L 361.687272 152.949543 
L 362.12758 155.255763 
L 362.564264 155.783883 
L 362.997383 155.351414 
L 363.426995 154.68865 
L 363.853157 153.088214 
L 364.275922 154.905603 
L 364.695346 154.608688 
L 365.11148 156.537751 
L 365.524375 157.384438 
L 365.934083 156.263011 
L 366.34065 155.997503 
L 366.744126 156.906097 
L 367.144557 158.383647 
L 367.541988 158.874449 
L 367.936464 157.083946 
L 368.328029 156.899134 
L 368.716725 156.128017 
L 369.102595 158.032856 
L 369.485678 158.635816 
L 369.866015 157.547208 
L 370.243645 154.417803 
L 370.618607 159.669774 
L 370.990937 158.314149 
L 371.360672 160.018258 
L 371.727849 158.644504 
L 372.092502 154.980211 
L 372.454665 159.315936 
L 372.814374 156.744708 
L 373.17166 161.319938 
L 373.526557 159.886901 
L 373.879095 159.195558 
L 374.229306 163.045902 
L 374.577221 164.102764 
L 374.922869 164.668909 
L 375.26628 162.502368 
L 375.607483 161.670728 
L 376.618119 164.451 
L 376.950765 162.347005 
L 377.281338 165.19433 
L 377.609864 166.848664 
L 377.936368 164.287069 
L 378.260876 166.71763 
L 378.583411 164.799177 
L 378.903997 167.06356 
L 379.222657 167.206708 
L 379.539415 162.75409 
L 379.854293 165.555734 
L 380.167314 165.552414 
L 380.478498 167.528038 
L 380.787868 168.773177 
L 381.095445 165.0061 
L 381.401248 164.302326 
L 382.007619 169.884621 
L 382.308225 168.727514 
L 382.607137 169.269292 
L 382.904375 169.518482 
L 383.199957 164.886097 
L 383.786226 172.369023 
L 384.076949 172.042132 
L 384.366087 172.508363 
L 384.653659 170.185192 
L 384.93968 171.453966 
L 385.224168 170.726927 
L 385.507138 174.457247 
L 385.788607 175.687161 
L 386.068591 170.418258 
L 386.347105 173.385369 
L 386.624165 172.710844 
L 386.899785 174.003475 
L 387.173981 176.809122 
L 387.718158 172.31688 
L 387.988168 171.892158 
L 388.256811 173.990053 
L 388.5241 177.191225 
L 388.790049 178.369538 
L 389.054672 176.046073 
L 389.317982 177.584757 
L 389.579992 174.60996 
L 390.100161 179.626703 
L 390.358345 177.728981 
L 390.615279 178.107002 
L 390.870975 180.049963 
L 391.125445 178.225481 
L 391.3787 178.571032 
L 391.881612 181.79701 
L 392.131291 178.457191 
L 392.379801 179.862364 
L 392.627153 177.842919 
L 392.873357 180.199098 
L 393.118423 181.134051 
L 393.362363 182.769786 
L 393.605186 185.366646 
L 393.846903 182.164855 
L 394.087524 182.608551 
L 394.327059 183.981671 
L 394.565517 182.782973 
L 394.802908 184.169337 
L 395.039241 178.96184 
L 395.274527 181.207427 
L 395.508774 187.435816 
L 395.741991 187.134696 
L 395.974187 187.384996 
L 396.205372 183.500004 
L 396.664741 188.021755 
L 396.892943 182.795361 
L 397.120167 185.652881 
L 397.346423 186.429983 
L 397.571717 188.85349 
L 397.796059 184.561486 
L 398.019457 188.277177 
L 398.241917 188.708763 
L 398.463449 188.559815 
L 398.68406 185.680089 
L 398.903757 189.241516 
L 399.122549 187.957171 
L 399.340441 191.550807 
L 399.557443 192.625653 
L 399.773561 190.888754 
L 400.203173 193.477791 
L 400.416681 188.318627 
L 400.629334 190.610291 
L 400.841138 190.747376 
L 401.0521 192.641731 
L 401.262226 190.041774 
L 401.679998 192.491901 
L 401.887657 192.146812 
L 402.094507 195.748637 
L 402.300553 190.884136 
L 402.505802 195.336617 
L 402.71026 190.272875 
L 402.913933 192.026986 
L 403.116827 192.546209 
L 403.318949 197.702847 
L 403.520303 196.491222 
L 403.720896 199.006572 
L 403.920734 198.878249 
L 404.119822 198.066186 
L 404.318165 198.94646 
L 404.51577 196.99851 
L 404.712641 197.025809 
L 404.908785 197.43911 
L 405.104206 198.644855 
L 405.29891 202.828367 
L 405.492903 199.138685 
L 405.686188 199.423388 
L 405.878772 200.666119 
L 406.070659 199.349708 
L 406.261855 204.222389 
L 406.452365 199.863344 
L 406.831343 205.440559 
L 407.207634 200.290837 
L 407.394784 202.831971 
L 407.581275 199.684432 
L 407.952304 201.932353 
L 408.136849 204.385511 
L 408.320755 201.503069 
L 408.504026 204.249974 
L 408.686666 202.664531 
L 408.868679 204.619305 
L 409.230843 203.530113 
L 409.590551 204.421957 
L 409.769495 209.212012 
L 409.947838 207.467098 
L 410.125583 213.683707 
L 410.302734 213.056683 
L 410.479296 208.574258 
L 410.655272 210.088827 
L 410.830667 206.037785 
L 411.005483 206.939566 
L 411.179726 212.178403 
L 411.353398 209.788473 
L 411.526504 205.546464 
L 411.699046 206.476436 
L 411.87103 213.170502 
L 412.042457 209.012749 
L 412.38366 211.580728 
L 412.553442 212.2706 
L 412.722682 209.692726 
L 412.891384 213.322427 
L 413.227188 214.873668 
L 413.394296 213.509995 
L 413.726942 216.533869 
L 413.892486 212.922585 
L 414.057515 217.17796 
L 414.222032 216.968754 
L 414.549545 213.649971 
L 414.712546 216.190718 
L 414.875048 215.821859 
L 415.037053 210.537986 
L 415.359588 222.146341 
L 415.520123 221.865602 
L 415.680174 219.018159 
L 415.839743 222.182923 
L 416.15745 217.772569 
L 416.315592 221.60976 
L 416.473265 220.673316 
L 416.63047 222.209094 
L 416.787212 222.197049 
L 416.943491 214.451819 
L 417.099311 222.49881 
L 417.254675 219.766401 
L 417.409586 223.03687 
L 417.564045 223.541092 
L 417.718057 218.33147 
L 417.871622 224.359126 
L 418.024744 221.66841 
L 418.177426 221.832561 
L 418.329669 226.21604 
L 418.481477 223.300465 
L 418.632852 224.920349 
L 418.783796 224.547107 
L 418.934312 225.331926 
L 419.084402 225.248981 
L 419.234069 222.453232 
L 419.383314 225.784904 
L 419.532141 221.863992 
L 419.680552 224.020964 
L 419.828549 223.311558 
L 419.976134 224.498986 
L 420.12331 226.992546 
L 420.270078 226.752894 
L 420.416442 229.883177 
L 420.707964 222.797708 
L 420.853126 230.014525 
L 420.997892 231.497807 
L 421.142265 226.878659 
L 421.286245 227.111354 
L 421.429836 231.634157 
L 421.573039 229.129898 
L 421.715857 233.518996 
L 421.858292 230.724383 
L 422.000345 231.354399 
L 422.142019 229.126245 
L 422.283315 229.352302 
L 422.424236 233.599804 
L 422.564784 231.050338 
L 422.704961 238.068508 
L 422.844768 233.634779 
L 422.984208 234.322995 
L 423.123282 233.764442 
L 423.261993 228.14644 
L 423.400342 239.738264 
L 423.538331 232.361714 
L 423.675962 234.560063 
L 423.813237 234.36218 
L 424.086727 232.713137 
L 424.358814 236.490805 
L 424.494335 234.848233 
L 424.629512 235.770751 
L 424.764345 238.815933 
L 424.898837 229.919205 
L 425.032988 237.546264 
L 425.166801 238.091572 
L 425.300277 233.951917 
L 425.433419 239.376344 
L 425.698703 235.275647 
L 425.83085 236.478834 
L 425.962668 238.738781 
L 426.094159 235.24216 
L 426.356169 238.360364 
L 426.48669 243.327874 
L 426.616891 238.228572 
L 426.746773 240.3573 
L 427.134522 237.449929 
L 427.263145 244.369901 
L 427.519459 241.302215 
L 427.647153 243.409177 
L 427.77454 240.649973 
L 428.028401 244.593185 
L 428.281053 237.396042 
L 428.782776 242.393083 
L 428.907469 241.765546 
L 429.031869 247.469549 
L 429.155979 241.536229 
L 429.279799 242.807135 
L 429.40333 238.896233 
L 429.649534 246.072076 
L 429.772209 241.038183 
L 429.8946 245.99559 
L 430.13854 244.535575 
L 430.260091 241.440327 
L 430.50236 250.223629 
L 430.743527 244.426407 
L 430.863701 246.959238 
L 430.983604 246.485411 
L 431.103236 243.143805 
L 431.222599 250.113322 
L 431.341694 249.773132 
L 431.460522 250.506742 
L 431.579085 252.553019 
L 431.697383 247.283219 
L 431.933192 252.527774 
L 432.167957 247.320362 
L 432.284951 245.013255 
L 432.518168 253.5926 
L 432.750365 247.099155 
L 432.866083 246.845588 
L 433.096765 253.202847 
L 433.211731 251.627803 
L 433.555142 254.905118 
L 433.66912 250.589447 
L 433.782854 254.647645 
L 434.009593 250.140414 
L 434.347895 256.387808 
L 434.460184 247.159109 
L 434.684053 254.286501 
L 434.795634 250.133354 
L 434.906981 251.42704 
L 435.018095 254.170775 
L 435.128976 251.940799 
L 435.239627 254.555328 
L 435.460237 250.999719 
L 435.5702 254.055515 
L 435.679935 252.241236 
L 435.789443 255.208916 
L 436.116619 252.115595 
L 436.22523 255.588593 
L 436.33362 255.202357 
L 436.441789 255.439141 
L 436.549738 257.168043 
L 436.657467 251.320429 
L 436.872273 256.167991 
L 436.97935 256.967332 
L 437.086212 254.845154 
L 437.192859 255.054945 
L 437.299291 254.747872 
L 437.405511 255.334629 
L 437.405511 255.334629 
" clip-path="url(#pf28226d172)" style="fill: none; stroke: #d62728; stroke-width: 3; stroke-linecap: square"/>
   </g>
   <g id="line2d_52">
    <path d="M 107.678239 22.898499 
L 144.454416 61.05221 
L 165.967101 79.235104 
L 181.230593 87.830797 
L 193.069878 95.133229 
L 202.743278 100.089184 
L 210.922021 101.898388 
L 218.006771 105.726289 
L 224.255963 106.366615 
L 229.846055 111.295001 
L 234.902909 113.757011 
L 239.519455 114.844413 
L 243.766266 117.792518 
L 247.698198 118.467357 
L 251.35874 122.786379 
L 254.782948 121.584785 
L 257.999497 125.604782 
L 261.03214 125.579006 
L 263.900774 130.245827 
L 266.622233 131.093441 
L 269.210883 130.830874 
L 271.679087 134.41696 
L 274.037555 136.065773 
L 276.295633 134.97791 
L 280.542443 142.442064 
L 282.544825 141.727527 
L 286.336209 144.559176 
L 288.134917 146.428894 
L 289.874641 142.839448 
L 291.559125 148.360483 
L 293.191771 147.683429 
L 294.775674 148.303357 
L 296.31366 150.593856 
L 297.808317 153.324406 
L 299.262019 155.13641 
L 300.676951 154.968612 
L 302.055128 158.710454 
L 303.39841 161.013496 
L 304.708521 161.559693 
L 305.98706 154.810665 
L 307.235513 157.821217 
L 308.455264 161.476166 
L 309.647602 165.551288 
L 310.813733 163.49736 
L 311.954783 169.544301 
L 313.07181 168.891916 
L 314.165804 166.122768 
L 315.237695 164.437484 
L 316.288359 173.629137 
L 317.318621 170.245926 
L 318.329257 170.281058 
L 319.321002 175.574287 
L 320.294549 174.011032 
L 321.250553 178.486535 
L 322.189636 178.127767 
L 323.112386 175.952684 
L 324.019363 176.24451 
L 324.911095 180.13643 
L 325.788087 178.550245 
L 326.650818 184.364676 
L 327.499745 179.929752 
L 328.335303 183.185099 
L 329.157905 182.120589 
L 329.967949 186.197876 
L 330.76581 187.334794 
L 331.551852 188.023506 
L 332.326417 190.016359 
L 333.089838 187.990645 
L 333.842429 190.617393 
L 334.584495 191.445771 
L 335.316324 191.414914 
L 336.038197 191.837364 
L 336.750379 189.832083 
L 338.146692 194.49213 
L 338.831305 194.884399 
L 339.507197 196.9877 
L 340.174587 198.003555 
L 340.833687 199.719253 
L 342.127819 203.920463 
L 342.763238 200.754042 
L 343.391136 201.177309 
L 344.011691 202.136505 
L 344.625071 202.162372 
L 345.83096 206.092527 
L 346.423779 203.925874 
L 347.010048 208.371842 
L 347.58991 204.83157 
L 348.730961 209.212915 
L 349.292414 207.228982 
L 349.847987 212.965007 
L 350.397804 209.197211 
L 350.941981 210.136278 
L 351.480633 214.11065 
L 352.013872 213.868132 
L 352.541805 212.714643 
L 353.064536 214.219326 
L 353.582168 216.713728 
L 354.094798 214.640577 
L 354.602522 219.581576 
L 355.603624 214.902326 
L 356.097179 216.160393 
L 356.586186 219.25648 
L 357.070726 218.101052 
L 357.550881 219.47369 
L 358.02673 218.01731 
L 358.49835 220.020225 
L 358.965813 219.228966 
L 359.429195 221.484776 
L 359.888564 220.450968 
L 360.34399 222.002754 
L 360.79554 221.941311 
L 361.243279 225.687258 
L 361.687272 226.545175 
L 362.12758 220.037979 
L 362.564264 225.464884 
L 362.997383 225.400756 
L 363.426995 225.606152 
L 363.853157 226.927668 
L 364.275922 227.123479 
L 364.695346 228.107335 
L 365.11148 227.179175 
L 365.524375 229.680468 
L 365.934083 227.204265 
L 366.34065 231.326262 
L 366.744126 227.582073 
L 367.144557 231.424279 
L 367.541988 230.413212 
L 367.936464 231.9553 
L 368.328029 230.613797 
L 368.716725 229.940705 
L 369.102595 231.935888 
L 369.485678 232.671516 
L 369.866015 232.150488 
L 370.243645 232.493949 
L 370.618607 234.171065 
L 370.990937 233.18971 
L 371.360672 232.848323 
L 371.727849 233.078984 
L 372.092502 235.903621 
L 372.814374 236.177481 
L 373.17166 235.527649 
L 373.526557 235.638178 
L 373.879095 236.190822 
L 374.229306 235.820997 
L 374.577221 236.544208 
L 374.922869 237.806216 
L 375.26628 235.713468 
L 375.607483 237.62036 
L 375.946505 238.144104 
L 376.283375 235.475516 
L 376.618119 235.547994 
L 376.950765 236.191522 
L 377.281338 238.449856 
L 377.609864 239.703684 
L 377.936368 236.683563 
L 378.260876 238.24113 
L 378.583411 238.660547 
L 378.903997 239.506319 
L 379.539415 238.356767 
L 379.854293 240.273274 
L 380.167314 239.457059 
L 380.478498 239.73398 
L 380.787868 240.279945 
L 381.095445 239.803769 
L 381.401248 234.813878 
L 382.007619 241.71408 
L 382.308225 238.368143 
L 382.607137 239.804568 
L 382.904375 242.276888 
L 383.199957 241.537924 
L 383.493901 240.333059 
L 383.786226 241.521492 
L 384.076949 241.642702 
L 384.366087 238.431785 
L 384.653659 242.275571 
L 384.93968 239.79408 
L 385.224168 240.636095 
L 385.507138 243.069472 
L 385.788607 242.946592 
L 386.068591 239.214237 
L 386.624165 244.124483 
L 386.899785 244.195797 
L 387.173981 241.41268 
L 387.446767 241.674669 
L 387.718158 245.425608 
L 387.988168 242.822658 
L 388.256811 246.458237 
L 388.5241 242.989094 
L 388.790049 241.586885 
L 389.054672 244.094491 
L 389.317982 241.016395 
L 389.579992 243.503888 
L 389.840714 242.272162 
L 390.100161 240.345981 
L 390.358345 245.511323 
L 390.615279 245.194451 
L 390.870975 244.121343 
L 391.125445 239.122987 
L 391.3787 246.099776 
L 391.630752 245.84737 
L 391.881612 244.685365 
L 392.131291 246.499169 
L 392.379801 247.397737 
L 392.627153 243.573417 
L 392.873357 247.097067 
L 393.118423 246.617916 
L 393.362363 245.297332 
L 393.605186 245.691466 
L 393.846903 245.698513 
L 394.087524 244.526934 
L 394.327059 246.941754 
L 394.565517 245.232222 
L 394.802908 248.396176 
L 395.039241 248.72235 
L 395.274527 246.693587 
L 395.508774 248.398818 
L 395.741991 247.525197 
L 395.974187 249.353682 
L 396.435554 245.186046 
L 396.664741 245.549685 
L 396.892943 245.50693 
L 397.571717 250.35538 
L 397.796059 244.345525 
L 398.019457 248.563477 
L 398.241917 247.469066 
L 398.463449 249.32575 
L 398.68406 249.040012 
L 399.122549 248.148335 
L 399.340441 246.092484 
L 399.557443 248.404132 
L 399.773561 248.402314 
L 399.988801 248.703757 
L 400.203173 247.643336 
L 400.416681 251.733547 
L 400.629334 251.008972 
L 400.841138 250.720845 
L 401.0521 250.082113 
L 401.262226 248.802908 
L 401.679998 251.005402 
L 402.094507 250.078769 
L 402.300553 248.127002 
L 402.505802 252.857537 
L 402.913933 249.809191 
L 403.116827 247.836483 
L 403.318949 252.205335 
L 403.520303 251.756209 
L 403.720896 252.939909 
L 403.920734 252.863612 
L 404.119822 253.695993 
L 404.318165 252.345752 
L 404.51577 254.768671 
L 404.712641 252.109263 
L 404.908785 252.802809 
L 405.104206 252.458007 
L 405.29891 250.824626 
L 405.492903 254.418871 
L 405.686188 251.052981 
L 405.878772 253.503687 
L 406.261855 253.33793 
L 406.642192 254.398994 
L 406.831343 250.980085 
L 407.019823 251.74983 
L 407.207634 253.631663 
L 407.394784 253.369063 
L 407.581275 256.533112 
L 407.767114 252.343744 
L 407.952304 252.21277 
L 408.136849 254.300265 
L 408.320755 253.5691 
L 408.504026 255.830891 
L 408.686666 253.421064 
L 408.868679 256.918256 
L 409.05007 252.596666 
L 409.411002 255.862461 
L 409.590551 255.389016 
L 409.769495 256.821287 
L 409.947838 253.689223 
L 410.125583 257.076079 
L 410.302734 256.726223 
L 410.479296 258.324791 
L 410.655272 257.308561 
L 410.830667 257.302803 
L 411.005483 258.944215 
L 411.179726 256.554228 
L 411.353398 251.778645 
L 411.699046 257.044556 
L 411.87103 257.169692 
L 412.213333 255.718845 
L 412.38366 257.998543 
L 412.722682 259.02616 
L 412.891384 257.307271 
L 413.059552 256.734365 
L 413.394296 258.272332 
L 413.56088 256.767444 
L 413.892486 258.615689 
L 414.057515 258.922501 
L 414.222032 256.655237 
L 414.386041 258.265947 
L 414.712546 257.099127 
L 414.875048 256.147176 
L 415.037053 260.341442 
L 415.198566 256.545755 
L 415.359588 259.108388 
L 415.520123 255.447765 
L 415.680174 258.133654 
L 415.839743 257.477588 
L 415.998834 259.678152 
L 416.15745 258.066809 
L 416.315592 258.741282 
L 416.473265 258.25971 
L 416.63047 259.702649 
L 416.787212 257.920353 
L 416.943491 260.432856 
L 417.099311 259.144973 
L 417.254675 259.640058 
L 417.409586 262.069297 
L 417.564045 260.881276 
L 417.718057 260.738805 
L 417.871622 258.753441 
L 418.024744 261.463564 
L 418.177426 259.855049 
L 418.329669 260.831552 
L 418.481477 259.631118 
L 418.632852 260.660252 
L 418.783796 260.02098 
L 418.934312 261.274761 
L 419.234069 260.64795 
L 419.383314 260.759458 
L 419.532141 261.109241 
L 419.680552 258.792785 
L 419.976134 261.574159 
L 420.12331 261.110176 
L 420.270078 261.225421 
L 420.562403 259.248384 
L 420.707964 261.807346 
L 420.853126 257.544417 
L 420.997892 258.941048 
L 421.286245 262.341161 
L 421.429836 262.499502 
L 421.573039 261.163157 
L 421.715857 261.755874 
L 421.858292 261.335206 
L 422.000345 261.99898 
L 422.142019 260.17475 
L 422.283315 263.354739 
L 422.424236 261.48047 
L 422.704961 262.224699 
L 422.984208 260.299321 
L 423.261993 262.485945 
L 423.400342 261.964837 
L 423.538331 262.788864 
L 423.813237 262.466224 
L 423.950158 262.897117 
L 424.086727 262.82506 
L 424.222945 263.193808 
L 424.494335 262.251739 
L 424.629512 261.999374 
L 424.764345 263.210253 
L 424.898837 262.146446 
L 425.032988 263.673521 
L 425.166801 263.02432 
L 425.300277 261.069727 
L 425.566227 262.541835 
L 425.698703 263.231627 
L 425.83085 262.305728 
L 426.094159 263.673901 
L 426.356169 262.051311 
L 426.48669 264.007536 
L 426.616891 261.334939 
L 426.746773 263.152865 
L 426.876338 262.099643 
L 427.005587 262.577079 
L 427.134522 264.286534 
L 427.263145 263.144955 
L 427.391457 264.37228 
L 427.519459 263.415499 
L 427.647153 263.735023 
L 427.77454 265.20245 
L 427.901622 262.103193 
L 428.028401 263.300788 
L 428.154877 263.198347 
L 428.532507 264.479734 
L 428.657789 261.944798 
L 428.782776 262.071287 
L 428.907469 261.636456 
L 429.031869 263.261668 
L 429.155979 263.240271 
L 429.279799 263.785718 
L 429.40333 263.506101 
L 429.649534 261.394896 
L 429.772209 264.407215 
L 429.8946 262.71434 
L 430.13854 264.188168 
L 430.260091 263.741679 
L 430.381364 264.649648 
L 430.50236 263.85144 
L 430.743527 265.144311 
L 430.863701 263.24718 
L 430.983604 264.558032 
L 431.103236 263.327828 
L 431.222599 265.456868 
L 431.341694 264.220847 
L 431.460522 264.638104 
L 431.697383 264.508942 
L 431.815419 265.653193 
L 432.050704 263.911149 
L 432.167957 264.361388 
L 432.284951 265.759002 
L 432.401688 264.227914 
L 432.518168 265.268723 
L 432.750365 263.253595 
L 432.866083 265.633039 
L 433.096765 263.865814 
L 433.211731 265.61954 
L 433.326449 263.370248 
L 433.440918 265.424027 
L 433.555142 264.106853 
L 433.66912 265.9521 
L 433.896345 265.59122 
L 434.009593 263.721016 
L 434.235367 265.993597 
L 434.347895 265.213884 
L 434.460184 265.544117 
L 434.572237 264.17286 
L 434.684053 265.364917 
L 434.906981 264.968692 
L 435.128976 266.297887 
L 435.239627 266.208292 
L 435.350047 265.096081 
L 435.460237 266.033001 
L 435.679935 265.031492 
L 435.789443 263.432384 
L 435.898726 265.87516 
L 436.007784 265.565163 
L 436.116619 264.635805 
L 436.22523 265.323575 
L 436.33362 264.469104 
L 436.549738 265.952032 
L 436.657467 265.573113 
L 436.764979 265.6884 
L 436.872273 266.605494 
L 436.97935 266.025671 
L 437.086212 264.024402 
L 437.299291 265.838598 
L 437.405511 266.645455 
L 437.405511 266.645455 
" clip-path="url(#pf28226d172)" style="fill: none; stroke: #9467bd; stroke-width: 3; stroke-linecap: square"/>
   </g>
   <g id="patch_3">
    <path d="M 91.191875 279 
L 91.191875 7.2 
" style="fill: none; stroke: #000000; stroke-width: 0.8; stroke-linejoin: miter; stroke-linecap: square"/>
   </g>
   <g id="patch_4">
    <path d="M 453.891875 279 
L 453.891875 7.2 
" style="fill: none; stroke: #000000; stroke-width: 0.8; stroke-linejoin: miter; stroke-linecap: square"/>
   </g>
   <g id="patch_5">
    <path d="M 91.191875 279 
L 453.891875 279 
" style="fill: none; stroke: #000000; stroke-width: 0.8; stroke-linejoin: miter; stroke-linecap: square"/>
   </g>
   <g id="patch_6">
    <path d="M 91.191875 7.2 
L 453.891875 7.2 
" style="fill: none; stroke: #000000; stroke-width: 0.8; stroke-linejoin: miter; stroke-linecap: square"/>
   </g>
  </g>
  <g id="legend_1">
   <g id="patch_7">
    <path d="M 100.891875 275.5 
L 321.062031 275.5 
Q 323.262031 275.5 323.262031 273.3 
L 323.262031 193.670312 
Q 323.262031 191.470312 321.062031 191.470312 
L 100.891875 191.470312 
Q 98.691875 191.470312 98.691875 193.670312 
L 98.691875 273.3 
Q 98.691875 275.5 100.891875 275.5 
z
" style="fill: #4c4c4c; opacity: 0.5; stroke: #4c4c4c; stroke-linejoin: miter"/>
   </g>
   <g id="patch_8">
    <path d="M 98.891875 273.5 
L 319.062031 273.5 
Q 321.262031 273.5 321.262031 271.3 
L 321.262031 191.670312 
Q 321.262031 189.470312 319.062031 189.470312 
L 98.891875 189.470312 
Q 96.691875 189.470312 96.691875 191.670312 
L 96.691875 271.3 
Q 96.691875 273.5 98.891875 273.5 
z
" style="fill: #ffffff; stroke: #cccccc; stroke-linejoin: miter"/>
   </g>
   <g id="line2d_53">
    <path d="M 101.091875 198.378594 
L 112.091875 198.378594 
L 123.091875 198.378594 
" style="fill: none; stroke: #1f77b4; stroke-width: 3; stroke-linecap: square"/>
   </g>
   <g id="text_8">
    <!-- FSPDA 0.01% rand-k 1/45 edges -->
    <g transform="translate(131.891875 202.228594)scale(0.11 -0.11)">
     <defs>
      <path id="DejaVuSans-46" d="M 628 4666 
L 3309 4666 
L 3309 4134 
L 1259 4134 
L 1259 2759 
L 3109 2759 
L 3109 2228 
L 1259 2228 
L 1259 0 
L 628 0 
L 628 4666 
z
" transform="scale(0.015625)"/>
      <path id="DejaVuSans-50" d="M 1259 4147 
L 1259 2394 
L 2053 2394 
Q 2494 2394 2734 2622 
Q 2975 2850 2975 3272 
Q 2975 3691 2734 3919 
Q 2494 4147 2053 4147 
L 1259 4147 
z
M 628 4666 
L 2053 4666 
Q 2838 4666 3239 4311 
Q 3641 3956 3641 3272 
Q 3641 2581 3239 2228 
Q 2838 1875 2053 1875 
L 1259 1875 
L 1259 0 
L 628 0 
L 628 4666 
z
" transform="scale(0.015625)"/>
      <path id="DejaVuSans-44" d="M 1259 4147 
L 1259 519 
L 2022 519 
Q 2988 519 3436 956 
Q 3884 1394 3884 2338 
Q 3884 3275 3436 3711 
Q 2988 4147 2022 4147 
L 1259 4147 
z
M 628 4666 
L 1925 4666 
Q 3281 4666 3915 4102 
Q 4550 3538 4550 2338 
Q 4550 1131 3912 565 
Q 3275 0 1925 0 
L 628 0 
L 628 4666 
z
" transform="scale(0.015625)"/>
      <path id="DejaVuSans-41" d="M 2188 4044 
L 1331 1722 
L 3047 1722 
L 2188 4044 
z
M 1831 4666 
L 2547 4666 
L 4325 0 
L 3669 0 
L 3244 1197 
L 1141 1197 
L 716 0 
L 50 0 
L 1831 4666 
z
" transform="scale(0.015625)"/>
      <path id="DejaVuSans-2e" d="M 684 794 
L 1344 794 
L 1344 0 
L 684 0 
L 684 794 
z
" transform="scale(0.015625)"/>
      <path id="DejaVuSans-25" d="M 4653 2053 
Q 4381 2053 4226 1822 
Q 4072 1591 4072 1178 
Q 4072 772 4226 539 
Q 4381 306 4653 306 
Q 4919 306 5073 539 
Q 5228 772 5228 1178 
Q 5228 1588 5073 1820 
Q 4919 2053 4653 2053 
z
M 4653 2450 
Q 5147 2450 5437 2106 
Q 5728 1763 5728 1178 
Q 5728 594 5436 251 
Q 5144 -91 4653 -91 
Q 4153 -91 3862 251 
Q 3572 594 3572 1178 
Q 3572 1766 3864 2108 
Q 4156 2450 4653 2450 
z
M 1428 4353 
Q 1159 4353 1004 4120 
Q 850 3888 850 3481 
Q 850 3069 1003 2837 
Q 1156 2606 1428 2606 
Q 1700 2606 1854 2837 
Q 2009 3069 2009 3481 
Q 2009 3884 1853 4118 
Q 1697 4353 1428 4353 
z
M 4250 4750 
L 4750 4750 
L 1831 -91 
L 1331 -91 
L 4250 4750 
z
M 1428 4750 
Q 1922 4750 2215 4408 
Q 2509 4066 2509 3481 
Q 2509 2891 2217 2550 
Q 1925 2209 1428 2209 
Q 931 2209 642 2551 
Q 353 2894 353 3481 
Q 353 4063 643 4406 
Q 934 4750 1428 4750 
z
" transform="scale(0.015625)"/>
      <path id="DejaVuSans-2d" d="M 313 2009 
L 1997 2009 
L 1997 1497 
L 313 1497 
L 313 2009 
z
" transform="scale(0.015625)"/>
      <path id="DejaVuSans-6b" d="M 581 4863 
L 1159 4863 
L 1159 1991 
L 2875 3500 
L 3609 3500 
L 1753 1863 
L 3688 0 
L 2938 0 
L 1159 1709 
L 1159 0 
L 581 0 
L 581 4863 
z
" transform="scale(0.015625)"/>
      <path id="DejaVuSans-2f" d="M 1625 4666 
L 2156 4666 
L 531 -594 
L 0 -594 
L 1625 4666 
z
" transform="scale(0.015625)"/>
      <path id="DejaVuSans-67" d="M 2906 1791 
Q 2906 2416 2648 2759 
Q 2391 3103 1925 3103 
Q 1463 3103 1205 2759 
Q 947 2416 947 1791 
Q 947 1169 1205 825 
Q 1463 481 1925 481 
Q 2391 481 2648 825 
Q 2906 1169 2906 1791 
z
M 3481 434 
Q 3481 -459 3084 -895 
Q 2688 -1331 1869 -1331 
Q 1566 -1331 1297 -1286 
Q 1028 -1241 775 -1147 
L 775 -588 
Q 1028 -725 1275 -790 
Q 1522 -856 1778 -856 
Q 2344 -856 2625 -561 
Q 2906 -266 2906 331 
L 2906 616 
Q 2728 306 2450 153 
Q 2172 0 1784 0 
Q 1141 0 747 490 
Q 353 981 353 1791 
Q 353 2603 747 3093 
Q 1141 3584 1784 3584 
Q 2172 3584 2450 3431 
Q 2728 3278 2906 2969 
L 2906 3500 
L 3481 3500 
L 3481 434 
z
" transform="scale(0.015625)"/>
      <path id="DejaVuSans-73" d="M 2834 3397 
L 2834 2853 
Q 2591 2978 2328 3040 
Q 2066 3103 1784 3103 
Q 1356 3103 1142 2972 
Q 928 2841 928 2578 
Q 928 2378 1081 2264 
Q 1234 2150 1697 2047 
L 1894 2003 
Q 2506 1872 2764 1633 
Q 3022 1394 3022 966 
Q 3022 478 2636 193 
Q 2250 -91 1575 -91 
Q 1294 -91 989 -36 
Q 684 19 347 128 
L 347 722 
Q 666 556 975 473 
Q 1284 391 1588 391 
Q 1994 391 2212 530 
Q 2431 669 2431 922 
Q 2431 1156 2273 1281 
Q 2116 1406 1581 1522 
L 1381 1569 
Q 847 1681 609 1914 
Q 372 2147 372 2553 
Q 372 3047 722 3315 
Q 1072 3584 1716 3584 
Q 2034 3584 2315 3537 
Q 2597 3491 2834 3397 
z
" transform="scale(0.015625)"/>
     </defs>
     <use xlink:href="#DejaVuSans-46"/>
     <use xlink:href="#DejaVuSans-53" x="55.769531"/>
     <use xlink:href="#DejaVuSans-50" x="119.246094"/>
     <use xlink:href="#DejaVuSans-44" x="179.548828"/>
     <use xlink:href="#DejaVuSans-41" x="254.800781"/>
     <use xlink:href="#DejaVuSans-20" x="323.208984"/>
     <use xlink:href="#DejaVuSans-30" x="354.996094"/>
     <use xlink:href="#DejaVuSans-2e" x="418.619141"/>
     <use xlink:href="#DejaVuSans-30" x="450.40625"/>
     <use xlink:href="#DejaVuSans-31" x="514.029297"/>
     <use xlink:href="#DejaVuSans-25" x="577.652344"/>
     <use xlink:href="#DejaVuSans-20" x="672.671875"/>
     <use xlink:href="#DejaVuSans-72" x="704.458984"/>
     <use xlink:href="#DejaVuSans-61" x="745.572266"/>
     <use xlink:href="#DejaVuSans-6e" x="806.851562"/>
     <use xlink:href="#DejaVuSans-64" x="870.230469"/>
     <use xlink:href="#DejaVuSans-2d" x="933.707031"/>
     <use xlink:href="#DejaVuSans-6b" x="969.791016"/>
     <use xlink:href="#DejaVuSans-20" x="1027.701172"/>
     <use xlink:href="#DejaVuSans-31" x="1059.488281"/>
     <use xlink:href="#DejaVuSans-2f" x="1123.111328"/>
     <use xlink:href="#DejaVuSans-34" x="1156.802734"/>
     <use xlink:href="#DejaVuSans-35" x="1220.425781"/>
     <use xlink:href="#DejaVuSans-20" x="1284.048828"/>
     <use xlink:href="#DejaVuSans-65" x="1315.835938"/>
     <use xlink:href="#DejaVuSans-64" x="1377.359375"/>
     <use xlink:href="#DejaVuSans-67" x="1440.835938"/>
     <use xlink:href="#DejaVuSans-65" x="1504.3125"/>
     <use xlink:href="#DejaVuSans-73" x="1565.835938"/>
    </g>
   </g>
   <g id="line2d_54">
    <path d="M 101.091875 214.524531 
L 112.091875 214.524531 
L 123.091875 214.524531 
" style="fill: none; stroke: #ff7f0e; stroke-width: 3; stroke-linecap: square"/>
   </g>
   <g id="text_9">
    <!-- FSPDA 0.01% rand-k 10/45 edges -->
    <g transform="translate(131.891875 218.374531)scale(0.11 -0.11)">
     <use xlink:href="#DejaVuSans-46"/>
     <use xlink:href="#DejaVuSans-53" x="55.769531"/>
     <use xlink:href="#DejaVuSans-50" x="119.246094"/>
     <use xlink:href="#DejaVuSans-44" x="179.548828"/>
     <use xlink:href="#DejaVuSans-41" x="254.800781"/>
     <use xlink:href="#DejaVuSans-20" x="323.208984"/>
     <use xlink:href="#DejaVuSans-30" x="354.996094"/>
     <use xlink:href="#DejaVuSans-2e" x="418.619141"/>
     <use xlink:href="#DejaVuSans-30" x="450.40625"/>
     <use xlink:href="#DejaVuSans-31" x="514.029297"/>
     <use xlink:href="#DejaVuSans-25" x="577.652344"/>
     <use xlink:href="#DejaVuSans-20" x="672.671875"/>
     <use xlink:href="#DejaVuSans-72" x="704.458984"/>
     <use xlink:href="#DejaVuSans-61" x="745.572266"/>
     <use xlink:href="#DejaVuSans-6e" x="806.851562"/>
     <use xlink:href="#DejaVuSans-64" x="870.230469"/>
     <use xlink:href="#DejaVuSans-2d" x="933.707031"/>
     <use xlink:href="#DejaVuSans-6b" x="969.791016"/>
     <use xlink:href="#DejaVuSans-20" x="1027.701172"/>
     <use xlink:href="#DejaVuSans-31" x="1059.488281"/>
     <use xlink:href="#DejaVuSans-30" x="1123.111328"/>
     <use xlink:href="#DejaVuSans-2f" x="1186.734375"/>
     <use xlink:href="#DejaVuSans-34" x="1220.425781"/>
     <use xlink:href="#DejaVuSans-35" x="1284.048828"/>
     <use xlink:href="#DejaVuSans-20" x="1347.671875"/>
     <use xlink:href="#DejaVuSans-65" x="1379.458984"/>
     <use xlink:href="#DejaVuSans-64" x="1440.982422"/>
     <use xlink:href="#DejaVuSans-67" x="1504.458984"/>
     <use xlink:href="#DejaVuSans-65" x="1567.935547"/>
     <use xlink:href="#DejaVuSans-73" x="1629.458984"/>
    </g>
   </g>
   <g id="line2d_55">
    <path d="M 101.091875 230.670469 
L 112.091875 230.670469 
L 123.091875 230.670469 
" style="fill: none; stroke: #2ca02c; stroke-width: 3; stroke-linecap: square"/>
   </g>
   <g id="text_10">
    <!-- FSPDA 0.01% rand-k 45/45 edges -->
    <g transform="translate(131.891875 234.520469)scale(0.11 -0.11)">
     <use xlink:href="#DejaVuSans-46"/>
     <use xlink:href="#DejaVuSans-53" x="55.769531"/>
     <use xlink:href="#DejaVuSans-50" x="119.246094"/>
     <use xlink:href="#DejaVuSans-44" x="179.548828"/>
     <use xlink:href="#DejaVuSans-41" x="254.800781"/>
     <use xlink:href="#DejaVuSans-20" x="323.208984"/>
     <use xlink:href="#DejaVuSans-30" x="354.996094"/>
     <use xlink:href="#DejaVuSans-2e" x="418.619141"/>
     <use xlink:href="#DejaVuSans-30" x="450.40625"/>
     <use xlink:href="#DejaVuSans-31" x="514.029297"/>
     <use xlink:href="#DejaVuSans-25" x="577.652344"/>
     <use xlink:href="#DejaVuSans-20" x="672.671875"/>
     <use xlink:href="#DejaVuSans-72" x="704.458984"/>
     <use xlink:href="#DejaVuSans-61" x="745.572266"/>
     <use xlink:href="#DejaVuSans-6e" x="806.851562"/>
     <use xlink:href="#DejaVuSans-64" x="870.230469"/>
     <use xlink:href="#DejaVuSans-2d" x="933.707031"/>
     <use xlink:href="#DejaVuSans-6b" x="969.791016"/>
     <use xlink:href="#DejaVuSans-20" x="1027.701172"/>
     <use xlink:href="#DejaVuSans-34" x="1059.488281"/>
     <use xlink:href="#DejaVuSans-35" x="1123.111328"/>
     <use xlink:href="#DejaVuSans-2f" x="1186.734375"/>
     <use xlink:href="#DejaVuSans-34" x="1220.425781"/>
     <use xlink:href="#DejaVuSans-35" x="1284.048828"/>
     <use xlink:href="#DejaVuSans-20" x="1347.671875"/>
     <use xlink:href="#DejaVuSans-65" x="1379.458984"/>
     <use xlink:href="#DejaVuSans-64" x="1440.982422"/>
     <use xlink:href="#DejaVuSans-67" x="1504.458984"/>
     <use xlink:href="#DejaVuSans-65" x="1567.935547"/>
     <use xlink:href="#DejaVuSans-73" x="1629.458984"/>
    </g>
   </g>
   <g id="line2d_56">
    <path d="M 101.091875 246.816406 
L 112.091875 246.816406 
L 123.091875 246.816406 
" style="fill: none; stroke: #d62728; stroke-width: 3; stroke-linecap: square"/>
   </g>
   <g id="text_11">
    <!-- FSPDA 0.10% rand-k 1/45 edges -->
    <g transform="translate(131.891875 250.666406)scale(0.11 -0.11)">
     <use xlink:href="#DejaVuSans-46"/>
     <use xlink:href="#DejaVuSans-53" x="55.769531"/>
     <use xlink:href="#DejaVuSans-50" x="119.246094"/>
     <use xlink:href="#DejaVuSans-44" x="179.548828"/>
     <use xlink:href="#DejaVuSans-41" x="254.800781"/>
     <use xlink:href="#DejaVuSans-20" x="323.208984"/>
     <use xlink:href="#DejaVuSans-30" x="354.996094"/>
     <use xlink:href="#DejaVuSans-2e" x="418.619141"/>
     <use xlink:href="#DejaVuSans-31" x="450.40625"/>
     <use xlink:href="#DejaVuSans-30" x="514.029297"/>
     <use xlink:href="#DejaVuSans-25" x="577.652344"/>
     <use xlink:href="#DejaVuSans-20" x="672.671875"/>
     <use xlink:href="#DejaVuSans-72" x="704.458984"/>
     <use xlink:href="#DejaVuSans-61" x="745.572266"/>
     <use xlink:href="#DejaVuSans-6e" x="806.851562"/>
     <use xlink:href="#DejaVuSans-64" x="870.230469"/>
     <use xlink:href="#DejaVuSans-2d" x="933.707031"/>
     <use xlink:href="#DejaVuSans-6b" x="969.791016"/>
     <use xlink:href="#DejaVuSans-20" x="1027.701172"/>
     <use xlink:href="#DejaVuSans-31" x="1059.488281"/>
     <use xlink:href="#DejaVuSans-2f" x="1123.111328"/>
     <use xlink:href="#DejaVuSans-34" x="1156.802734"/>
     <use xlink:href="#DejaVuSans-35" x="1220.425781"/>
     <use xlink:href="#DejaVuSans-20" x="1284.048828"/>
     <use xlink:href="#DejaVuSans-65" x="1315.835938"/>
     <use xlink:href="#DejaVuSans-64" x="1377.359375"/>
     <use xlink:href="#DejaVuSans-67" x="1440.835938"/>
     <use xlink:href="#DejaVuSans-65" x="1504.3125"/>
     <use xlink:href="#DejaVuSans-73" x="1565.835938"/>
    </g>
   </g>
   <g id="line2d_57">
    <path d="M 101.091875 262.962344 
L 112.091875 262.962344 
L 123.091875 262.962344 
" style="fill: none; stroke: #9467bd; stroke-width: 3; stroke-linecap: square"/>
   </g>
   <g id="text_12">
    <!-- FSPDA 1.00% rand-k 1/45 edges -->
    <g transform="translate(131.891875 266.812344)scale(0.11 -0.11)">
     <use xlink:href="#DejaVuSans-46"/>
     <use xlink:href="#DejaVuSans-53" x="55.769531"/>
     <use xlink:href="#DejaVuSans-50" x="119.246094"/>
     <use xlink:href="#DejaVuSans-44" x="179.548828"/>
     <use xlink:href="#DejaVuSans-41" x="254.800781"/>
     <use xlink:href="#DejaVuSans-20" x="323.208984"/>
     <use xlink:href="#DejaVuSans-31" x="354.996094"/>
     <use xlink:href="#DejaVuSans-2e" x="418.619141"/>
     <use xlink:href="#DejaVuSans-30" x="450.40625"/>
     <use xlink:href="#DejaVuSans-30" x="514.029297"/>
     <use xlink:href="#DejaVuSans-25" x="577.652344"/>
     <use xlink:href="#DejaVuSans-20" x="672.671875"/>
     <use xlink:href="#DejaVuSans-72" x="704.458984"/>
     <use xlink:href="#DejaVuSans-61" x="745.572266"/>
     <use xlink:href="#DejaVuSans-6e" x="806.851562"/>
     <use xlink:href="#DejaVuSans-64" x="870.230469"/>
     <use xlink:href="#DejaVuSans-2d" x="933.707031"/>
     <use xlink:href="#DejaVuSans-6b" x="969.791016"/>
     <use xlink:href="#DejaVuSans-20" x="1027.701172"/>
     <use xlink:href="#DejaVuSans-31" x="1059.488281"/>
     <use xlink:href="#DejaVuSans-2f" x="1123.111328"/>
     <use xlink:href="#DejaVuSans-34" x="1156.802734"/>
     <use xlink:href="#DejaVuSans-35" x="1220.425781"/>
     <use xlink:href="#DejaVuSans-20" x="1284.048828"/>
     <use xlink:href="#DejaVuSans-65" x="1315.835938"/>
     <use xlink:href="#DejaVuSans-64" x="1377.359375"/>
     <use xlink:href="#DejaVuSans-67" x="1440.835938"/>
     <use xlink:href="#DejaVuSans-65" x="1504.3125"/>
     <use xlink:href="#DejaVuSans-73" x="1565.835938"/>
    </g>
   </g>
  </g>
 </g>
 <defs>
  <clipPath id="pf28226d172">
   <rect x="91.191875" y="7.2" width="362.7" height="271.8"/>
  </clipPath>
 </defs>
</svg>
