<?xml version="1.0" encoding="utf-8" standalone="no"?>
<!DOCTYPE svg PUBLIC "-//W3C//DTD SVG 1.1//EN"
  "http://www.w3.org/Graphics/SVG/1.1/DTD/svg11.dtd">
<svg xmlns:xlink="http://www.w3.org/1999/xlink" width="463.965511pt" height="339.78375pt" viewBox="0 0 463.965511 339.78375" xmlns="http://www.w3.org/2000/svg" version="1.1">
 <metadata>
  <rdf:RDF xmlns:dc="http://purl.org/dc/elements/1.1/" xmlns:cc="http://creativecommons.org/ns#" xmlns:rdf="http://www.w3.org/1999/02/22-rdf-syntax-ns#">
   <cc:Work>
    <dc:type rdf:resource="http://purl.org/dc/dcmitype/StillImage"/>
    <dc:date>2024-11-13T23:07:43.662993</dc:date>
    <dc:format>image/svg+xml</dc:format>
    <dc:creator>
     <cc:Agent>
      <dc:title>Matplotlib v3.5.1, https://matplotlib.org/</dc:title>
     </cc:Agent>
    </dc:creator>
   </cc:Work>
  </rdf:RDF>
 </metadata>
 <defs>
  <style type="text/css">*{stroke-linejoin: round; stroke-linecap: butt}</style>
 </defs>
 <g id="figure_1">
  <g id="patch_1">
   <path d="M 0 339.78375 
L 463.965511 339.78375 
L 463.965511 0 
L 0 0 
L 0 339.78375 
z
" style="fill: none"/>
  </g>
  <g id="axes_1">
   <g id="patch_2">
    <path d="M 91.191875 279 
L 453.891875 279 
L 453.891875 7.2 
L 91.191875 7.2 
z
" style="fill: #ffffff"/>
   </g>
   <g id="matplotlib.axis_1">
    <g id="xtick_1">
     <g id="line2d_1">
      <path d="M 193.069878 279 
L 193.069878 7.2 
" clip-path="url(#pdffef1863e)" style="fill: none; stroke: #b0b0b0; stroke-width: 0.8; stroke-linecap: square"/>
     </g>
     <g id="line2d_2">
      <defs>
       <path id="me908235452" d="M 0 0 
L 0 3.5 
" style="stroke: #000000; stroke-width: 0.8"/>
      </defs>
      <g>
       <use xlink:href="#me908235452" x="193.069878" y="279" style="stroke: #000000; stroke-width: 0.8"/>
      </g>
     </g>
     <g id="text_1">
      <!-- $\mathdefault{10^{5}}$ -->
      <g transform="translate(173.709878 302.716562)scale(0.22 -0.22)">
       <defs>
        <path id="DejaVuSans-31" d="M 794 531 
L 1825 531 
L 1825 4091 
L 703 3866 
L 703 4441 
L 1819 4666 
L 2450 4666 
L 2450 531 
L 3481 531 
L 3481 0 
L 794 0 
L 794 531 
z
" transform="scale(0.015625)"/>
        <path id="DejaVuSans-30" d="M 2034 4250 
Q 1547 4250 1301 3770 
Q 1056 3291 1056 2328 
Q 1056 1369 1301 889 
Q 1547 409 2034 409 
Q 2525 409 2770 889 
Q 3016 1369 3016 2328 
Q 3016 3291 2770 3770 
Q 2525 4250 2034 4250 
z
M 2034 4750 
Q 2819 4750 3233 4129 
Q 3647 3509 3647 2328 
Q 3647 1150 3233 529 
Q 2819 -91 2034 -91 
Q 1250 -91 836 529 
Q 422 1150 422 2328 
Q 422 3509 836 4129 
Q 1250 4750 2034 4750 
z
" transform="scale(0.015625)"/>
        <path id="DejaVuSans-35" d="M 691 4666 
L 3169 4666 
L 3169 4134 
L 1269 4134 
L 1269 2991 
Q 1406 3038 1543 3061 
Q 1681 3084 1819 3084 
Q 2600 3084 3056 2656 
Q 3513 2228 3513 1497 
Q 3513 744 3044 326 
Q 2575 -91 1722 -91 
Q 1428 -91 1123 -41 
Q 819 9 494 109 
L 494 744 
Q 775 591 1075 516 
Q 1375 441 1709 441 
Q 2250 441 2565 725 
Q 2881 1009 2881 1497 
Q 2881 1984 2565 2268 
Q 2250 2553 1709 2553 
Q 1456 2553 1204 2497 
Q 953 2441 691 2322 
L 691 4666 
z
" transform="scale(0.015625)"/>
       </defs>
       <use xlink:href="#DejaVuSans-31" transform="translate(0 0.684375)"/>
       <use xlink:href="#DejaVuSans-30" transform="translate(63.623047 0.684375)"/>
       <use xlink:href="#DejaVuSans-35" transform="translate(128.203125 38.965625)scale(0.7)"/>
      </g>
     </g>
    </g>
    <g id="xtick_2">
     <g id="line2d_3">
      <path d="M 315.237695 279 
L 315.237695 7.2 
" clip-path="url(#pdffef1863e)" style="fill: none; stroke: #b0b0b0; stroke-width: 0.8; stroke-linecap: square"/>
     </g>
     <g id="line2d_4">
      <g>
       <use xlink:href="#me908235452" x="315.237695" y="279" style="stroke: #000000; stroke-width: 0.8"/>
      </g>
     </g>
     <g id="text_2">
      <!-- $\mathdefault{10^{6}}$ -->
      <g transform="translate(295.877695 302.716562)scale(0.22 -0.22)">
       <defs>
        <path id="DejaVuSans-36" d="M 2113 2584 
Q 1688 2584 1439 2293 
Q 1191 2003 1191 1497 
Q 1191 994 1439 701 
Q 1688 409 2113 409 
Q 2538 409 2786 701 
Q 3034 994 3034 1497 
Q 3034 2003 2786 2293 
Q 2538 2584 2113 2584 
z
M 3366 4563 
L 3366 3988 
Q 3128 4100 2886 4159 
Q 2644 4219 2406 4219 
Q 1781 4219 1451 3797 
Q 1122 3375 1075 2522 
Q 1259 2794 1537 2939 
Q 1816 3084 2150 3084 
Q 2853 3084 3261 2657 
Q 3669 2231 3669 1497 
Q 3669 778 3244 343 
Q 2819 -91 2113 -91 
Q 1303 -91 875 529 
Q 447 1150 447 2328 
Q 447 3434 972 4092 
Q 1497 4750 2381 4750 
Q 2619 4750 2861 4703 
Q 3103 4656 3366 4563 
z
" transform="scale(0.015625)"/>
       </defs>
       <use xlink:href="#DejaVuSans-31" transform="translate(0 0.765625)"/>
       <use xlink:href="#DejaVuSans-30" transform="translate(63.623047 0.765625)"/>
       <use xlink:href="#DejaVuSans-36" transform="translate(128.203125 39.046875)scale(0.7)"/>
      </g>
     </g>
    </g>
    <g id="xtick_3">
     <g id="line2d_5">
      <path d="M 437.405511 279 
L 437.405511 7.2 
" clip-path="url(#pdffef1863e)" style="fill: none; stroke: #b0b0b0; stroke-width: 0.8; stroke-linecap: square"/>
     </g>
     <g id="line2d_6">
      <g>
       <use xlink:href="#me908235452" x="437.405511" y="279" style="stroke: #000000; stroke-width: 0.8"/>
      </g>
     </g>
     <g id="text_3">
      <!-- $\mathdefault{10^{7}}$ -->
      <g transform="translate(418.045511 302.716562)scale(0.22 -0.22)">
       <defs>
        <path id="DejaVuSans-37" d="M 525 4666 
L 3525 4666 
L 3525 4397 
L 1831 0 
L 1172 0 
L 2766 4134 
L 525 4134 
L 525 4666 
z
" transform="scale(0.015625)"/>
       </defs>
       <use xlink:href="#DejaVuSans-31" transform="translate(0 0.684375)"/>
       <use xlink:href="#DejaVuSans-30" transform="translate(63.623047 0.684375)"/>
       <use xlink:href="#DejaVuSans-37" transform="translate(128.203125 38.965625)scale(0.7)"/>
      </g>
     </g>
    </g>
    <g id="xtick_4">
     <g id="line2d_7">
      <defs>
       <path id="m284d95fb3f" d="M 0 0 
L 0 2 
" style="stroke: #000000; stroke-width: 0.6"/>
      </defs>
      <g>
       <use xlink:href="#m284d95fb3f" x="107.678239" y="279" style="stroke: #000000; stroke-width: 0.6"/>
      </g>
     </g>
    </g>
    <g id="xtick_5">
     <g id="line2d_8">
      <g>
       <use xlink:href="#m284d95fb3f" x="129.190923" y="279" style="stroke: #000000; stroke-width: 0.6"/>
      </g>
     </g>
    </g>
    <g id="xtick_6">
     <g id="line2d_9">
      <g>
       <use xlink:href="#m284d95fb3f" x="144.454416" y="279" style="stroke: #000000; stroke-width: 0.6"/>
      </g>
     </g>
    </g>
    <g id="xtick_7">
     <g id="line2d_10">
      <g>
       <use xlink:href="#m284d95fb3f" x="156.293701" y="279" style="stroke: #000000; stroke-width: 0.6"/>
      </g>
     </g>
    </g>
    <g id="xtick_8">
     <g id="line2d_11">
      <g>
       <use xlink:href="#m284d95fb3f" x="165.967101" y="279" style="stroke: #000000; stroke-width: 0.6"/>
      </g>
     </g>
    </g>
    <g id="xtick_9">
     <g id="line2d_12">
      <g>
       <use xlink:href="#m284d95fb3f" x="174.145844" y="279" style="stroke: #000000; stroke-width: 0.6"/>
      </g>
     </g>
    </g>
    <g id="xtick_10">
     <g id="line2d_13">
      <g>
       <use xlink:href="#m284d95fb3f" x="181.230593" y="279" style="stroke: #000000; stroke-width: 0.6"/>
      </g>
     </g>
    </g>
    <g id="xtick_11">
     <g id="line2d_14">
      <g>
       <use xlink:href="#m284d95fb3f" x="187.479785" y="279" style="stroke: #000000; stroke-width: 0.6"/>
      </g>
     </g>
    </g>
    <g id="xtick_12">
     <g id="line2d_15">
      <g>
       <use xlink:href="#m284d95fb3f" x="229.846055" y="279" style="stroke: #000000; stroke-width: 0.6"/>
      </g>
     </g>
    </g>
    <g id="xtick_13">
     <g id="line2d_16">
      <g>
       <use xlink:href="#m284d95fb3f" x="251.35874" y="279" style="stroke: #000000; stroke-width: 0.6"/>
      </g>
     </g>
    </g>
    <g id="xtick_14">
     <g id="line2d_17">
      <g>
       <use xlink:href="#m284d95fb3f" x="266.622233" y="279" style="stroke: #000000; stroke-width: 0.6"/>
      </g>
     </g>
    </g>
    <g id="xtick_15">
     <g id="line2d_18">
      <g>
       <use xlink:href="#m284d95fb3f" x="278.461517" y="279" style="stroke: #000000; stroke-width: 0.6"/>
      </g>
     </g>
    </g>
    <g id="xtick_16">
     <g id="line2d_19">
      <g>
       <use xlink:href="#m284d95fb3f" x="288.134917" y="279" style="stroke: #000000; stroke-width: 0.6"/>
      </g>
     </g>
    </g>
    <g id="xtick_17">
     <g id="line2d_20">
      <g>
       <use xlink:href="#m284d95fb3f" x="296.31366" y="279" style="stroke: #000000; stroke-width: 0.6"/>
      </g>
     </g>
    </g>
    <g id="xtick_18">
     <g id="line2d_21">
      <g>
       <use xlink:href="#m284d95fb3f" x="303.39841" y="279" style="stroke: #000000; stroke-width: 0.6"/>
      </g>
     </g>
    </g>
    <g id="xtick_19">
     <g id="line2d_22">
      <g>
       <use xlink:href="#m284d95fb3f" x="309.647602" y="279" style="stroke: #000000; stroke-width: 0.6"/>
      </g>
     </g>
    </g>
    <g id="xtick_20">
     <g id="line2d_23">
      <g>
       <use xlink:href="#m284d95fb3f" x="352.013872" y="279" style="stroke: #000000; stroke-width: 0.6"/>
      </g>
     </g>
    </g>
    <g id="xtick_21">
     <g id="line2d_24">
      <g>
       <use xlink:href="#m284d95fb3f" x="373.526557" y="279" style="stroke: #000000; stroke-width: 0.6"/>
      </g>
     </g>
    </g>
    <g id="xtick_22">
     <g id="line2d_25">
      <g>
       <use xlink:href="#m284d95fb3f" x="388.790049" y="279" style="stroke: #000000; stroke-width: 0.6"/>
      </g>
     </g>
    </g>
    <g id="xtick_23">
     <g id="line2d_26">
      <g>
       <use xlink:href="#m284d95fb3f" x="400.629334" y="279" style="stroke: #000000; stroke-width: 0.6"/>
      </g>
     </g>
    </g>
    <g id="xtick_24">
     <g id="line2d_27">
      <g>
       <use xlink:href="#m284d95fb3f" x="410.302734" y="279" style="stroke: #000000; stroke-width: 0.6"/>
      </g>
     </g>
    </g>
    <g id="xtick_25">
     <g id="line2d_28">
      <g>
       <use xlink:href="#m284d95fb3f" x="418.481477" y="279" style="stroke: #000000; stroke-width: 0.6"/>
      </g>
     </g>
    </g>
    <g id="xtick_26">
     <g id="line2d_29">
      <g>
       <use xlink:href="#m284d95fb3f" x="425.566227" y="279" style="stroke: #000000; stroke-width: 0.6"/>
      </g>
     </g>
    </g>
    <g id="xtick_27">
     <g id="line2d_30">
      <g>
       <use xlink:href="#m284d95fb3f" x="431.815419" y="279" style="stroke: #000000; stroke-width: 0.6"/>
      </g>
     </g>
    </g>
    <g id="text_4">
     <!-- Iteration -->
     <g transform="translate(225.882969 328.008437)scale(0.22 -0.22)">
      <defs>
       <path id="DejaVuSans-49" d="M 628 4666 
L 1259 4666 
L 1259 0 
L 628 0 
L 628 4666 
z
" transform="scale(0.015625)"/>
       <path id="DejaVuSans-74" d="M 1172 4494 
L 1172 3500 
L 2356 3500 
L 2356 3053 
L 1172 3053 
L 1172 1153 
Q 1172 725 1289 603 
Q 1406 481 1766 481 
L 2356 481 
L 2356 0 
L 1766 0 
Q 1100 0 847 248 
Q 594 497 594 1153 
L 594 3053 
L 172 3053 
L 172 3500 
L 594 3500 
L 594 4494 
L 1172 4494 
z
" transform="scale(0.015625)"/>
       <path id="DejaVuSans-65" d="M 3597 1894 
L 3597 1613 
L 953 1613 
Q 991 1019 1311 708 
Q 1631 397 2203 397 
Q 2534 397 2845 478 
Q 3156 559 3463 722 
L 3463 178 
Q 3153 47 2828 -22 
Q 2503 -91 2169 -91 
Q 1331 -91 842 396 
Q 353 884 353 1716 
Q 353 2575 817 3079 
Q 1281 3584 2069 3584 
Q 2775 3584 3186 3129 
Q 3597 2675 3597 1894 
z
M 3022 2063 
Q 3016 2534 2758 2815 
Q 2500 3097 2075 3097 
Q 1594 3097 1305 2825 
Q 1016 2553 972 2059 
L 3022 2063 
z
" transform="scale(0.015625)"/>
       <path id="DejaVuSans-72" d="M 2631 2963 
Q 2534 3019 2420 3045 
Q 2306 3072 2169 3072 
Q 1681 3072 1420 2755 
Q 1159 2438 1159 1844 
L 1159 0 
L 581 0 
L 581 3500 
L 1159 3500 
L 1159 2956 
Q 1341 3275 1631 3429 
Q 1922 3584 2338 3584 
Q 2397 3584 2469 3576 
Q 2541 3569 2628 3553 
L 2631 2963 
z
" transform="scale(0.015625)"/>
       <path id="DejaVuSans-61" d="M 2194 1759 
Q 1497 1759 1228 1600 
Q 959 1441 959 1056 
Q 959 750 1161 570 
Q 1363 391 1709 391 
Q 2188 391 2477 730 
Q 2766 1069 2766 1631 
L 2766 1759 
L 2194 1759 
z
M 3341 1997 
L 3341 0 
L 2766 0 
L 2766 531 
Q 2569 213 2275 61 
Q 1981 -91 1556 -91 
Q 1019 -91 701 211 
Q 384 513 384 1019 
Q 384 1609 779 1909 
Q 1175 2209 1959 2209 
L 2766 2209 
L 2766 2266 
Q 2766 2663 2505 2880 
Q 2244 3097 1772 3097 
Q 1472 3097 1187 3025 
Q 903 2953 641 2809 
L 641 3341 
Q 956 3463 1253 3523 
Q 1550 3584 1831 3584 
Q 2591 3584 2966 3190 
Q 3341 2797 3341 1997 
z
" transform="scale(0.015625)"/>
       <path id="DejaVuSans-69" d="M 603 3500 
L 1178 3500 
L 1178 0 
L 603 0 
L 603 3500 
z
M 603 4863 
L 1178 4863 
L 1178 4134 
L 603 4134 
L 603 4863 
z
" transform="scale(0.015625)"/>
       <path id="DejaVuSans-6f" d="M 1959 3097 
Q 1497 3097 1228 2736 
Q 959 2375 959 1747 
Q 959 1119 1226 758 
Q 1494 397 1959 397 
Q 2419 397 2687 759 
Q 2956 1122 2956 1747 
Q 2956 2369 2687 2733 
Q 2419 3097 1959 3097 
z
M 1959 3584 
Q 2709 3584 3137 3096 
Q 3566 2609 3566 1747 
Q 3566 888 3137 398 
Q 2709 -91 1959 -91 
Q 1206 -91 779 398 
Q 353 888 353 1747 
Q 353 2609 779 3096 
Q 1206 3584 1959 3584 
z
" transform="scale(0.015625)"/>
       <path id="DejaVuSans-6e" d="M 3513 2113 
L 3513 0 
L 2938 0 
L 2938 2094 
Q 2938 2591 2744 2837 
Q 2550 3084 2163 3084 
Q 1697 3084 1428 2787 
Q 1159 2491 1159 1978 
L 1159 0 
L 581 0 
L 581 3500 
L 1159 3500 
L 1159 2956 
Q 1366 3272 1645 3428 
Q 1925 3584 2291 3584 
Q 2894 3584 3203 3211 
Q 3513 2838 3513 2113 
z
" transform="scale(0.015625)"/>
      </defs>
      <use xlink:href="#DejaVuSans-49"/>
      <use xlink:href="#DejaVuSans-74" x="29.492188"/>
      <use xlink:href="#DejaVuSans-65" x="68.701172"/>
      <use xlink:href="#DejaVuSans-72" x="130.224609"/>
      <use xlink:href="#DejaVuSans-61" x="171.337891"/>
      <use xlink:href="#DejaVuSans-74" x="232.617188"/>
      <use xlink:href="#DejaVuSans-69" x="271.826172"/>
      <use xlink:href="#DejaVuSans-6f" x="299.609375"/>
      <use xlink:href="#DejaVuSans-6e" x="360.791016"/>
     </g>
    </g>
   </g>
   <g id="matplotlib.axis_2">
    <g id="ytick_1">
     <g id="line2d_31">
      <path d="M 91.191875 277.714452 
L 453.891875 277.714452 
" clip-path="url(#pdffef1863e)" style="fill: none; stroke: #b0b0b0; stroke-width: 0.8; stroke-linecap: square"/>
     </g>
     <g id="line2d_32">
      <defs>
       <path id="me8e84b1cf2" d="M 0 0 
L -3.5 0 
" style="stroke: #000000; stroke-width: 0.8"/>
      </defs>
      <g>
       <use xlink:href="#me8e84b1cf2" x="91.191875" y="277.714452" style="stroke: #000000; stroke-width: 0.8"/>
      </g>
     </g>
     <g id="text_5">
      <!-- $\mathdefault{10^{-3}}$ -->
      <g transform="translate(32.491875 286.072733)scale(0.22 -0.22)">
       <defs>
        <path id="DejaVuSans-2212" d="M 678 2272 
L 4684 2272 
L 4684 1741 
L 678 1741 
L 678 2272 
z
" transform="scale(0.015625)"/>
        <path id="DejaVuSans-33" d="M 2597 2516 
Q 3050 2419 3304 2112 
Q 3559 1806 3559 1356 
Q 3559 666 3084 287 
Q 2609 -91 1734 -91 
Q 1441 -91 1130 -33 
Q 819 25 488 141 
L 488 750 
Q 750 597 1062 519 
Q 1375 441 1716 441 
Q 2309 441 2620 675 
Q 2931 909 2931 1356 
Q 2931 1769 2642 2001 
Q 2353 2234 1838 2234 
L 1294 2234 
L 1294 2753 
L 1863 2753 
Q 2328 2753 2575 2939 
Q 2822 3125 2822 3475 
Q 2822 3834 2567 4026 
Q 2313 4219 1838 4219 
Q 1578 4219 1281 4162 
Q 984 4106 628 3988 
L 628 4550 
Q 988 4650 1302 4700 
Q 1616 4750 1894 4750 
Q 2613 4750 3031 4423 
Q 3450 4097 3450 3541 
Q 3450 3153 3228 2886 
Q 3006 2619 2597 2516 
z
" transform="scale(0.015625)"/>
       </defs>
       <use xlink:href="#DejaVuSans-31" transform="translate(0 0.765625)"/>
       <use xlink:href="#DejaVuSans-30" transform="translate(63.623047 0.765625)"/>
       <use xlink:href="#DejaVuSans-2212" transform="translate(128.203125 39.046875)scale(0.7)"/>
       <use xlink:href="#DejaVuSans-33" transform="translate(186.855469 39.046875)scale(0.7)"/>
      </g>
     </g>
    </g>
    <g id="ytick_2">
     <g id="line2d_33">
      <path d="M 91.191875 201.469906 
L 453.891875 201.469906 
" clip-path="url(#pdffef1863e)" style="fill: none; stroke: #b0b0b0; stroke-width: 0.8; stroke-linecap: square"/>
     </g>
     <g id="line2d_34">
      <g>
       <use xlink:href="#me8e84b1cf2" x="91.191875" y="201.469906" style="stroke: #000000; stroke-width: 0.8"/>
      </g>
     </g>
     <g id="text_6">
      <!-- $\mathdefault{10^{-2}}$ -->
      <g transform="translate(32.491875 209.828187)scale(0.22 -0.22)">
       <defs>
        <path id="DejaVuSans-32" d="M 1228 531 
L 3431 531 
L 3431 0 
L 469 0 
L 469 531 
Q 828 903 1448 1529 
Q 2069 2156 2228 2338 
Q 2531 2678 2651 2914 
Q 2772 3150 2772 3378 
Q 2772 3750 2511 3984 
Q 2250 4219 1831 4219 
Q 1534 4219 1204 4116 
Q 875 4013 500 3803 
L 500 4441 
Q 881 4594 1212 4672 
Q 1544 4750 1819 4750 
Q 2544 4750 2975 4387 
Q 3406 4025 3406 3419 
Q 3406 3131 3298 2873 
Q 3191 2616 2906 2266 
Q 2828 2175 2409 1742 
Q 1991 1309 1228 531 
z
" transform="scale(0.015625)"/>
       </defs>
       <use xlink:href="#DejaVuSans-31" transform="translate(0 0.765625)"/>
       <use xlink:href="#DejaVuSans-30" transform="translate(63.623047 0.765625)"/>
       <use xlink:href="#DejaVuSans-2212" transform="translate(128.203125 39.046875)scale(0.7)"/>
       <use xlink:href="#DejaVuSans-32" transform="translate(186.855469 39.046875)scale(0.7)"/>
      </g>
     </g>
    </g>
    <g id="ytick_3">
     <g id="line2d_35">
      <path d="M 91.191875 125.22536 
L 453.891875 125.22536 
" clip-path="url(#pdffef1863e)" style="fill: none; stroke: #b0b0b0; stroke-width: 0.8; stroke-linecap: square"/>
     </g>
     <g id="line2d_36">
      <g>
       <use xlink:href="#me8e84b1cf2" x="91.191875" y="125.22536" style="stroke: #000000; stroke-width: 0.8"/>
      </g>
     </g>
     <g id="text_7">
      <!-- $\mathdefault{10^{-1}}$ -->
      <g transform="translate(32.491875 133.583641)scale(0.22 -0.22)">
       <use xlink:href="#DejaVuSans-31" transform="translate(0 0.684375)"/>
       <use xlink:href="#DejaVuSans-30" transform="translate(63.623047 0.684375)"/>
       <use xlink:href="#DejaVuSans-2212" transform="translate(128.203125 38.965625)scale(0.7)"/>
       <use xlink:href="#DejaVuSans-31" transform="translate(186.855469 38.965625)scale(0.7)"/>
      </g>
     </g>
    </g>
    <g id="ytick_4">
     <g id="line2d_37">
      <path d="M 91.191875 48.980814 
L 453.891875 48.980814 
" clip-path="url(#pdffef1863e)" style="fill: none; stroke: #b0b0b0; stroke-width: 0.8; stroke-linecap: square"/>
     </g>
     <g id="line2d_38">
      <g>
       <use xlink:href="#me8e84b1cf2" x="91.191875" y="48.980814" style="stroke: #000000; stroke-width: 0.8"/>
      </g>
     </g>
     <g id="text_8">
      <!-- $\mathdefault{10^{0}}$ -->
      <g transform="translate(45.471875 57.339096)scale(0.22 -0.22)">
       <use xlink:href="#DejaVuSans-31" transform="translate(0 0.765625)"/>
       <use xlink:href="#DejaVuSans-30" transform="translate(63.623047 0.765625)"/>
       <use xlink:href="#DejaVuSans-30" transform="translate(128.203125 39.046875)scale(0.7)"/>
      </g>
     </g>
    </g>
    <g id="ytick_5">
     <g id="line2d_39">
      <defs>
       <path id="m87c1ed1bf2" d="M 0 0 
L -2 0 
" style="stroke: #000000; stroke-width: 0.6"/>
      </defs>
      <g>
       <use xlink:href="#m87c1ed1bf2" x="91.191875" y="254.762557" style="stroke: #000000; stroke-width: 0.6"/>
      </g>
     </g>
    </g>
    <g id="ytick_6">
     <g id="line2d_40">
      <g>
       <use xlink:href="#m87c1ed1bf2" x="91.191875" y="241.336559" style="stroke: #000000; stroke-width: 0.6"/>
      </g>
     </g>
    </g>
    <g id="ytick_7">
     <g id="line2d_41">
      <g>
       <use xlink:href="#m87c1ed1bf2" x="91.191875" y="231.810661" style="stroke: #000000; stroke-width: 0.6"/>
      </g>
     </g>
    </g>
    <g id="ytick_8">
     <g id="line2d_42">
      <g>
       <use xlink:href="#m87c1ed1bf2" x="91.191875" y="224.421801" style="stroke: #000000; stroke-width: 0.6"/>
      </g>
     </g>
    </g>
    <g id="ytick_9">
     <g id="line2d_43">
      <g>
       <use xlink:href="#m87c1ed1bf2" x="91.191875" y="218.384663" style="stroke: #000000; stroke-width: 0.6"/>
      </g>
     </g>
    </g>
    <g id="ytick_10">
     <g id="line2d_44">
      <g>
       <use xlink:href="#m87c1ed1bf2" x="91.191875" y="213.280336" style="stroke: #000000; stroke-width: 0.6"/>
      </g>
     </g>
    </g>
    <g id="ytick_11">
     <g id="line2d_45">
      <g>
       <use xlink:href="#m87c1ed1bf2" x="91.191875" y="208.858766" style="stroke: #000000; stroke-width: 0.6"/>
      </g>
     </g>
    </g>
    <g id="ytick_12">
     <g id="line2d_46">
      <g>
       <use xlink:href="#m87c1ed1bf2" x="91.191875" y="204.958665" style="stroke: #000000; stroke-width: 0.6"/>
      </g>
     </g>
    </g>
    <g id="ytick_13">
     <g id="line2d_47">
      <g>
       <use xlink:href="#m87c1ed1bf2" x="91.191875" y="178.518011" style="stroke: #000000; stroke-width: 0.6"/>
      </g>
     </g>
    </g>
    <g id="ytick_14">
     <g id="line2d_48">
      <g>
       <use xlink:href="#m87c1ed1bf2" x="91.191875" y="165.092013" style="stroke: #000000; stroke-width: 0.6"/>
      </g>
     </g>
    </g>
    <g id="ytick_15">
     <g id="line2d_49">
      <g>
       <use xlink:href="#m87c1ed1bf2" x="91.191875" y="155.566115" style="stroke: #000000; stroke-width: 0.6"/>
      </g>
     </g>
    </g>
    <g id="ytick_16">
     <g id="line2d_50">
      <g>
       <use xlink:href="#m87c1ed1bf2" x="91.191875" y="148.177256" style="stroke: #000000; stroke-width: 0.6"/>
      </g>
     </g>
    </g>
    <g id="ytick_17">
     <g id="line2d_51">
      <g>
       <use xlink:href="#m87c1ed1bf2" x="91.191875" y="142.140117" style="stroke: #000000; stroke-width: 0.6"/>
      </g>
     </g>
    </g>
    <g id="ytick_18">
     <g id="line2d_52">
      <g>
       <use xlink:href="#m87c1ed1bf2" x="91.191875" y="137.03579" style="stroke: #000000; stroke-width: 0.6"/>
      </g>
     </g>
    </g>
    <g id="ytick_19">
     <g id="line2d_53">
      <g>
       <use xlink:href="#m87c1ed1bf2" x="91.191875" y="132.61422" style="stroke: #000000; stroke-width: 0.6"/>
      </g>
     </g>
    </g>
    <g id="ytick_20">
     <g id="line2d_54">
      <g>
       <use xlink:href="#m87c1ed1bf2" x="91.191875" y="128.714119" style="stroke: #000000; stroke-width: 0.6"/>
      </g>
     </g>
    </g>
    <g id="ytick_21">
     <g id="line2d_55">
      <g>
       <use xlink:href="#m87c1ed1bf2" x="91.191875" y="102.273465" style="stroke: #000000; stroke-width: 0.6"/>
      </g>
     </g>
    </g>
    <g id="ytick_22">
     <g id="line2d_56">
      <g>
       <use xlink:href="#m87c1ed1bf2" x="91.191875" y="88.847467" style="stroke: #000000; stroke-width: 0.6"/>
      </g>
     </g>
    </g>
    <g id="ytick_23">
     <g id="line2d_57">
      <g>
       <use xlink:href="#m87c1ed1bf2" x="91.191875" y="79.32157" style="stroke: #000000; stroke-width: 0.6"/>
      </g>
     </g>
    </g>
    <g id="ytick_24">
     <g id="line2d_58">
      <g>
       <use xlink:href="#m87c1ed1bf2" x="91.191875" y="71.93271" style="stroke: #000000; stroke-width: 0.6"/>
      </g>
     </g>
    </g>
    <g id="ytick_25">
     <g id="line2d_59">
      <g>
       <use xlink:href="#m87c1ed1bf2" x="91.191875" y="65.895572" style="stroke: #000000; stroke-width: 0.6"/>
      </g>
     </g>
    </g>
    <g id="ytick_26">
     <g id="line2d_60">
      <g>
       <use xlink:href="#m87c1ed1bf2" x="91.191875" y="60.791244" style="stroke: #000000; stroke-width: 0.6"/>
      </g>
     </g>
    </g>
    <g id="ytick_27">
     <g id="line2d_61">
      <g>
       <use xlink:href="#m87c1ed1bf2" x="91.191875" y="56.369674" style="stroke: #000000; stroke-width: 0.6"/>
      </g>
     </g>
    </g>
    <g id="ytick_28">
     <g id="line2d_62">
      <g>
       <use xlink:href="#m87c1ed1bf2" x="91.191875" y="52.469573" style="stroke: #000000; stroke-width: 0.6"/>
      </g>
     </g>
    </g>
    <g id="ytick_29">
     <g id="line2d_63">
      <g>
       <use xlink:href="#m87c1ed1bf2" x="91.191875" y="26.028919" style="stroke: #000000; stroke-width: 0.6"/>
      </g>
     </g>
    </g>
    <g id="ytick_30">
     <g id="line2d_64">
      <g>
       <use xlink:href="#m87c1ed1bf2" x="91.191875" y="12.602921" style="stroke: #000000; stroke-width: 0.6"/>
      </g>
     </g>
    </g>
    <g id="text_9">
     <!-- Consensus Error -->
     <g transform="translate(23.916563 232.688125)rotate(-90)scale(0.22 -0.22)">
      <defs>
       <path id="DejaVuSans-43" d="M 4122 4306 
L 4122 3641 
Q 3803 3938 3442 4084 
Q 3081 4231 2675 4231 
Q 1875 4231 1450 3742 
Q 1025 3253 1025 2328 
Q 1025 1406 1450 917 
Q 1875 428 2675 428 
Q 3081 428 3442 575 
Q 3803 722 4122 1019 
L 4122 359 
Q 3791 134 3420 21 
Q 3050 -91 2638 -91 
Q 1578 -91 968 557 
Q 359 1206 359 2328 
Q 359 3453 968 4101 
Q 1578 4750 2638 4750 
Q 3056 4750 3426 4639 
Q 3797 4528 4122 4306 
z
" transform="scale(0.015625)"/>
       <path id="DejaVuSans-73" d="M 2834 3397 
L 2834 2853 
Q 2591 2978 2328 3040 
Q 2066 3103 1784 3103 
Q 1356 3103 1142 2972 
Q 928 2841 928 2578 
Q 928 2378 1081 2264 
Q 1234 2150 1697 2047 
L 1894 2003 
Q 2506 1872 2764 1633 
Q 3022 1394 3022 966 
Q 3022 478 2636 193 
Q 2250 -91 1575 -91 
Q 1294 -91 989 -36 
Q 684 19 347 128 
L 347 722 
Q 666 556 975 473 
Q 1284 391 1588 391 
Q 1994 391 2212 530 
Q 2431 669 2431 922 
Q 2431 1156 2273 1281 
Q 2116 1406 1581 1522 
L 1381 1569 
Q 847 1681 609 1914 
Q 372 2147 372 2553 
Q 372 3047 722 3315 
Q 1072 3584 1716 3584 
Q 2034 3584 2315 3537 
Q 2597 3491 2834 3397 
z
" transform="scale(0.015625)"/>
       <path id="DejaVuSans-75" d="M 544 1381 
L 544 3500 
L 1119 3500 
L 1119 1403 
Q 1119 906 1312 657 
Q 1506 409 1894 409 
Q 2359 409 2629 706 
Q 2900 1003 2900 1516 
L 2900 3500 
L 3475 3500 
L 3475 0 
L 2900 0 
L 2900 538 
Q 2691 219 2414 64 
Q 2138 -91 1772 -91 
Q 1169 -91 856 284 
Q 544 659 544 1381 
z
M 1991 3584 
L 1991 3584 
z
" transform="scale(0.015625)"/>
       <path id="DejaVuSans-20" transform="scale(0.015625)"/>
       <path id="DejaVuSans-45" d="M 628 4666 
L 3578 4666 
L 3578 4134 
L 1259 4134 
L 1259 2753 
L 3481 2753 
L 3481 2222 
L 1259 2222 
L 1259 531 
L 3634 531 
L 3634 0 
L 628 0 
L 628 4666 
z
" transform="scale(0.015625)"/>
      </defs>
      <use xlink:href="#DejaVuSans-43"/>
      <use xlink:href="#DejaVuSans-6f" x="69.824219"/>
      <use xlink:href="#DejaVuSans-6e" x="131.005859"/>
      <use xlink:href="#DejaVuSans-73" x="194.384766"/>
      <use xlink:href="#DejaVuSans-65" x="246.484375"/>
      <use xlink:href="#DejaVuSans-6e" x="308.007812"/>
      <use xlink:href="#DejaVuSans-73" x="371.386719"/>
      <use xlink:href="#DejaVuSans-75" x="423.486328"/>
      <use xlink:href="#DejaVuSans-73" x="486.865234"/>
      <use xlink:href="#DejaVuSans-20" x="538.964844"/>
      <use xlink:href="#DejaVuSans-45" x="570.751953"/>
      <use xlink:href="#DejaVuSans-72" x="633.935547"/>
      <use xlink:href="#DejaVuSans-72" x="673.298828"/>
      <use xlink:href="#DejaVuSans-6f" x="712.162109"/>
      <use xlink:href="#DejaVuSans-72" x="773.34375"/>
     </g>
    </g>
   </g>
   <g id="line2d_65">
    <path d="M 107.678239 75.783045 
L 144.454416 57.043634 
L 165.967101 46.323878 
L 181.230593 39.248348 
L 193.069878 34.377386 
L 202.743278 30.679993 
L 210.922021 27.87319 
L 218.006771 25.725908 
L 224.255963 24.038921 
L 229.846055 22.688787 
L 239.519455 20.79708 
L 247.698198 19.825086 
L 254.782948 19.554545 
L 257.999497 19.56287 
L 261.03214 19.771271 
L 271.679087 20.065855 
L 280.542443 21.251671 
L 288.134917 22.913013 
L 289.874641 23.250077 
L 291.559125 23.857349 
L 296.31366 25.029237 
L 297.808317 25.56248 
L 299.262019 25.758952 
L 302.055128 26.77835 
L 303.39841 27.400989 
L 305.98706 28.146926 
L 310.813733 29.767562 
L 311.954783 30.083549 
L 313.07181 30.565737 
L 315.237695 31.203643 
L 317.318621 32.038852 
L 322.189636 34.052977 
L 324.911095 35.219786 
L 325.788087 35.493059 
L 327.499745 36.192288 
L 329.967949 36.972965 
L 330.76581 37.390089 
L 332.326417 38.432876 
L 333.089838 38.660129 
L 335.316324 39.749606 
L 336.750379 40.290694 
L 338.146692 41.023359 
L 340.174587 41.530301 
L 344.011691 42.928041 
L 345.231441 43.305376 
L 345.83096 43.721636 
L 347.010048 43.883557 
L 347.58991 44.312536 
L 348.730961 44.88566 
L 349.292414 44.913053 
L 349.847987 45.319037 
L 352.541805 46.443839 
L 354.602522 47.731206 
L 357.070726 48.534379 
L 359.429195 50.013745 
L 360.34399 50.377818 
L 361.687272 51.045401 
L 362.564264 51.719817 
L 362.997383 52.009762 
L 363.426995 52.113343 
L 364.275922 52.695183 
L 365.11148 53.145877 
L 365.524375 53.570227 
L 366.744126 53.960843 
L 367.541988 54.528988 
L 367.936464 54.586533 
L 368.328029 54.818619 
L 368.716725 55.310383 
L 369.485678 55.689358 
L 370.618607 56.429957 
L 370.990937 56.784136 
L 371.727849 56.964287 
L 372.092502 57.380378 
L 372.454665 57.433616 
L 375.946505 59.627678 
L 377.281338 60.700187 
L 377.609864 60.79129 
L 378.583411 61.669551 
L 378.903997 61.744386 
L 379.222657 62.062757 
L 380.787868 62.671045 
L 381.095445 62.693903 
L 381.401248 62.869576 
L 381.7053 62.883437 
L 382.007619 63.021386 
L 382.308225 63.440158 
L 383.199957 63.897405 
L 383.493901 63.814255 
L 383.786226 63.966874 
L 384.076949 64.262408 
L 384.653659 64.327634 
L 385.507138 64.756414 
L 386.068591 65.319595 
L 386.624165 65.653927 
L 387.718158 66.2021 
L 387.988168 66.357753 
L 388.256811 66.332988 
L 388.790049 66.936175 
L 389.054672 67.093238 
L 389.317982 67.492192 
L 390.100161 67.821719 
L 390.358345 67.770515 
L 391.125445 68.666383 
L 392.627153 69.96343 
L 393.362363 71.086258 
L 393.846903 71.139545 
L 394.327059 71.730036 
L 394.565517 71.997921 
L 395.274527 72.314225 
L 395.741991 72.890142 
L 396.435554 73.061259 
L 396.892943 73.432126 
L 398.019457 74.447592 
L 398.241917 74.33303 
L 398.68406 74.807896 
L 399.340441 75.509751 
L 399.557443 75.508847 
L 400.416681 76.402863 
L 400.841138 76.447577 
L 401.679998 76.892739 
L 402.300553 77.739395 
L 402.913933 78.309072 
L 403.920734 79.293907 
L 404.712641 79.88415 
L 405.104206 80.245799 
L 405.686188 80.686308 
L 406.070659 81.250726 
L 406.452365 81.537202 
L 406.642192 81.882336 
L 407.207634 82.223314 
L 408.136849 83.267221 
L 408.320755 83.242773 
L 408.686666 83.652397 
L 409.05007 83.709165 
L 409.230843 84.050232 
L 409.590551 84.20251 
L 409.947838 84.656964 
L 410.830667 85.284174 
L 411.353398 85.476029 
L 411.699046 85.796293 
L 412.042457 86.207403 
L 412.38366 86.215997 
L 412.553442 86.619634 
L 413.059552 86.759274 
L 413.394296 87.296312 
L 413.892486 87.651684 
L 414.549545 88.531905 
L 414.712546 88.551108 
L 415.998834 89.981451 
L 416.315592 90.048296 
L 416.63047 90.40006 
L 417.099311 90.851408 
L 417.254675 91.241662 
L 418.177426 91.722904 
L 418.632852 92.231224 
L 418.783796 92.15132 
L 419.234069 92.587152 
L 420.416442 94.003738 
L 420.562403 93.98378 
L 420.997892 94.402119 
L 421.286245 94.833471 
L 422.000345 95.21544 
L 422.283315 95.475055 
L 422.424236 95.42036 
L 422.984208 96.42558 
L 423.123282 96.39044 
L 423.261993 96.489287 
L 423.400342 96.364976 
L 424.086727 97.276313 
L 424.494335 97.378877 
L 424.629512 97.80608 
L 424.764345 97.736539 
L 425.698703 98.777017 
L 426.48669 99.386023 
L 427.134522 99.813699 
L 427.391457 99.998856 
L 427.519459 99.873616 
L 427.901622 100.461783 
L 428.028401 100.3039 
L 428.406929 100.607502 
L 428.657789 101.11221 
L 428.782776 100.959816 
L 429.155979 101.441306 
L 429.40333 101.706623 
L 429.649534 102.091927 
L 429.772209 102.132431 
L 430.381364 102.878235 
L 430.50236 103.308007 
L 430.623081 103.217211 
L 432.050704 104.725147 
L 432.284951 105.13199 
L 432.750365 105.522321 
L 432.866083 105.469891 
L 432.981549 105.660054 
L 433.211731 105.611995 
L 433.326449 105.731286 
L 433.555142 106.061211 
L 434.347895 106.627166 
L 434.572237 106.91159 
L 434.684053 106.867366 
L 435.789443 107.775963 
L 435.898726 107.60697 
L 436.007784 107.684022 
L 436.33362 108.190476 
L 436.441789 108.189143 
L 436.97935 109.061891 
L 437.086212 109.228379 
L 437.299291 109.003735 
L 437.405511 109.102967 
L 437.405511 109.102967 
" clip-path="url(#pdffef1863e)" style="fill: none; stroke: #1f77b4; stroke-width: 3; stroke-linecap: square"/>
   </g>
   <g id="line2d_66">
    <path d="M 107.678239 90.033322 
L 144.454416 81.382259 
L 165.967101 78.810372 
L 181.230593 77.780128 
L 193.069878 77.330381 
L 202.743278 77.611469 
L 210.922021 78.012517 
L 218.006771 78.224029 
L 239.519455 80.193288 
L 243.766266 80.47334 
L 251.35874 82.317321 
L 254.782948 82.508489 
L 257.999497 83.228717 
L 261.03214 83.634743 
L 263.900774 84.570299 
L 266.622233 84.792473 
L 269.210883 85.794553 
L 271.679087 86.09433 
L 274.037555 86.638568 
L 276.295633 87.481869 
L 278.461517 87.766967 
L 280.542443 88.839809 
L 282.544825 89.036022 
L 284.474376 89.717035 
L 286.336209 90.537484 
L 288.134917 90.88545 
L 293.191771 92.274426 
L 294.775674 93.040896 
L 296.31366 93.36253 
L 297.808317 93.519586 
L 299.262019 94.502069 
L 300.676951 94.865391 
L 302.055128 95.759095 
L 303.39841 96.212903 
L 304.708521 96.135491 
L 307.235513 97.322554 
L 308.455264 98.036161 
L 311.954783 99.268554 
L 313.07181 99.425692 
L 314.165804 100.04124 
L 315.237695 100.138522 
L 316.288359 100.69332 
L 317.318621 101.549718 
L 319.321002 102.645894 
L 320.294549 102.705486 
L 323.112386 103.794617 
L 324.019363 104.500241 
L 324.911095 104.536868 
L 327.499745 106.105049 
L 329.157905 106.750897 
L 329.967949 107.170413 
L 330.76581 107.886237 
L 331.551852 107.925847 
L 332.326417 108.230898 
L 333.089838 109.183117 
L 333.842429 109.075449 
L 334.584495 109.798743 
L 335.316324 109.716961 
L 336.038197 110.56137 
L 336.750379 110.63079 
L 338.146692 112.101157 
L 338.831305 111.937975 
L 340.833687 113.076872 
L 341.484699 113.165624 
L 342.127819 113.428191 
L 344.625071 115.201418 
L 345.231441 115.298458 
L 347.010048 116.641776 
L 347.58991 116.6859 
L 348.163503 116.865651 
L 349.292414 118.239794 
L 349.847987 118.043502 
L 350.397804 118.556966 
L 352.013872 119.559354 
L 352.541805 120.20908 
L 353.582168 120.234014 
L 354.094798 120.810602 
L 354.602522 120.872703 
L 355.105434 121.400439 
L 355.603624 121.641287 
L 356.097179 122.381155 
L 356.586186 121.892636 
L 357.070726 122.614556 
L 357.550881 122.708494 
L 358.02673 123.416682 
L 358.49835 123.118424 
L 358.965813 123.841927 
L 359.888564 124.10587 
L 360.34399 124.699653 
L 361.243279 125.329048 
L 361.687272 125.351383 
L 362.12758 125.822694 
L 362.564264 125.797232 
L 362.997383 126.586497 
L 363.426995 126.479857 
L 363.853157 126.842822 
L 364.275922 127.021059 
L 364.695346 127.796623 
L 365.11148 127.709749 
L 367.144557 129.27407 
L 367.541988 129.621221 
L 368.328029 129.7667 
L 368.716725 129.984962 
L 369.102595 130.370736 
L 369.485678 130.569993 
L 369.866015 130.957134 
L 370.243645 130.903015 
L 370.618607 131.358919 
L 370.990937 131.339121 
L 371.360672 131.808671 
L 371.727849 131.884401 
L 372.092502 132.253864 
L 372.454665 132.180874 
L 372.814374 132.886562 
L 374.577221 134.25273 
L 374.922869 134.339307 
L 375.26628 134.233317 
L 375.946505 134.93116 
L 376.283375 135.400011 
L 376.618119 135.668404 
L 376.950765 135.329982 
L 377.936368 136.598663 
L 378.260876 136.801368 
L 378.583411 136.676429 
L 379.222657 137.214893 
L 379.539415 137.713185 
L 379.854293 137.503291 
L 380.167314 138.020538 
L 380.478498 138.047831 
L 380.787868 138.405654 
L 381.095445 138.208981 
L 381.401248 138.911497 
L 381.7053 138.758478 
L 382.007619 139.050148 
L 382.308225 139.178889 
L 382.607137 139.449619 
L 382.904375 139.46518 
L 383.199957 139.625418 
L 383.493901 139.646958 
L 383.786226 140.189481 
L 384.076949 140.230346 
L 384.653659 140.800102 
L 385.224168 141.140362 
L 385.507138 141.448505 
L 385.788607 141.207474 
L 386.068591 141.455152 
L 386.624165 142.30475 
L 386.899785 142.378803 
L 387.173981 142.11248 
L 387.446767 142.258453 
L 387.718158 142.971951 
L 387.988168 142.983129 
L 388.256811 143.210338 
L 388.5241 142.899077 
L 388.790049 143.41888 
L 389.054672 143.645751 
L 389.317982 144.020572 
L 389.579992 144.023794 
L 390.100161 144.645391 
L 390.358345 144.485293 
L 390.615279 144.586576 
L 391.125445 145.456829 
L 391.3787 145.201652 
L 391.881612 145.408778 
L 393.118423 146.488206 
L 393.605186 146.565295 
L 393.846903 146.515354 
L 394.087524 146.931766 
L 394.327059 146.920734 
L 394.802908 147.638 
L 395.039241 147.473204 
L 396.205372 148.452225 
L 396.435554 148.619828 
L 396.664741 149.010955 
L 396.892943 148.964686 
L 397.346423 149.553518 
L 397.571717 149.629205 
L 398.019457 150.302424 
L 398.241917 149.984546 
L 398.68406 150.177344 
L 399.340441 151.300948 
L 399.773561 151.433569 
L 399.988801 151.779658 
L 400.203173 151.712545 
L 400.416681 152.192786 
L 400.629334 152.144557 
L 400.841138 152.580932 
L 401.0521 152.356688 
L 401.262226 152.371016 
L 401.887657 153.220122 
L 402.094507 153.192275 
L 402.300553 153.839715 
L 402.505802 154.001664 
L 402.71026 153.996811 
L 402.913933 154.295886 
L 403.116827 154.223663 
L 403.318949 154.285752 
L 403.520303 154.642611 
L 404.318165 155.054767 
L 404.51577 155.700093 
L 404.712641 155.635959 
L 404.908785 155.704506 
L 405.29891 156.585964 
L 405.492903 156.219056 
L 405.686188 156.230013 
L 405.878772 156.59508 
L 406.070659 157.469889 
L 406.261855 156.753464 
L 406.452365 156.943139 
L 406.642192 157.738068 
L 406.831343 157.637901 
L 407.019823 157.749078 
L 407.394784 158.191269 
L 407.581275 158.342518 
L 407.767114 158.844102 
L 407.952304 158.494727 
L 408.504026 159.184315 
L 408.686666 159.029013 
L 408.868679 159.276464 
L 409.05007 159.728212 
L 409.230843 159.287239 
L 409.411002 159.917778 
L 409.590551 160.10161 
L 409.769495 159.917251 
L 409.947838 160.785079 
L 410.125583 160.741253 
L 410.302734 160.996071 
L 410.479296 160.969431 
L 411.699046 162.150256 
L 411.87103 162.108172 
L 412.042457 162.195754 
L 412.213333 162.773935 
L 412.38366 162.642769 
L 412.553442 162.910323 
L 412.722682 162.736508 
L 413.059552 163.357942 
L 413.227188 163.267886 
L 413.394296 163.721495 
L 413.726942 163.659328 
L 413.892486 164.520516 
L 414.222032 164.005852 
L 414.386041 164.892447 
L 414.549545 164.731999 
L 415.037053 165.616301 
L 415.198566 165.262842 
L 415.359588 166.373414 
L 415.520123 166.071611 
L 415.680174 166.694694 
L 415.998834 166.264444 
L 416.315592 167.024814 
L 416.473265 166.785026 
L 416.63047 167.263612 
L 416.943491 167.323555 
L 417.099311 167.967152 
L 417.254675 167.536725 
L 417.564045 167.956424 
L 418.024744 168.715842 
L 418.177426 168.238939 
L 418.329669 168.68184 
L 418.481477 168.683455 
L 418.934312 170.022244 
L 419.084402 169.588576 
L 419.383314 169.966464 
L 419.532141 169.740054 
L 419.828549 170.753337 
L 420.12331 171.104378 
L 420.270078 170.961771 
L 420.416442 171.160616 
L 420.562403 171.593473 
L 420.707964 171.57952 
L 420.853126 171.448821 
L 420.997892 171.540165 
L 421.286245 172.502268 
L 421.429836 172.053849 
L 421.573039 172.643879 
L 421.715857 172.328051 
L 421.858292 172.668893 
L 422.000345 172.660024 
L 422.283315 173.121092 
L 423.261993 174.565574 
L 423.538331 174.162153 
L 423.813237 175.010527 
L 423.950158 174.9682 
L 424.222945 175.427099 
L 424.358814 175.310839 
L 424.494335 175.59229 
L 424.629512 175.484219 
L 424.764345 175.543042 
L 425.032988 176.105092 
L 425.166801 176.320175 
L 425.300277 175.920406 
L 425.566227 176.917666 
L 425.698703 176.495591 
L 425.962668 177.097274 
L 426.225326 177.871752 
L 426.356169 177.653199 
L 426.48669 178.011877 
L 426.616891 177.937498 
L 426.876338 178.398767 
L 427.005587 178.294672 
L 427.263145 178.571609 
L 427.519459 178.621374 
L 427.901622 179.554486 
L 428.028401 179.273217 
L 428.406929 180.044345 
L 428.532507 179.823464 
L 428.657789 180.006457 
L 428.782776 180.426272 
L 429.031869 180.254519 
L 429.279799 180.834041 
L 429.40333 180.674579 
L 429.526575 181.085852 
L 429.649534 180.830377 
L 429.772209 181.665295 
L 430.13854 181.734497 
L 430.260091 181.658886 
L 430.50236 182.067768 
L 430.623081 182.017748 
L 431.103236 183.268146 
L 431.222599 183.013266 
L 431.460522 183.306515 
L 431.579085 183.239881 
L 431.815419 184.117607 
L 431.933192 183.96222 
L 432.050704 184.264078 
L 432.401688 184.231227 
L 432.518168 184.620706 
L 432.634393 184.388565 
L 432.981549 185.377479 
L 433.096765 185.040474 
L 433.211731 185.463605 
L 433.326449 185.075533 
L 433.440918 185.264397 
L 433.555142 185.876719 
L 433.782854 185.765238 
L 434.009593 186.407963 
L 434.235367 186.035573 
L 434.347895 186.269804 
L 434.460184 186.909531 
L 434.572237 186.67014 
L 435.018095 187.574976 
L 435.128976 187.155621 
L 435.350047 187.847308 
L 435.460237 187.713215 
L 435.679935 187.593234 
L 435.789443 188.271113 
L 435.898726 187.921947 
L 436.007784 188.509919 
L 436.116619 188.066354 
L 436.22523 188.822325 
L 436.33362 188.768858 
L 436.549738 188.958935 
L 436.764979 188.983994 
L 436.872273 188.879895 
L 437.086212 189.357175 
L 437.405511 189.809176 
L 437.405511 189.809176 
" clip-path="url(#pdffef1863e)" style="fill: none; stroke: #ff7f0e; stroke-width: 3; stroke-linecap: square"/>
   </g>
   <g id="line2d_67">
    <path d="M 107.678239 124.111287 
L 144.454416 122.327376 
L 165.967101 121.523239 
L 181.230593 121.178257 
L 202.743278 121.830251 
L 210.922021 122.633636 
L 224.255963 123.749338 
L 239.519455 126.128088 
L 243.766266 126.594952 
L 247.698198 127.33249 
L 251.35874 127.801548 
L 257.999497 128.946033 
L 261.03214 129.224256 
L 263.900774 129.892915 
L 266.622233 130.397649 
L 271.679087 131.805297 
L 274.037555 132.185571 
L 276.295633 132.996894 
L 278.461517 133.611375 
L 282.544825 134.428388 
L 284.474376 135.134444 
L 286.336209 135.987671 
L 288.134917 136.051873 
L 289.874641 136.967381 
L 291.559125 137.59214 
L 293.191771 137.73691 
L 294.775674 138.562421 
L 296.31366 139.021111 
L 297.808317 140.093779 
L 299.262019 140.07309 
L 300.676951 140.467874 
L 302.055128 141.20127 
L 304.708521 142.19943 
L 305.98706 142.858642 
L 307.235513 143.354139 
L 308.455264 143.535246 
L 309.647602 144.50647 
L 311.954783 145.156728 
L 314.165804 146.600686 
L 316.288359 147.305261 
L 317.318621 147.965655 
L 319.321002 148.75758 
L 320.294549 149.441903 
L 321.250553 149.807916 
L 322.189636 150.368481 
L 323.112386 150.627232 
L 324.019363 151.155884 
L 324.911095 152.01897 
L 325.788087 152.634995 
L 326.650818 152.760496 
L 328.335303 153.176442 
L 329.157905 154.132666 
L 329.967949 154.428526 
L 330.76581 154.415168 
L 331.551852 155.243409 
L 332.326417 155.409538 
L 333.089838 156.035174 
L 333.842429 157.004345 
L 335.316324 157.189691 
L 336.750379 158.507835 
L 337.453129 158.478011 
L 338.146692 158.894054 
L 339.507197 159.949439 
L 340.833687 160.585651 
L 341.484699 161.028904 
L 342.127819 161.140124 
L 342.763238 161.959694 
L 344.011691 162.789596 
L 344.625071 162.841356 
L 345.231441 163.510138 
L 345.83096 163.836546 
L 346.423779 164.019562 
L 347.010048 164.75627 
L 348.163503 165.426587 
L 348.730961 165.442967 
L 349.847987 166.525865 
L 350.397804 166.369812 
L 350.941981 167.087513 
L 352.013872 167.959473 
L 352.541805 168.079334 
L 353.064536 168.69874 
L 353.582168 169.036856 
L 354.094798 169.095429 
L 354.602522 169.428079 
L 355.105434 169.55006 
L 356.097179 170.823899 
L 356.586186 170.463965 
L 357.070726 170.894886 
L 357.550881 171.589138 
L 358.02673 171.332441 
L 358.49835 171.993376 
L 358.965813 171.893035 
L 359.429195 172.40713 
L 359.888564 172.441399 
L 360.79554 173.344171 
L 361.243279 174.073141 
L 361.687272 173.850845 
L 362.997383 174.474403 
L 363.426995 175.060309 
L 363.853157 174.991773 
L 364.275922 175.061454 
L 364.695346 175.833397 
L 365.11148 175.805182 
L 365.524375 176.42859 
L 365.934083 176.295121 
L 366.34065 176.434178 
L 366.744126 176.809561 
L 367.144557 176.992151 
L 367.541988 177.541541 
L 367.936464 177.602404 
L 368.328029 177.904009 
L 368.716725 177.68088 
L 369.485678 178.122416 
L 369.866015 178.72429 
L 370.243645 178.570883 
L 370.618607 179.134084 
L 370.990937 179.159253 
L 371.360672 179.463507 
L 371.727849 179.559747 
L 372.092502 180.314902 
L 372.454665 180.20583 
L 372.814374 180.687375 
L 373.17166 180.448638 
L 373.526557 180.689966 
L 373.879095 181.092235 
L 374.577221 181.209764 
L 374.922869 181.832176 
L 375.26628 182.12726 
L 375.607483 182.228735 
L 375.946505 182.206052 
L 376.283375 182.52019 
L 376.618119 182.547081 
L 376.950765 183.022504 
L 377.281338 183.121714 
L 377.609864 183.371245 
L 377.936368 183.324495 
L 378.260876 184.060972 
L 378.903997 183.962023 
L 379.222657 184.469769 
L 379.539415 184.174884 
L 379.854293 184.876655 
L 380.167314 184.767666 
L 380.478498 185.191117 
L 380.787868 185.175035 
L 381.401248 185.373617 
L 382.007619 186.027857 
L 382.308225 186.172087 
L 383.493901 187.224131 
L 383.786226 187.152821 
L 384.076949 187.303227 
L 384.366087 187.796748 
L 384.653659 187.764498 
L 386.068591 188.478406 
L 386.347105 188.787404 
L 386.624165 188.9088 
L 386.899785 189.20249 
L 387.173981 189.291065 
L 387.446767 189.706107 
L 387.718158 189.835386 
L 387.988168 189.815418 
L 388.256811 190.215185 
L 388.5241 190.184929 
L 389.840714 191.1194 
L 390.100161 191.088473 
L 390.358345 191.515248 
L 390.615279 191.461214 
L 391.125445 192.295934 
L 391.3787 192.09717 
L 391.630752 192.339187 
L 392.131291 193.348937 
L 392.379801 192.945899 
L 392.873357 193.440378 
L 393.362363 193.683964 
L 393.605186 194.341409 
L 393.846903 194.056285 
L 394.087524 194.293368 
L 394.327059 194.36222 
L 395.039241 195.128514 
L 395.274527 195.163237 
L 395.508774 194.889336 
L 395.741991 195.668543 
L 395.974187 195.28406 
L 396.205372 195.875148 
L 396.435554 196.125257 
L 396.664741 196.197004 
L 396.892943 196.7045 
L 397.120167 196.558008 
L 397.346423 196.820294 
L 397.571717 196.722765 
L 397.796059 197.555808 
L 398.463449 197.475493 
L 398.68406 197.841864 
L 398.903757 197.86799 
L 399.122549 198.603203 
L 399.340441 198.559391 
L 399.773561 198.895019 
L 400.203173 199.421082 
L 400.416681 199.206425 
L 400.629334 199.814965 
L 400.841138 199.927324 
L 401.0521 199.896793 
L 401.887657 200.990093 
L 402.094507 200.829745 
L 403.920734 202.565631 
L 404.119822 203.027411 
L 404.318165 203.202645 
L 404.51577 203.190565 
L 404.908785 203.404865 
L 405.104206 204.101644 
L 405.29891 203.962488 
L 405.492903 204.369436 
L 405.686188 204.392528 
L 405.878772 204.804447 
L 406.261855 204.900977 
L 406.452365 205.33041 
L 406.831343 205.536184 
L 407.019823 205.430438 
L 407.581275 206.359802 
L 407.952304 206.739893 
L 408.136849 206.561062 
L 408.320755 207.164859 
L 408.504026 207.264098 
L 408.686666 207.835688 
L 408.868679 207.598804 
L 409.05007 207.947093 
L 409.411002 208.180179 
L 409.590551 208.82853 
L 409.769495 208.834673 
L 410.125583 209.083688 
L 410.302734 208.942195 
L 410.479296 209.398029 
L 410.830667 209.381574 
L 411.179726 210.470674 
L 411.353398 210.759901 
L 411.526504 210.265606 
L 411.699046 210.863656 
L 411.87103 210.761551 
L 412.042457 210.99213 
L 412.213333 211.558975 
L 412.553442 211.80349 
L 412.891384 211.76191 
L 413.059552 211.926816 
L 413.227188 212.716022 
L 413.394296 212.482229 
L 413.56088 212.969676 
L 413.726942 212.784411 
L 413.892486 213.584064 
L 414.057515 213.592195 
L 414.875048 214.451544 
L 415.037053 214.313215 
L 415.359588 214.975507 
L 415.520123 215.570069 
L 415.680174 215.210369 
L 415.839743 216.092859 
L 415.998834 216.283448 
L 416.15745 215.780629 
L 416.315592 216.716254 
L 416.63047 216.154087 
L 416.787212 216.71298 
L 416.943491 216.633666 
L 417.099311 217.061092 
L 417.254675 217.125517 
L 417.718057 217.707145 
L 417.871622 217.603011 
L 418.481477 219.198765 
L 418.632852 218.808906 
L 418.783796 219.097703 
L 418.934312 219.056488 
L 419.084402 219.725539 
L 419.234069 219.42015 
L 419.383314 219.804433 
L 419.532141 220.547734 
L 419.680552 220.039333 
L 419.828549 220.399372 
L 419.976134 220.2013 
L 420.270078 221.169582 
L 420.416442 221.016808 
L 420.562403 221.097778 
L 420.707964 221.828767 
L 420.853126 221.783649 
L 420.997892 221.568962 
L 421.142265 222.083652 
L 421.286245 222.051021 
L 421.429836 222.684724 
L 421.573039 221.800438 
L 422.000345 222.765032 
L 422.283315 223.090438 
L 422.424236 223.569144 
L 422.564784 223.417967 
L 422.704961 223.907156 
L 422.844768 223.987332 
L 422.984208 224.602877 
L 423.123282 224.451723 
L 423.400342 224.814107 
L 423.538331 224.660279 
L 423.675962 225.007922 
L 423.813237 224.940492 
L 424.086727 225.989364 
L 424.358814 225.187446 
L 424.494335 226.013688 
L 424.629512 225.991375 
L 424.898837 226.848433 
L 425.032988 226.466943 
L 425.566227 227.224453 
L 426.356169 228.61436 
L 426.48669 227.952855 
L 427.005587 229.205969 
L 427.263145 229.091603 
L 427.519459 229.996299 
L 427.647153 229.815204 
L 427.901622 229.940538 
L 428.281053 230.63603 
L 428.406929 231.19318 
L 428.657789 231.016136 
L 428.907469 231.293195 
L 429.155979 231.279695 
L 429.279799 231.107419 
L 429.40333 232.086262 
L 429.649534 231.868776 
L 429.8946 232.709099 
L 430.016711 232.606682 
L 430.13854 232.740242 
L 430.260091 232.610437 
L 430.50236 232.941361 
L 430.623081 232.961251 
L 430.743527 233.602893 
L 430.863701 233.290825 
L 430.983604 233.798457 
L 431.341694 233.44105 
L 431.460522 234.115544 
L 431.579085 233.841221 
L 431.697383 234.354481 
L 431.815419 234.337514 
L 431.933192 234.798563 
L 432.050704 234.186169 
L 432.401688 235.096867 
L 432.518168 234.927462 
L 432.634393 235.467602 
L 432.750365 235.134205 
L 432.981549 235.862576 
L 433.096765 235.800253 
L 433.211731 236.058274 
L 433.326449 235.53844 
L 433.555142 236.420279 
L 433.66912 236.50785 
L 433.782854 236.421721 
L 433.896345 237.319416 
L 434.009593 236.636246 
L 434.235367 236.969075 
L 434.347895 236.760294 
L 434.460184 237.793126 
L 434.572237 237.739391 
L 434.684053 236.975116 
L 434.906981 237.680225 
L 435.128976 237.511021 
L 435.239627 238.453551 
L 435.350047 237.816973 
L 435.460237 237.853924 
L 435.5702 238.052096 
L 435.789443 238.937423 
L 436.007784 238.149572 
L 436.22523 238.976154 
L 436.33362 239.550674 
L 436.441789 239.304675 
L 436.657467 239.803883 
L 436.872273 239.104253 
L 437.086212 240.04552 
L 437.192859 240.455597 
L 437.299291 240.014003 
L 437.405511 240.614689 
L 437.405511 240.614689 
" clip-path="url(#pdffef1863e)" style="fill: none; stroke: #2ca02c; stroke-width: 3; stroke-linecap: square"/>
   </g>
   <g id="line2d_68">
    <path d="M 107.678239 90.333603 
L 144.454416 83.609539 
L 165.967101 80.922904 
L 181.230593 80.602903 
L 202.743278 81.393474 
L 210.922021 81.420789 
L 218.006771 81.718909 
L 224.255963 82.508441 
L 229.846055 82.987697 
L 234.902909 83.91646 
L 239.519455 84.249933 
L 251.35874 85.981534 
L 254.782948 86.722469 
L 257.999497 87.253594 
L 261.03214 88.154025 
L 263.900774 88.49512 
L 266.622233 88.470095 
L 269.210883 90.008054 
L 271.679087 90.172796 
L 274.037555 91.115907 
L 276.295633 91.245439 
L 278.461517 91.603414 
L 280.542443 92.158412 
L 282.544825 93.090657 
L 284.474376 93.158817 
L 286.336209 94.17032 
L 289.874641 94.802874 
L 291.559125 95.731688 
L 293.191771 95.539594 
L 294.775674 96.825621 
L 296.31366 96.843181 
L 297.808317 97.547203 
L 299.262019 97.837638 
L 300.676951 98.821175 
L 302.055128 99.011651 
L 303.39841 99.739779 
L 304.708521 99.497257 
L 305.98706 100.558082 
L 307.235513 101.014464 
L 308.455264 101.624505 
L 310.813733 102.370115 
L 311.954783 102.596411 
L 313.07181 103.538964 
L 315.237695 103.959677 
L 316.288359 104.666953 
L 317.318621 105.107866 
L 318.329257 105.373966 
L 319.321002 106.042777 
L 320.294549 106.069361 
L 321.250553 106.525913 
L 322.189636 106.695199 
L 324.019363 108.2342 
L 325.788087 108.831867 
L 326.650818 109.533791 
L 328.335303 110.015649 
L 329.157905 110.854957 
L 329.967949 110.831951 
L 331.551852 111.408627 
L 332.326417 111.675987 
L 333.089838 112.729156 
L 333.842429 112.828841 
L 334.584495 113.444778 
L 335.316324 113.627567 
L 336.038197 113.532519 
L 337.453129 114.707088 
L 338.146692 114.753402 
L 338.831305 114.928335 
L 339.507197 115.260924 
L 340.833687 116.666431 
L 341.484699 116.546514 
L 342.127819 117.092077 
L 342.763238 117.286902 
L 343.391136 117.316972 
L 344.011691 118.175218 
L 344.625071 118.680745 
L 345.231441 118.606476 
L 345.83096 119.248796 
L 346.423779 119.231861 
L 347.58991 120.255825 
L 348.163503 120.287409 
L 349.292414 121.289664 
L 349.847987 121.739985 
L 350.397804 121.556765 
L 351.480633 122.642137 
L 353.064536 123.097177 
L 353.582168 123.63333 
L 354.094798 123.749824 
L 355.105434 125.032628 
L 355.603624 124.83565 
L 356.097179 125.04119 
L 356.586186 125.54732 
L 357.070726 125.640958 
L 357.550881 126.360128 
L 358.49835 127.130851 
L 359.429195 127.156164 
L 359.888564 127.87836 
L 360.34399 128.125565 
L 360.79554 128.826698 
L 361.243279 128.384284 
L 361.687272 128.423642 
L 362.12758 129.043162 
L 362.564264 128.955572 
L 362.997383 129.749833 
L 363.426995 130.292285 
L 363.853157 129.952497 
L 364.275922 130.313849 
L 364.695346 130.972447 
L 365.934083 131.53447 
L 366.744126 131.949243 
L 367.144557 132.524046 
L 367.936464 132.599718 
L 368.328029 132.385255 
L 368.716725 133.381067 
L 369.102595 134.007235 
L 369.485678 133.959635 
L 369.866015 134.119812 
L 370.243645 134.533858 
L 370.618607 134.40447 
L 370.990937 134.518225 
L 371.360672 135.077284 
L 371.727849 134.925895 
L 372.092502 135.882873 
L 372.814374 136.140766 
L 373.17166 135.940975 
L 373.526557 136.06313 
L 373.879095 136.574272 
L 374.229306 136.758131 
L 374.577221 136.716983 
L 374.922869 137.270396 
L 375.26628 137.07492 
L 375.607483 137.213299 
L 375.946505 137.948009 
L 376.283375 137.934021 
L 376.618119 138.177823 
L 376.950765 138.687694 
L 377.281338 138.743133 
L 377.609864 139.133664 
L 377.936368 139.327451 
L 378.260876 139.297853 
L 378.583411 139.725768 
L 378.903997 139.504492 
L 379.222657 140.077784 
L 380.167314 140.74455 
L 380.478498 141.223038 
L 380.787868 141.169235 
L 381.095445 141.345908 
L 381.401248 141.028732 
L 381.7053 141.679714 
L 382.007619 141.378321 
L 383.199957 142.735716 
L 383.493901 142.772213 
L 384.076949 143.92051 
L 384.366087 143.356106 
L 384.653659 143.448151 
L 384.93968 143.904777 
L 385.224168 143.813633 
L 385.507138 143.54909 
L 385.788607 144.248445 
L 386.068591 144.394987 
L 386.347105 144.408275 
L 386.624165 144.996437 
L 386.899785 144.915298 
L 387.173981 145.44802 
L 387.446767 145.436478 
L 387.718158 145.584379 
L 387.988168 145.292579 
L 388.256811 145.468964 
L 388.5241 146.668336 
L 388.790049 146.514997 
L 389.317982 147.098769 
L 389.579992 147.327659 
L 390.100161 147.0324 
L 390.358345 146.992203 
L 390.615279 147.634143 
L 390.870975 147.576127 
L 391.125445 148.147683 
L 391.3787 148.10686 
L 391.630752 148.331183 
L 391.881612 148.975033 
L 392.131291 148.679386 
L 392.379801 148.943887 
L 392.627153 148.812906 
L 393.118423 150.013057 
L 393.605186 149.585774 
L 394.087524 149.998919 
L 394.327059 149.911756 
L 394.565517 150.668463 
L 394.802908 150.907345 
L 395.039241 150.7985 
L 395.274527 150.492401 
L 395.508774 151.155854 
L 395.741991 151.045782 
L 396.205372 151.997635 
L 396.435554 151.485521 
L 396.664741 152.101847 
L 396.892943 152.112156 
L 397.120167 151.959699 
L 397.346423 152.535807 
L 397.571717 152.455538 
L 397.796059 153.120146 
L 398.019457 153.142088 
L 398.241917 152.765928 
L 398.463449 153.439375 
L 398.68406 153.178089 
L 398.903757 153.211777 
L 399.122549 153.754596 
L 399.340441 153.866749 
L 399.557443 153.584086 
L 400.416681 155.061458 
L 400.629334 154.660611 
L 401.0521 155.175205 
L 401.262226 155.677761 
L 401.471523 155.399601 
L 401.679998 155.406745 
L 401.887657 155.568972 
L 402.094507 156.247275 
L 402.300553 156.161419 
L 402.505802 156.927506 
L 402.71026 156.821426 
L 402.913933 157.119396 
L 403.116827 156.927195 
L 403.520303 157.090005 
L 403.720896 157.591591 
L 403.920734 157.556468 
L 404.51577 158.202471 
L 404.712641 158.121679 
L 404.908785 158.752281 
L 405.104206 158.686972 
L 405.29891 159.029019 
L 405.492903 158.986711 
L 405.686188 159.627826 
L 405.878772 159.417292 
L 406.261855 159.739331 
L 406.452365 160.079828 
L 406.642192 160.142507 
L 406.831343 160.571774 
L 407.019823 160.586703 
L 407.207634 160.238914 
L 407.394784 160.946995 
L 407.581275 160.904383 
L 407.767114 161.323358 
L 407.952304 161.466092 
L 408.504026 161.159306 
L 408.686666 162.394433 
L 408.868679 161.964048 
L 409.05007 162.172687 
L 409.230843 163.053491 
L 409.411002 162.80328 
L 409.590551 162.946695 
L 409.769495 163.414871 
L 409.947838 163.191364 
L 410.125583 163.265819 
L 410.302734 163.697001 
L 410.479296 163.711338 
L 410.655272 164.150993 
L 410.830667 164.252851 
L 411.005483 164.088104 
L 411.526504 165.407358 
L 411.699046 164.950701 
L 411.87103 165.336582 
L 412.042457 165.283901 
L 412.213333 165.906825 
L 412.38366 165.578067 
L 412.553442 166.121559 
L 412.722682 165.84694 
L 413.059552 167.079902 
L 413.227188 166.353685 
L 413.394296 166.81713 
L 413.56088 166.847949 
L 413.726942 167.530393 
L 414.057515 167.899335 
L 414.222032 167.808458 
L 414.386041 167.550717 
L 414.549545 168.320483 
L 414.712546 168.00505 
L 415.520123 169.40994 
L 415.839743 169.12549 
L 416.315592 170.36544 
L 416.473265 170.052641 
L 416.63047 170.466248 
L 416.787212 170.016504 
L 416.943491 170.914219 
L 417.099311 170.600457 
L 417.254675 170.667018 
L 417.409586 170.599057 
L 417.871622 171.71862 
L 418.024744 171.806336 
L 418.329669 172.495164 
L 418.481477 172.139651 
L 418.934312 173.014766 
L 419.234069 172.951909 
L 419.383314 173.172257 
L 419.532141 173.043488 
L 419.680552 173.93132 
L 419.828549 174.017094 
L 419.976134 173.110051 
L 420.270078 174.396754 
L 420.416442 173.95315 
L 420.853126 175.428574 
L 420.997892 174.776631 
L 421.142265 175.249231 
L 421.429836 175.050832 
L 421.573039 175.332923 
L 421.715857 176.130036 
L 422.000345 175.718849 
L 422.283315 176.323228 
L 422.424236 176.498248 
L 422.564784 176.394666 
L 422.704961 176.691348 
L 422.844768 177.249473 
L 422.984208 177.237069 
L 423.123282 177.070412 
L 423.261993 177.399643 
L 423.400342 177.385088 
L 423.538331 177.037556 
L 423.675962 178.37756 
L 423.813237 177.519966 
L 424.086727 178.304902 
L 424.222945 178.609404 
L 424.358814 177.953435 
L 424.629512 179.557019 
L 424.764345 178.449845 
L 424.898837 179.152874 
L 425.032988 179.216926 
L 425.166801 178.891535 
L 425.300277 179.864065 
L 425.433419 179.12733 
L 425.566227 179.381205 
L 425.698703 180.14812 
L 425.83085 179.802106 
L 425.962668 180.090398 
L 426.225326 179.55448 
L 426.48669 181.181049 
L 426.616891 180.500184 
L 426.746773 181.097722 
L 426.876338 181.155058 
L 427.005587 180.452188 
L 427.134522 181.45844 
L 427.263145 181.478546 
L 427.391457 181.687747 
L 427.647153 181.302882 
L 427.77454 182.221199 
L 427.901622 181.463445 
L 428.028401 182.353575 
L 428.154877 182.335066 
L 428.406929 182.071901 
L 428.657789 183.261957 
L 428.782776 182.601012 
L 428.907469 183.35279 
L 429.031869 182.855264 
L 429.279799 183.611343 
L 429.40333 183.580746 
L 429.526575 182.32417 
L 429.772209 183.513017 
L 429.8946 184.109015 
L 430.016711 183.586507 
L 430.381364 184.916681 
L 430.50236 184.955549 
L 430.743527 184.480671 
L 430.983604 184.52516 
L 431.222599 185.783591 
L 431.341694 184.906951 
L 431.579085 185.575794 
L 431.697383 185.687943 
L 431.815419 186.249867 
L 431.933192 185.903523 
L 432.050704 184.794262 
L 432.284951 186.383973 
L 432.518168 185.828751 
L 432.634393 186.925114 
L 432.750365 185.94899 
L 432.866083 186.780812 
L 433.096765 185.649343 
L 433.211731 185.518097 
L 433.326449 186.068006 
L 433.440918 187.244681 
L 433.555142 186.933801 
L 433.66912 185.849413 
L 433.896345 187.66113 
L 434.1226 187.263723 
L 434.235367 188.095978 
L 434.347895 187.232674 
L 434.460184 187.632936 
L 434.572237 187.060935 
L 434.795634 187.956035 
L 434.906981 188.907186 
L 435.018095 187.962162 
L 435.239627 188.265514 
L 435.350047 188.782701 
L 435.460237 188.287284 
L 435.5702 188.816815 
L 435.679935 188.774081 
L 435.898726 187.472914 
L 436.007784 187.947086 
L 436.22523 189.190238 
L 436.33362 189.457515 
L 436.549738 188.525062 
L 436.764979 189.304307 
L 436.872273 189.491278 
L 436.97935 189.44556 
L 437.192859 189.787397 
L 437.405511 190.534049 
L 437.405511 190.534049 
" clip-path="url(#pdffef1863e)" style="fill: none; stroke: #d62728; stroke-width: 3; stroke-linecap: square"/>
   </g>
   <g id="line2d_69">
    <path d="M 107.678239 147.411252 
L 144.454416 147.443305 
L 165.967101 147.080527 
L 181.230593 147.231162 
L 193.069878 147.076854 
L 202.743278 150.095258 
L 210.922021 149.499046 
L 218.006771 149.914733 
L 224.255963 149.824527 
L 229.846055 152.017523 
L 234.902909 152.552013 
L 239.519455 152.578765 
L 243.766266 152.896867 
L 247.698198 154.415966 
L 251.35874 154.43181 
L 254.782948 154.57575 
L 257.999497 154.839277 
L 261.03214 157.153414 
L 263.900774 158.733856 
L 266.622233 157.693265 
L 269.210883 159.858707 
L 271.679087 160.824602 
L 274.037555 161.203535 
L 276.295633 160.698692 
L 280.542443 163.175128 
L 282.544825 163.633747 
L 284.474376 163.403358 
L 286.336209 165.086218 
L 288.134917 165.581743 
L 289.874641 165.786145 
L 291.559125 167.559673 
L 293.191771 165.635887 
L 294.775674 167.817026 
L 296.31366 167.862872 
L 297.808317 169.022236 
L 299.262019 168.689661 
L 300.676951 169.964535 
L 302.055128 170.289499 
L 303.39841 171.004022 
L 304.708521 170.361988 
L 305.98706 173.525779 
L 307.235513 173.204102 
L 308.455264 173.168053 
L 309.647602 173.963353 
L 310.813733 174.332367 
L 311.954783 175.193619 
L 313.07181 175.086492 
L 314.165804 177.63234 
L 316.288359 176.937109 
L 318.329257 178.759862 
L 320.294549 179.503218 
L 321.250553 178.728985 
L 322.189636 179.0795 
L 323.112386 181.387196 
L 324.019363 182.12159 
L 324.911095 181.702285 
L 325.788087 182.292016 
L 326.650818 182.252532 
L 327.499745 183.827054 
L 328.335303 183.134825 
L 329.157905 184.963719 
L 329.967949 184.617858 
L 330.76581 185.169764 
L 331.551852 184.893127 
L 332.326417 184.332362 
L 333.842429 187.262932 
L 335.316324 187.804773 
L 336.038197 187.396967 
L 336.750379 188.063363 
L 337.453129 189.084338 
L 338.146692 189.192098 
L 338.831305 188.717248 
L 339.507197 189.906319 
L 340.174587 189.726846 
L 340.833687 190.325296 
L 341.484699 190.005652 
L 342.127819 191.33686 
L 342.763238 191.058841 
L 343.391136 191.023793 
L 344.011691 192.541828 
L 344.625071 192.897612 
L 345.231441 192.123274 
L 345.83096 193.899049 
L 346.423779 193.27942 
L 347.010048 193.741526 
L 347.58991 194.740645 
L 348.163503 193.738518 
L 348.730961 194.817342 
L 349.292414 195.594912 
L 349.847987 195.002018 
L 350.397804 195.817297 
L 350.941981 197.163563 
L 351.480633 196.458335 
L 352.013872 196.699351 
L 352.541805 197.896708 
L 353.064536 197.410314 
L 353.582168 197.280803 
L 354.094798 197.036315 
L 354.602522 197.533437 
L 355.105434 199.103458 
L 355.603624 199.135611 
L 356.097179 198.629668 
L 357.070726 200.594929 
L 357.550881 201.304508 
L 358.02673 200.503139 
L 358.49835 200.60796 
L 358.965813 201.776911 
L 359.429195 200.176518 
L 359.888564 202.19266 
L 360.34399 201.990294 
L 360.79554 202.372852 
L 361.243279 201.908063 
L 361.687272 202.394181 
L 362.12758 201.511837 
L 362.564264 203.915866 
L 362.997383 203.900357 
L 363.426995 204.356381 
L 363.853157 203.227289 
L 364.695346 205.9875 
L 365.11148 205.148503 
L 365.524375 204.92725 
L 365.934083 206.071929 
L 366.34065 205.339708 
L 366.744126 206.879663 
L 367.144557 206.442414 
L 367.541988 206.791449 
L 367.936464 206.04395 
L 368.716725 207.473166 
L 369.102595 208.798738 
L 369.485678 208.068813 
L 369.866015 208.959826 
L 370.243645 210.563653 
L 370.618607 207.890286 
L 371.360672 209.810028 
L 371.727849 209.471795 
L 372.092502 212.300873 
L 372.454665 211.456566 
L 372.814374 209.710853 
L 373.526557 210.317615 
L 373.879095 210.474584 
L 374.229306 212.447039 
L 374.577221 212.535944 
L 374.922869 211.636049 
L 375.26628 211.151747 
L 375.607483 211.509443 
L 375.946505 212.317376 
L 376.283375 211.463503 
L 376.618119 212.088608 
L 376.950765 214.161468 
L 377.281338 212.540857 
L 377.609864 214.449977 
L 378.260876 212.289523 
L 378.583411 214.058263 
L 378.903997 213.659589 
L 379.222657 214.569458 
L 379.539415 213.962678 
L 379.854293 215.844557 
L 380.167314 215.28503 
L 380.478498 215.81148 
L 380.787868 215.687358 
L 381.095445 214.895408 
L 381.401248 216.154207 
L 381.7053 216.533232 
L 382.007619 215.200765 
L 382.607137 216.91518 
L 382.904375 216.847115 
L 383.199957 217.785891 
L 383.493901 217.098519 
L 383.786226 218.706747 
L 384.076949 217.427471 
L 384.653659 216.919099 
L 384.93968 218.721246 
L 385.224168 218.571303 
L 385.507138 217.787011 
L 385.788607 217.457997 
L 386.068591 219.741624 
L 386.347105 219.581913 
L 386.624165 219.255749 
L 386.899785 219.540195 
L 387.173981 220.125852 
L 387.446767 219.509603 
L 387.718158 219.805152 
L 387.988168 219.557289 
L 388.256811 219.824388 
L 388.5241 220.66961 
L 388.790049 220.397149 
L 389.054672 222.045016 
L 389.317982 221.762369 
L 389.579992 221.043503 
L 389.840714 221.822911 
L 390.100161 221.139116 
L 390.358345 221.539313 
L 390.615279 222.706429 
L 390.870975 221.995303 
L 391.125445 222.573205 
L 391.3787 222.217081 
L 391.630752 222.392326 
L 392.131291 223.784057 
L 392.379801 222.346316 
L 392.627153 223.317981 
L 392.873357 223.474724 
L 393.118423 224.847748 
L 393.362363 222.883087 
L 393.605186 223.403514 
L 393.846903 224.915331 
L 394.087524 223.538431 
L 394.327059 223.170993 
L 394.802908 226.159529 
L 395.039241 225.114412 
L 395.274527 225.60287 
L 395.508774 225.809018 
L 395.741991 226.83019 
L 395.974187 225.625318 
L 396.205372 226.057483 
L 396.435554 225.990951 
L 396.664741 226.144384 
L 396.892943 225.939114 
L 397.120167 227.079336 
L 397.346423 227.541556 
L 397.571717 226.42147 
L 397.796059 228.003729 
L 398.019457 228.514163 
L 398.241917 226.355586 
L 398.463449 228.659342 
L 398.68406 228.222011 
L 398.903757 227.203923 
L 399.122549 228.929609 
L 399.340441 229.088332 
L 399.773561 228.264198 
L 399.988801 229.222517 
L 400.203173 229.194106 
L 400.416681 230.686708 
L 400.629334 229.00172 
L 401.0521 230.322644 
L 401.262226 229.517097 
L 401.471523 230.097901 
L 401.679998 229.068618 
L 401.887657 229.742062 
L 402.094507 231.418322 
L 402.505802 230.742301 
L 402.71026 231.973559 
L 402.913933 231.831563 
L 403.116827 231.281137 
L 403.720896 231.966851 
L 404.119822 231.880366 
L 404.318165 233.412079 
L 404.51577 232.396065 
L 404.908785 234.040639 
L 405.104206 234.550026 
L 405.29891 234.555976 
L 405.492903 232.426612 
L 405.686188 234.673838 
L 405.878772 235.410609 
L 406.070659 234.71451 
L 406.452365 234.241436 
L 407.019823 235.3565 
L 407.394784 234.863205 
L 407.581275 235.545527 
L 407.767114 235.399976 
L 407.952304 237.067951 
L 408.136849 235.938522 
L 408.320755 236.635631 
L 408.504026 235.030327 
L 408.686666 237.317044 
L 408.868679 237.125437 
L 409.230843 237.30349 
L 409.411002 238.781123 
L 409.590551 238.568921 
L 409.769495 238.838476 
L 409.947838 238.553777 
L 410.125583 238.872109 
L 410.479296 238.961994 
L 410.655272 237.917216 
L 411.005483 238.667679 
L 411.179726 239.958055 
L 411.353398 239.370061 
L 411.526504 240.722922 
L 411.87103 240.10775 
L 412.042457 239.685511 
L 412.213333 241.386204 
L 412.38366 239.725731 
L 412.553442 241.814717 
L 412.722682 240.535212 
L 412.891384 241.465808 
L 413.059552 241.12726 
L 413.227188 240.488272 
L 413.56088 242.933223 
L 413.726942 242.716025 
L 413.892486 241.544356 
L 414.222032 243.415116 
L 414.386041 242.659692 
L 414.549545 243.405729 
L 414.875048 242.486763 
L 415.037053 243.835191 
L 415.198566 243.693868 
L 415.359588 243.12948 
L 415.520123 243.919546 
L 415.680174 244.079861 
L 415.839743 243.738249 
L 415.998834 244.825919 
L 416.315592 244.347714 
L 416.473265 245.537512 
L 416.787212 244.291272 
L 416.943491 245.863971 
L 417.099311 246.272346 
L 417.254675 244.834101 
L 417.409586 244.845825 
L 417.718057 246.572413 
L 417.871622 246.661469 
L 418.024744 245.659689 
L 418.177426 247.278033 
L 418.329669 246.965867 
L 418.481477 247.40618 
L 418.632852 246.930426 
L 418.934312 248.588284 
L 419.084402 248.63642 
L 419.234069 249.472071 
L 419.383314 246.927907 
L 419.532141 247.524591 
L 419.680552 249.529363 
L 419.976134 247.73684 
L 420.12331 250.016284 
L 420.270078 249.920174 
L 420.416442 249.065978 
L 420.707964 250.514715 
L 420.853126 250.727704 
L 420.997892 250.032411 
L 421.142265 250.272439 
L 421.286245 248.188479 
L 421.429836 250.516247 
L 421.573039 250.063195 
L 421.715857 251.289589 
L 421.858292 251.025342 
L 422.000345 249.751568 
L 422.142019 251.492995 
L 422.283315 251.419374 
L 422.564784 250.56013 
L 422.704961 250.495786 
L 422.984208 251.913661 
L 423.123282 250.92552 
L 423.400342 252.195431 
L 423.538331 251.936664 
L 423.675962 253.152188 
L 423.813237 252.712602 
L 423.950158 253.393149 
L 424.086727 252.300725 
L 424.222945 254.559391 
L 424.494335 253.191382 
L 424.629512 254.367882 
L 424.764345 252.407759 
L 425.032988 254.477963 
L 425.166801 254.329086 
L 425.300277 255.603321 
L 425.566227 253.665838 
L 425.698703 255.325259 
L 425.83085 255.183825 
L 426.094159 255.261727 
L 426.225326 253.611473 
L 426.48669 257.975368 
L 426.616891 254.414711 
L 426.746773 254.607021 
L 426.876338 256.594729 
L 427.005587 254.337496 
L 427.263145 258.030784 
L 427.519459 256.047899 
L 427.647153 256.380362 
L 427.77454 257.944889 
L 427.901622 257.599482 
L 428.028401 256.309227 
L 428.154877 257.61006 
L 428.281053 256.352516 
L 428.532507 257.190292 
L 428.657789 257.700542 
L 428.782776 257.674252 
L 428.907469 258.757034 
L 429.155979 255.869731 
L 429.40333 259.070979 
L 429.526575 257.243173 
L 429.8946 259.245118 
L 430.13854 259.583423 
L 430.260091 258.474578 
L 430.381364 258.952374 
L 430.50236 260.137727 
L 430.743527 259.556845 
L 430.863701 260.674554 
L 430.983604 259.725316 
L 431.103236 260.548333 
L 431.341694 259.322524 
L 431.579085 261.217997 
L 431.697383 260.737076 
L 431.815419 260.96832 
L 431.933192 261.792401 
L 432.050704 260.376435 
L 432.284951 261.303237 
L 432.518168 260.438621 
L 432.634393 262.407238 
L 432.866083 261.473838 
L 432.981549 261.548783 
L 433.211731 261.303108 
L 433.440918 263.814467 
L 433.896345 262.275367 
L 434.009593 263.642628 
L 434.1226 262.417718 
L 434.347895 264.359113 
L 434.460184 264.300385 
L 434.795634 262.666038 
L 435.018095 264.614581 
L 435.128976 264.61464 
L 435.350047 264.145303 
L 435.5702 262.034503 
L 435.679935 263.987187 
L 435.789443 263.875006 
L 435.898726 264.410116 
L 436.007784 263.965352 
L 436.22523 264.774951 
L 436.33362 263.958514 
L 436.549738 265.277906 
L 436.657467 264.671007 
L 436.872273 265.240452 
L 436.97935 265.308439 
L 437.086212 266.021004 
L 437.192859 264.853305 
L 437.299291 266.645455 
L 437.405511 264.495421 
L 437.405511 264.495421 
" clip-path="url(#pdffef1863e)" style="fill: none; stroke: #9467bd; stroke-width: 3; stroke-linecap: square"/>
   </g>
   <g id="patch_3">
    <path d="M 91.191875 279 
L 91.191875 7.2 
" style="fill: none; stroke: #000000; stroke-width: 0.8; stroke-linejoin: miter; stroke-linecap: square"/>
   </g>
   <g id="patch_4">
    <path d="M 453.891875 279 
L 453.891875 7.2 
" style="fill: none; stroke: #000000; stroke-width: 0.8; stroke-linejoin: miter; stroke-linecap: square"/>
   </g>
   <g id="patch_5">
    <path d="M 91.191875 279 
L 453.891875 279 
" style="fill: none; stroke: #000000; stroke-width: 0.8; stroke-linejoin: miter; stroke-linecap: square"/>
   </g>
   <g id="patch_6">
    <path d="M 91.191875 7.2 
L 453.891875 7.2 
" style="fill: none; stroke: #000000; stroke-width: 0.8; stroke-linejoin: miter; stroke-linecap: square"/>
   </g>
  </g>
  <g id="legend_1">
   <g id="patch_7">
    <path d="M 100.891875 275.5 
L 321.062031 275.5 
Q 323.262031 275.5 323.262031 273.3 
L 323.262031 193.670312 
Q 323.262031 191.470312 321.062031 191.470312 
L 100.891875 191.470312 
Q 98.691875 191.470312 98.691875 193.670312 
L 98.691875 273.3 
Q 98.691875 275.5 100.891875 275.5 
z
" style="fill: #4c4c4c; opacity: 0.5; stroke: #4c4c4c; stroke-linejoin: miter"/>
   </g>
   <g id="patch_8">
    <path d="M 98.891875 273.5 
L 319.062031 273.5 
Q 321.262031 273.5 321.262031 271.3 
L 321.262031 191.670312 
Q 321.262031 189.470312 319.062031 189.470312 
L 98.891875 189.470312 
Q 96.691875 189.470312 96.691875 191.670312 
L 96.691875 271.3 
Q 96.691875 273.5 98.891875 273.5 
z
" style="fill: #ffffff; stroke: #cccccc; stroke-linejoin: miter"/>
   </g>
   <g id="line2d_70">
    <path d="M 101.091875 198.378594 
L 112.091875 198.378594 
L 123.091875 198.378594 
" style="fill: none; stroke: #1f77b4; stroke-width: 3; stroke-linecap: square"/>
   </g>
   <g id="text_10">
    <!-- FSPDA 0.01% rand-k 1/45 edges -->
    <g transform="translate(131.891875 202.228594)scale(0.11 -0.11)">
     <defs>
      <path id="DejaVuSans-46" d="M 628 4666 
L 3309 4666 
L 3309 4134 
L 1259 4134 
L 1259 2759 
L 3109 2759 
L 3109 2228 
L 1259 2228 
L 1259 0 
L 628 0 
L 628 4666 
z
" transform="scale(0.015625)"/>
      <path id="DejaVuSans-53" d="M 3425 4513 
L 3425 3897 
Q 3066 4069 2747 4153 
Q 2428 4238 2131 4238 
Q 1616 4238 1336 4038 
Q 1056 3838 1056 3469 
Q 1056 3159 1242 3001 
Q 1428 2844 1947 2747 
L 2328 2669 
Q 3034 2534 3370 2195 
Q 3706 1856 3706 1288 
Q 3706 609 3251 259 
Q 2797 -91 1919 -91 
Q 1588 -91 1214 -16 
Q 841 59 441 206 
L 441 856 
Q 825 641 1194 531 
Q 1563 422 1919 422 
Q 2459 422 2753 634 
Q 3047 847 3047 1241 
Q 3047 1584 2836 1778 
Q 2625 1972 2144 2069 
L 1759 2144 
Q 1053 2284 737 2584 
Q 422 2884 422 3419 
Q 422 4038 858 4394 
Q 1294 4750 2059 4750 
Q 2388 4750 2728 4690 
Q 3069 4631 3425 4513 
z
" transform="scale(0.015625)"/>
      <path id="DejaVuSans-50" d="M 1259 4147 
L 1259 2394 
L 2053 2394 
Q 2494 2394 2734 2622 
Q 2975 2850 2975 3272 
Q 2975 3691 2734 3919 
Q 2494 4147 2053 4147 
L 1259 4147 
z
M 628 4666 
L 2053 4666 
Q 2838 4666 3239 4311 
Q 3641 3956 3641 3272 
Q 3641 2581 3239 2228 
Q 2838 1875 2053 1875 
L 1259 1875 
L 1259 0 
L 628 0 
L 628 4666 
z
" transform="scale(0.015625)"/>
      <path id="DejaVuSans-44" d="M 1259 4147 
L 1259 519 
L 2022 519 
Q 2988 519 3436 956 
Q 3884 1394 3884 2338 
Q 3884 3275 3436 3711 
Q 2988 4147 2022 4147 
L 1259 4147 
z
M 628 4666 
L 1925 4666 
Q 3281 4666 3915 4102 
Q 4550 3538 4550 2338 
Q 4550 1131 3912 565 
Q 3275 0 1925 0 
L 628 0 
L 628 4666 
z
" transform="scale(0.015625)"/>
      <path id="DejaVuSans-41" d="M 2188 4044 
L 1331 1722 
L 3047 1722 
L 2188 4044 
z
M 1831 4666 
L 2547 4666 
L 4325 0 
L 3669 0 
L 3244 1197 
L 1141 1197 
L 716 0 
L 50 0 
L 1831 4666 
z
" transform="scale(0.015625)"/>
      <path id="DejaVuSans-2e" d="M 684 794 
L 1344 794 
L 1344 0 
L 684 0 
L 684 794 
z
" transform="scale(0.015625)"/>
      <path id="DejaVuSans-25" d="M 4653 2053 
Q 4381 2053 4226 1822 
Q 4072 1591 4072 1178 
Q 4072 772 4226 539 
Q 4381 306 4653 306 
Q 4919 306 5073 539 
Q 5228 772 5228 1178 
Q 5228 1588 5073 1820 
Q 4919 2053 4653 2053 
z
M 4653 2450 
Q 5147 2450 5437 2106 
Q 5728 1763 5728 1178 
Q 5728 594 5436 251 
Q 5144 -91 4653 -91 
Q 4153 -91 3862 251 
Q 3572 594 3572 1178 
Q 3572 1766 3864 2108 
Q 4156 2450 4653 2450 
z
M 1428 4353 
Q 1159 4353 1004 4120 
Q 850 3888 850 3481 
Q 850 3069 1003 2837 
Q 1156 2606 1428 2606 
Q 1700 2606 1854 2837 
Q 2009 3069 2009 3481 
Q 2009 3884 1853 4118 
Q 1697 4353 1428 4353 
z
M 4250 4750 
L 4750 4750 
L 1831 -91 
L 1331 -91 
L 4250 4750 
z
M 1428 4750 
Q 1922 4750 2215 4408 
Q 2509 4066 2509 3481 
Q 2509 2891 2217 2550 
Q 1925 2209 1428 2209 
Q 931 2209 642 2551 
Q 353 2894 353 3481 
Q 353 4063 643 4406 
Q 934 4750 1428 4750 
z
" transform="scale(0.015625)"/>
      <path id="DejaVuSans-64" d="M 2906 2969 
L 2906 4863 
L 3481 4863 
L 3481 0 
L 2906 0 
L 2906 525 
Q 2725 213 2448 61 
Q 2172 -91 1784 -91 
Q 1150 -91 751 415 
Q 353 922 353 1747 
Q 353 2572 751 3078 
Q 1150 3584 1784 3584 
Q 2172 3584 2448 3432 
Q 2725 3281 2906 2969 
z
M 947 1747 
Q 947 1113 1208 752 
Q 1469 391 1925 391 
Q 2381 391 2643 752 
Q 2906 1113 2906 1747 
Q 2906 2381 2643 2742 
Q 2381 3103 1925 3103 
Q 1469 3103 1208 2742 
Q 947 2381 947 1747 
z
" transform="scale(0.015625)"/>
      <path id="DejaVuSans-2d" d="M 313 2009 
L 1997 2009 
L 1997 1497 
L 313 1497 
L 313 2009 
z
" transform="scale(0.015625)"/>
      <path id="DejaVuSans-6b" d="M 581 4863 
L 1159 4863 
L 1159 1991 
L 2875 3500 
L 3609 3500 
L 1753 1863 
L 3688 0 
L 2938 0 
L 1159 1709 
L 1159 0 
L 581 0 
L 581 4863 
z
" transform="scale(0.015625)"/>
      <path id="DejaVuSans-2f" d="M 1625 4666 
L 2156 4666 
L 531 -594 
L 0 -594 
L 1625 4666 
z
" transform="scale(0.015625)"/>
      <path id="DejaVuSans-34" d="M 2419 4116 
L 825 1625 
L 2419 1625 
L 2419 4116 
z
M 2253 4666 
L 3047 4666 
L 3047 1625 
L 3713 1625 
L 3713 1100 
L 3047 1100 
L 3047 0 
L 2419 0 
L 2419 1100 
L 313 1100 
L 313 1709 
L 2253 4666 
z
" transform="scale(0.015625)"/>
      <path id="DejaVuSans-67" d="M 2906 1791 
Q 2906 2416 2648 2759 
Q 2391 3103 1925 3103 
Q 1463 3103 1205 2759 
Q 947 2416 947 1791 
Q 947 1169 1205 825 
Q 1463 481 1925 481 
Q 2391 481 2648 825 
Q 2906 1169 2906 1791 
z
M 3481 434 
Q 3481 -459 3084 -895 
Q 2688 -1331 1869 -1331 
Q 1566 -1331 1297 -1286 
Q 1028 -1241 775 -1147 
L 775 -588 
Q 1028 -725 1275 -790 
Q 1522 -856 1778 -856 
Q 2344 -856 2625 -561 
Q 2906 -266 2906 331 
L 2906 616 
Q 2728 306 2450 153 
Q 2172 0 1784 0 
Q 1141 0 747 490 
Q 353 981 353 1791 
Q 353 2603 747 3093 
Q 1141 3584 1784 3584 
Q 2172 3584 2450 3431 
Q 2728 3278 2906 2969 
L 2906 3500 
L 3481 3500 
L 3481 434 
z
" transform="scale(0.015625)"/>
     </defs>
     <use xlink:href="#DejaVuSans-46"/>
     <use xlink:href="#DejaVuSans-53" x="55.769531"/>
     <use xlink:href="#DejaVuSans-50" x="119.246094"/>
     <use xlink:href="#DejaVuSans-44" x="179.548828"/>
     <use xlink:href="#DejaVuSans-41" x="254.800781"/>
     <use xlink:href="#DejaVuSans-20" x="323.208984"/>
     <use xlink:href="#DejaVuSans-30" x="354.996094"/>
     <use xlink:href="#DejaVuSans-2e" x="418.619141"/>
     <use xlink:href="#DejaVuSans-30" x="450.40625"/>
     <use xlink:href="#DejaVuSans-31" x="514.029297"/>
     <use xlink:href="#DejaVuSans-25" x="577.652344"/>
     <use xlink:href="#DejaVuSans-20" x="672.671875"/>
     <use xlink:href="#DejaVuSans-72" x="704.458984"/>
     <use xlink:href="#DejaVuSans-61" x="745.572266"/>
     <use xlink:href="#DejaVuSans-6e" x="806.851562"/>
     <use xlink:href="#DejaVuSans-64" x="870.230469"/>
     <use xlink:href="#DejaVuSans-2d" x="933.707031"/>
     <use xlink:href="#DejaVuSans-6b" x="969.791016"/>
     <use xlink:href="#DejaVuSans-20" x="1027.701172"/>
     <use xlink:href="#DejaVuSans-31" x="1059.488281"/>
     <use xlink:href="#DejaVuSans-2f" x="1123.111328"/>
     <use xlink:href="#DejaVuSans-34" x="1156.802734"/>
     <use xlink:href="#DejaVuSans-35" x="1220.425781"/>
     <use xlink:href="#DejaVuSans-20" x="1284.048828"/>
     <use xlink:href="#DejaVuSans-65" x="1315.835938"/>
     <use xlink:href="#DejaVuSans-64" x="1377.359375"/>
     <use xlink:href="#DejaVuSans-67" x="1440.835938"/>
     <use xlink:href="#DejaVuSans-65" x="1504.3125"/>
     <use xlink:href="#DejaVuSans-73" x="1565.835938"/>
    </g>
   </g>
   <g id="line2d_71">
    <path d="M 101.091875 214.524531 
L 112.091875 214.524531 
L 123.091875 214.524531 
" style="fill: none; stroke: #ff7f0e; stroke-width: 3; stroke-linecap: square"/>
   </g>
   <g id="text_11">
    <!-- FSPDA 0.01% rand-k 10/45 edges -->
    <g transform="translate(131.891875 218.374531)scale(0.11 -0.11)">
     <use xlink:href="#DejaVuSans-46"/>
     <use xlink:href="#DejaVuSans-53" x="55.769531"/>
     <use xlink:href="#DejaVuSans-50" x="119.246094"/>
     <use xlink:href="#DejaVuSans-44" x="179.548828"/>
     <use xlink:href="#DejaVuSans-41" x="254.800781"/>
     <use xlink:href="#DejaVuSans-20" x="323.208984"/>
     <use xlink:href="#DejaVuSans-30" x="354.996094"/>
     <use xlink:href="#DejaVuSans-2e" x="418.619141"/>
     <use xlink:href="#DejaVuSans-30" x="450.40625"/>
     <use xlink:href="#DejaVuSans-31" x="514.029297"/>
     <use xlink:href="#DejaVuSans-25" x="577.652344"/>
     <use xlink:href="#DejaVuSans-20" x="672.671875"/>
     <use xlink:href="#DejaVuSans-72" x="704.458984"/>
     <use xlink:href="#DejaVuSans-61" x="745.572266"/>
     <use xlink:href="#DejaVuSans-6e" x="806.851562"/>
     <use xlink:href="#DejaVuSans-64" x="870.230469"/>
     <use xlink:href="#DejaVuSans-2d" x="933.707031"/>
     <use xlink:href="#DejaVuSans-6b" x="969.791016"/>
     <use xlink:href="#DejaVuSans-20" x="1027.701172"/>
     <use xlink:href="#DejaVuSans-31" x="1059.488281"/>
     <use xlink:href="#DejaVuSans-30" x="1123.111328"/>
     <use xlink:href="#DejaVuSans-2f" x="1186.734375"/>
     <use xlink:href="#DejaVuSans-34" x="1220.425781"/>
     <use xlink:href="#DejaVuSans-35" x="1284.048828"/>
     <use xlink:href="#DejaVuSans-20" x="1347.671875"/>
     <use xlink:href="#DejaVuSans-65" x="1379.458984"/>
     <use xlink:href="#DejaVuSans-64" x="1440.982422"/>
     <use xlink:href="#DejaVuSans-67" x="1504.458984"/>
     <use xlink:href="#DejaVuSans-65" x="1567.935547"/>
     <use xlink:href="#DejaVuSans-73" x="1629.458984"/>
    </g>
   </g>
   <g id="line2d_72">
    <path d="M 101.091875 230.670469 
L 112.091875 230.670469 
L 123.091875 230.670469 
" style="fill: none; stroke: #2ca02c; stroke-width: 3; stroke-linecap: square"/>
   </g>
   <g id="text_12">
    <!-- FSPDA 0.01% rand-k 45/45 edges -->
    <g transform="translate(131.891875 234.520469)scale(0.11 -0.11)">
     <use xlink:href="#DejaVuSans-46"/>
     <use xlink:href="#DejaVuSans-53" x="55.769531"/>
     <use xlink:href="#DejaVuSans-50" x="119.246094"/>
     <use xlink:href="#DejaVuSans-44" x="179.548828"/>
     <use xlink:href="#DejaVuSans-41" x="254.800781"/>
     <use xlink:href="#DejaVuSans-20" x="323.208984"/>
     <use xlink:href="#DejaVuSans-30" x="354.996094"/>
     <use xlink:href="#DejaVuSans-2e" x="418.619141"/>
     <use xlink:href="#DejaVuSans-30" x="450.40625"/>
     <use xlink:href="#DejaVuSans-31" x="514.029297"/>
     <use xlink:href="#DejaVuSans-25" x="577.652344"/>
     <use xlink:href="#DejaVuSans-20" x="672.671875"/>
     <use xlink:href="#DejaVuSans-72" x="704.458984"/>
     <use xlink:href="#DejaVuSans-61" x="745.572266"/>
     <use xlink:href="#DejaVuSans-6e" x="806.851562"/>
     <use xlink:href="#DejaVuSans-64" x="870.230469"/>
     <use xlink:href="#DejaVuSans-2d" x="933.707031"/>
     <use xlink:href="#DejaVuSans-6b" x="969.791016"/>
     <use xlink:href="#DejaVuSans-20" x="1027.701172"/>
     <use xlink:href="#DejaVuSans-34" x="1059.488281"/>
     <use xlink:href="#DejaVuSans-35" x="1123.111328"/>
     <use xlink:href="#DejaVuSans-2f" x="1186.734375"/>
     <use xlink:href="#DejaVuSans-34" x="1220.425781"/>
     <use xlink:href="#DejaVuSans-35" x="1284.048828"/>
     <use xlink:href="#DejaVuSans-20" x="1347.671875"/>
     <use xlink:href="#DejaVuSans-65" x="1379.458984"/>
     <use xlink:href="#DejaVuSans-64" x="1440.982422"/>
     <use xlink:href="#DejaVuSans-67" x="1504.458984"/>
     <use xlink:href="#DejaVuSans-65" x="1567.935547"/>
     <use xlink:href="#DejaVuSans-73" x="1629.458984"/>
    </g>
   </g>
   <g id="line2d_73">
    <path d="M 101.091875 246.816406 
L 112.091875 246.816406 
L 123.091875 246.816406 
" style="fill: none; stroke: #d62728; stroke-width: 3; stroke-linecap: square"/>
   </g>
   <g id="text_13">
    <!-- FSPDA 0.10% rand-k 1/45 edges -->
    <g transform="translate(131.891875 250.666406)scale(0.11 -0.11)">
     <use xlink:href="#DejaVuSans-46"/>
     <use xlink:href="#DejaVuSans-53" x="55.769531"/>
     <use xlink:href="#DejaVuSans-50" x="119.246094"/>
     <use xlink:href="#DejaVuSans-44" x="179.548828"/>
     <use xlink:href="#DejaVuSans-41" x="254.800781"/>
     <use xlink:href="#DejaVuSans-20" x="323.208984"/>
     <use xlink:href="#DejaVuSans-30" x="354.996094"/>
     <use xlink:href="#DejaVuSans-2e" x="418.619141"/>
     <use xlink:href="#DejaVuSans-31" x="450.40625"/>
     <use xlink:href="#DejaVuSans-30" x="514.029297"/>
     <use xlink:href="#DejaVuSans-25" x="577.652344"/>
     <use xlink:href="#DejaVuSans-20" x="672.671875"/>
     <use xlink:href="#DejaVuSans-72" x="704.458984"/>
     <use xlink:href="#DejaVuSans-61" x="745.572266"/>
     <use xlink:href="#DejaVuSans-6e" x="806.851562"/>
     <use xlink:href="#DejaVuSans-64" x="870.230469"/>
     <use xlink:href="#DejaVuSans-2d" x="933.707031"/>
     <use xlink:href="#DejaVuSans-6b" x="969.791016"/>
     <use xlink:href="#DejaVuSans-20" x="1027.701172"/>
     <use xlink:href="#DejaVuSans-31" x="1059.488281"/>
     <use xlink:href="#DejaVuSans-2f" x="1123.111328"/>
     <use xlink:href="#DejaVuSans-34" x="1156.802734"/>
     <use xlink:href="#DejaVuSans-35" x="1220.425781"/>
     <use xlink:href="#DejaVuSans-20" x="1284.048828"/>
     <use xlink:href="#DejaVuSans-65" x="1315.835938"/>
     <use xlink:href="#DejaVuSans-64" x="1377.359375"/>
     <use xlink:href="#DejaVuSans-67" x="1440.835938"/>
     <use xlink:href="#DejaVuSans-65" x="1504.3125"/>
     <use xlink:href="#DejaVuSans-73" x="1565.835938"/>
    </g>
   </g>
   <g id="line2d_74">
    <path d="M 101.091875 262.962344 
L 112.091875 262.962344 
L 123.091875 262.962344 
" style="fill: none; stroke: #9467bd; stroke-width: 3; stroke-linecap: square"/>
   </g>
   <g id="text_14">
    <!-- FSPDA 1.00% rand-k 1/45 edges -->
    <g transform="translate(131.891875 266.812344)scale(0.11 -0.11)">
     <use xlink:href="#DejaVuSans-46"/>
     <use xlink:href="#DejaVuSans-53" x="55.769531"/>
     <use xlink:href="#DejaVuSans-50" x="119.246094"/>
     <use xlink:href="#DejaVuSans-44" x="179.548828"/>
     <use xlink:href="#DejaVuSans-41" x="254.800781"/>
     <use xlink:href="#DejaVuSans-20" x="323.208984"/>
     <use xlink:href="#DejaVuSans-31" x="354.996094"/>
     <use xlink:href="#DejaVuSans-2e" x="418.619141"/>
     <use xlink:href="#DejaVuSans-30" x="450.40625"/>
     <use xlink:href="#DejaVuSans-30" x="514.029297"/>
     <use xlink:href="#DejaVuSans-25" x="577.652344"/>
     <use xlink:href="#DejaVuSans-20" x="672.671875"/>
     <use xlink:href="#DejaVuSans-72" x="704.458984"/>
     <use xlink:href="#DejaVuSans-61" x="745.572266"/>
     <use xlink:href="#DejaVuSans-6e" x="806.851562"/>
     <use xlink:href="#DejaVuSans-64" x="870.230469"/>
     <use xlink:href="#DejaVuSans-2d" x="933.707031"/>
     <use xlink:href="#DejaVuSans-6b" x="969.791016"/>
     <use xlink:href="#DejaVuSans-20" x="1027.701172"/>
     <use xlink:href="#DejaVuSans-31" x="1059.488281"/>
     <use xlink:href="#DejaVuSans-2f" x="1123.111328"/>
     <use xlink:href="#DejaVuSans-34" x="1156.802734"/>
     <use xlink:href="#DejaVuSans-35" x="1220.425781"/>
     <use xlink:href="#DejaVuSans-20" x="1284.048828"/>
     <use xlink:href="#DejaVuSans-65" x="1315.835938"/>
     <use xlink:href="#DejaVuSans-64" x="1377.359375"/>
     <use xlink:href="#DejaVuSans-67" x="1440.835938"/>
     <use xlink:href="#DejaVuSans-65" x="1504.3125"/>
     <use xlink:href="#DejaVuSans-73" x="1565.835938"/>
    </g>
   </g>
  </g>
 </g>
 <defs>
  <clipPath id="pdffef1863e">
   <rect x="91.191875" y="7.2" width="362.7" height="271.8"/>
  </clipPath>
 </defs>
</svg>
