<svg xmlns="http://www.w3.org/2000/svg" xmlns:xlink="http://www.w3.org/1999/xlink" xmlns:inkscape="http://www.inkscape.org/namespaces/inkscape" version="1.1" width="440.8156" height="405.14564" viewBox="0 0 440.8156 405.14564">
<defs>
<clipPath id="clip_0">
<path transform="matrix(1,0,0,-1,0,405.14564)" d="M55.996877 101.07375H390.79689V378.27378H55.996877Z"/>
</clipPath>
<clipPath id="clip_1">
<path transform="matrix(1,0,0,-1,0,405.14564)" d="M55.996877 101.07375H390.79689V378.27378H55.996877Z"/>
</clipPath>
<clipPath id="clip_2">
<path transform="matrix(1,0,0,-1,0,405.14564)" d="M55.996877 101.07375H390.79689V378.27378H55.996877Z"/>
</clipPath>
<clipPath id="clip_3">
<path transform="matrix(1,0,0,-1,0,405.14564)" d="M55.996877 101.07375H390.79689V378.27378H55.996877Z"/>
</clipPath>
<clipPath id="clip_4">
<path transform="matrix(1,0,0,-1,0,405.14564)" d="M55.996877 101.07375H390.79689V378.27378H55.996877Z"/>
</clipPath>
<clipPath id="clip_5">
<path transform="matrix(1,0,0,-1,0,405.14564)" d="M55.996877 101.07375H390.79689V378.27378H55.996877Z"/>
</clipPath>
<clipPath id="clip_6">
<path transform="matrix(1,0,0,-1,0,405.14564)" d="M55.996877 101.07375H390.79689V378.27378H55.996877Z"/>
</clipPath>
<g id="font_7_50">
<path transform="matrix(.001,0,0,.001,0,0)" d="M192 83H536V0H73V83C110 121 161 173 226 239 290 304 331 346 348 365 380 400 402 430 414 455 426 479 433 504 433 528 433 566 419 598 392 622 365 646 330 659 286 659 255 659 222 653 188 643 154 632 117 616 78 594V694C118 710 155 722 189 730 223 738 255 742 284 742 359 742 419 723 464 685 509 647 532 597 532 534 532 504 526 475 515 449 504 422 484 390 454 354 446 344 420 317 376 272 332 227 271 164 192 83Z"/>
</g>
<g id="font_7_46">
<path transform="matrix(.001,0,0,.001,0,0)" d="M107 124H210V0H107V124Z"/>
</g>
<g id="font_7_48">
<path transform="matrix(.001,0,0,.001,0,0)" d="M318 664C267 664 229 639 203 589 177 539 165 464 165 364 165 264 177 189 203 139 229 89 267 64 318 64 369 64 407 89 433 139 458 189 471 264 471 364 471 464 458 539 433 589 407 639 369 664 318 664ZM318 742C399 742 461 709 505 645 548 580 570 486 570 364 570 241 548 147 505 83 461 19 399-13 317-13 235-13 173 19 130 83 87 147 66 241 66 364 66 486 87 580 130 645 173 709 236 742 318 742Z"/>
</g>
<clipPath id="clip_8">
<path transform="matrix(1,0,0,-1,0,405.14564)" d="M55.996877 101.07375H390.79689V378.27378H55.996877Z"/>
</clipPath>
<g id="font_7_53">
<path transform="matrix(.001,0,0,.001,0,0)" d="M108 729H495V646H198V467C212 472 227 476 241 478 255 480 270 482 284 482 365 482 429 459 477 415 525 370 549 310 549 234 549 155 524 94 475 51 426 8 357-13 269-13 238-13 207-10 175-6 143-1 111 6 77 17V116C106 100 136 88 168 80 199 72 232 69 267 69 323 69 368 83 401 113 433 143 450 183 450 234 450 284 433 324 401 354 368 384 323 399 267 399 241 399 214 396 188 390 162 384 135 375 108 363V729Z"/>
</g>
<clipPath id="clip_9">
<path transform="matrix(1,0,0,-1,0,405.14564)" d="M55.996877 101.07375H390.79689V378.27378H55.996877Z"/>
</clipPath>
<g id="font_7_51">
<path transform="matrix(.001,0,0,.001,0,0)" d="M406 393C453 383 490 362 516 330 542 298 556 258 556 212 556 140 531 84 482 45 432 6 362-13 271-13 240-13 208-10 176-4 144 1 110 10 76 22V117C103 101 133 89 166 81 198 73 232 69 268 69 330 69 377 81 409 105 441 129 458 165 458 212 458 254 443 288 413 312 383 336 341 349 287 349H202V430H291C339 430 376 439 402 459 428 478 441 506 441 543 441 580 427 609 401 629 374 649 336 659 287 659 260 659 231 656 200 650 169 644 135 635 98 623V711C135 721 170 729 203 734 235 739 266 742 296 742 370 742 429 725 473 691 517 657 539 611 539 553 539 513 527 479 504 451 481 423 448 403 406 393Z"/>
</g>
<clipPath id="clip_10">
<path transform="matrix(1,0,0,-1,0,405.14564)" d="M55.996877 101.07375H390.79689V378.27378H55.996877Z"/>
</clipPath>
<clipPath id="clip_11">
<path transform="matrix(1,0,0,-1,0,405.14564)" d="M55.996877 101.07375H390.79689V378.27378H55.996877Z"/>
</clipPath>
<g id="font_7_52">
<path transform="matrix(.001,0,0,.001,0,0)" d="M378 643 129 254H378V643ZM352 729H476V254H580V172H476V0H378V172H49V267L352 729Z"/>
</g>
<g id="font_7_84">
<path transform="matrix(.001,0,0,.001,0,0)" d="M-2 729H614V646H355V0H256V646H-2V729Z"/>
</g>
<g id="font_7_111">
<path transform="matrix(.001,0,0,.001,0,0)" d="M306 484C258 484 220 465 192 427 164 389 150 338 150 273 150 207 163 156 191 118 219 80 257 62 306 62 354 62 392 80 420 118 448 156 462 207 462 273 462 337 448 389 420 427 392 465 354 484 306 484ZM306 560C384 560 445 534 490 484 534 433 557 363 557 273 557 183 534 113 490 63 445 12 384-13 306-13 227-13 165 12 121 63 77 113 55 183 55 273 55 363 77 433 121 484 165 534 227 560 306 560Z"/>
</g>
<g id="font_7_116">
<path transform="matrix(.001,0,0,.001,0,0)" d="M183 702V547H368V477H183V180C183 135 189 106 201 94 213 81 238 75 276 75H368V0H276C206 0 158 13 132 39 106 65 93 112 93 180V477H27V547H93V702H183Z"/>
</g>
<g id="font_7_97">
<path transform="matrix(.001,0,0,.001,0,0)" d="M343 275C270 275 220 266 192 250 164 233 150 205 150 165 150 133 160 107 181 89 202 70 231 61 267 61 317 61 357 78 387 114 417 149 432 196 432 255V275H343ZM522 312V0H432V83C411 49 385 25 355 10 325-5 287-13 243-13 187-13 142 2 109 33 76 64 60 106 60 159 60 220 80 266 122 298 163 329 224 345 306 345H432V354C432 395 418 427 391 450 364 472 326 484 277 484 245 484 215 480 185 472 155 464 127 453 100 439V522C132 534 164 544 195 550 226 556 256 560 286 560 365 560 424 539 463 498 502 457 522 395 522 312Z"/>
</g>
<g id="font_7_108">
<path transform="matrix(.001,0,0,.001,0,0)" d="M94 760H184V0H94V760Z"/>
</g>
<g id="font_7_32">
</g>
<g id="font_7_114">
<path transform="matrix(.001,0,0,.001,0,0)" d="M411 463C401 469 390 473 378 476 366 478 353 480 339 480 288 480 249 463 222 430 194 397 181 350 181 288V0H91V547H181V462C199 495 224 520 254 536 284 552 321 560 365 560 371 560 378 559 386 559 393 558 401 557 411 555V463Z"/>
</g>
<g id="font_7_105">
<path transform="matrix(.001,0,0,.001,0,0)" d="M94 547H184V0H94V547ZM94 760H184V646H94V760Z"/>
</g>
<g id="font_7_110">
<path transform="matrix(.001,0,0,.001,0,0)" d="M549 330V0H459V327C459 379 448 417 428 443 408 469 378 482 338 482 289 482 251 466 223 435 195 404 181 362 181 309V0H91V547H181V462C202 494 227 519 257 535 286 551 320 560 358 560 420 560 468 540 500 501 532 462 549 405 549 330Z"/>
</g>
<g id="font_7_103">
<path transform="matrix(.001,0,0,.001,0,0)" d="M454 280C454 344 440 395 414 431 387 467 349 485 301 485 253 485 215 467 188 431 161 395 148 344 148 280 148 215 161 165 188 129 215 93 253 75 301 75 349 75 387 93 414 129 440 165 454 215 454 280ZM544 68C544-24 523-93 482-139 440-184 377-207 292-207 260-207 231-204 203-200 175-195 147-188 121-178V-91C147-105 173-115 199-122 225-129 251-133 278-133 336-133 380-117 410-87 439-56 454-10 454 52V96C435 64 411 40 382 24 353 8 319 0 279 0 211 0 157 25 116 76 75 127 55 195 55 280 55 364 75 432 116 483 157 534 211 560 279 560 319 560 353 552 382 536 411 520 435 496 454 464V547H544V68Z"/>
</g>
<g id="font_7_109">
<path transform="matrix(.001,0,0,.001,0,0)" d="M520 442C542 482 569 511 600 531 631 550 668 560 711 560 767 560 811 540 842 500 873 460 889 403 889 330V0H799V327C799 379 789 418 771 444 752 469 724 482 686 482 639 482 602 466 575 435 548 404 535 362 535 309V0H445V327C445 379 435 418 417 444 398 469 369 482 331 482 285 482 248 466 221 435 194 404 181 362 181 309V0H91V547H181V462C201 495 226 520 255 536 283 552 317 560 357 560 397 560 430 550 458 530 486 510 506 480 520 442Z"/>
</g>
<g id="font_7_101">
<path transform="matrix(.001,0,0,.001,0,0)" d="M562 296V252H149C153 190 171 142 205 110 238 78 284 62 344 62 378 62 412 66 444 74 476 82 509 95 541 113V28C509 14 476 3 442-3 408-9 373-13 339-13 251-13 182 12 131 62 80 112 55 181 55 268 55 357 79 428 127 481 175 533 241 560 323 560 397 560 455 536 498 489 540 441 562 377 562 296ZM472 322C471 371 457 410 431 440 404 469 368 484 324 484 274 484 234 469 204 441 174 413 156 373 152 322H472Z"/>
</g>
<g id="font_7_40">
<path transform="matrix(.001,0,0,.001,0,0)" d="M310 759C266 683 234 609 213 536 191 463 181 389 181 314 181 238 191 164 213 91 234 17 266-56 310-131H232C183-54 146 20 122 94 98 168 86 241 86 314 86 386 98 459 122 533 146 607 182 682 232 759H310Z"/>
</g>
<g id="font_7_72">
<path transform="matrix(.001,0,0,.001,0,0)" d="M98 729H197V430H555V729H654V0H555V347H197V0H98V729Z"/>
</g>
<g id="font_7_117">
<path transform="matrix(.001,0,0,.001,0,0)" d="M85 216V547H175V219C175 167 185 129 205 103 225 77 255 64 296 64 344 64 383 79 411 110 439 141 453 183 453 237V547H543V0H453V84C431 50 405 26 377 10 348-5 315-13 277-13 214-13 166 6 134 45 101 83 85 140 85 216ZM311 560V560Z"/>
</g>
<g id="font_7_115">
<path transform="matrix(.001,0,0,.001,0,0)" d="M443 531V446C417 458 391 468 364 475 336 481 308 485 279 485 234 485 200 478 178 464 156 450 145 430 145 403 145 382 153 366 169 354 185 342 217 330 265 320L296 313C360 299 405 279 432 255 458 230 472 195 472 151 472 100 452 60 412 31 372 1 316-13 246-13 216-13 186-10 154-5 122 0 89 8 54 20V113C87 95 120 82 152 74 184 65 216 61 248 61 290 61 323 68 346 82 368 96 380 117 380 144 380 168 371 187 355 200 339 213 303 226 247 238L216 245C160 257 119 275 95 299 70 323 58 356 58 399 58 450 76 490 112 518 148 546 200 560 268 560 301 560 332 557 362 552 391 547 418 540 443 531Z"/>
</g>
<g id="font_7_41">
<path transform="matrix(.001,0,0,.001,0,0)" d="M80 759H158C206 682 243 607 267 533 291 459 304 386 304 314 304 241 291 168 267 94 243 20 206-54 158-131H80C123-56 155 17 177 91 198 164 209 238 209 314 209 389 198 463 177 536 155 609 123 683 80 759Z"/>
</g>
<clipPath id="clip_12">
<path transform="matrix(1,0,0,-1,0,405.14564)" d="M55.996877 101.07375H390.79689V378.27378H55.996877Z"/>
</clipPath>
<clipPath id="clip_13">
<path transform="matrix(1,0,0,-1,0,405.14564)" d="M55.996877 101.07375H390.79689V378.27378H55.996877Z"/>
</clipPath>
<clipPath id="clip_14">
<path transform="matrix(1,0,0,-1,0,405.14564)" d="M55.996877 101.07375H390.79689V378.27378H55.996877Z"/>
</clipPath>
<g id="font_7_49">
<path transform="matrix(.001,0,0,.001,0,0)" d="M124 83H285V639L110 604V694L284 729H383V83H544V0H124V83Z"/>
</g>
<clipPath id="clip_15">
<path transform="matrix(1,0,0,-1,0,405.14564)" d="M55.996877 101.07375H390.79689V378.27378H55.996877Z"/>
</clipPath>
<clipPath id="clip_16">
<path transform="matrix(1,0,0,-1,0,405.14564)" d="M55.996877 101.07375H390.79689V378.27378H55.996877Z"/>
</clipPath>
<clipPath id="clip_17">
<path transform="matrix(1,0,0,-1,0,405.14564)" d="M55.996877 101.07375H390.79689V378.27378H55.996877Z"/>
</clipPath>
<g id="font_7_65">
<path transform="matrix(.001,0,0,.001,0,0)" d="M342 632 208 269H476L342 632ZM286 729H398L676 0H573L507 187H178L112 0H8L286 729Z"/>
</g>
<g id="font_7_118">
<path transform="matrix(.001,0,0,.001,0,0)" d="M30 547H125L296 88 467 547H562L357 0H235L30 547Z"/>
</g>
<g id="font_7_82">
<path transform="matrix(.001,0,0,.001,0,0)" d="M444 342C465 334 486 319 506 296 526 272 546 240 566 199L666 0H560L467 187C443 235 419 268 397 284 374 300 343 308 304 308H197V0H98V729H321C404 729 466 711 507 677 548 642 569 589 569 519 569 473 558 434 537 404 515 374 484 353 444 342ZM197 648V389H321C368 389 404 400 428 422 452 444 465 476 465 519 465 561 452 593 428 615 404 637 368 648 321 648H197Z"/>
</g>
<g id="font_7_79">
<path transform="matrix(.001,0,0,.001,0,0)" d="M394 662C322 662 265 635 223 582 181 528 160 456 160 364 160 272 181 199 223 146 265 92 322 66 394 66 465 66 522 92 564 146 606 199 627 272 627 364 627 456 606 528 564 582 522 635 465 662 394 662ZM394 742C496 742 577 707 639 639 700 571 731 479 731 364 731 248 700 157 639 89 577 21 496-13 394-13 291-13 209 21 148 89 86 157 56 248 56 364 56 479 86 571 148 639 209 707 291 742 394 742Z"/>
</g>
<g id="font_7_85">
<path transform="matrix(.001,0,0,.001,0,0)" d="M87 729H186V286C186 208 200 151 228 117 256 83 302 66 366 66 429 66 475 83 503 117 531 151 546 208 546 286V729H645V274C645 178 621 107 574 59 527 11 458-13 366-13 274-13 204 11 157 59 110 107 87 178 87 274V729Z"/>
</g>
<g id="font_7_71">
<path transform="matrix(.001,0,0,.001,0,0)" d="M595 104V300H434V381H693V68C655 40 613 20 567 7 521-6 472-13 420-13 306-13 216 20 152 86 88 152 56 245 56 364 56 482 88 575 152 642 216 708 306 742 420 742 467 742 512 736 555 724 598 712 638 695 674 673V568C637 598 598 621 557 637 516 653 473 661 428 661 338 661 271 636 227 586 182 536 160 462 160 364 160 265 182 191 227 141 271 91 338 67 428 67 462 67 493 70 521 76 549 82 573 91 595 104Z"/>
</g>
<g id="font_7_69">
<path transform="matrix(.001,0,0,.001,0,0)" d="M98 729H559V646H197V430H544V347H197V83H568V0H98V729Z"/>
</g>
<g id="font_7_83">
<path transform="matrix(.001,0,0,.001,0,0)" d="M535 705V609C497 627 462 640 429 649 395 657 363 662 333 662 279 662 237 651 208 631 179 610 165 580 165 542 165 510 174 485 194 469 213 452 250 439 304 429L364 417C437 403 491 378 526 343 561 307 579 260 579 201 579 130 555 77 508 41 460 5 391-13 300-13 265-13 228-9 189-2 150 5 110 16 69 32V134C109 111 148 94 186 83 224 71 262 66 300 66 356 66 399 77 430 99 460 121 476 152 476 194 476 230 465 258 443 278 421 298 385 313 335 323L275 335C201 349 148 372 115 404 82 435 66 478 66 534 66 598 88 649 134 686 179 723 242 742 322 742 356 742 390 739 426 733 461 727 497 717 535 705Z"/>
</g>
<g id="font_7_99">
<path transform="matrix(.001,0,0,.001,0,0)" d="M488 526V442C462 456 437 466 411 473 385 480 360 484 334 484 276 484 230 465 198 428 166 391 150 339 150 273 150 206 166 154 198 117 230 80 276 62 334 62 360 62 385 65 411 72 437 79 462 90 488 104V21C462 9 436 0 410-5 383-10 354-13 324-13 242-13 176 12 128 64 79 115 55 185 55 273 55 362 79 432 128 483 177 534 244 560 330 560 358 560 385 557 411 551 437 545 463 537 488 526Z"/>
</g>
<clipPath id="clip_18">
<path transform="matrix(1,0,0,-1,0,405.14564)" d="M55.996877 101.07375H390.79689V378.27378H55.996877Z"/>
</clipPath>
<clipPath id="clip_19">
<path transform="matrix(1,0,0,-1,0,405.14564)" d="M55.996877 101.07375H390.79689V378.27378H55.996877Z"/>
</clipPath>
<g id="font_7_78">
<path transform="matrix(.001,0,0,.001,0,0)" d="M98 729H231L554 119V729H650V0H517L194 610V0H98V729Z"/>
</g>
<g id="font_7_80">
<path transform="matrix(.001,0,0,.001,0,0)" d="M197 648V374H321C367 374 402 385 427 409 452 433 465 467 465 511 465 555 452 588 427 612 402 636 367 648 321 648H197ZM98 729H321C402 729 464 710 506 673 548 636 569 582 569 511 569 439 548 384 506 348 464 311 402 293 321 293H197V0H98V729Z"/>
</g>
<g id="font_7_81">
<path transform="matrix(.001,0,0,.001,0,0)" d="M394 662C322 662 265 635 223 582 181 528 160 456 160 364 160 272 181 199 223 146 265 92 322 66 394 66 465 66 522 92 564 146 606 199 627 272 627 364 627 456 606 528 564 582 522 635 465 662 394 662ZM532 13 662-128H543L435-11C424-11 416-12 410-12 404-12 399-13 394-13 291-13 209 21 148 89 86 157 56 248 56 364 56 479 86 571 148 639 209 707 291 742 394 742 496 742 577 707 639 639 700 571 731 479 731 364 731 279 714 206 680 146 646 86 596 41 532 13Z"/>
</g>
<g id="font_7_112">
<path transform="matrix(.001,0,0,.001,0,0)" d="M181 82V-207H91V547H181V464C199 496 223 520 252 536 281 552 316 560 356 560 422 560 476 533 518 481 559 428 580 359 580 273 580 187 559 117 518 65 476 13 422-13 356-13 316-13 281-5 252 10 223 25 199 49 181 82ZM487 273C487 339 473 390 446 428 418 466 381 485 334 485 286 485 249 466 222 428 194 390 181 339 181 273 181 207 194 155 222 117 249 79 286 61 334 61 381 61 418 79 446 117 473 155 487 207 487 273Z"/>
</g>
<g id="font_20_82">
<path transform="matrix(.001,0,0,.001,0,0)" d="M359 406C398 406 426 413 443 428 460 442 469 466 469 500 469 533 460 557 443 571 426 585 398 593 359 593H280V406H359ZM280 276V0H92V729H379C475 729 545 712 590 680 634 648 657 597 657 528 657 480 645 440 622 409 598 378 563 355 517 341 543 335 566 321 586 301 606 280 627 249 648 207L750 0H550L461 181C443 217 424 242 406 256 388 269 363 276 333 276H280Z"/>
</g>
<g id="font_20_111">
<path transform="matrix(.001,0,0,.001,0,0)" d="M344 435C305 435 275 421 255 393 235 365 225 325 225 273 225 220 235 180 255 152 275 124 305 111 344 111 382 111 411 124 431 152 451 180 462 220 462 273 462 325 451 365 431 393 411 421 382 435 344 435ZM344 560C438 560 511 534 564 484 617 433 644 363 644 273 644 183 617 112 564 62 511 12 438-13 344-13 250-13 176 12 123 62 69 112 43 183 43 273 43 363 69 433 123 484 176 534 250 560 344 560Z"/>
</g>
<g id="font_20_83">
<path transform="matrix(.001,0,0,.001,0,0)" d="M599 706V552C559 570 520 583 482 592 444 601 408 606 374 606 329 606 296 599 274 587 252 575 242 556 242 530 242 510 249 494 264 484 278 473 305 464 343 456L423 440C503 424 561 399 595 366 629 332 647 285 647 224 647 144 623 84 575 45 527 6 455-13 357-13 311-13 264-8 218 0 171 8 124 20 78 38V197C124 172 169 153 213 141 256 128 298 122 339 122 379 122 411 128 433 142 455 156 466 175 466 201 466 223 458 241 443 253 428 265 399 277 355 287L282 303C209 319 156 344 122 378 88 412 72 458 72 516 72 588 95 644 142 683 188 722 256 742 344 742 384 742 425 739 467 733 509 727 553 718 599 706Z"/>
</g>
<g id="font_20_84">
<path transform="matrix(.001,0,0,.001,0,0)" d="M5 729H677V587H435V0H247V587H5V729Z"/>
</g>
<g id="font_20_69">
<path transform="matrix(.001,0,0,.001,0,0)" d="M92 729H599V587H280V451H580V309H280V142H610V0H92V729Z"/>
</g>
<g id="font_7_121">
<path transform="matrix(.001,0,0,.001,0,0)" d="M322-50C296-114 271-157 247-177 223-197 191-207 151-207H79V-132H132C156-132 175-126 189-114 203-102 218-75 235-31L251 9 30 547H125L296 119 467 547H562L322-50Z"/>
</g>
<g id="font_7_120">
<path transform="matrix(.001,0,0,.001,0,0)" d="M549 547 351 281 559 0H453L294 215 135 0H29L241 286 47 547H153L298 352 443 547H549Z"/>
</g>
<g id="font_7_58">
<path transform="matrix(.001,0,0,.001,0,0)" d="M117 124H220V0H117V124ZM117 517H220V393H117V517Z"/>
</g>
<g id="font_7_119">
<path transform="matrix(.001,0,0,.001,0,0)" d="M42 547H132L244 120 356 547H462L574 120 686 547H776L633 0H527L409 448 291 0H185L42 547Z"/>
</g>
<g id="font_7_55">
<path transform="matrix(.001,0,0,.001,0,0)" d="M82 729H551V687L286 0H183L432 646H82V729Z"/>
</g>
<g id="font_7_66">
<path transform="matrix(.001,0,0,.001,0,0)" d="M197 348V81H355C408 81 447 92 473 114 498 136 511 169 511 215 511 260 498 293 473 315 447 337 408 348 355 348H197ZM197 648V428H343C391 428 426 437 450 455 474 473 486 500 486 538 486 574 474 602 450 620 426 638 391 648 343 648H197ZM98 729H350C425 729 483 713 524 682 564 650 585 606 585 549 585 504 574 468 553 442 532 416 502 399 462 393 510 382 548 360 575 327 601 294 615 253 615 204 615 138 592 88 548 53 504 17 441 0 360 0H98V729Z"/>
</g>
<g id="font_7_70">
<path transform="matrix(.001,0,0,.001,0,0)" d="M98 729H517V646H197V431H486V348H197V0H98V729Z"/>
</g>
<g id="font_7_43">
<path transform="matrix(.001,0,0,.001,0,0)" d="M460 627V355H732V272H460V0H378V272H106V355H378V627H460Z"/>
</g>
<g id="font_7_98">
<path transform="matrix(.001,0,0,.001,0,0)" d="M487 273C487 339 473 390 446 428 418 466 381 485 334 485 286 485 249 466 222 428 194 390 181 339 181 273 181 207 194 155 222 117 249 79 286 61 334 61 381 61 418 79 446 117 473 155 487 207 487 273ZM181 464C199 496 223 520 252 536 281 552 316 560 356 560 422 560 476 533 518 481 559 428 580 359 580 273 580 187 559 117 518 65 476 13 422-13 356-13 316-13 281-5 252 10 223 25 199 49 181 82V0H91V760H181V464Z"/>
</g>
<g id="font_7_45">
<path transform="matrix(.001,0,0,.001,0,0)" d="M49 314H312V234H49V314Z"/>
</g>
<g id="font_7_54">
<path transform="matrix(.001,0,0,.001,0,0)" d="M330 404C286 404 251 388 225 358 199 328 186 286 186 234 186 181 199 139 225 109 251 79 286 64 330 64 374 64 409 79 435 109 461 139 474 181 474 234 474 286 461 328 435 358 409 388 374 404 330 404ZM526 713V623C501 635 476 644 451 650 425 656 400 659 376 659 310 659 260 637 226 593 192 549 172 482 168 394 187 422 211 444 240 459 269 474 301 482 336 482 409 482 467 459 509 415 551 371 573 310 573 234 573 159 550 99 506 54 462 9 403-13 330-13 246-13 181 19 137 83 92 147 70 241 70 364 70 479 97 571 152 639 206 707 280 742 372 742 396 742 421 739 447 735 472 730 498 723 526 713Z"/>
</g>
</defs>
<path transform="matrix(1,0,0,-1,0,405.14564)" d="M0 0H440.8156V405.14564H0Z" fill="#ffffff"/>
<path transform="matrix(1,0,0,-1,0,405.14564)" d="M55.996877 101.07375H390.79689V378.27375H55.996877Z" fill="#ffffff"/>
<g clip-path="url(#clip_0)">
<g>
<path transform="matrix(1,0,0,-1,0,405.14564)" d="M86.43324 137.84889 75.2529 115.48821H97.61358Z" fill="#2ca02c" fill-opacity=".7"/>
<path transform="matrix(1,0,0,-1,0,405.14564)" stroke-width="1" stroke-linecap="butt" stroke-linejoin="round" fill="none" stroke="#2ca02c" stroke-opacity=".7" d="M86.43324 137.84889 75.2529 115.48821H97.61358Z"/>
</g>
</g>
<g clip-path="url(#clip_1)">
<g>
<path transform="matrix(1,0,0,-1,0,405.14564)" d="M86.43324 135.63129 75.2529 113.27061H97.61358Z" fill="#2ca02c" fill-opacity=".7"/>
<path transform="matrix(1,0,0,-1,0,405.14564)" stroke-width="1" stroke-linecap="butt" stroke-linejoin="round" fill="none" stroke="#2ca02c" stroke-opacity=".7" d="M86.43324 135.63129 75.2529 113.27061H97.61358Z"/>
</g>
</g>
<g clip-path="url(#clip_2)">
<g>
<path transform="matrix(1,0,0,-1,0,405.14564)" d="M86.43324 174.99369 75.2529 152.63301H97.61358Z" fill="#2ca02c" fill-opacity=".7"/>
<path transform="matrix(1,0,0,-1,0,405.14564)" stroke-width="1" stroke-linecap="butt" stroke-linejoin="round" fill="none" stroke="#2ca02c" stroke-opacity=".7" d="M86.43324 174.99369 75.2529 152.63301H97.61358Z"/>
</g>
</g>
<g clip-path="url(#clip_3)">
<g>
<path transform="matrix(1,0,0,-1,0,405.14564)" d="M284.2696 175.1785 273.08927 152.81781H295.44996Z" fill="#2ca02c" fill-opacity=".7"/>
<path transform="matrix(1,0,0,-1,0,405.14564)" stroke-width="1" stroke-linecap="butt" stroke-linejoin="round" fill="none" stroke="#2ca02c" stroke-opacity=".7" d="M284.2696 175.1785 273.08927 152.81781H295.44996Z"/>
</g>
</g>
<g clip-path="url(#clip_4)">
<g>
<path transform="matrix(1,0,0,-1,0,405.14564)" d="M132.08779 312.7622C135.05284 312.7622 137.89687 313.94026 139.99349 316.03688 142.09009 318.13349 143.26813 320.97749 143.26813 323.94255 143.26813 326.90763 142.09009 329.75163 139.99349 331.84825 137.89687 333.94486 135.05284 335.1229 132.08779 335.1229 129.12273 335.1229 126.2787 333.94486 124.18209 331.84825 122.08547 329.75163 120.90744 326.90763 120.90744 323.94255 120.90744 320.97749 122.08547 318.13349 124.18209 316.03688 126.2787 313.94026 129.12273 312.7622 132.08779 312.7622Z" fill="#2ca02c" fill-opacity=".7"/>
<path transform="matrix(1,0,0,-1,0,405.14564)" stroke-width="1" stroke-linecap="butt" stroke-linejoin="round" fill="none" stroke="#2ca02c" stroke-opacity=".7" d="M132.08779 312.7622C135.05284 312.7622 137.89687 313.94026 139.99349 316.03688 142.09009 318.13349 143.26813 320.97749 143.26813 323.94255 143.26813 326.90763 142.09009 329.75163 139.99349 331.84825 137.89687 333.94486 135.05284 335.1229 132.08779 335.1229 129.12273 335.1229 126.2787 333.94486 124.18209 331.84825 122.08547 329.75163 120.90744 326.90763 120.90744 323.94255 120.90744 320.97749 122.08547 318.13349 124.18209 316.03688 126.2787 313.94026 129.12273 312.7622 132.08779 312.7622Z"/>
</g>
</g>
<g clip-path="url(#clip_5)">
<g>
<path transform="matrix(1,0,0,-1,0,405.14564)" d="M192.96051 340.29743C195.92557 340.29743 198.76959 341.47544 200.86621 343.57206 202.96282 345.66868 204.14086 348.5127 204.14086 351.47776 204.14086 354.4428 202.96282 357.28684 200.86621 359.38346 198.76959 361.48008 195.92557 362.65809 192.96051 362.65809 189.99546 362.65809 187.15143 361.48008 185.05481 359.38346 182.9582 357.28684 181.78017 354.4428 181.78017 351.47776 181.78017 348.5127 182.9582 345.66868 185.05481 343.57206 187.15143 341.47544 189.99546 340.29743 192.96051 340.29743Z" fill="#2ca02c" fill-opacity=".7"/>
<path transform="matrix(1,0,0,-1,0,405.14564)" stroke-width="1" stroke-linecap="butt" stroke-linejoin="round" fill="none" stroke="#2ca02c" stroke-opacity=".7" d="M192.96051 340.29743C195.92557 340.29743 198.76959 341.47544 200.86621 343.57206 202.96282 345.66868 204.14086 348.5127 204.14086 351.47776 204.14086 354.4428 202.96282 357.28684 200.86621 359.38346 198.76959 361.48008 195.92557 362.65809 192.96051 362.65809 189.99546 362.65809 187.15143 361.48008 185.05481 359.38346 182.9582 357.28684 181.78017 354.4428 181.78017 351.47776 181.78017 348.5127 182.9582 345.66868 185.05481 343.57206 187.15143 341.47544 189.99546 340.29743 192.96051 340.29743Z"/>
</g>
</g>
<g clip-path="url(#clip_6)">
<path transform="matrix(1,0,0,-1,0,405.14564)" stroke-width=".8" stroke-linecap="butt" stroke-dasharray="2.96,1.28" stroke-linejoin="round" fill="none" stroke="#b0b0b0" stroke-opacity=".6" d="M71.21506 101.07375V378.27375"/>
</g>
<path transform="matrix(1,0,0,-1,0,405.14564)" d="M71.21506 101.07375V97.57375"/>
<path transform="matrix(1,0,0,-1,0,405.14564)" stroke-width=".8" stroke-linecap="butt" stroke-linejoin="round" fill="none" stroke="#000000" d="M71.21506 101.07375V97.57375"/>
<use data-text="2" xlink:href="#font_7_50" transform="matrix(16,0,0,-16,58.480684,323.22813)"/>
<use data-text="." xlink:href="#font_7_46" transform="matrix(16,0,0,-16,68.656688,323.22813)"/>
<use data-text="0" xlink:href="#font_7_48" transform="matrix(16,0,0,-16,73.74468,323.22813)"/>
<g clip-path="url(#clip_8)">
<path transform="matrix(1,0,0,-1,0,405.14564)" stroke-width=".8" stroke-linecap="butt" stroke-dasharray="2.96,1.28" stroke-linejoin="round" fill="none" stroke="#b0b0b0" stroke-opacity=".6" d="M147.30597 101.07375V378.27375"/>
</g>
<path transform="matrix(1,0,0,-1,0,405.14564)" d="M147.30597 101.07375V97.57375"/>
<path transform="matrix(1,0,0,-1,0,405.14564)" stroke-width=".8" stroke-linecap="butt" stroke-linejoin="round" fill="none" stroke="#000000" d="M147.30597 101.07375V97.57375"/>
<use data-text="2" xlink:href="#font_7_50" transform="matrix(16,0,0,-16,134.5716,323.22813)"/>
<use data-text="." xlink:href="#font_7_46" transform="matrix(16,0,0,-16,144.74759,323.22813)"/>
<use data-text="5" xlink:href="#font_7_53" transform="matrix(16,0,0,-16,149.8356,323.22813)"/>
<g clip-path="url(#clip_9)">
<path transform="matrix(1,0,0,-1,0,405.14564)" stroke-width=".8" stroke-linecap="butt" stroke-dasharray="2.96,1.28" stroke-linejoin="round" fill="none" stroke="#b0b0b0" stroke-opacity=".6" d="M223.39688 101.07375V378.27375"/>
</g>
<path transform="matrix(1,0,0,-1,0,405.14564)" d="M223.39688 101.07375V97.57375"/>
<path transform="matrix(1,0,0,-1,0,405.14564)" stroke-width=".8" stroke-linecap="butt" stroke-linejoin="round" fill="none" stroke="#000000" d="M223.39688 101.07375V97.57375"/>
<use data-text="3" xlink:href="#font_7_51" transform="matrix(16,0,0,-16,210.6625,323.22813)"/>
<use data-text="." xlink:href="#font_7_46" transform="matrix(16,0,0,-16,220.8385,323.22813)"/>
<use data-text="0" xlink:href="#font_7_48" transform="matrix(16,0,0,-16,225.92652,323.22813)"/>
<g clip-path="url(#clip_10)">
<path transform="matrix(1,0,0,-1,0,405.14564)" stroke-width=".8" stroke-linecap="butt" stroke-dasharray="2.96,1.28" stroke-linejoin="round" fill="none" stroke="#b0b0b0" stroke-opacity=".6" d="M299.4878 101.07375V378.27375"/>
</g>
<path transform="matrix(1,0,0,-1,0,405.14564)" d="M299.4878 101.07375V97.57375"/>
<path transform="matrix(1,0,0,-1,0,405.14564)" stroke-width=".8" stroke-linecap="butt" stroke-linejoin="round" fill="none" stroke="#000000" d="M299.4878 101.07375V97.57375"/>
<use data-text="3" xlink:href="#font_7_51" transform="matrix(16,0,0,-16,286.75343,323.22813)"/>
<use data-text="." xlink:href="#font_7_46" transform="matrix(16,0,0,-16,296.9294,323.22813)"/>
<use data-text="5" xlink:href="#font_7_53" transform="matrix(16,0,0,-16,302.01744,323.22813)"/>
<g clip-path="url(#clip_11)">
<path transform="matrix(1,0,0,-1,0,405.14564)" stroke-width=".8" stroke-linecap="butt" stroke-dasharray="2.96,1.28" stroke-linejoin="round" fill="none" stroke="#b0b0b0" stroke-opacity=".6" d="M375.5787 101.07375V378.27375"/>
</g>
<path transform="matrix(1,0,0,-1,0,405.14564)" d="M375.5787 101.07375V97.57375"/>
<path transform="matrix(1,0,0,-1,0,405.14564)" stroke-width=".8" stroke-linecap="butt" stroke-linejoin="round" fill="none" stroke="#000000" d="M375.5787 101.07375V97.57375"/>
<use data-text="4" xlink:href="#font_7_52" transform="matrix(16,0,0,-16,362.84434,323.22813)"/>
<use data-text="." xlink:href="#font_7_46" transform="matrix(16,0,0,-16,373.02033,323.22813)"/>
<use data-text="0" xlink:href="#font_7_48" transform="matrix(16,0,0,-16,378.10835,323.22813)"/>
<use data-text="T" xlink:href="#font_7_84" transform="matrix(18,0,0,-18,102.7875,344.22813)"/>
<use data-text="o" xlink:href="#font_7_111" transform="matrix(18,0,0,-18,110.738628,344.22813)"/>
<use data-text="t" xlink:href="#font_7_116" transform="matrix(18,0,0,-18,121.75462,344.22813)"/>
<use data-text="a" xlink:href="#font_7_97" transform="matrix(18,0,0,-18,128.81063,344.22813)"/>
<use data-text="l" xlink:href="#font_7_108" transform="matrix(18,0,0,-18,139.84462,344.22813)"/>
<use data-text=" " xlink:href="#font_7_32" transform="matrix(18,0,0,-18,144.84864,344.22813)"/>
<use data-text="T" xlink:href="#font_7_84" transform="matrix(18,0,0,-18,150.57263,344.22813)"/>
<use data-text="r" xlink:href="#font_7_114" transform="matrix(18,0,0,-18,158.93,344.22813)"/>
<use data-text="a" xlink:href="#font_7_97" transform="matrix(18,0,0,-18,166.328,344.22813)"/>
<use data-text="i" xlink:href="#font_7_105" transform="matrix(18,0,0,-18,177.362,344.22813)"/>
<use data-text="n" xlink:href="#font_7_110" transform="matrix(18,0,0,-18,182.366,344.22813)"/>
<use data-text="i" xlink:href="#font_7_105" transform="matrix(18,0,0,-18,193.778,344.22813)"/>
<use data-text="n" xlink:href="#font_7_110" transform="matrix(18,0,0,-18,198.782,344.22813)"/>
<use data-text="g" xlink:href="#font_7_103" transform="matrix(18,0,0,-18,210.194,344.22813)"/>
<use data-text=" " xlink:href="#font_7_32" transform="matrix(18,0,0,-18,221.624,344.22813)"/>
<use data-text="T" xlink:href="#font_7_84" transform="matrix(18,0,0,-18,227.34799,344.22813)"/>
<use data-text="i" xlink:href="#font_7_105" transform="matrix(18,0,0,-18,237.79914,344.22813)"/>
<use data-text="m" xlink:href="#font_7_109" transform="matrix(18,0,0,-18,242.80313,344.22813)"/>
<use data-text="e" xlink:href="#font_7_101" transform="matrix(18,0,0,-18,260.3351,344.22813)"/>
<use data-text=" " xlink:href="#font_7_32" transform="matrix(18,0,0,-18,271.40513,344.22813)"/>
<use data-text="(" xlink:href="#font_7_40" transform="matrix(18,0,0,-18,277.12913,344.22813)"/>
<use data-text="H" xlink:href="#font_7_72" transform="matrix(18,0,0,-18,284.1491,344.22813)"/>
<use data-text="o" xlink:href="#font_7_111" transform="matrix(18,0,0,-18,297.68513,344.22813)"/>
<use data-text="u" xlink:href="#font_7_117" transform="matrix(18,0,0,-18,308.7011,344.22813)"/>
<use data-text="r" xlink:href="#font_7_114" transform="matrix(18,0,0,-18,320.11314,344.22813)"/>
<use data-text="s" xlink:href="#font_7_115" transform="matrix(18,0,0,-18,327.5111,344.22813)"/>
<use data-text=")" xlink:href="#font_7_41" transform="matrix(18,0,0,-18,336.88914,344.22813)"/>
<g clip-path="url(#clip_12)">
<path transform="matrix(1,0,0,-1,0,405.14564)" stroke-width=".8" stroke-linecap="butt" stroke-dasharray="2.96,1.28" stroke-linejoin="round" fill="none" stroke="#b0b0b0" stroke-opacity=".6" d="M55.996877 119.55375H390.79689"/>
</g>
<path transform="matrix(1,0,0,-1,0,405.14564)" d="M55.996877 119.55375H52.496877"/>
<path transform="matrix(1,0,0,-1,0,405.14564)" stroke-width=".8" stroke-linecap="butt" stroke-linejoin="round" fill="none" stroke="#000000" d="M55.996877 119.55375H52.496877"/>
<use data-text="0" xlink:href="#font_7_48" transform="matrix(16,0,0,-16,38.809377,291.67)"/>
<g clip-path="url(#clip_13)">
<path transform="matrix(1,0,0,-1,0,405.14564)" stroke-width=".8" stroke-linecap="butt" stroke-dasharray="2.96,1.28" stroke-linejoin="round" fill="none" stroke="#b0b0b0" stroke-opacity=".6" d="M55.996877 165.75376H390.79689"/>
</g>
<path transform="matrix(1,0,0,-1,0,405.14564)" d="M55.996877 165.75376H52.496877"/>
<path transform="matrix(1,0,0,-1,0,405.14564)" stroke-width=".8" stroke-linecap="butt" stroke-linejoin="round" fill="none" stroke="#000000" d="M55.996877 165.75376H52.496877"/>
<use data-text="5" xlink:href="#font_7_53" transform="matrix(16,0,0,-16,38.809377,245.47)"/>
<g clip-path="url(#clip_14)">
<path transform="matrix(1,0,0,-1,0,405.14564)" stroke-width=".8" stroke-linecap="butt" stroke-dasharray="2.96,1.28" stroke-linejoin="round" fill="none" stroke="#b0b0b0" stroke-opacity=".6" d="M55.996877 211.95375H390.79689"/>
</g>
<path transform="matrix(1,0,0,-1,0,405.14564)" d="M55.996877 211.95375H52.496877"/>
<path transform="matrix(1,0,0,-1,0,405.14564)" stroke-width=".8" stroke-linecap="butt" stroke-linejoin="round" fill="none" stroke="#000000" d="M55.996877 211.95375H52.496877"/>
<use data-text="1" xlink:href="#font_7_49" transform="matrix(16,0,0,-16,28.621876,199.27)"/>
<use data-text="0" xlink:href="#font_7_48" transform="matrix(16,0,0,-16,38.797876,199.27)"/>
<g clip-path="url(#clip_15)">
<path transform="matrix(1,0,0,-1,0,405.14564)" stroke-width=".8" stroke-linecap="butt" stroke-dasharray="2.96,1.28" stroke-linejoin="round" fill="none" stroke="#b0b0b0" stroke-opacity=".6" d="M55.996877 258.15376H390.79689"/>
</g>
<path transform="matrix(1,0,0,-1,0,405.14564)" d="M55.996877 258.15376H52.496877"/>
<path transform="matrix(1,0,0,-1,0,405.14564)" stroke-width=".8" stroke-linecap="butt" stroke-linejoin="round" fill="none" stroke="#000000" d="M55.996877 258.15376H52.496877"/>
<use data-text="1" xlink:href="#font_7_49" transform="matrix(16,0,0,-16,28.621876,153.07)"/>
<use data-text="5" xlink:href="#font_7_53" transform="matrix(16,0,0,-16,38.797876,153.07)"/>
<g clip-path="url(#clip_16)">
<path transform="matrix(1,0,0,-1,0,405.14564)" stroke-width=".8" stroke-linecap="butt" stroke-dasharray="2.96,1.28" stroke-linejoin="round" fill="none" stroke="#b0b0b0" stroke-opacity=".6" d="M55.996877 304.35377H390.79689"/>
</g>
<path transform="matrix(1,0,0,-1,0,405.14564)" d="M55.996877 304.35377H52.496877"/>
<path transform="matrix(1,0,0,-1,0,405.14564)" stroke-width=".8" stroke-linecap="butt" stroke-linejoin="round" fill="none" stroke="#000000" d="M55.996877 304.35377H52.496877"/>
<use data-text="2" xlink:href="#font_7_50" transform="matrix(16,0,0,-16,28.621876,106.869998)"/>
<use data-text="0" xlink:href="#font_7_48" transform="matrix(16,0,0,-16,38.797876,106.869998)"/>
<g clip-path="url(#clip_17)">
<path transform="matrix(1,0,0,-1,0,405.14564)" stroke-width=".8" stroke-linecap="butt" stroke-dasharray="2.96,1.28" stroke-linejoin="round" fill="none" stroke="#b0b0b0" stroke-opacity=".6" d="M55.996877 350.55375H390.79689"/>
</g>
<path transform="matrix(1,0,0,-1,0,405.14564)" d="M55.996877 350.55375H52.496877"/>
<path transform="matrix(1,0,0,-1,0,405.14564)" stroke-width=".8" stroke-linecap="butt" stroke-linejoin="round" fill="none" stroke="#000000" d="M55.996877 350.55375H52.496877"/>
<use data-text="2" xlink:href="#font_7_50" transform="matrix(16,0,0,-16,28.621876,60.670015)"/>
<use data-text="5" xlink:href="#font_7_53" transform="matrix(16,0,0,-16,38.797876,60.670015)"/>
<use data-text="A" xlink:href="#font_7_65" transform="matrix(0,-18,-18,-0,20.871876,248.55782)" fill="#2ca02c"/>
<use data-text="v" xlink:href="#font_7_118" transform="matrix(0,-18,-18,-0,20.871876,237.2927)" fill="#2ca02c"/>
<use data-text="g" xlink:href="#font_7_103" transform="matrix(0,-18,-18,-0,20.871876,226.63669)" fill="#2ca02c"/>
<use data-text="." xlink:href="#font_7_46" transform="matrix(0,-18,-18,-0,20.871876,215.2067)" fill="#2ca02c"/>
<use data-text=" " xlink:href="#font_7_32" transform="matrix(0,-18,-18,-0,20.871876,209.4827)" fill="#2ca02c"/>
<use data-text="R" xlink:href="#font_7_82" transform="matrix(0,-18,-18,-0,20.871876,203.7587)" fill="#2ca02c"/>
<use data-text="O" xlink:href="#font_7_79" transform="matrix(0,-18,-18,-0,20.871876,191.24869)" fill="#2ca02c"/>
<use data-text="U" xlink:href="#font_7_85" transform="matrix(0,-18,-18,-0,20.871876,177.08269)" fill="#2ca02c"/>
<use data-text="G" xlink:href="#font_7_71" transform="matrix(0,-18,-18,-0,20.871876,163.90668)" fill="#2ca02c"/>
<use data-text="E" xlink:href="#font_7_69" transform="matrix(0,-18,-18,-0,20.871876,149.95668)" fill="#2ca02c"/>
<use data-text=" " xlink:href="#font_7_32" transform="matrix(0,-18,-18,-0,20.871876,138.58069)" fill="#2ca02c"/>
<use data-text="S" xlink:href="#font_7_83" transform="matrix(0,-18,-18,-0,20.871876,132.85669)" fill="#2ca02c"/>
<use data-text="c" xlink:href="#font_7_99" transform="matrix(0,-18,-18,-0,20.871876,121.42668)" fill="#2ca02c"/>
<use data-text="o" xlink:href="#font_7_111" transform="matrix(0,-18,-18,-0,20.871876,111.52669)" fill="#2ca02c"/>
<use data-text="r" xlink:href="#font_7_114" transform="matrix(0,-18,-18,-0,20.871876,100.51068)" fill="#2ca02c"/>
<use data-text="e" xlink:href="#font_7_101" transform="matrix(0,-18,-18,-0,20.871876,93.50331)" fill="#2ca02c"/>
<g clip-path="url(#clip_18)">
<path transform="matrix(1,0,0,-1,0,405.14564)" stroke-width="1.5" stroke-linecap="square" stroke-linejoin="round" fill="none" stroke="#2ca02c" d="M55.996877 339.37336H390.79689"/>
</g>
<g clip-path="url(#clip_19)">
<path transform="matrix(1,0,0,-1,0,405.14564)" stroke-width="1.5" stroke-linecap="butt" stroke-dasharray="5.55,2.4" stroke-linejoin="round" fill="none" stroke="#2ca02c" d="M55.996877 358.59257H390.79689"/>
</g>
<path transform="matrix(1,0,0,-1,0,405.14564)" stroke-width="1.5" stroke-linecap="square" stroke-miterlimit="10" stroke-linejoin="miter" fill="none" stroke="#000000" d="M55.996877 101.07375V378.27375"/>
<path transform="matrix(1,0,0,-1,0,405.14564)" stroke-width="1.5" stroke-linecap="square" stroke-miterlimit="10" stroke-linejoin="miter" fill="none" stroke="#000000" d="M390.79689 101.07375V378.27375"/>
<path transform="matrix(1,0,0,-1,0,405.14564)" stroke-width="1.5" stroke-linecap="square" stroke-miterlimit="10" stroke-linejoin="miter" fill="none" stroke="#000000" d="M55.996877 101.07375H390.79689"/>
<path transform="matrix(1,0,0,-1,0,405.14564)" stroke-width="1.5" stroke-linecap="square" stroke-miterlimit="10" stroke-linejoin="miter" fill="none" stroke="#000000" d="M55.996877 378.27375H390.79689"/>
<use data-text="R" xlink:href="#font_7_82" transform="matrix(16,0,0,-16,98.60778,290.63334)"/>
<use data-text="T" xlink:href="#font_7_84" transform="matrix(16,0,0,-16,108.57153,290.63334)"/>
<use data-text="N" xlink:href="#font_7_78" transform="matrix(16,0,0,-16,118.347537,290.63334)"/>
<use data-text="G" xlink:href="#font_7_71" transform="matrix(16,0,0,-16,98.60778,277.36656)"/>
<use data-text="P" xlink:href="#font_7_80" transform="matrix(16,0,0,-16,111.00778,277.36656)"/>
<use data-text="T" xlink:href="#font_7_84" transform="matrix(16,0,0,-16,120.65578,277.36656)"/>
<use data-text="Q" xlink:href="#font_7_81" transform="matrix(16,0,0,-16,130.43178,277.36656)"/>
<use data-text="Q" xlink:href="#font_7_81" transform="matrix(16,0,0,-16,98.60778,238.00415)"/>
<use data-text="u" xlink:href="#font_7_117" transform="matrix(16,0,0,-16,111.19978,238.00415)"/>
<use data-text="a" xlink:href="#font_7_97" transform="matrix(16,0,0,-16,121.34378,238.00415)"/>
<use data-text="R" xlink:href="#font_7_82" transform="matrix(16,0,0,-16,131.15178,238.00415)"/>
<use data-text="o" xlink:href="#font_7_111" transform="matrix(16,0,0,-16,141.55304,238.00415)"/>
<use data-text="t" xlink:href="#font_7_116" transform="matrix(16,0,0,-16,151.34503,238.00415)"/>
<use data-text="S" xlink:href="#font_7_83" transform="matrix(16,0,0,-16,296.44416,237.81935)"/>
<use data-text="p" xlink:href="#font_7_112" transform="matrix(16,0,0,-16,306.60417,237.81935)"/>
<use data-text="i" xlink:href="#font_7_105" transform="matrix(16,0,0,-16,316.76417,237.81935)"/>
<use data-text="n" xlink:href="#font_7_110" transform="matrix(16,0,0,-16,321.21217,237.81935)"/>
<use data-text="Q" xlink:href="#font_7_81" transform="matrix(16,0,0,-16,331.35615,237.81935)"/>
<use data-text="u" xlink:href="#font_7_117" transform="matrix(16,0,0,-16,343.94816,237.81935)"/>
<use data-text="a" xlink:href="#font_7_97" transform="matrix(16,0,0,-16,354.09217,237.81935)"/>
<use data-text="n" xlink:href="#font_7_110" transform="matrix(16,0,0,-16,363.90016,237.81935)"/>
<use data-text="t" xlink:href="#font_7_116" transform="matrix(16,0,0,-16,374.04417,237.81935)"/>
<use data-text="S" xlink:href="#font_7_83" transform="matrix(16,0,0,-16,144.26233,77.87497)"/>
<use data-text="T" xlink:href="#font_7_84" transform="matrix(16,0,0,-16,154.42234,77.87497)"/>
<use data-text="E" xlink:href="#font_7_69" transform="matrix(16,0,0,-16,164.19834,77.87497)"/>
<use data-text="R" xlink:href="#font_20_82" transform="matrix(16,0,0,-16,205.13506,65.82413)"/>
<use data-text="o" xlink:href="#font_20_111" transform="matrix(16,0,0,-16,217.45507,65.82413)"/>
<use data-text="S" xlink:href="#font_20_83" transform="matrix(16,0,0,-16,228.44705,65.82413)"/>
<use data-text="T" xlink:href="#font_20_84" transform="matrix(16,0,0,-16,239.96706,65.82413)"/>
<use data-text="E" xlink:href="#font_20_69" transform="matrix(16,0,0,-16,250.87906,65.82413)"/>
<use data-text="A" xlink:href="#font_7_65" transform="matrix(18,0,0,-18,13.178125,20.871888)"/>
<use data-text="c" xlink:href="#font_7_99" transform="matrix(18,0,0,-18,25.177626,20.871888)"/>
<use data-text="c" xlink:href="#font_7_99" transform="matrix(18,0,0,-18,35.07763,20.871888)"/>
<use data-text="u" xlink:href="#font_7_117" transform="matrix(18,0,0,-18,44.97763,20.871888)"/>
<use data-text="r" xlink:href="#font_7_114" transform="matrix(18,0,0,-18,56.389627,20.871888)"/>
<use data-text="a" xlink:href="#font_7_97" transform="matrix(18,0,0,-18,63.78763,20.871888)"/>
<use data-text="c" xlink:href="#font_7_99" transform="matrix(18,0,0,-18,74.821628,20.871888)"/>
<use data-text="y" xlink:href="#font_7_121" transform="matrix(18,0,0,-18,84.72163,20.871888)"/>
<use data-text=" " xlink:href="#font_7_32" transform="matrix(18,0,0,-18,95.377628,20.871888)"/>
<use data-text="v" xlink:href="#font_7_118" transform="matrix(18,0,0,-18,101.10162,20.871888)"/>
<use data-text="s" xlink:href="#font_7_115" transform="matrix(18,0,0,-18,111.75762,20.871888)"/>
<use data-text=" " xlink:href="#font_7_32" transform="matrix(18,0,0,-18,121.13562,20.871888)"/>
<use data-text="T" xlink:href="#font_7_84" transform="matrix(18,0,0,-18,126.85962,20.871888)"/>
<use data-text="r" xlink:href="#font_7_114" transform="matrix(18,0,0,-18,135.217,20.871888)"/>
<use data-text="a" xlink:href="#font_7_97" transform="matrix(18,0,0,-18,142.615,20.871888)"/>
<use data-text="i" xlink:href="#font_7_105" transform="matrix(18,0,0,-18,153.649,20.871888)"/>
<use data-text="n" xlink:href="#font_7_110" transform="matrix(18,0,0,-18,158.653,20.871888)"/>
<use data-text="i" xlink:href="#font_7_105" transform="matrix(18,0,0,-18,170.065,20.871888)"/>
<use data-text="n" xlink:href="#font_7_110" transform="matrix(18,0,0,-18,175.069,20.871888)"/>
<use data-text="g" xlink:href="#font_7_103" transform="matrix(18,0,0,-18,186.481,20.871888)"/>
<use data-text=" " xlink:href="#font_7_32" transform="matrix(18,0,0,-18,197.91101,20.871888)"/>
<use data-text="T" xlink:href="#font_7_84" transform="matrix(18,0,0,-18,203.63501,20.871888)"/>
<use data-text="i" xlink:href="#font_7_105" transform="matrix(18,0,0,-18,214.08614,20.871888)"/>
<use data-text="m" xlink:href="#font_7_109" transform="matrix(18,0,0,-18,219.09014,20.871888)"/>
<use data-text="e" xlink:href="#font_7_101" transform="matrix(18,0,0,-18,236.62213,20.871888)"/>
<use data-text=" " xlink:href="#font_7_32" transform="matrix(18,0,0,-18,247.69214,20.871888)"/>
<use data-text="(" xlink:href="#font_7_40" transform="matrix(18,0,0,-18,253.41614,20.871888)"/>
<use data-text="E" xlink:href="#font_7_69" transform="matrix(18,0,0,-18,260.43614,20.871888)"/>
<use data-text="x" xlink:href="#font_7_120" transform="matrix(18,0,0,-18,271.81214,20.871888)"/>
<use data-text="p" xlink:href="#font_7_112" transform="matrix(18,0,0,-18,282.46815,20.871888)"/>
<use data-text="1" xlink:href="#font_7_49" transform="matrix(18,0,0,-18,293.89814,20.871888)"/>
<use data-text=":" xlink:href="#font_7_58" transform="matrix(18,0,0,-18,305.34614,20.871888)"/>
<use data-text=" " xlink:href="#font_7_32" transform="matrix(18,0,0,-18,311.41215,20.871888)"/>
<use data-text="Q" xlink:href="#font_7_81" transform="matrix(18,0,0,-18,317.13615,20.871888)"/>
<use data-text="w" xlink:href="#font_7_119" transform="matrix(18,0,0,-18,331.30216,20.871888)"/>
<use data-text="e" xlink:href="#font_7_101" transform="matrix(18,0,0,-18,346.02616,20.871888)"/>
<use data-text="n" xlink:href="#font_7_110" transform="matrix(18,0,0,-18,357.09617,20.871888)"/>
<use data-text="2" xlink:href="#font_7_50" transform="matrix(18,0,0,-18,368.50816,20.871888)"/>
<use data-text="." xlink:href="#font_7_46" transform="matrix(18,0,0,-18,379.95616,20.871888)"/>
<use data-text="5" xlink:href="#font_7_53" transform="matrix(18,0,0,-18,385.68016,20.871888)"/>
<use data-text=" " xlink:href="#font_7_32" transform="matrix(18,0,0,-18,397.12815,20.871888)"/>
<use data-text="7" xlink:href="#font_7_55" transform="matrix(18,0,0,-18,402.85215,20.871888)"/>
<use data-text="B" xlink:href="#font_7_66" transform="matrix(18,0,0,-18,414.30015,20.871888)"/>
<use data-text=")" xlink:href="#font_7_41" transform="matrix(18,0,0,-18,426.64814,20.871888)"/>
<g>
<path transform="matrix(1,0,0,-1,0,405.14564)" d="M69.51406 7.2H377.2797C379.14637 7.2 380.07969 8.133333 380.07969 10V49.69375C380.07969 51.560419 379.14637 52.49375 377.2797 52.49375H69.51406C67.64739 52.49375 66.714069 51.560419 66.714069 49.69375V10C66.714069 8.133333 67.64739 7.2 69.51406 7.2Z" fill="#ffffff" fill-opacity=".7"/>
<path transform="matrix(1,0,0,-1,0,405.14564)" stroke-width="1" stroke-linecap="butt" stroke-miterlimit="10" stroke-linejoin="miter" fill="none" stroke="#000000" stroke-opacity=".7" d="M69.51406 7.2H377.2797C379.14637 7.2 380.07969 8.133333 380.07969 10V49.69375C380.07969 51.560419 379.14637 52.49375 377.2797 52.49375H69.51406C67.64739 52.49375 66.714069 51.560419 66.714069 49.69375V10C66.714069 8.133333 67.64739 7.2 69.51406 7.2Z"/>
</g>
<g>
<path transform="matrix(1,0,0,-1,0,405.14564)" d="M86.314067 48.8724 77.36979 30.983853H95.25833Z" fill="#2ca02c" fill-opacity=".7"/>
<path transform="matrix(1,0,0,-1,0,405.14564)" stroke-width="1" stroke-linecap="butt" stroke-linejoin="round" fill="none" stroke="#2ca02c" stroke-opacity=".7" d="M86.314067 48.8724 77.36979 30.983853H95.25833Z"/>
</g>
<use data-text="S" xlink:href="#font_7_83" transform="matrix(14,0,0,-14,111.51406,368.89253)"/>
<use data-text="F" xlink:href="#font_7_70" transform="matrix(14,0,0,-14,120.40406,368.89253)"/>
<use data-text="T" xlink:href="#font_7_84" transform="matrix(14,0,0,-14,128.2197,368.89253)"/>
<use data-text="+" xlink:href="#font_7_43" transform="matrix(14,0,0,-14,136.77368,368.89253)"/>
<use data-text="P" xlink:href="#font_7_80" transform="matrix(14,0,0,-14,148.50569,368.89253)"/>
<use data-text="T" xlink:href="#font_7_84" transform="matrix(14,0,0,-14,156.9477,368.89253)"/>
<use data-text="Q" xlink:href="#font_7_81" transform="matrix(14,0,0,-14,165.5017,368.89253)"/>
<use data-text=" " xlink:href="#font_7_32" transform="matrix(14,0,0,-14,176.51969,368.89253)"/>
<use data-text="(" xlink:href="#font_7_40" transform="matrix(14,0,0,-14,180.9717,368.89253)"/>
<use data-text="4" xlink:href="#font_7_52" transform="matrix(14,0,0,-14,186.4317,368.89253)"/>
<use data-text=" " xlink:href="#font_7_32" transform="matrix(14,0,0,-14,195.3357,368.89253)"/>
<use data-text="b" xlink:href="#font_7_98" transform="matrix(14,0,0,-14,199.78769,368.89253)"/>
<use data-text="i" xlink:href="#font_7_105" transform="matrix(14,0,0,-14,208.6777,368.89253)"/>
<use data-text="t" xlink:href="#font_7_116" transform="matrix(14,0,0,-14,212.5697,368.89253)"/>
<use data-text=")" xlink:href="#font_7_41" transform="matrix(14,0,0,-14,218.0577,368.89253)"/>
<g>
<path transform="matrix(1,0,0,-1,0,405.14564)" d="M86.314067 10.436978C88.68611 10.436978 90.96133 11.379403 92.63862 13.056695 94.31591 14.733986 95.25833 17.009202 95.25833 19.38125 95.25833 21.7533 94.31591 24.028515 92.63862 25.705805 90.96133 27.383097 88.68611 28.325522 86.314067 28.325522 83.94202 28.325522 81.6668 27.383097 79.98951 25.705805 78.31222 24.028515 77.36979 21.7533 77.36979 19.38125 77.36979 17.009202 78.31222 14.733986 79.98951 13.056695 81.6668 11.379403 83.94202 10.436978 86.314067 10.436978Z" fill="#2ca02c" fill-opacity=".7"/>
<path transform="matrix(1,0,0,-1,0,405.14564)" stroke-width="1" stroke-linecap="butt" stroke-linejoin="round" fill="none" stroke="#2ca02c" stroke-opacity=".7" d="M86.314067 10.436978C88.68611 10.436978 90.96133 11.379403 92.63862 13.056695 94.31591 14.733986 95.25833 17.009202 95.25833 19.38125 95.25833 21.7533 94.31591 24.028515 92.63862 25.705805 90.96133 27.383097 88.68611 28.325522 86.314067 28.325522 83.94202 28.325522 81.6668 27.383097 79.98951 25.705805 78.31222 24.028515 77.36979 21.7533 77.36979 19.38125 77.36979 17.009202 78.31222 14.733986 79.98951 13.056695 81.6668 11.379403 83.94202 10.436978 86.314067 10.436978Z"/>
</g>
<use data-text="Q" xlink:href="#font_7_81" transform="matrix(14,0,0,-14,111.51406,389.4394)"/>
<use data-text="A" xlink:href="#font_7_65" transform="matrix(14,0,0,-14,122.53206,389.4394)"/>
<use data-text="-" xlink:href="#font_7_45" transform="matrix(14,0,0,-14,131.81119,389.4394)"/>
<use data-text="S" xlink:href="#font_7_83" transform="matrix(14,0,0,-14,136.86519,389.4394)"/>
<use data-text="F" xlink:href="#font_7_70" transform="matrix(14,0,0,-14,145.75519,389.4394)"/>
<use data-text="T" xlink:href="#font_7_84" transform="matrix(14,0,0,-14,153.57082,389.4394)"/>
<use data-text=" " xlink:href="#font_7_32" transform="matrix(14,0,0,-14,162.12482,389.4394)"/>
<use data-text="(" xlink:href="#font_7_40" transform="matrix(14,0,0,-14,166.57682,389.4394)"/>
<use data-text="4" xlink:href="#font_7_52" transform="matrix(14,0,0,-14,172.03682,389.4394)"/>
<use data-text=" " xlink:href="#font_7_32" transform="matrix(14,0,0,-14,180.94083,389.4394)"/>
<use data-text="b" xlink:href="#font_7_98" transform="matrix(14,0,0,-14,185.39282,389.4394)"/>
<use data-text="i" xlink:href="#font_7_105" transform="matrix(14,0,0,-14,194.28282,389.4394)"/>
<use data-text="t" xlink:href="#font_7_116" transform="matrix(14,0,0,-14,198.17482,389.4394)"/>
<use data-text=")" xlink:href="#font_7_41" transform="matrix(14,0,0,-14,203.66281,389.4394)"/>
<path transform="matrix(1,0,0,-1,0,405.14564)" stroke-width="1.5" stroke-linecap="square" stroke-linejoin="round" fill="none" stroke="#2ca02c" d="M251.49845 41.153127H265.49845 279.49845"/>
<use data-text="B" xlink:href="#font_7_66" transform="matrix(14,0,0,-14,290.69844,368.89253)"/>
<use data-text="a" xlink:href="#font_7_97" transform="matrix(14,0,0,-14,300.30244,368.89253)"/>
<use data-text="s" xlink:href="#font_7_115" transform="matrix(14,0,0,-14,308.88444,368.89253)"/>
<use data-text="e" xlink:href="#font_7_101" transform="matrix(14,0,0,-14,316.17845,368.89253)"/>
<use data-text=" " xlink:href="#font_7_32" transform="matrix(14,0,0,-14,324.78843,368.89253)"/>
<use data-text="(" xlink:href="#font_7_40" transform="matrix(14,0,0,-14,329.24043,368.89253)"/>
<use data-text="F" xlink:href="#font_7_70" transform="matrix(14,0,0,-14,334.70045,368.89253)"/>
<use data-text="P" xlink:href="#font_7_80" transform="matrix(14,0,0,-14,342.75044,368.89253)"/>
<use data-text="1" xlink:href="#font_7_49" transform="matrix(14,0,0,-14,351.19245,368.89253)"/>
<use data-text="6" xlink:href="#font_7_54" transform="matrix(14,0,0,-14,360.09645,368.89253)"/>
<use data-text=")" xlink:href="#font_7_41" transform="matrix(14,0,0,-14,369.00044,368.89253)"/>
<path transform="matrix(1,0,0,-1,0,405.14564)" stroke-width="1.5" stroke-linecap="butt" stroke-dasharray="5.55,2.4" stroke-linejoin="round" fill="none" stroke="#2ca02c" d="M251.49845 20.60625H265.49845 279.49845"/>
<use data-text="S" xlink:href="#font_7_83" transform="matrix(14,0,0,-14,290.69844,389.4394)"/>
<use data-text="F" xlink:href="#font_7_70" transform="matrix(14,0,0,-14,299.58845,389.4394)"/>
<use data-text="T" xlink:href="#font_7_84" transform="matrix(14,0,0,-14,307.40406,389.4394)"/>
<use data-text=" " xlink:href="#font_7_32" transform="matrix(14,0,0,-14,315.95808,389.4394)"/>
<use data-text="(" xlink:href="#font_7_40" transform="matrix(14,0,0,-14,320.41007,389.4394)"/>
<use data-text="F" xlink:href="#font_7_70" transform="matrix(14,0,0,-14,325.87007,389.4394)"/>
<use data-text="P" xlink:href="#font_7_80" transform="matrix(14,0,0,-14,333.92005,389.4394)"/>
<use data-text="1" xlink:href="#font_7_49" transform="matrix(14,0,0,-14,342.36207,389.4394)"/>
<use data-text="6" xlink:href="#font_7_54" transform="matrix(14,0,0,-14,351.26606,389.4394)"/>
<use data-text=")" xlink:href="#font_7_41" transform="matrix(14,0,0,-14,360.17005,389.4394)"/>
</svg>
