<svg xmlns="http://www.w3.org/2000/svg" xmlns:xlink="http://www.w3.org/1999/xlink" xmlns:inkscape="http://www.inkscape.org/namespaces/inkscape" version="1.1" width="445.3" height="405.14564" viewBox="0 0 445.3 405.14564">
<defs>
<clipPath id="clip_0">
<path transform="matrix(1,0,0,-1,0,405.14564)" d="M55.996877 101.07375H390.79689V378.27378H55.996877Z"/>
</clipPath>
<clipPath id="clip_1">
<path transform="matrix(1,0,0,-1,0,405.14564)" d="M55.996877 101.07375H390.79689V378.27378H55.996877Z"/>
</clipPath>
<clipPath id="clip_2">
<path transform="matrix(1,0,0,-1,0,405.14564)" d="M55.996877 101.07375H390.79689V378.27378H55.996877Z"/>
</clipPath>
<clipPath id="clip_3">
<path transform="matrix(1,0,0,-1,0,405.14564)" d="M55.996877 101.07375H390.79689V378.27378H55.996877Z"/>
</clipPath>
<clipPath id="clip_4">
<path transform="matrix(1,0,0,-1,0,405.14564)" d="M55.996877 101.07375H390.79689V378.27378H55.996877Z"/>
</clipPath>
<clipPath id="clip_5">
<path transform="matrix(1,0,0,-1,0,405.14564)" d="M55.996877 101.07375H390.79689V378.27378H55.996877Z"/>
</clipPath>
<clipPath id="clip_6">
<path transform="matrix(1,0,0,-1,0,405.14564)" d="M55.996877 101.07375H390.79689V378.27378H55.996877Z"/>
</clipPath>
<clipPath id="clip_7">
<path transform="matrix(1,0,0,-1,0,405.14564)" d="M55.996877 101.07375H390.79689V378.27378H55.996877Z"/>
</clipPath>
<clipPath id="clip_8">
<path transform="matrix(1,0,0,-1,0,405.14564)" d="M55.996877 101.07375H390.79689V378.27378H55.996877Z"/>
</clipPath>
<clipPath id="clip_9">
<path transform="matrix(1,0,0,-1,0,405.14564)" d="M55.996877 101.07375H390.79689V378.27378H55.996877Z"/>
</clipPath>
<clipPath id="clip_10">
<path transform="matrix(1,0,0,-1,0,405.14564)" d="M55.996877 101.07375H390.79689V378.27378H55.996877Z"/>
</clipPath>
<clipPath id="clip_11">
<path transform="matrix(1,0,0,-1,0,405.14564)" d="M55.996877 101.07375H390.79689V378.27378H55.996877Z"/>
</clipPath>
<clipPath id="clip_12">
<path transform="matrix(1,0,0,-1,0,405.14564)" d="M55.996877 101.07375H390.79689V378.27378H55.996877Z"/>
</clipPath>
<clipPath id="clip_13">
<path transform="matrix(1,0,0,-1,0,405.14564)" d="M55.996877 101.07375H390.79689V378.27378H55.996877Z"/>
</clipPath>
<clipPath id="clip_14">
<path transform="matrix(1,0,0,-1,0,405.14564)" d="M55.996877 101.07375H390.79689V378.27378H55.996877Z"/>
</clipPath>
<clipPath id="clip_15">
<path transform="matrix(1,0,0,-1,0,405.14564)" d="M55.996877 101.07375H390.79689V378.27378H55.996877Z"/>
</clipPath>
<clipPath id="clip_16">
<path transform="matrix(1,0,0,-1,0,405.14564)" d="M55.996877 101.07375H390.79689V378.27378H55.996877Z"/>
</clipPath>
<clipPath id="clip_17">
<path transform="matrix(1,0,0,-1,0,405.14564)" d="M55.996877 101.07375H390.79689V378.27378H55.996877Z"/>
</clipPath>
<clipPath id="clip_18">
<path transform="matrix(1,0,0,-1,0,405.14564)" d="M55.996877 101.07375H390.79689V378.27378H55.996877Z"/>
</clipPath>
<clipPath id="clip_19">
<path transform="matrix(1,0,0,-1,0,405.14564)" d="M55.996877 101.07375H390.79689V378.27378H55.996877Z"/>
</clipPath>
<clipPath id="clip_20">
<path transform="matrix(1,0,0,-1,0,405.14564)" d="M55.996877 101.07375H390.79689V378.27378H55.996877Z"/>
</clipPath>
<clipPath id="clip_21">
<path transform="matrix(1,0,0,-1,0,405.14564)" d="M55.996877 101.07375H390.79689V378.27378H55.996877Z"/>
</clipPath>
<clipPath id="clip_22">
<path transform="matrix(1,0,0,-1,0,405.14564)" d="M55.996877 101.07375H390.79689V378.27378H55.996877Z"/>
</clipPath>
<clipPath id="clip_23">
<path transform="matrix(1,0,0,-1,0,405.14564)" d="M55.996877 101.07375H390.79689V378.27378H55.996877Z"/>
</clipPath>
<clipPath id="clip_24">
<path transform="matrix(1,0,0,-1,0,405.14564)" d="M55.996877 101.07375H390.79689V378.27378H55.996877Z"/>
</clipPath>
</defs>
<path transform="matrix(1,0,0,-1,0,405.14564)" d="M0 0H445.3V405.14564H0Z" fill="#ffffff"/>
<path transform="matrix(1,0,0,-1,0,405.14564)" d="M55.996877 101.07375H390.79689V378.27375H55.996877Z" fill="#ffffff"/>
<g clip-path="url(#clip_0)">
<g>
<path transform="matrix(1,0,0,-1,0,405.14564)" d="M85.756877 132.51102 74.57654 110.15033H96.93722Z" fill="#d62728" fill-opacity=".7"/>
<path transform="matrix(1,0,0,-1,0,405.14564)" stroke-width="1" stroke-linecap="butt" stroke-linejoin="round" fill="none" stroke="#d62728" stroke-opacity=".7" d="M85.756877 132.51102 74.57654 110.15033H96.93722Z"/>
</g>
</g>
<g clip-path="url(#clip_1)">
<g>
<path transform="matrix(1,0,0,-1,0,405.14564)" d="M85.756877 138.83686 74.57654 116.47618H96.93722Z" fill="#d62728" fill-opacity=".7"/>
<path transform="matrix(1,0,0,-1,0,405.14564)" stroke-width="1" stroke-linecap="butt" stroke-linejoin="round" fill="none" stroke="#d62728" stroke-opacity=".7" d="M85.756877 138.83686 74.57654 116.47618H96.93722Z"/>
</g>
</g>
<g clip-path="url(#clip_2)">
<g>
<path transform="matrix(1,0,0,-1,0,405.14564)" d="M85.756877 286.10826 74.57654 263.74757H96.93722Z" fill="#d62728" fill-opacity=".7"/>
<path transform="matrix(1,0,0,-1,0,405.14564)" stroke-width="1" stroke-linecap="butt" stroke-linejoin="round" fill="none" stroke="#d62728" stroke-opacity=".7" d="M85.756877 286.10826 74.57654 263.74757H96.93722Z"/>
</g>
</g>
<g clip-path="url(#clip_3)">
<g>
<path transform="matrix(1,0,0,-1,0,405.14564)" d="M182.47687 291.08363 171.29654 268.72297H193.65721Z" fill="#d62728" fill-opacity=".7"/>
<path transform="matrix(1,0,0,-1,0,405.14564)" stroke-width="1" stroke-linecap="butt" stroke-linejoin="round" fill="none" stroke="#d62728" stroke-opacity=".7" d="M182.47687 291.08363 171.29654 268.72297H193.65721Z"/>
</g>
</g>
<g clip-path="url(#clip_4)">
<g>
<path transform="matrix(1,0,0,-1,0,405.14564)" d="M234.55687 183.28849C237.52194 183.28849 240.36595 184.46652 242.46257 186.56313 244.55919 188.65975 245.73722 191.50377 245.73722 194.46883 245.73722 197.43389 244.55919 200.27791 242.46257 202.37453 240.36595 204.47113 237.52194 205.64917 234.55687 205.64917 231.59181 205.64917 228.74779 204.47113 226.65119 202.37453 224.55457 200.27791 223.37654 197.43389 223.37654 194.46883 223.37654 191.50377 224.55457 188.65975 226.65119 186.56313 228.74779 184.46652 231.59181 183.28849 234.55687 183.28849Z" fill="#d62728" fill-opacity=".7"/>
<path transform="matrix(1,0,0,-1,0,405.14564)" stroke-width="1" stroke-linecap="butt" stroke-linejoin="round" fill="none" stroke="#d62728" stroke-opacity=".7" d="M234.55687 183.28849C237.52194 183.28849 240.36595 184.46652 242.46257 186.56313 244.55919 188.65975 245.73722 191.50377 245.73722 194.46883 245.73722 197.43389 244.55919 200.27791 242.46257 202.37453 240.36595 204.47113 237.52194 205.64917 234.55687 205.64917 231.59181 205.64917 228.74779 204.47113 226.65119 202.37453 224.55457 200.27791 223.37654 197.43389 223.37654 194.46883 223.37654 191.50377 224.55457 188.65975 226.65119 186.56313 228.74779 184.46652 231.59181 183.28849 234.55687 183.28849Z"/>
</g>
</g>
<g clip-path="url(#clip_5)">
<g>
<path transform="matrix(1,0,0,-1,0,405.14564)" d="M308.95689 286.7054C311.92195 286.7054 314.76597 287.88346 316.86259 289.98005 318.9592 292.07667 320.1372 294.9207 320.1372 297.88575 320.1372 300.8508 318.9592 303.69483 316.86259 305.79145 314.76597 307.88807 311.92195 309.0661 308.95689 309.0661 305.99183 309.0661 303.1478 307.88807 301.05119 305.79145 298.95457 303.69483 297.77653 300.8508 297.77653 297.88575 297.77653 294.9207 298.95457 292.07667 301.05119 289.98005 303.1478 287.88346 305.99183 286.7054 308.95689 286.7054Z" fill="#d62728" fill-opacity=".7"/>
<path transform="matrix(1,0,0,-1,0,405.14564)" stroke-width="1" stroke-linecap="butt" stroke-linejoin="round" fill="none" stroke="#d62728" stroke-opacity=".7" d="M308.95689 286.7054C311.92195 286.7054 314.76597 287.88346 316.86259 289.98005 318.9592 292.07667 320.1372 294.9207 320.1372 297.88575 320.1372 300.8508 318.9592 303.69483 316.86259 305.79145 314.76597 307.88807 311.92195 309.0661 308.95689 309.0661 305.99183 309.0661 303.1478 307.88807 301.05119 305.79145 298.95457 303.69483 297.77653 300.8508 297.77653 297.88575 297.77653 294.9207 298.95457 292.07667 301.05119 289.98005 303.1478 287.88346 305.99183 286.7054 308.95689 286.7054Z"/>
</g>
</g>
<g clip-path="url(#clip_6)">
<path transform="matrix(1,0,0,-1,0,405.14564)" stroke-width=".8" stroke-linecap="butt" stroke-dasharray="2.96,1.28" stroke-linejoin="round" fill="none" stroke="#b0b0b0" stroke-opacity=".6" d="M85.756877 101.07375V378.27375"/>
</g>
<path transform="matrix(1,0,0,-1,0,405.14564)" d="M85.756877 101.07375V97.57375"/>
<path transform="matrix(1,0,0,-1,0,405.14564)" stroke-width=".8" stroke-linecap="butt" stroke-linejoin="round" fill="none" stroke="#000000" d="M85.756877 101.07375V97.57375"/>
<text xml:space="preserve" transform="matrix(1 0 -0 1 73.0225 323.22813)" font-size="16" font-family="DejaVuSans"><tspan y="0" x="0 10.176001 15.264001">4.5</tspan></text>
<g clip-path="url(#clip_7)">
<path transform="matrix(1,0,0,-1,0,405.14564)" stroke-width=".8" stroke-linecap="butt" stroke-dasharray="2.96,1.28" stroke-linejoin="round" fill="none" stroke="#b0b0b0" stroke-opacity=".6" d="M122.95688 101.07375V378.27375"/>
</g>
<path transform="matrix(1,0,0,-1,0,405.14564)" d="M122.95688 101.07375V97.57375"/>
<path transform="matrix(1,0,0,-1,0,405.14564)" stroke-width=".8" stroke-linecap="butt" stroke-linejoin="round" fill="none" stroke="#000000" d="M122.95688 101.07375V97.57375"/>
<text xml:space="preserve" transform="matrix(1 0 -0 1 110.2225 323.22813)" font-size="16" font-family="DejaVuSans"><tspan y="0" x="0 10.176001 15.264001">5.0</tspan></text>
<g clip-path="url(#clip_8)">
<path transform="matrix(1,0,0,-1,0,405.14564)" stroke-width=".8" stroke-linecap="butt" stroke-dasharray="2.96,1.28" stroke-linejoin="round" fill="none" stroke="#b0b0b0" stroke-opacity=".6" d="M160.15688 101.07375V378.27375"/>
</g>
<path transform="matrix(1,0,0,-1,0,405.14564)" d="M160.15688 101.07375V97.57375"/>
<path transform="matrix(1,0,0,-1,0,405.14564)" stroke-width=".8" stroke-linecap="butt" stroke-linejoin="round" fill="none" stroke="#000000" d="M160.15688 101.07375V97.57375"/>
<text xml:space="preserve" transform="matrix(1 0 -0 1 147.4225 323.22813)" font-size="16" font-family="DejaVuSans"><tspan y="0" x="0 10.176001 15.264001">5.5</tspan></text>
<g clip-path="url(#clip_9)">
<path transform="matrix(1,0,0,-1,0,405.14564)" stroke-width=".8" stroke-linecap="butt" stroke-dasharray="2.96,1.28" stroke-linejoin="round" fill="none" stroke="#b0b0b0" stroke-opacity=".6" d="M197.35688 101.07375V378.27375"/>
</g>
<path transform="matrix(1,0,0,-1,0,405.14564)" d="M197.35688 101.07375V97.57375"/>
<path transform="matrix(1,0,0,-1,0,405.14564)" stroke-width=".8" stroke-linecap="butt" stroke-linejoin="round" fill="none" stroke="#000000" d="M197.35688 101.07375V97.57375"/>
<text xml:space="preserve" transform="matrix(1 0 -0 1 184.6225 323.22813)" font-size="16" font-family="DejaVuSans"><tspan y="0" x="0 10.176001 15.264001">6.0</tspan></text>
<g clip-path="url(#clip_10)">
<path transform="matrix(1,0,0,-1,0,405.14564)" stroke-width=".8" stroke-linecap="butt" stroke-dasharray="2.96,1.28" stroke-linejoin="round" fill="none" stroke="#b0b0b0" stroke-opacity=".6" d="M234.55687 101.07375V378.27375"/>
</g>
<path transform="matrix(1,0,0,-1,0,405.14564)" d="M234.55687 101.07375V97.57375"/>
<path transform="matrix(1,0,0,-1,0,405.14564)" stroke-width=".8" stroke-linecap="butt" stroke-linejoin="round" fill="none" stroke="#000000" d="M234.55687 101.07375V97.57375"/>
<text xml:space="preserve" transform="matrix(1 0 -0 1 221.8225 323.22813)" font-size="16" font-family="DejaVuSans"><tspan y="0" x="0 10.176001 15.264001">6.5</tspan></text>
<g clip-path="url(#clip_11)">
<path transform="matrix(1,0,0,-1,0,405.14564)" stroke-width=".8" stroke-linecap="butt" stroke-dasharray="2.96,1.28" stroke-linejoin="round" fill="none" stroke="#b0b0b0" stroke-opacity=".6" d="M271.75688 101.07375V378.27375"/>
</g>
<path transform="matrix(1,0,0,-1,0,405.14564)" d="M271.75688 101.07375V97.57375"/>
<path transform="matrix(1,0,0,-1,0,405.14564)" stroke-width=".8" stroke-linecap="butt" stroke-linejoin="round" fill="none" stroke="#000000" d="M271.75688 101.07375V97.57375"/>
<text xml:space="preserve" transform="matrix(1 0 -0 1 259.0225 323.22813)" font-size="16" font-family="DejaVuSans"><tspan y="0" x="0 10.176001 15.264001">7.0</tspan></text>
<g clip-path="url(#clip_12)">
<path transform="matrix(1,0,0,-1,0,405.14564)" stroke-width=".8" stroke-linecap="butt" stroke-dasharray="2.96,1.28" stroke-linejoin="round" fill="none" stroke="#b0b0b0" stroke-opacity=".6" d="M308.95689 101.07375V378.27375"/>
</g>
<path transform="matrix(1,0,0,-1,0,405.14564)" d="M308.95689 101.07375V97.57375"/>
<path transform="matrix(1,0,0,-1,0,405.14564)" stroke-width=".8" stroke-linecap="butt" stroke-linejoin="round" fill="none" stroke="#000000" d="M308.95689 101.07375V97.57375"/>
<text xml:space="preserve" transform="matrix(1 0 -0 1 296.2225 323.22813)" font-size="16" font-family="DejaVuSans"><tspan y="0" x="0 10.176001 15.264001">7.5</tspan></text>
<g clip-path="url(#clip_13)">
<path transform="matrix(1,0,0,-1,0,405.14564)" stroke-width=".8" stroke-linecap="butt" stroke-dasharray="2.96,1.28" stroke-linejoin="round" fill="none" stroke="#b0b0b0" stroke-opacity=".6" d="M346.15687 101.07375V378.27375"/>
</g>
<path transform="matrix(1,0,0,-1,0,405.14564)" d="M346.15687 101.07375V97.57375"/>
<path transform="matrix(1,0,0,-1,0,405.14564)" stroke-width=".8" stroke-linecap="butt" stroke-linejoin="round" fill="none" stroke="#000000" d="M346.15687 101.07375V97.57375"/>
<text xml:space="preserve" transform="matrix(1 0 -0 1 333.4225 323.22813)" font-size="16" font-family="DejaVuSans"><tspan y="0" x="0 10.176001 15.264001">8.0</tspan></text>
<g clip-path="url(#clip_14)">
<path transform="matrix(1,0,0,-1,0,405.14564)" stroke-width=".8" stroke-linecap="butt" stroke-dasharray="2.96,1.28" stroke-linejoin="round" fill="none" stroke="#b0b0b0" stroke-opacity=".6" d="M383.35688 101.07375V378.27375"/>
</g>
<path transform="matrix(1,0,0,-1,0,405.14564)" d="M383.35688 101.07375V97.57375"/>
<path transform="matrix(1,0,0,-1,0,405.14564)" stroke-width=".8" stroke-linecap="butt" stroke-linejoin="round" fill="none" stroke="#000000" d="M383.35688 101.07375V97.57375"/>
<text xml:space="preserve" transform="matrix(1 0 -0 1 370.6225 323.22813)" font-size="16" font-family="DejaVuSans"><tspan y="0" x="0 10.176001 15.264001">8.5</tspan></text>
<text xml:space="preserve" transform="matrix(1 0 -0 1 102.7875 344.22813)" font-size="18" font-family="DejaVuSans"><tspan y="0" x="0 7.951125 18.967125 26.023125 37.057126 42.061128 47.785127 56.1425 63.5405 74.5745 79.5785 90.9905 95.9945 107.4065 118.8365 124.5605 135.01163 140.01563 157.54763 168.61762 174.34162 181.36162 194.89762 205.91362 217.32563 224.72362 234.10163">Total Training Time (Hours)</tspan></text>
<g clip-path="url(#clip_15)">
<path transform="matrix(1,0,0,-1,0,405.14564)" stroke-width=".8" stroke-linecap="butt" stroke-dasharray="2.96,1.28" stroke-linejoin="round" fill="none" stroke="#b0b0b0" stroke-opacity=".6" d="M55.996877 108.18144H390.79689"/>
</g>
<path transform="matrix(1,0,0,-1,0,405.14564)" d="M55.996877 108.18144H52.496877"/>
<path transform="matrix(1,0,0,-1,0,405.14564)" stroke-width=".8" stroke-linecap="butt" stroke-linejoin="round" fill="none" stroke="#000000" d="M55.996877 108.18144H52.496877"/>
<text xml:space="preserve" transform="matrix(1 0 -0 1 38.809377 303.0423)" font-size="16" font-family="DejaVuSans"><tspan y="0" x="0">5</tspan></text>
<g clip-path="url(#clip_16)">
<path transform="matrix(1,0,0,-1,0,405.14564)" stroke-width=".8" stroke-linecap="butt" stroke-dasharray="2.96,1.28" stroke-linejoin="round" fill="none" stroke="#b0b0b0" stroke-opacity=".6" d="M55.996877 143.71991H390.79689"/>
</g>
<path transform="matrix(1,0,0,-1,0,405.14564)" d="M55.996877 143.71991H52.496877"/>
<path transform="matrix(1,0,0,-1,0,405.14564)" stroke-width=".8" stroke-linecap="butt" stroke-linejoin="round" fill="none" stroke="#000000" d="M55.996877 143.71991H52.496877"/>
<text xml:space="preserve" transform="matrix(1 0 -0 1 28.621876 267.50386)" font-size="16" font-family="DejaVuSans"><tspan y="0" x="0 10.176001">10</tspan></text>
<g clip-path="url(#clip_17)">
<path transform="matrix(1,0,0,-1,0,405.14564)" stroke-width=".8" stroke-linecap="butt" stroke-dasharray="2.96,1.28" stroke-linejoin="round" fill="none" stroke="#b0b0b0" stroke-opacity=".6" d="M55.996877 179.25836H390.79689"/>
</g>
<path transform="matrix(1,0,0,-1,0,405.14564)" d="M55.996877 179.25836H52.496877"/>
<path transform="matrix(1,0,0,-1,0,405.14564)" stroke-width=".8" stroke-linecap="butt" stroke-linejoin="round" fill="none" stroke="#000000" d="M55.996877 179.25836H52.496877"/>
<text xml:space="preserve" transform="matrix(1 0 -0 1 28.621876 231.9654)" font-size="16" font-family="DejaVuSans"><tspan y="0" x="0 10.176001">15</tspan></text>
<g clip-path="url(#clip_18)">
<path transform="matrix(1,0,0,-1,0,405.14564)" stroke-width=".8" stroke-linecap="butt" stroke-dasharray="2.96,1.28" stroke-linejoin="round" fill="none" stroke="#b0b0b0" stroke-opacity=".6" d="M55.996877 214.79683H390.79689"/>
</g>
<path transform="matrix(1,0,0,-1,0,405.14564)" d="M55.996877 214.79683H52.496877"/>
<path transform="matrix(1,0,0,-1,0,405.14564)" stroke-width=".8" stroke-linecap="butt" stroke-linejoin="round" fill="none" stroke="#000000" d="M55.996877 214.79683H52.496877"/>
<text xml:space="preserve" transform="matrix(1 0 -0 1 28.621876 196.42693)" font-size="16" font-family="DejaVuSans"><tspan y="0" x="0 10.176001">20</tspan></text>
<g clip-path="url(#clip_19)">
<path transform="matrix(1,0,0,-1,0,405.14564)" stroke-width=".8" stroke-linecap="butt" stroke-dasharray="2.96,1.28" stroke-linejoin="round" fill="none" stroke="#b0b0b0" stroke-opacity=".6" d="M55.996877 250.33528H390.79689"/>
</g>
<path transform="matrix(1,0,0,-1,0,405.14564)" d="M55.996877 250.33528H52.496877"/>
<path transform="matrix(1,0,0,-1,0,405.14564)" stroke-width=".8" stroke-linecap="butt" stroke-linejoin="round" fill="none" stroke="#000000" d="M55.996877 250.33528H52.496877"/>
<text xml:space="preserve" transform="matrix(1 0 -0 1 28.621876 160.88848)" font-size="16" font-family="DejaVuSans"><tspan y="0" x="0 10.176001">25</tspan></text>
<g clip-path="url(#clip_20)">
<path transform="matrix(1,0,0,-1,0,405.14564)" stroke-width=".8" stroke-linecap="butt" stroke-dasharray="2.96,1.28" stroke-linejoin="round" fill="none" stroke="#b0b0b0" stroke-opacity=".6" d="M55.996877 285.87376H390.79689"/>
</g>
<path transform="matrix(1,0,0,-1,0,405.14564)" d="M55.996877 285.87376H52.496877"/>
<path transform="matrix(1,0,0,-1,0,405.14564)" stroke-width=".8" stroke-linecap="butt" stroke-linejoin="round" fill="none" stroke="#000000" d="M55.996877 285.87376H52.496877"/>
<text xml:space="preserve" transform="matrix(1 0 -0 1 28.621876 125.350009)" font-size="16" font-family="DejaVuSans"><tspan y="0" x="0 10.176001">30</tspan></text>
<g clip-path="url(#clip_21)">
<path transform="matrix(1,0,0,-1,0,405.14564)" stroke-width=".8" stroke-linecap="butt" stroke-dasharray="2.96,1.28" stroke-linejoin="round" fill="none" stroke="#b0b0b0" stroke-opacity=".6" d="M55.996877 321.4122H390.79689"/>
</g>
<path transform="matrix(1,0,0,-1,0,405.14564)" d="M55.996877 321.4122H52.496877"/>
<path transform="matrix(1,0,0,-1,0,405.14564)" stroke-width=".8" stroke-linecap="butt" stroke-linejoin="round" fill="none" stroke="#000000" d="M55.996877 321.4122H52.496877"/>
<text xml:space="preserve" transform="matrix(1 0 -0 1 28.621876 89.811557)" font-size="16" font-family="DejaVuSans"><tspan y="0" x="0 10.176001">35</tspan></text>
<g clip-path="url(#clip_22)">
<path transform="matrix(1,0,0,-1,0,405.14564)" stroke-width=".8" stroke-linecap="butt" stroke-dasharray="2.96,1.28" stroke-linejoin="round" fill="none" stroke="#b0b0b0" stroke-opacity=".6" d="M55.996877 356.95069H390.79689"/>
</g>
<path transform="matrix(1,0,0,-1,0,405.14564)" d="M55.996877 356.95069H52.496877"/>
<path transform="matrix(1,0,0,-1,0,405.14564)" stroke-width=".8" stroke-linecap="butt" stroke-linejoin="round" fill="none" stroke="#000000" d="M55.996877 356.95069H52.496877"/>
<text xml:space="preserve" transform="matrix(1 0 -0 1 28.621876 54.27307)" font-size="16" font-family="DejaVuSans"><tspan y="0" x="0 10.176001">40</tspan></text>
<text fill="#d62728" xml:space="preserve" transform="matrix(0 -1 1 0 20.871876 228.94063)" font-size="18" font-family="DejaVuSans"><tspan y="0" x="0 11.265125 21.921126 33.351129 39.075128 44.799127 56.798627 66.69862 76.598628 88.01063 95.40863 106.44263 116.34263">Avg. Accuracy</tspan></text>
<g clip-path="url(#clip_23)">
<path transform="matrix(1,0,0,-1,0,405.14564)" stroke-width="1.5" stroke-linecap="square" stroke-linejoin="round" fill="none" stroke="#d62728" d="M55.996877 327.9513H390.79689"/>
</g>
<g clip-path="url(#clip_24)">
<path transform="matrix(1,0,0,-1,0,405.14564)" stroke-width="1.5" stroke-linecap="butt" stroke-dasharray="5.55,2.4" stroke-linejoin="round" fill="none" stroke="#d62728" d="M55.996877 372.30329H390.79689"/>
</g>
<path transform="matrix(1,0,0,-1,0,405.14564)" stroke-width="1.5" stroke-linecap="square" stroke-miterlimit="10" stroke-linejoin="miter" fill="none" stroke="#000000" d="M55.996877 101.07375V378.27375"/>
<path transform="matrix(1,0,0,-1,0,405.14564)" stroke-width="1.5" stroke-linecap="square" stroke-miterlimit="10" stroke-linejoin="miter" fill="none" stroke="#000000" d="M390.79689 101.07375V378.27375"/>
<path transform="matrix(1,0,0,-1,0,405.14564)" stroke-width="1.5" stroke-linecap="square" stroke-miterlimit="10" stroke-linejoin="miter" fill="none" stroke="#000000" d="M55.996877 101.07375H390.79689"/>
<path transform="matrix(1,0,0,-1,0,405.14564)" stroke-width="1.5" stroke-linecap="square" stroke-miterlimit="10" stroke-linejoin="miter" fill="none" stroke="#000000" d="M55.996877 378.27375H390.79689"/>
<text xml:space="preserve" transform="matrix(1 0 -0 1 97.66087 295.9712)" font-size="16" font-family="DejaVuSans"><tspan y="0" x="0 9.963751 19.73975">RTN</tspan></text>
<text xml:space="preserve" transform="matrix(1 0 -0 1 97.66087 274.16099)" font-size="16" font-family="DejaVuSans"><tspan y="0" x="0 12.400001 22.048 31.824002">GPTQ</tspan></text>
<text xml:space="preserve" transform="matrix(1 0 -0 1 97.66087 126.88959)" font-size="16" font-family="DejaVuSans"><tspan y="0" x="0 12.592001 22.736 32.544 42.94525 52.73725">QuaRot</tspan></text>
<text xml:space="preserve" transform="matrix(1 0 -0 1 194.38088 121.914218)" font-size="16" font-family="DejaVuSans"><tspan y="0" x="0 10.160001 20.320002 24.768002 34.912004 47.504007 57.648008 67.45601 77.600009">SpinQuant</tspan></text>
<text xml:space="preserve" transform="matrix(1 0 -0 1 246.46088 207.34868)" font-size="16" font-family="DejaVuSans"><tspan y="0" x="0 10.160001 19.936">STE</tspan></text>
<text xml:space="preserve" transform="matrix(1 0 -0 1 320.86088 103.93176)" font-size="16" font-family="DejaVuSans"><tspan y="0" x="0 12.320001 23.312 34.832 45.744005">RoSTE</tspan></text>
<text xml:space="preserve" transform="matrix(1 0 -0 1 8.69375 20.871888)" font-size="18" font-family="DejaVuSans"><tspan y="0" x="0 11.9995 21.899502 31.799504 43.211503 50.6095 61.6435 71.5435 82.1995 87.9235 98.5795 107.9575 113.681499 122.03887 129.43688 140.47087 145.47487 156.88687 161.89087 173.30287 184.73288 190.45688 200.908 205.912 223.444 234.514 240.238 247.25801 258.634 269.29 280.72 292.168 298.234 303.958 313.984 318.988 330.022 347.55403 358.588 364.312 375.76 381.484 392.932 398.656 410.104 422.452">Accuracy vs Training Time (Exp2: Llama 3.1 8B)</tspan></text>
<g>
<path transform="matrix(1,0,0,-1,0,405.14564)" d="M68.92812 7.2H377.86564C379.7323 7.2 380.66563 8.133333 380.66563 10V49.69375C380.66563 51.560419 379.7323 52.49375 377.86564 52.49375H68.92812C67.061458 52.49375 66.12813 51.560419 66.12813 49.69375V10C66.12813 8.133333 67.061458 7.2 68.92812 7.2Z" fill="#ffffff" fill-opacity=".7"/>
<path transform="matrix(1,0,0,-1,0,405.14564)" stroke-width="1" stroke-linecap="butt" stroke-miterlimit="10" stroke-linejoin="miter" fill="none" stroke="#000000" stroke-opacity=".7" d="M68.92812 7.2H377.86564C379.7323 7.2 380.66563 8.133333 380.66563 10V49.69375C380.66563 51.560419 379.7323 52.49375 377.86564 52.49375H68.92812C67.061458 52.49375 66.12813 51.560419 66.12813 49.69375V10C66.12813 8.133333 67.061458 7.2 68.92812 7.2Z"/>
</g>
<g>
<path transform="matrix(1,0,0,-1,0,405.14564)" d="M85.72813 48.8724 76.78385 30.983853H94.67239Z" fill="#d62728" fill-opacity=".7"/>
<path transform="matrix(1,0,0,-1,0,405.14564)" stroke-width="1" stroke-linecap="butt" stroke-linejoin="round" fill="none" stroke="#d62728" stroke-opacity=".7" d="M85.72813 48.8724 76.78385 30.983853H94.67239Z"/>
</g>
<text xml:space="preserve" transform="matrix(1 0 -0 1 110.92812 368.89253)" font-size="14" font-family="DejaVuSans"><tspan y="0" x="0 8.89 16.705628 25.259629 36.99163 45.43363 53.987634 65.00563 69.457637 74.91763 83.82163 88.273639 97.163639 101.05563 106.54363">SFT+PTQ (4 bit)</tspan></text>
<g>
<path transform="matrix(1,0,0,-1,0,405.14564)" d="M85.72813 10.436978C88.100177 10.436978 90.37539 11.379403 92.05268 13.056695 93.72997 14.733986 94.67239 17.009202 94.67239 19.38125 94.67239 21.7533 93.72997 24.028515 92.05268 25.705805 90.37539 27.383097 88.100177 28.325522 85.72813 28.325522 83.35608 28.325522 81.080867 27.383097 79.40357 25.705805 77.72628 24.028515 76.78385 21.7533 76.78385 19.38125 76.78385 17.009202 77.72628 14.733986 79.40357 13.056695 81.080867 11.379403 83.35608 10.436978 85.72813 10.436978Z" fill="#d62728" fill-opacity=".7"/>
<path transform="matrix(1,0,0,-1,0,405.14564)" stroke-width="1" stroke-linecap="butt" stroke-linejoin="round" fill="none" stroke="#d62728" stroke-opacity=".7" d="M85.72813 10.436978C88.100177 10.436978 90.37539 11.379403 92.05268 13.056695 93.72997 14.733986 94.67239 17.009202 94.67239 19.38125 94.67239 21.7533 93.72997 24.028515 92.05268 25.705805 90.37539 27.383097 88.100177 28.325522 85.72813 28.325522 83.35608 28.325522 81.080867 27.383097 79.40357 25.705805 77.72628 24.028515 76.78385 21.7533 76.78385 19.38125 76.78385 17.009202 77.72628 14.733986 79.40357 13.056695 81.080867 11.379403 83.35608 10.436978 85.72813 10.436978Z"/>
</g>
<text xml:space="preserve" transform="matrix(1 0 -0 1 110.92812 389.4394)" font-size="14" font-family="DejaVuSans"><tspan y="0" x="0 11.018001 20.297127 25.351128 34.241128 42.056756 50.610757 55.062757 60.522756 69.42676 73.87876 82.76876 86.66076 92.14876">QA-SFT (4 bit)</tspan></text>
<path transform="matrix(1,0,0,-1,0,405.14564)" stroke-width="1.5" stroke-linecap="square" stroke-linejoin="round" fill="none" stroke="#d62728" d="M250.9125 41.153127H264.9125 278.9125"/>
<text xml:space="preserve" transform="matrix(1 0 -0 1 290.1125 368.89253)" font-size="14" font-family="DejaVuSans"><tspan y="0" x="0 9.604001 18.186 25.480002 34.090005 38.542005 44.002004 53.606004 61.656007 70.560009 79.464008">Base (BF16)</tspan></text>
<path transform="matrix(1,0,0,-1,0,405.14564)" stroke-width="1.5" stroke-linecap="butt" stroke-dasharray="5.55,2.4" stroke-linejoin="round" fill="none" stroke="#d62728" d="M250.9125 20.60625H264.9125 278.9125"/>
<text xml:space="preserve" transform="matrix(1 0 -0 1 290.1125 389.4394)" font-size="14" font-family="DejaVuSans"><tspan y="0" x="0 8.89 16.705628 25.259629 29.711628 35.171628 44.775629 52.82563 61.72963 70.63363">SFT (BF16)</tspan></text>
</svg>
