<svg xmlns="http://www.w3.org/2000/svg" xmlns:xlink="http://www.w3.org/1999/xlink" xmlns:inkscape="http://www.inkscape.org/namespaces/inkscape" version="1.1" width="437.40937" height="405.14564" viewBox="0 0 437.40937 405.14564">
<defs>
<clipPath id="clip_0">
<path transform="matrix(1,0,0,-1,0,405.14564)" d="M55.996877 101.07375H390.79689V378.27378H55.996877Z"/>
</clipPath>
<clipPath id="clip_1">
<path transform="matrix(1,0,0,-1,0,405.14564)" d="M55.996877 101.07375H390.79689V378.27378H55.996877Z"/>
</clipPath>
<clipPath id="clip_2">
<path transform="matrix(1,0,0,-1,0,405.14564)" d="M55.996877 101.07375H390.79689V378.27378H55.996877Z"/>
</clipPath>
<clipPath id="clip_3">
<path transform="matrix(1,0,0,-1,0,405.14564)" d="M55.996877 101.07375H390.79689V378.27378H55.996877Z"/>
</clipPath>
<clipPath id="clip_4">
<path transform="matrix(1,0,0,-1,0,405.14564)" d="M55.996877 101.07375H390.79689V378.27378H55.996877Z"/>
</clipPath>
<clipPath id="clip_5">
<path transform="matrix(1,0,0,-1,0,405.14564)" d="M55.996877 101.07375H390.79689V378.27378H55.996877Z"/>
</clipPath>
<clipPath id="clip_6">
<path transform="matrix(1,0,0,-1,0,405.14564)" d="M55.996877 101.07375H390.79689V378.27378H55.996877Z"/>
</clipPath>
<clipPath id="clip_7">
<path transform="matrix(1,0,0,-1,0,405.14564)" d="M55.996877 101.07375H390.79689V378.27378H55.996877Z"/>
</clipPath>
<clipPath id="clip_8">
<path transform="matrix(1,0,0,-1,0,405.14564)" d="M55.996877 101.07375H390.79689V378.27378H55.996877Z"/>
</clipPath>
<clipPath id="clip_9">
<path transform="matrix(1,0,0,-1,0,405.14564)" d="M55.996877 101.07375H390.79689V378.27378H55.996877Z"/>
</clipPath>
<clipPath id="clip_10">
<path transform="matrix(1,0,0,-1,0,405.14564)" d="M55.996877 101.07375H390.79689V378.27378H55.996877Z"/>
</clipPath>
<clipPath id="clip_11">
<path transform="matrix(1,0,0,-1,0,405.14564)" d="M55.996877 101.07375H390.79689V378.27378H55.996877Z"/>
</clipPath>
<clipPath id="clip_12">
<path transform="matrix(1,0,0,-1,0,405.14564)" d="M55.996877 101.07375H390.79689V378.27378H55.996877Z"/>
</clipPath>
<clipPath id="clip_13">
<path transform="matrix(1,0,0,-1,0,405.14564)" d="M55.996877 101.07375H390.79689V378.27378H55.996877Z"/>
</clipPath>
<clipPath id="clip_14">
<path transform="matrix(1,0,0,-1,0,405.14564)" d="M55.996877 101.07375H390.79689V378.27378H55.996877Z"/>
</clipPath>
<clipPath id="clip_15">
<path transform="matrix(1,0,0,-1,0,405.14564)" d="M55.996877 101.07375H390.79689V378.27378H55.996877Z"/>
</clipPath>
<clipPath id="clip_16">
<path transform="matrix(1,0,0,-1,0,405.14564)" d="M55.996877 101.07375H390.79689V378.27378H55.996877Z"/>
</clipPath>
<clipPath id="clip_17">
<path transform="matrix(1,0,0,-1,0,405.14564)" d="M55.996877 101.07375H390.79689V378.27378H55.996877Z"/>
</clipPath>
</defs>
<path transform="matrix(1,0,0,-1,0,405.14564)" d="M0 0H437.40937V405.14564H0Z" fill="#ffffff"/>
<path transform="matrix(1,0,0,-1,0,405.14564)" d="M55.996877 101.07375H390.79689V378.27375H55.996877Z" fill="#ffffff"/>
<g clip-path="url(#clip_0)">
<g>
<path transform="matrix(1,0,0,-1,0,405.14564)" d="M86.43324 138.04575 75.2529 115.68506H97.61358Z" fill="#1f77b4" fill-opacity=".7"/>
<path transform="matrix(1,0,0,-1,0,405.14564)" stroke-width="1" stroke-linecap="butt" stroke-linejoin="round" fill="none" stroke="#1f77b4" stroke-opacity=".7" d="M86.43324 138.04575 75.2529 115.68506H97.61358Z"/>
</g>
</g>
<g clip-path="url(#clip_1)">
<g>
<path transform="matrix(1,0,0,-1,0,405.14564)" d="M86.43324 145.15653 75.2529 122.795848H97.61358Z" fill="#1f77b4" fill-opacity=".7"/>
<path transform="matrix(1,0,0,-1,0,405.14564)" stroke-width="1" stroke-linecap="butt" stroke-linejoin="round" fill="none" stroke="#1f77b4" stroke-opacity=".7" d="M86.43324 145.15653 75.2529 122.795848H97.61358Z"/>
</g>
</g>
<g clip-path="url(#clip_2)">
<g>
<path transform="matrix(1,0,0,-1,0,405.14564)" d="M86.43324 166.00679 75.2529 143.6461H97.61358Z" fill="#1f77b4" fill-opacity=".7"/>
<path transform="matrix(1,0,0,-1,0,405.14564)" stroke-width="1" stroke-linecap="butt" stroke-linejoin="round" fill="none" stroke="#1f77b4" stroke-opacity=".7" d="M86.43324 166.00679 75.2529 143.6461H97.61358Z"/>
</g>
</g>
<g clip-path="url(#clip_3)">
<g>
<path transform="matrix(1,0,0,-1,0,405.14564)" d="M284.2696 151.06209 273.08927 128.70142H295.44996Z" fill="#1f77b4" fill-opacity=".7"/>
<path transform="matrix(1,0,0,-1,0,405.14564)" stroke-width="1" stroke-linecap="butt" stroke-linejoin="round" fill="none" stroke="#1f77b4" stroke-opacity=".7" d="M284.2696 151.06209 273.08927 128.70142H295.44996Z"/>
</g>
</g>
<g clip-path="url(#clip_4)">
<g>
<path transform="matrix(1,0,0,-1,0,405.14564)" d="M132.08779 278.50993C135.05284 278.50993 137.89687 279.68797 139.99349 281.78459 142.09009 283.8812 143.26813 286.72523 143.26813 289.69029 143.26813 292.65534 142.09009 295.49937 139.99349 297.59599 137.89687 299.69258 135.05284 300.8706 132.08779 300.8706 129.12273 300.8706 126.2787 299.69258 124.18209 297.59599 122.08547 295.49937 120.90744 292.65534 120.90744 289.69029 120.90744 286.72523 122.08547 283.8812 124.18209 281.78459 126.2787 279.68797 129.12273 278.50993 132.08779 278.50993Z" fill="#1f77b4" fill-opacity=".7"/>
<path transform="matrix(1,0,0,-1,0,405.14564)" stroke-width="1" stroke-linecap="butt" stroke-linejoin="round" fill="none" stroke="#1f77b4" stroke-opacity=".7" d="M132.08779 278.50993C135.05284 278.50993 137.89687 279.68797 139.99349 281.78459 142.09009 283.8812 143.26813 286.72523 143.26813 289.69029 143.26813 292.65534 142.09009 295.49937 139.99349 297.59599 137.89687 299.69258 135.05284 300.8706 132.08779 300.8706 129.12273 300.8706 126.2787 299.69258 124.18209 297.59599 122.08547 295.49937 120.90744 292.65534 120.90744 289.69029 120.90744 286.72523 122.08547 283.8812 124.18209 281.78459 126.2787 279.68797 129.12273 278.50993 132.08779 278.50993Z"/>
</g>
</g>
<g clip-path="url(#clip_5)">
<g>
<path transform="matrix(1,0,0,-1,0,405.14564)" d="M192.96051 338.89134C195.92557 338.89134 198.76959 340.06938 200.86621 342.16596 202.96282 344.26258 204.14086 347.1066 204.14086 350.07167 204.14086 353.0367 202.96282 355.88075 200.86621 357.97737 198.76959 360.07398 195.92557 361.252 192.96051 361.252 189.99546 361.252 187.15143 360.07398 185.05481 357.97737 182.9582 355.88075 181.78017 353.0367 181.78017 350.07167 181.78017 347.1066 182.9582 344.26258 185.05481 342.16596 187.15143 340.06938 189.99546 338.89134 192.96051 338.89134Z" fill="#1f77b4" fill-opacity=".7"/>
<path transform="matrix(1,0,0,-1,0,405.14564)" stroke-width="1" stroke-linecap="butt" stroke-linejoin="round" fill="none" stroke="#1f77b4" stroke-opacity=".7" d="M192.96051 338.89134C195.92557 338.89134 198.76959 340.06938 200.86621 342.16596 202.96282 344.26258 204.14086 347.1066 204.14086 350.07167 204.14086 353.0367 202.96282 355.88075 200.86621 357.97737 198.76959 360.07398 195.92557 361.252 192.96051 361.252 189.99546 361.252 187.15143 360.07398 185.05481 357.97737 182.9582 355.88075 181.78017 353.0367 181.78017 350.07167 181.78017 347.1066 182.9582 344.26258 185.05481 342.16596 187.15143 340.06938 189.99546 338.89134 192.96051 338.89134Z"/>
</g>
</g>
<g clip-path="url(#clip_6)">
<path transform="matrix(1,0,0,-1,0,405.14564)" stroke-width=".8" stroke-linecap="butt" stroke-dasharray="2.96,1.28" stroke-linejoin="round" fill="none" stroke="#b0b0b0" stroke-opacity=".6" d="M71.21506 101.07375V378.27375"/>
</g>
<path transform="matrix(1,0,0,-1,0,405.14564)" d="M71.21506 101.07375V97.57375"/>
<path transform="matrix(1,0,0,-1,0,405.14564)" stroke-width=".8" stroke-linecap="butt" stroke-linejoin="round" fill="none" stroke="#000000" d="M71.21506 101.07375V97.57375"/>
<text xml:space="preserve" transform="matrix(1 0 -0 1 58.480684 323.22813)" font-size="16" font-family="DejaVuSans"><tspan y="0" x="0 10.176001 15.264001">2.0</tspan></text>
<g clip-path="url(#clip_7)">
<path transform="matrix(1,0,0,-1,0,405.14564)" stroke-width=".8" stroke-linecap="butt" stroke-dasharray="2.96,1.28" stroke-linejoin="round" fill="none" stroke="#b0b0b0" stroke-opacity=".6" d="M147.30597 101.07375V378.27375"/>
</g>
<path transform="matrix(1,0,0,-1,0,405.14564)" d="M147.30597 101.07375V97.57375"/>
<path transform="matrix(1,0,0,-1,0,405.14564)" stroke-width=".8" stroke-linecap="butt" stroke-linejoin="round" fill="none" stroke="#000000" d="M147.30597 101.07375V97.57375"/>
<text xml:space="preserve" transform="matrix(1 0 -0 1 134.5716 323.22813)" font-size="16" font-family="DejaVuSans"><tspan y="0" x="0 10.176001 15.264001">2.5</tspan></text>
<g clip-path="url(#clip_8)">
<path transform="matrix(1,0,0,-1,0,405.14564)" stroke-width=".8" stroke-linecap="butt" stroke-dasharray="2.96,1.28" stroke-linejoin="round" fill="none" stroke="#b0b0b0" stroke-opacity=".6" d="M223.39688 101.07375V378.27375"/>
</g>
<path transform="matrix(1,0,0,-1,0,405.14564)" d="M223.39688 101.07375V97.57375"/>
<path transform="matrix(1,0,0,-1,0,405.14564)" stroke-width=".8" stroke-linecap="butt" stroke-linejoin="round" fill="none" stroke="#000000" d="M223.39688 101.07375V97.57375"/>
<text xml:space="preserve" transform="matrix(1 0 -0 1 210.6625 323.22813)" font-size="16" font-family="DejaVuSans"><tspan y="0" x="0 10.176001 15.264001">3.0</tspan></text>
<g clip-path="url(#clip_9)">
<path transform="matrix(1,0,0,-1,0,405.14564)" stroke-width=".8" stroke-linecap="butt" stroke-dasharray="2.96,1.28" stroke-linejoin="round" fill="none" stroke="#b0b0b0" stroke-opacity=".6" d="M299.4878 101.07375V378.27375"/>
</g>
<path transform="matrix(1,0,0,-1,0,405.14564)" d="M299.4878 101.07375V97.57375"/>
<path transform="matrix(1,0,0,-1,0,405.14564)" stroke-width=".8" stroke-linecap="butt" stroke-linejoin="round" fill="none" stroke="#000000" d="M299.4878 101.07375V97.57375"/>
<text xml:space="preserve" transform="matrix(1 0 -0 1 286.75343 323.22813)" font-size="16" font-family="DejaVuSans"><tspan y="0" x="0 10.176001 15.264001">3.5</tspan></text>
<g clip-path="url(#clip_10)">
<path transform="matrix(1,0,0,-1,0,405.14564)" stroke-width=".8" stroke-linecap="butt" stroke-dasharray="2.96,1.28" stroke-linejoin="round" fill="none" stroke="#b0b0b0" stroke-opacity=".6" d="M375.5787 101.07375V378.27375"/>
</g>
<path transform="matrix(1,0,0,-1,0,405.14564)" d="M375.5787 101.07375V97.57375"/>
<path transform="matrix(1,0,0,-1,0,405.14564)" stroke-width=".8" stroke-linecap="butt" stroke-linejoin="round" fill="none" stroke="#000000" d="M375.5787 101.07375V97.57375"/>
<text xml:space="preserve" transform="matrix(1 0 -0 1 362.84434 323.22813)" font-size="16" font-family="DejaVuSans"><tspan y="0" x="0 10.176001 15.264001">4.0</tspan></text>
<text xml:space="preserve" transform="matrix(1 0 -0 1 102.7875 344.22813)" font-size="18" font-family="DejaVuSans"><tspan y="0" x="0 7.951125 18.967125 26.023125 37.057126 42.061128 47.785127 56.1425 63.5405 74.5745 79.5785 90.9905 95.9945 107.4065 118.8365 124.5605 135.01163 140.01563 157.54763 168.61762 174.34162 181.36162 194.89762 205.91362 217.32563 224.72362 234.10163">Total Training Time (Hours)</tspan></text>
<g clip-path="url(#clip_11)">
<path transform="matrix(1,0,0,-1,0,405.14564)" stroke-width=".8" stroke-linecap="butt" stroke-dasharray="2.96,1.28" stroke-linejoin="round" fill="none" stroke="#b0b0b0" stroke-opacity=".6" d="M55.996877 125.1781H390.79689"/>
</g>
<path transform="matrix(1,0,0,-1,0,405.14564)" d="M55.996877 125.1781H52.496877"/>
<path transform="matrix(1,0,0,-1,0,405.14564)" stroke-width=".8" stroke-linecap="butt" stroke-linejoin="round" fill="none" stroke="#000000" d="M55.996877 125.1781H52.496877"/>
<text xml:space="preserve" transform="matrix(1 0 -0 1 38.809377 286.04566)" font-size="16" font-family="DejaVuSans"><tspan y="0" x="0">5</tspan></text>
<g clip-path="url(#clip_12)">
<path transform="matrix(1,0,0,-1,0,405.14564)" stroke-width=".8" stroke-linecap="butt" stroke-dasharray="2.96,1.28" stroke-linejoin="round" fill="none" stroke="#b0b0b0" stroke-opacity=".6" d="M55.996877 185.43897H390.79689"/>
</g>
<path transform="matrix(1,0,0,-1,0,405.14564)" d="M55.996877 185.43897H52.496877"/>
<path transform="matrix(1,0,0,-1,0,405.14564)" stroke-width=".8" stroke-linecap="butt" stroke-linejoin="round" fill="none" stroke="#000000" d="M55.996877 185.43897H52.496877"/>
<text xml:space="preserve" transform="matrix(1 0 -0 1 28.621876 225.78479)" font-size="16" font-family="DejaVuSans"><tspan y="0" x="0 10.176001">10</tspan></text>
<g clip-path="url(#clip_13)">
<path transform="matrix(1,0,0,-1,0,405.14564)" stroke-width=".8" stroke-linecap="butt" stroke-dasharray="2.96,1.28" stroke-linejoin="round" fill="none" stroke="#b0b0b0" stroke-opacity=".6" d="M55.996877 245.69985H390.79689"/>
</g>
<path transform="matrix(1,0,0,-1,0,405.14564)" d="M55.996877 245.69985H52.496877"/>
<path transform="matrix(1,0,0,-1,0,405.14564)" stroke-width=".8" stroke-linecap="butt" stroke-linejoin="round" fill="none" stroke="#000000" d="M55.996877 245.69985H52.496877"/>
<text xml:space="preserve" transform="matrix(1 0 -0 1 28.621876 165.52393)" font-size="16" font-family="DejaVuSans"><tspan y="0" x="0 10.176001">15</tspan></text>
<g clip-path="url(#clip_14)">
<path transform="matrix(1,0,0,-1,0,405.14564)" stroke-width=".8" stroke-linecap="butt" stroke-dasharray="2.96,1.28" stroke-linejoin="round" fill="none" stroke="#b0b0b0" stroke-opacity=".6" d="M55.996877 305.9607H390.79689"/>
</g>
<path transform="matrix(1,0,0,-1,0,405.14564)" d="M55.996877 305.9607H52.496877"/>
<path transform="matrix(1,0,0,-1,0,405.14564)" stroke-width=".8" stroke-linecap="butt" stroke-linejoin="round" fill="none" stroke="#000000" d="M55.996877 305.9607H52.496877"/>
<text xml:space="preserve" transform="matrix(1 0 -0 1 28.621876 105.26306)" font-size="16" font-family="DejaVuSans"><tspan y="0" x="0 10.176001">20</tspan></text>
<g clip-path="url(#clip_15)">
<path transform="matrix(1,0,0,-1,0,405.14564)" stroke-width=".8" stroke-linecap="butt" stroke-dasharray="2.96,1.28" stroke-linejoin="round" fill="none" stroke="#b0b0b0" stroke-opacity=".6" d="M55.996877 366.2216H390.79689"/>
</g>
<path transform="matrix(1,0,0,-1,0,405.14564)" d="M55.996877 366.2216H52.496877"/>
<path transform="matrix(1,0,0,-1,0,405.14564)" stroke-width=".8" stroke-linecap="butt" stroke-linejoin="round" fill="none" stroke="#000000" d="M55.996877 366.2216H52.496877"/>
<text xml:space="preserve" transform="matrix(1 0 -0 1 28.621876 45.002168)" font-size="16" font-family="DejaVuSans"><tspan y="0" x="0 10.176001">25</tspan></text>
<text fill="#1f77b4" xml:space="preserve" transform="matrix(0 -1 1 0 20.871876 248.55782)" font-size="18" font-family="DejaVuSans"><tspan y="0" x="0 11.265125 21.921126 33.351129 39.075128 44.799127 57.309129 71.47513 84.65113 98.601139 109.977138 115.70113 127.131137 137.03113 148.04714 155.0545">Avg. ROUGE Score</tspan></text>
<g clip-path="url(#clip_16)">
<path transform="matrix(1,0,0,-1,0,405.14564)" stroke-width="1.5" stroke-linecap="square" stroke-linejoin="round" fill="none" stroke="#1f77b4" d="M55.996877 316.4461H390.79689"/>
</g>
<g clip-path="url(#clip_17)">
<path transform="matrix(1,0,0,-1,0,405.14564)" stroke-width="1.5" stroke-linecap="butt" stroke-dasharray="5.55,2.4" stroke-linejoin="round" fill="none" stroke="#1f77b4" d="M55.996877 362.84696H390.79689"/>
</g>
<path transform="matrix(1,0,0,-1,0,405.14564)" stroke-width="1.5" stroke-linecap="square" stroke-miterlimit="10" stroke-linejoin="miter" fill="none" stroke="#000000" d="M55.996877 101.07375V378.27375"/>
<path transform="matrix(1,0,0,-1,0,405.14564)" stroke-width="1.5" stroke-linecap="square" stroke-miterlimit="10" stroke-linejoin="miter" fill="none" stroke="#000000" d="M390.79689 101.07375V378.27375"/>
<path transform="matrix(1,0,0,-1,0,405.14564)" stroke-width="1.5" stroke-linecap="square" stroke-miterlimit="10" stroke-linejoin="miter" fill="none" stroke="#000000" d="M55.996877 101.07375H390.79689"/>
<path transform="matrix(1,0,0,-1,0,405.14564)" stroke-width="1.5" stroke-linecap="square" stroke-miterlimit="10" stroke-linejoin="miter" fill="none" stroke="#000000" d="M55.996877 378.27375H390.79689"/>
<text xml:space="preserve" transform="matrix(1 0 -0 1 98.60778 290.43647)" font-size="16" font-family="DejaVuSans"><tspan y="0" x="0 9.963751 19.73975">RTN</tspan></text>
<text xml:space="preserve" transform="matrix(1 0 -0 1 98.60778 267.8413)" font-size="16" font-family="DejaVuSans"><tspan y="0" x="0 12.400001 22.048 31.824002">GPTQ</tspan></text>
<text xml:space="preserve" transform="matrix(1 0 -0 1 98.60778 246.99106)" font-size="16" font-family="DejaVuSans"><tspan y="0" x="0 12.592001 22.736 32.544 42.94525 52.73725">QuaRot</tspan></text>
<text xml:space="preserve" transform="matrix(1 0 -0 1 296.44416 261.93577)" font-size="16" font-family="DejaVuSans"><tspan y="0" x="0 10.160001 20.320002 24.768002 34.912004 47.504007 57.648008 67.45601 77.600009">SpinQuant</tspan></text>
<text xml:space="preserve" transform="matrix(1 0 -0 1 144.26233 112.12723)" font-size="16" font-family="DejaVuSans"><tspan y="0" x="0 10.160001 19.936">STE</tspan></text>
<text xml:space="preserve" transform="matrix(1 0 -0 1 205.13506 67.230228)" font-size="16" font-family="DejaVuSans"><tspan y="0" x="0 12.320001 23.312 34.832 45.744005">RoSTE</tspan></text>
<text xml:space="preserve" transform="matrix(1 0 -0 1 16.584376 20.871888)" font-size="18" font-family="DejaVuSans"><tspan y="0" x="0 11.9995 21.899502 31.799504 43.211503 50.6095 61.6435 71.5435 82.1995 87.9235 98.5795 107.9575 113.681499 122.03887 129.43688 140.47087 145.47487 156.88687 161.89087 173.30287 184.73288 190.45688 200.908 205.912 223.444 234.514 240.238 247.25801 258.634 269.29 280.72 292.168 298.234 303.958 314.812 325.46803 332.52403 343.936 348.94 359.974 365.698 377.146 382.87 394.318 406.666">Accuracy vs Training Time (Exp1: Pythia 6.9B)</tspan></text>
<g>
<path transform="matrix(1,0,0,-1,0,405.14564)" d="M69.51406 7.2H377.2797C379.14637 7.2 380.07969 8.133333 380.07969 10V49.69375C380.07969 51.560419 379.14637 52.49375 377.2797 52.49375H69.51406C67.64739 52.49375 66.714069 51.560419 66.714069 49.69375V10C66.714069 8.133333 67.64739 7.2 69.51406 7.2Z" fill="#ffffff" fill-opacity=".7"/>
<path transform="matrix(1,0,0,-1,0,405.14564)" stroke-width="1" stroke-linecap="butt" stroke-miterlimit="10" stroke-linejoin="miter" fill="none" stroke="#000000" stroke-opacity=".7" d="M69.51406 7.2H377.2797C379.14637 7.2 380.07969 8.133333 380.07969 10V49.69375C380.07969 51.560419 379.14637 52.49375 377.2797 52.49375H69.51406C67.64739 52.49375 66.714069 51.560419 66.714069 49.69375V10C66.714069 8.133333 67.64739 7.2 69.51406 7.2Z"/>
</g>
<g>
<path transform="matrix(1,0,0,-1,0,405.14564)" d="M86.314067 48.8724 77.36979 30.983853H95.25833Z" fill="#1f77b4" fill-opacity=".7"/>
<path transform="matrix(1,0,0,-1,0,405.14564)" stroke-width="1" stroke-linecap="butt" stroke-linejoin="round" fill="none" stroke="#1f77b4" stroke-opacity=".7" d="M86.314067 48.8724 77.36979 30.983853H95.25833Z"/>
</g>
<text xml:space="preserve" transform="matrix(1 0 -0 1 111.51406 368.89253)" font-size="14" font-family="DejaVuSans"><tspan y="0" x="0 8.89 16.705628 25.259629 36.99163 45.43363 53.987634 65.00563 69.457637 74.91763 83.82163 88.273639 97.163639 101.05563 106.54363">SFT+PTQ (4 bit)</tspan></text>
<g>
<path transform="matrix(1,0,0,-1,0,405.14564)" d="M86.314067 10.436978C88.68611 10.436978 90.96133 11.379403 92.63862 13.056695 94.31591 14.733986 95.25833 17.009202 95.25833 19.38125 95.25833 21.7533 94.31591 24.028515 92.63862 25.705805 90.96133 27.383097 88.68611 28.325522 86.314067 28.325522 83.94202 28.325522 81.6668 27.383097 79.98951 25.705805 78.31222 24.028515 77.36979 21.7533 77.36979 19.38125 77.36979 17.009202 78.31222 14.733986 79.98951 13.056695 81.6668 11.379403 83.94202 10.436978 86.314067 10.436978Z" fill="#1f77b4" fill-opacity=".7"/>
<path transform="matrix(1,0,0,-1,0,405.14564)" stroke-width="1" stroke-linecap="butt" stroke-linejoin="round" fill="none" stroke="#1f77b4" stroke-opacity=".7" d="M86.314067 10.436978C88.68611 10.436978 90.96133 11.379403 92.63862 13.056695 94.31591 14.733986 95.25833 17.009202 95.25833 19.38125 95.25833 21.7533 94.31591 24.028515 92.63862 25.705805 90.96133 27.383097 88.68611 28.325522 86.314067 28.325522 83.94202 28.325522 81.6668 27.383097 79.98951 25.705805 78.31222 24.028515 77.36979 21.7533 77.36979 19.38125 77.36979 17.009202 78.31222 14.733986 79.98951 13.056695 81.6668 11.379403 83.94202 10.436978 86.314067 10.436978Z"/>
</g>
<text xml:space="preserve" transform="matrix(1 0 -0 1 111.51406 389.4394)" font-size="14" font-family="DejaVuSans"><tspan y="0" x="0 11.018001 20.297127 25.351128 34.241128 42.056756 50.610757 55.062757 60.522756 69.42676 73.87876 82.76876 86.66076 92.14876">QA-SFT (4 bit)</tspan></text>
<path transform="matrix(1,0,0,-1,0,405.14564)" stroke-width="1.5" stroke-linecap="square" stroke-linejoin="round" fill="none" stroke="#1f77b4" d="M251.49845 41.153127H265.49845 279.49845"/>
<text xml:space="preserve" transform="matrix(1 0 -0 1 290.69844 368.89253)" font-size="14" font-family="DejaVuSans"><tspan y="0" x="0 9.604001 18.186 25.480002 34.090005 38.542005 44.002004 52.052003 60.494005 69.398 78.302">Base (FP16)</tspan></text>
<path transform="matrix(1,0,0,-1,0,405.14564)" stroke-width="1.5" stroke-linecap="butt" stroke-dasharray="5.55,2.4" stroke-linejoin="round" fill="none" stroke="#1f77b4" d="M251.49845 20.60625H265.49845 279.49845"/>
<text xml:space="preserve" transform="matrix(1 0 -0 1 290.69844 389.4394)" font-size="14" font-family="DejaVuSans"><tspan y="0" x="0 8.89 16.705628 25.259629 29.711628 35.171628 43.221628 51.663629 60.567628 69.47163">SFT (FP16)</tspan></text>
</svg>
